<?xml version="1.0" encoding="UTF-8"?>
<svg width="44px" height="44px" viewBox="0 0 44 44" version="1.1" xmlns="http://www.w3.org/2000/svg" xmlns:xlink="http://www.w3.org/1999/xlink">
    <title>1</title>
    <defs>
        <linearGradient x1="50%" y1="0%" x2="50%" y2="100%" id="linearGradient-1">
            <stop stop-color="#EB2588" offset="0%"></stop>
            <stop stop-color="#F0B2D5" offset="100%"></stop>
        </linearGradient>
    </defs>
    <g id="页面-2" stroke="none" stroke-width="1" fill="none" fill-rule="evenodd">
        <g id="解决方案-冷归档" transform="translate(-350, -2520)">
            <g id="3备份" transform="translate(0, 1054)">
                <g id="编组-7" transform="translate(0, 1296)">
                    <g id="1" transform="translate(350, 170)">
                        <circle id="椭圆形" fill="url(#linearGradient-1)" cx="22" cy="22" r="22"></circle>
                        <g id="归档" transform="translate(12, 12)" fill="#FFFFFF" fill-rule="nonzero">
                            <path d="M19,8.3125 L19,17.8125 C19,18.4683381 18.4683381,19 17.8125,19 L1.1875,19 C0.53166186,19 0,18.4683381 0,17.8125 L0,8.3125 C0,7.65666186 0.53166186,7.125 1.1875,7.125 L17.8125,7.125 C18.4683381,7.125 19,7.65666186 19,8.3125 Z M16.625,9.5 L2.375,9.5 L2.375,16.625 L16.625,16.625 L16.625,9.5 Z M2.375,3.5625 L16.625,3.5625 C17.2808381,3.5625 17.8125,4.09416186 17.8125,4.75 C17.8125,5.40583814 17.2808381,5.9375 16.625,5.9375 L2.375,5.9375 C1.71916186,5.9375 1.1875,5.40583814 1.1875,4.75 C1.1875,4.09416186 1.71916186,3.5625 2.375,3.5625 Z M3.5625,0 L15.4375,0 C16.0933381,0 16.625,0.53166186 16.625,1.1875 C16.625,1.84333814 16.0933381,2.375 15.4375,2.375 L3.5625,2.375 C2.90666186,2.375 2.375,1.84333814 2.375,1.1875 C2.375,0.53166186 2.90666186,0 3.5625,0 Z M7.125,11.875 L11.875,11.875 C12.5308381,11.875 13.0625,12.4066619 13.0625,13.0625 C13.0625,13.7183381 12.5308381,14.25 11.875,14.25 L7.125,14.25 C6.46916186,14.25 5.9375,13.7183381 5.9375,13.0625 C5.9375,12.4066619 6.46916186,11.875 7.125,11.875 Z" id="形状"></path>
                        </g>
                    </g>
                </g>
            </g>
        </g>
    </g>
</svg>