<?xml version="1.0" encoding="UTF-8"?>
<svg width="44px" height="44px" viewBox="0 0 44 44" version="1.1" xmlns="http://www.w3.org/2000/svg" xmlns:xlink="http://www.w3.org/1999/xlink">
    <title>1备份</title>
    <defs>
        <linearGradient x1="50%" y1="0%" x2="50%" y2="100%" id="linearGradient-1">
            <stop stop-color="#EB2588" offset="0%"></stop>
            <stop stop-color="#F0B2D5" offset="100%"></stop>
        </linearGradient>
    </defs>
    <g id="页面-2" stroke="none" stroke-width="1" fill="none" fill-rule="evenodd">
        <g id="解决方案-冷归档" transform="translate(-986, -2520)">
            <g id="3备份" transform="translate(0, 1054)">
                <g id="编组-7" transform="translate(0, 1296)">
                    <g id="编组-4" transform="translate(350, 170)">
                        <g id="1备份" transform="translate(636, 0)">
                            <circle id="椭圆形" fill="url(#linearGradient-1)" cx="22" cy="22" r="22"></circle>
                            <g id="防病毒网关" transform="translate(11, 8)" fill="#FFFFFF" fill-rule="nonzero">
                                <path d="M16.6702703,10.0568182 L12.6486486,7.70454545 C12.2594594,7.44318182 11.7405405,7.44318182 11.3513514,7.70454545 L7.32972973,10.0568182 L12,12.7357955 L16.6702703,10.0568182 Z M6.35675676,16.4602273 C6.35675676,16.9176136 6.61621621,17.375 7.0054054,17.5710227 L11.027027,19.9232955 L11.027027,14.5 L6.35675676,11.7556818 L6.35675676,16.4602273 Z M12.972973,19.9232955 L16.9945946,17.5710227 C17.3837838,17.3096591 17.6432432,16.9176137 17.6432432,16.4602273 L17.6432432,11.7556818 L12.972973,14.5 L12.972973,19.9232955 L12.972973,19.9232955 Z M22.0540541,13.9119318 C22.7675676,13.9772727 23.4162162,14.1732954 24,14.4346591 L24,13.9119318 C24,9.14204547 21.2108108,4.96022727 17.1891892,3 C17.1891892,3.71875001 16.9945946,4.37215909 16.7351351,4.96022727 C19.9135135,6.65909092 22.054054,10.0568182 22.0540541,13.9119318 Z M2.01081083,14.6306818 C2.01081083,14.3693182 1.94594597,14.1079545 1.94594594,13.9119318 C1.94594594,10.0568182 4.08648648,6.65909092 7.26486488,4.96022727 C7.00540543,4.37215909 6.81081084,3.71875001 6.81081081,3 C2.78918918,4.96022727 0,9.14204544 0,13.9119318 C0,14.4346591 0.0648648547,14.8920455 0.12972974,15.4147727 C0.648648668,15.0227273 1.29729731,14.7613637 2.01081083,14.6306818 Z M17.6432432,22.3409091 C16.0216216,23.4517045 14.0756757,24.0397727 12,24.0397727 C10.2486487,24.0397727 8.62702704,23.5823864 7.13513514,22.7982954 C6.74594595,23.3863636 6.22702702,23.84375 5.70810812,24.1704545 C7.52432433,25.28125 9.66486487,26 12,26 C14.6594595,26 17.1243243,25.0852273 19.0702703,23.6477273 C18.5513513,23.3210227 18.0324324,22.8636364 17.6432432,22.3409091 L17.6432432,22.3409091 Z" id="形状"></path>
                                <path d="M9,3 C9,4.65685425 10.3431458,6 12,6 C13.6568542,6 15,4.65685425 15,3 C15,1.34314575 13.6568542,0 12,0 C10.3431458,0 9,1.34314575 9,3 L9,3 Z" id="路径"></path>
                                <path d="M0,20 C0,21.6568543 1.34314575,23 3,23 C4.65685425,23 6,21.6568543 6,20 C6,18.9282032 5.42820325,17.9378222 4.5,17.4019238 C3.57179678,16.8660254 2.42820322,16.8660254 1.5,17.4019238 C0.57179675,17.9378222 0,18.9282032 0,20 L0,20 Z" id="路径"></path>
                                <path d="M19,19 C19,20.6568542 20.3431458,22 22,22 C23.6568542,22 25,20.6568542 25,19 C25,17.3431458 23.6568542,16 22,16 C20.3431458,16 19,17.3431458 19,19 Z" id="路径"></path>
                            </g>
                        </g>
                    </g>
                </g>
            </g>
        </g>
    </g>
</svg>