<?xml version="1.0" encoding="UTF-8"?>
<svg width="44px" height="44px" viewBox="0 0 44 44" version="1.1" xmlns="http://www.w3.org/2000/svg" xmlns:xlink="http://www.w3.org/1999/xlink">
    <title>1备份 4</title>
    <defs>
        <linearGradient x1="50%" y1="0%" x2="50%" y2="100%" id="linearGradient-1">
            <stop stop-color="#EB2588" offset="0%"></stop>
            <stop stop-color="#F0B2D5" offset="100%"></stop>
        </linearGradient>
    </defs>
    <g id="页面-2" stroke="none" stroke-width="1" fill="none" fill-rule="evenodd">
        <g id="解决方案-冷归档" transform="translate(-350, -2652)">
            <g id="3备份" transform="translate(0, 1054)">
                <g id="编组-7" transform="translate(0, 1296)">
                    <g id="编组-4" transform="translate(350, 170)">
                        <g id="1备份-4" transform="translate(0, 132)">
                            <circle id="椭圆形" fill="url(#linearGradient-1)" cx="22" cy="22" r="22"></circle>
                            <g id="1-数据迁移" transform="translate(13, 12)" fill="#FFFFFF" fill-rule="nonzero">
                                <path d="M16.4090909,0 C17.8400105,0 19,1.15998951 19,2.5909091 L19,16.4090909 C19,17.8400105 17.8400105,19 16.4090909,19 L2.5909091,19 C1.15998951,19 0,17.8400105 0,16.4090909 L0,2.5909091 C0,1.15998951 1.15998951,0 2.5909091,0 L16.4090909,0 Z M16.4090909,1.72727273 L2.5909091,1.72727273 C2.1139359,1.72727273 1.72727273,2.1139359 1.72727273,2.5909091 L1.72727273,16.4090909 C1.72727273,16.8860641 2.1139359,17.2727273 2.5909091,17.2727273 L16.4090909,17.2727273 C16.8860641,17.2727273 17.2727273,16.8860641 17.2727273,16.4090909 L17.2727273,2.5909091 C17.2727273,2.1139359 16.8860641,1.72727273 16.4090909,1.72727273 L16.4090909,1.72727273 Z M14.6818182,10.3636364 C15.1587419,10.3637063 15.545328,10.750349 15.545328,11.2272727 C15.545328,11.7041965 15.1587419,12.0908392 14.6818182,12.0909091 L6.403,12.0909091 L6.65604545,12.3439545 C6.98333945,12.6828273 6.9786586,13.2214822 6.64552494,13.5546159 C6.31239127,13.8877495 5.77373633,13.8924304 5.43486363,13.5651364 L3.7075909,11.8378636 C3.1635,11.2937727 3.54868182,10.3636364 4.31818182,10.3636364 L14.6818182,10.3636364 Z M12.3439545,5.43486363 C12.6812044,5.09771559 13.2278865,5.09771559 13.5651364,5.43486363 L15.2924091,7.16213637 C15.8365,7.70622727 15.4513182,8.63636363 14.6818182,8.63636363 L4.31818182,8.63636363 C3.84125807,8.63629372 3.45467204,8.24965103 3.45467204,7.77272727 C3.45467204,7.2958035 3.84125807,6.90916081 4.31818182,6.9090909 L12.597,6.9090909 L12.3439545,6.65604545 C12.0068065,6.31879558 12.0068065,5.7721135 12.3439545,5.43486363 L12.3439545,5.43486363 Z" id="形状"></path>
                            </g>
                        </g>
                    </g>
                </g>
            </g>
        </g>
    </g>
</svg>