<?xml version="1.0" encoding="UTF-8"?>
<svg width="28px" height="28px" viewBox="0 0 28 28" version="1.1" xmlns="http://www.w3.org/2000/svg" xmlns:xlink="http://www.w3.org/1999/xlink">
    <title>形状</title>
    <g id="页面-1" stroke="none" stroke-width="1" fill="none" fill-rule="evenodd">
        <g id="产品-现代数据湖" transform="translate(-368, -1928)" fill="#8A8A8A" fill-rule="nonzero">
            <g id="编组-3" transform="translate(352, 1835)">
                <g id="搜索" transform="translate(16, 93)">
                    <path d="M11.6821443,2.19033162 C16.5375355,2.19810922 20.5979933,5.88200697 21.076231,10.7135577 C21.5549251,15.5451085 18.2957894,19.9541039 13.5366847,20.9137517 C8.77712357,21.8738559 4.06410848,19.0729437 2.63258947,14.433505 C1.20107046,9.79406634 3.5155953,4.82470595 7.98812248,2.93552761 C9.15679914,2.44118164 10.4132127,2.18773185 11.6821443,2.19033162 M11.6821443,0 C5.23049758,0 0,5.23037732 0,11.6818757 C0,18.133374 5.23049758,23.3637514 11.6821443,23.3637514 C18.133791,23.3637514 23.3642885,18.133374 23.3642885,11.6818757 C23.3642885,5.23037732 18.133791,0 11.6821443,0 L11.6821443,0 Z M26.9054385,27.9999979 C26.6147723,28.000568 26.3359438,27.8848987 26.1310401,27.6787442 L20.5820216,22.1298532 C20.1672142,21.6999967 20.1731466,21.0168808 20.5952553,20.5943255 C21.0178203,20.1717701 21.700952,20.1658379 22.130362,20.5810921 L27.6793806,26.129983 C27.9924132,26.4432157 28.0860538,26.9141089 27.9166741,27.3232684 C27.7476454,27.7327277 27.3484231,27.9998906 26.9054385,27.9999979 L26.9054385,27.9999979 Z" id="形状"></path>
                </g>
            </g>
        </g>
    </g>
</svg>