<svg xmlns="http://www.w3.org/2000/svg" width="24" height="23" xmlns:v="https://vecta.io/nano"><path d="M8.779.435c-1.265 0-2.29 1.01-2.29 2.256 0 .598.24 1.172.67 1.595a2.313 2.313 0 0 0 1.62.662h2.29V2.691c0-1.245-1.025-2.255-2.29-2.256m0 6.017H2.672c-1.264 0-2.29 1.01-2.29 2.257s1.026 2.257 2.29 2.257H8.78c1.264 0 2.29-1.01 2.29-2.257s-1.026-2.257-2.29-2.257m14.5 2.258c0-1.247-1.025-2.258-2.29-2.258s-2.289 1.01-2.289 2.257v2.257h2.29c1.266-.001 2.29-1.011 2.29-2.257m-6.106 0V2.691c0-1.245-1.024-2.255-2.29-2.256s-2.29 1.01-2.29 2.256V8.71c0 1.247 1.025 2.257 2.29 2.257s2.29-1.011 2.29-2.256m-2.29 14.291c1.266-.001 2.29-1.012 2.29-2.257s-1.024-2.255-2.29-2.256h-2.29v2.256c0 1.246 1.025 2.257 2.29 2.257m0-6.018h6.106c1.264 0 2.29-1.01 2.29-2.257s-1.024-2.255-2.29-2.257h-6.106c-1.265 0-2.29 1.011-2.29 2.257 0 .598.24 1.172.67 1.595s1.012.661 1.62.662M.383 14.727c0 .598.24 1.172.67 1.595a2.313 2.313 0 0 0 1.62.662c1.265-.001 2.29-1.012 2.29-2.257V12.47h-2.29c-1.265 0-2.29 1.011-2.29 2.257m6.106 0v6.018c0 1.246 1.025 2.257 2.29 2.257s2.29-1.012 2.29-2.257v-6.018c0-.598-.24-1.172-.67-1.595a2.311 2.311 0 0 0-1.62-.662c-1.265 0-2.29 1.011-2.29 2.257" fill="#fff"/></svg>