<?xml version="1.0" encoding="UTF-8"?>
<svg width="120px" height="32px" viewBox="0 0 120 32" version="1.1" xmlns="http://www.w3.org/2000/svg" xmlns:xlink="http://www.w3.org/1999/xlink">
    <title>docker</title>
    <g id="docker" stroke="none" stroke-width="1" fill="none" fill-rule="evenodd">
        <g id="docker备份" transform="translate(10.000000, 3.000000)" fill="currentColor" fill-rule="nonzero">
            <g id="image-(2)备份" transform="translate(0.000000, -0.000000)">
                <path d="M8.40374334,3.89393586 L10.1725504,3.89385811 C10.7248351,3.8937448 11.1725701,4.34144037 11.1725943,4.89372512 C11.1725943,4.8937548 11.1725943,4.89378448 11.1725053,4.89381416 L11.1724485,6.15273979 C11.1723346,6.70498977 10.7246534,7.15267043 10.1724034,7.15278375 L8.4035964,7.1528615 C7.85131165,7.15297481 7.40357672,6.70527924 7.40355245,6.15299449 C7.40355244,6.15296481 7.40355244,6.15293513 7.40364149,6.15290545 L7.40369825,4.89397982 C7.4038122,4.34172984 7.85149337,3.89404919 8.40374334,3.89393586 Z" id="矩形" transform="translate(9.288073, 5.523360) rotate(0.100000) translate(-9.288073, -5.523360) "></path>
                <rect id="矩形" x="11.8550459" y="3.89926308" width="3.71376147" height="3.25177077" rx="1"></rect>
                <rect id="矩形" x="16.2238532" y="3.89926308" width="3.70642202" height="3.25177077" rx="1"></rect>
                <rect id="矩形备份-4" x="16.2238532" y="8.65810329e-16" width="3.70642202" height="3.25177077" rx="1"></rect>
                <path d="M13.5779817,25 L11.4330275,25 C9.82568807,24.9022203 8.25932722,24.6386921 6.73394495,24.2094155 C2.7853211,23.1004507 0.968807339,19.7377835 0.282568807,16.0048651 C0.150458716,15.29477 0.130275229,14.3843457 0,13.5705087 L0,12.8031766 C0.177370031,12.116334 0.636085627,11.7735089 1.37614679,11.7747013 C9.05198777,11.7830483 16.7278287,11.7854332 24.4036697,11.7818559 C25.5412844,11.7800673 26.3155963,11.6727481 27.2880734,11.3007083 C27.3307235,11.2842246 27.3638863,11.2504682 27.3787343,11.2084246 C27.3935822,11.166381 27.3886087,11.1203164 27.3651376,11.0824927 C26.1394495,9.05773771 26.640367,6.64842241 28.0201835,4.84188309 C28.0495413,4.80372517 28.0856269,4.79597434 28.1284404,4.81863061 C29.6366972,5.60563783 30.8256881,6.99899835 31.0899083,8.67138871 C31.1031036,8.75633074 31.1844162,8.81477851 31.2715596,8.80196036 C32.8513761,8.57659011 34.5284404,8.62846104 35.8146789,9.60506546 C35.8970749,9.66745686 35.9263932,9.77591422 35.8862385,9.86978608 C35.0727829,11.7597959 33.5981651,12.8133123 31.4623853,13.0303356 C31.1119266,13.0661086 30.7981651,13.012449 30.4770642,13.0446448 C30.4122324,13.0506069 30.3681957,13.0833989 30.3449541,13.1430207 C28.4715596,17.8096158 25.6275229,21.4691994 20.812844,23.454604 C18.9559633,24.2213398 16.9259939,24.6923517 14.7229358,24.8676397 C14.3388379,24.8974506 13.9571865,24.9415707 13.5779817,25 Z" id="路径"></path>
                <path d="M45.9816514,12.7656149 C45.9955513,12.7757773 46.0141481,12.777412 46.0296887,12.7698374 C46.0452292,12.7622628 46.0550459,12.7467792 46.0550459,12.7298419 C46.0342508,10.9340345 46.0281346,9.52934583 46.0366972,8.51577592 C46.040367,8.10438578 46.1076453,7.81462403 46.2385321,7.64649066 C46.840367,6.87736996 47.9944954,7.30664663 47.9944954,8.27609644 C47.9920489,9.92523431 47.9877676,12.5253392 47.9816514,16.0764112 C47.9792049,17.2175717 47.8911315,18.0296201 47.7174312,18.5125563 C46.7834862,21.1222008 43.8587156,22.5048294 41.1761468,21.7357087 C39.0330275,21.1222008 37.5174312,19.2369607 37.4256881,17.0530157 C37.3449541,15.114116 38.306422,13.4274165 39.9522936,12.4239823 C40.8024465,11.9040805 41.8042813,11.6638048 42.9577982,11.7031552 C44.0611621,11.7401207 45.0691131,12.0942739 45.9816514,12.7656149 Z M46.0458716,16.8204908 C46.0458716,15.0216239 44.5499276,13.5633541 42.7045872,13.5633541 C41.8184234,13.5633541 40.9685547,13.9065157 40.3419423,14.5173473 C39.7153299,15.128179 39.3633028,15.9566444 39.3633028,16.8204908 C39.3633028,17.6843372 39.7153299,18.5128026 40.3419423,19.1236343 C40.9685547,19.7344659 41.8184234,20.0776275 42.7045872,20.0776275 C44.5499276,20.0776275 46.0458716,18.6193577 46.0458716,16.8204908 Z" id="形状"></path>
                <path d="M75.7376147,15.9726694 C77.2189602,17.5848418 78.5370031,19.0235148 79.6917431,20.2886886 C80.640367,21.3261072 79.1963303,22.5656436 78.3412844,21.646276 C76.7657492,19.9470559 75.3553517,18.4034485 74.1100917,17.015454 C74.066055,16.9665641 74.0152905,16.9582171 73.9577982,16.9904128 L72.9522936,17.5556271 C72.872753,17.6011757 72.8244111,17.6838142 72.8256881,17.7720541 C72.835474,19.2125158 72.8360856,20.2177387 72.8275229,20.7877227 C72.8238532,21.1013331 72.7730887,21.3404164 72.6752294,21.5049725 C72.359633,22.0397796 71.6422018,22.1059598 71.1963303,21.6999356 C70.9993884,21.5210703 70.9009174,21.2348859 70.9009174,20.8413823 C70.9021407,14.1088932 70.9027523,9.87574825 70.9027523,8.14194749 C70.9027523,7.86053278 71.0287462,7.63397009 71.2807339,7.46225943 C72.1100917,6.89346784 72.8220183,7.54453745 72.8256881,8.40309079 C72.8318043,10.6687177 72.8324159,12.9420953 72.8275229,15.2232239 C72.8270761,15.267462 72.8519445,15.3081488 72.8922329,15.3290948 C72.9325213,15.3500407 72.9816934,15.3478478 73.0201835,15.3233884 C74.0085627,14.6913978 75.7253823,13.6027044 78.1706422,12.0573084 C78.5155963,11.8402852 78.812844,11.7258115 79.0623853,11.7138871 C80.0495413,11.6638048 80.3706422,12.9444802 79.5266055,13.4524576 C79.2770642,13.6027044 78.0207951,14.3920965 75.7577982,15.8206339 C75.7325837,15.8364109 75.7158457,15.8622972 75.7119669,15.8915147 C75.7080881,15.9207321 75.717455,15.9503706 75.7376147,15.9726694 L75.7376147,15.9726694 Z" id="路径"></path>
                <path d="M4.06047551,7.83783872 L5.7742367,7.83791404 C6.32648667,7.83802737 6.77416784,8.28570803 6.77428179,8.837958 L6.77434178,10.1684298 C6.77445572,10.7207145 6.32676066,11.1684499 5.77447591,11.1684748 C5.77444623,11.1684748 5.77441655,11.1684748 5.77438687,11.1683858 L4.06062569,11.1683105 C3.50837571,11.1681971 3.06069455,10.7205165 3.0605806,10.1682665 L3.06052061,8.83779476 C3.06040666,8.28551002 3.50810172,7.83777458 4.06038647,7.83774968 C4.06041615,7.83774967 4.06044584,7.83774967 4.06047551,7.83783872 Z" id="矩形" transform="translate(4.917431, 9.503112) rotate(-0.100000) translate(-4.917431, -9.503112) "></path>
                <path d="M8.38150114,7.83958576 L10.1759954,7.83974351 C10.7282106,7.83997016 11.1758577,8.28761623 11.1760856,8.83983142 L11.1762068,10.1846132 C11.1764347,10.7368979 10.7287598,11.1846535 10.1764751,11.1847034 C10.1764157,11.1847034 10.1763564,11.1847034 10.176297,11.1845253 L8.38180277,11.1843675 C7.82958759,11.1841409 7.3819405,10.7364948 7.38171259,10.1842796 L7.38159132,8.83949785 C7.38136344,8.28721312 7.82903832,7.83945749 8.38132307,7.83940769 C8.38138243,7.83940768 8.38144179,7.83940768 8.38150114,7.83958576 Z" id="矩形" transform="translate(9.278899, 9.512056) rotate(-0.200000) translate(-9.278899, -9.512056) "></path>
                <path d="M12.8548959,7.84137796 L14.5686563,7.84152862 C15.1208715,7.84175527 15.5685186,8.28940134 15.5687465,8.84161652 L15.5688671,10.1792437 C15.569095,10.7315284 15.1214201,11.179284 14.5691353,11.1793338 C14.569076,11.1793338 14.5690166,11.1793338 14.5689573,11.1791558 L12.8551969,11.1790051 C12.3029817,11.1787785 11.8553347,10.7311324 11.8551068,10.1789172 L11.8549861,8.84129005 C11.8547582,8.28900532 12.3024331,7.8412497 12.8547179,7.84119989 C12.8547772,7.84119989 12.8548366,7.84119989 12.8548959,7.84137796 Z" id="矩形" transform="translate(13.711927, 9.510267) rotate(-0.200000) translate(-13.711927, -9.510267) "></path>
                <path d="M17.2182734,7.83962721 L18.9393741,7.83970286 C19.491624,7.83981618 19.9393052,8.28749684 19.9394192,8.83974681 L19.9394796,10.1809505 C19.9395936,10.7332352 19.4918985,11.1809707 18.9396138,11.1809956 C18.9395841,11.1809956 18.9395544,11.1809956 18.9395247,11.1809065 L17.2184241,11.1808309 C16.6661741,11.1807176 16.218493,10.7330369 16.218379,10.1807869 L16.2183185,8.83958325 C16.2182046,8.28729851 16.6658996,7.83956307 17.2181844,7.83953817 C17.2182141,7.83953817 17.2182438,7.83953817 17.2182734,7.83962721 Z" id="矩形" transform="translate(18.078899, 9.510267) rotate(-0.100000) translate(-18.078899, -9.510267) "></path>
                <path d="M21.6659799,7.83962777 L23.3613925,7.83970229 C23.9136425,7.83981562 24.3613236,8.28749628 24.3614376,8.83974625 L24.3614979,10.1773726 C24.3616118,10.7296574 23.9139168,11.1773928 23.361632,11.1774177 C23.3616024,11.1774177 23.3615727,11.1774177 23.361543,11.1773287 L21.6661304,11.1772541 C21.1138805,11.1771408 20.6661993,10.7294602 20.6660853,10.1772102 L20.666025,8.83958382 C20.6659111,8.28729907 21.1136061,7.83956363 21.6658909,7.83953873 C21.6659206,7.83953873 21.6659503,7.83953873 21.6659799,7.83962777 Z" id="矩形" transform="translate(22.513761, 9.508478) rotate(-0.100000) translate(-22.513761, -9.508478) "></path>
                <path d="M59.6275229,16.8240681 C59.6275229,19.6661001 57.2640793,21.9700222 54.3486239,21.9700222 C51.4331684,21.9700222 49.0697248,19.6661001 49.0697248,16.8240681 C49.0697248,13.9820362 51.4331684,11.678114 54.3486239,11.678114 C55.7486749,11.678114 57.0913836,12.2202755 58.0813692,13.1853291 C59.0713548,14.1503827 59.6275229,15.4592762 59.6275229,16.8240681 L59.6275229,16.8240681 Z M57.6917431,16.8204908 C57.6917431,15.0216239 56.1957991,13.5633541 54.3504587,13.5633541 C53.464295,13.5633541 52.6144262,13.9065157 51.9878139,14.5173473 C51.3612015,15.128179 51.0091743,15.9566444 51.0091743,16.8204908 C51.0091743,18.6193577 52.5051183,20.0776275 54.3504587,20.0776275 C56.1957991,20.0776275 57.6917431,18.6193577 57.6917431,16.8204908 Z" id="形状"></path>
                <path d="M62.6201835,16.8079702 C62.6091743,19.2620019 65.3798165,20.9290263 67.5559633,19.6608714 C67.635474,19.6143665 67.8134557,19.5010851 68.0899083,19.3210274 C68.3198777,19.1707806 68.5094801,19.089695 68.6587156,19.0777706 C69.5211009,19.0008586 69.9412844,19.8862417 69.533945,20.5659297 C69.4238532,20.7495648 69.1223242,20.9820896 68.6293578,21.2635043 C67.1981651,22.0809187 65.3155963,22.1810832 63.7889908,21.5067611 C61.9522936,20.6965014 60.6385321,18.8684982 60.6494726,16.799027 C60.6605505,14.727767 61.9908257,12.9122845 63.8366972,12.1199113 C65.3706422,11.4598984 67.2513761,11.5797381 68.6733945,12.409673 C69.1639144,12.6958575 69.4636086,12.9313634 69.5724771,13.1161909 C69.9724771,13.7994562 69.5431193,14.6812621 68.6807339,14.5954067 C68.5327217,14.58229 68.3443425,14.4994157 68.1155963,14.346784 C67.840367,14.1643414 67.6629969,14.0498676 67.5834862,14.0033627 C65.4201835,12.713744 62.6330275,14.3539386 62.6201835,16.8079702 Z" id="路径"></path>
                <path d="M82.4073394,17.8865279 C83.1651376,19.7789225 85.1100917,20.5373113 87.0495413,19.7807112 C87.4880734,19.6107892 87.9688073,19.0133791 88.3724771,18.9758174 C88.9094801,18.9257351 89.2556575,19.1153323 89.4110092,19.544609 C89.57737,20.0084663 89.4489297,20.4103169 89.0256881,20.750161 C86.666055,22.6443443 83.2256881,22.3170208 81.3669725,19.9112828 C79.3889908,17.349932 80.2862385,13.656364 83.2477064,12.2308078 C84.2091743,11.7669505 85.2862385,11.6178961 86.4788991,11.7836446 C88.9045872,12.1216999 90.7541284,14.1661301 90.8917431,16.5861773 C90.9321101,17.2944838 90.6293578,17.7648995 89.8623853,17.7684768 C87.3253823,17.7780163 84.8721713,17.7726503 82.5027523,17.7523789 C82.4690524,17.7527505 82.4375807,17.7689471 82.4185401,17.7957179 C82.3994994,17.8224887 82.3953136,17.8564261 82.4073394,17.8865279 L82.4073394,17.8865279 Z M85.5981651,15.8707162 C87.4464832,15.8695237 88.4770642,15.8683313 88.6899083,15.8671389 C88.727169,15.8664979 88.7616586,15.8478209 88.7819038,15.817321 C88.8021489,15.7868211 88.8054937,15.7484991 88.7908257,15.7151034 C88.2330275,14.4576805 87.0623853,13.5776633 85.5981651,13.5776633 C84.133945,13.579452 82.9633028,14.4612578 82.4055046,15.7186807 C82.3907162,15.752366 82.3942599,15.791038 82.4149387,15.821635 C82.4356174,15.8522319 82.4706699,15.870668 82.5082569,15.8707162 C82.7198777,15.8719086 83.7498471,15.8719086 85.5981651,15.8707162 Z" id="形状"></path>
                <path d="M100,12.8121199 L100,13.1161909 C99.8262997,13.5538146 99.5675841,13.8054184 99.2238532,13.8710024 C99.0831804,13.8984284 98.769419,13.8441726 98.2825688,13.708235 C96.1504587,13.1108249 94.0220183,14.5202833 93.9522936,16.7292695 C93.9168196,17.889509 93.911315,19.2351721 93.9357798,20.7662589 C93.9633028,22.3474279 92,22.3474279 92,20.8413823 C91.9988158,19.0396127 92.0006116,16.4961484 92.0055046,13.2109895 C92.0055046,12.7495171 91.9302752,12.3148744 92.2844037,11.9678758 C92.483792,11.7699316 92.7455657,11.68348 93.0697248,11.7085211 C93.5957187,11.7490639 93.8899083,12.0626744 93.9522936,12.6493525 C93.9562433,12.685043 93.9794838,12.7159442 94.0132126,12.730352 C94.0469414,12.7447598 94.0860006,12.740471 94.1155963,12.71911 C95.4495413,11.7532375 96.7963303,11.6065679 98.4330275,11.7872219 C99.2269113,11.8754621 99.7492355,12.2170948 100,12.8121199 Z" id="路径"></path>
            </g>
            <g id="11121248_fi_rr_circle_r_icon" transform="translate(96.000000, 20.429992)">
                <path d="M1.09375,0.609259855 C1.09375,0.474857131 0.981625,0.365555913 0.84375,0.365555913 L0.65625,0.365555913 C0.552875,0.365555913 0.46875,0.44756229 0.46875,0.54833387 L0.46875,1.03574175 C0.46875,1.06943382 0.4966875,1.09666774 0.53125,1.09666774 C0.5658125,1.09666774 0.59375,1.06943382 0.59375,1.03574175 L0.59375,0.852963798 L0.8135,0.852963798 L0.9291875,1.06443789 C0.9405,1.08496995 0.9620625,1.09666774 0.9844375,1.09666774 C0.9943125,1.09666774 1.004375,1.09435255 1.0138125,1.0895394 C1.04425,1.07363772 1.0558125,1.0367775 1.0395625,1.00704562 L0.9440625,0.832492667 C1.032125,0.794779481 1.09375,0.708934768 1.09375,0.609259855 Z M0.84375,0.731111827 L0.59375,0.731111827 L0.59375,0.54833387 C0.59375,0.514702726 0.62175,0.487407884 0.65625,0.487407884 L0.84375,0.487407884 C0.9126875,0.487407884 0.96875,0.542058493 0.96875,0.609259855 C0.96875,0.676461218 0.9126875,0.731111827 0.84375,0.731111827 Z M0.75,0 C0.3364375,0 0,0.327903654 0,0.731111827 C0,1.13432 0.3364375,1.46222365 0.75,1.46222365 C1.1635625,1.46222365 1.5,1.13425907 1.5,0.731111827 C1.5,0.32796458 1.1635625,0 0.75,0 Z M0.75,1.34037168 C0.405375,1.34037168 0.125,1.06705771 0.125,0.731111827 C0.125,0.395165942 0.405375,0.121851971 0.75,0.121851971 C1.094625,0.121851971 1.375,0.395165942 1.375,0.731111827 C1.375,1.06705771 1.094625,1.34037168 0.75,1.34037168 Z" id="形状"></path>
            </g>
        </g>
    </g>
</svg>
