<svg viewBox="0 0 585.8 108" xmlns="http://www.w3.org/2000/svg" role="img">
  <title>NVIDIA</title>
  <path fill="currentColor" d="M578.2 86.6V85h1c.5 0 1.3.1 1.3.7s-.4.9-1.1.9h-1.2m0 1.1h.7l1.6 2.8h1.7l-1.8-2.9c.9.1 1.6-.6 1.7-1.5v-.2c0-1.6-1.1-2-2.9-2h-2.6v6.7h1.5v-2.9m7.6-.5c0-4-3.1-6.3-6.5-6.3s-6.5 2.3-6.5 6.3 3.1 6.3 6.5 6.3 6.5-2.3 6.5-6.3m-1.9 0c.1 2.5-1.9 4.7-4.4 4.8h-.2c-2.6.1-4.9-2-5-4.6-.1-2.6 2-4.9 4.6-5 2.6-.1 4.9 2 5 4.6v.2Z"/>
  <path fill="currentColor" d="M347.5 20.4v70.9h20V20.4h-20ZM190 20.3v71h20.2V36.2l15.7.1c5.2 0 8.8 1.3 11.2 3.9 3.2 3.4 4.4 8.8 4.4 18.8v32.4h19.6V52.1c0-28-17.8-31.8-35.3-31.8H190Zm189.8.1v70.9h32.5c17.3 0 23-2.9 29-9.3 4.3-4.5 7.1-14.5 7.1-25.4 0-10-2.3-18.9-6.5-24.4-7.3-9.9-18-11.8-34-11.8h-28.1Zm19.8 15.4h8.6c12.5 0 20.6 5.6 20.6 20.1s-8.1 20.2-20.6 20.2h-8.6V35.8ZM318.7 20.4 302 76.6l-16-56.2h-21.6l22.8 70.9H316l23.1-70.9h-20.4Zm139 71h20v-71h-20v71Zm56.2-71L486 91.3h19.7l4.4-12.6h33.1l4.2 12.5h21.5l-28.2-70.8h-26.8Zm12.9 13 12.2 33.1h-24.6l12.4-33.1Z"/>
  <path fill="#76B900" d="M60.9 32.2v-9.7c1-.1 1.9-.1 2.9-.1 26.7-.8 44.2 23 44.2 23S89.1 71.5 68.8 71.5c-2.7 0-5.3-.4-7.9-1.3V40.7c10.4 1.3 12.5 5.8 18.7 16.2l13.9-11.7s-10.2-13.3-27.2-13.3c-1.8 0-3.6.1-5.4.3M60.9 0v14.5l2.9-.2c37.1-1.3 61.3 30.4 61.3 30.4S97.3 78.6 68.4 78.6c-2.5 0-5-.2-7.5-.7v9c2 .2 4.1.4 6.2.4 26.9 0 46.4-13.8 65.3-30 3.1 2.5 15.9 8.6 18.6 11.2-17.9 15-59.7 27.1-83.4 27.1-2.3 0-4.4-.1-6.6-.4V108h102.3V0H60.9Zm0 70.3V78C36 73.5 29.1 47.6 29.1 47.6s12-13.2 31.8-15.4v8.4h-.1c-10.4-1.3-18.6 8.5-18.6 8.5s4.7 16.4 18.7 21.2M16.7 46.5s14.7-21.8 44.2-24v-7.9C28.2 17.2 0 44.8 0 44.8s16 46.3 60.9 50.5v-8.4c-33-4.1-44.2-40.4-44.2-40.4Z"/>
</svg>
