<?xml version="1.0" encoding="UTF-8"?>
<svg width="37px" height="30px" viewBox="0 0 37 30" version="1.1" xmlns="http://www.w3.org/2000/svg" xmlns:xlink="http://www.w3.org/1999/xlink">
    <title>地图连线,转移,目的</title>
    <g id="页面-1" stroke="none" stroke-width="1" fill="none" fill-rule="evenodd">
        <g id="解决方案-复制" transform="translate(-460, -1103)" fill="#666666" fill-rule="nonzero">
            <g id="编组-2备份" transform="translate(350, 1020)">
                <g id="地图连线,转移,目的" transform="translate(110, 83)">
                    <path d="M26.9885325,23.7508459 L8.17212621,23.7508459 C6.10962621,23.7508459 4.39478246,22.1024084 4.37525121,20.0399084 C4.35571996,17.9539709 6.04321996,16.2508459 8.12525121,16.2508459 L30.6252512,16.2508459 C32.2854075,16.2508459 33.8518137,15.5985021 35.0393137,14.4149084 C36.2229075,13.2313146 36.8752512,11.6649084 36.8752512,10.0008459 C36.8752512,8.33678338 36.2229075,6.77428338 35.0393137,5.58678338 C33.85572,4.40318963 32.2854075,3.75084588 30.6252512,3.75084588 L10.3049387,3.75084588 C10.04322,3.75084588 9.80493871,3.58678338 9.71900121,3.33678338 C9.04321996,1.41881463 7.23462621,0.0399083779 5.09400121,0.000845877907 C2.32056371,-0.0499353721 0.0197824632,2.19225213 0.000124794021,4.96568963 C-0.0192800368,7.74303338 2.22681371,10.0008459 5.00025121,10.0008459 C7.17603246,10.0008459 9.02759496,8.61022088 9.71509496,6.66881463 C9.80493871,6.41881463 10.0393137,6.25084588 10.3049387,6.25084588 L30.5783762,6.25084588 C32.6408762,6.25084588 34.35572,7.89928338 34.3752512,9.96178338 C34.3947825,12.0477209 32.7072825,13.7508459 30.6252512,13.7508459 L8.12525121,13.7508459 C6.46509496,13.7508459 4.89868871,14.4031896 3.71118871,15.5867834 C2.52759496,16.7703771 1.87525121,18.3406896 1.87525121,20.0008459 C1.87525121,21.6610021 2.52759496,23.2274084 3.71118871,24.4149084 C4.89478246,25.5985021 6.46509496,26.2508459 8.12525121,26.2508459 L26.9885325,26.2508459 C27.3322825,26.2508459 27.6135325,26.5320959 27.6135325,26.8758459 L27.6135325,29.7156896 C27.6135325,29.8367834 27.7424387,29.9110021 27.8479075,29.8524084 L36.0158762,25.1375646 C36.121345,25.0789709 36.121345,24.9266271 36.0158762,24.8680334 L27.8479075,20.1492834 C27.7424387,20.0906896 27.6135325,20.1649084 27.6135325,20.2860021 L27.6135325,23.1258459 C27.6135325,23.4695959 27.3361887,23.7508459 26.9885325,23.7508459 Z M5.00025121,7.50084588 C3.62134496,7.50084588 2.50025121,6.37975213 2.50025121,5.00084588 C2.50025121,3.62193963 3.62134496,2.50084588 5.00025121,2.50084588 C6.37915746,2.50084588 7.50025121,3.62193963 7.50025121,5.00084588 C7.50025121,6.37975213 6.37915746,7.50084588 5.00025121,7.50084588 Z" id="形状"></path>
                </g>
            </g>
        </g>
    </g>
</svg>