<?xml version="1.0" encoding="UTF-8"?>
<svg width="34px" height="34px" viewBox="0 0 34 34" version="1.1" xmlns="http://www.w3.org/2000/svg" xmlns:xlink="http://www.w3.org/1999/xlink">
    <title>扳手,设置,设定</title>
    <g id="页面-1" stroke="none" stroke-width="1" fill="none" fill-rule="evenodd">
        <g id="解决方案-复制" transform="translate(-796, -1101)" fill="#666666" fill-rule="nonzero">
            <g id="编组-2备份" transform="translate(350, 1020)">
                <g id="扳手,设置,设定" transform="translate(446, 81)">
                    <path d="M33.7480008,9.01444749 C33.7048956,8.8086685 33.6551589,8.60288951 33.5987907,8.40042951 C33.383265,7.61714172 32.4017944,7.35825848 31.8248488,7.93244826 L26.0951824,13.6710269 C25.3325531,14.4344006 24.3112931,14.8559156 23.217086,14.8559157 C22.1261947,14.8559157 21.1049346,14.4344006 20.3423054,13.6710269 C19.5796762,12.9076533 19.1585723,11.8853963 19.1585723,10.7934401 C19.1585723,9.7014838 19.5796762,8.67922685 20.3423054,7.91253415 L25.6210259,2.62866069 L26.0719719,2.1772745 C26.6456017,1.60308473 26.3902867,0.617336971 25.604447,0.401600928 C25.4021845,0.345177662 25.1966062,0.295392432 24.9910279,0.252245203 C24.2184513,0.0862944238 23.4160328,0 22.5937195,0 C16.3036864,0 11.1808075,5.13119875 11.1874391,11.4273721 C11.1874391,12.230574 11.2703335,13.0171808 11.4294909,13.7739164 C11.5753852,14.4742288 11.3565438,15.1977743 10.8525454,15.7022647 L1.53188999,25.0320188 C0.510630007,26.0542757 0,27.4017962 0,28.7493167 C0,30.0968372 0.510630007,31.4443577 1.53188999,32.4666146 C2.55314997,33.4888715 3.89935633,34 5.2455627,34 C6.59176906,34 7.93797542,33.4888715 8.95923544,32.4666146 L18.2566803,23.1600937 C18.7639945,22.6522842 19.4934659,22.4332292 20.1930954,22.5825849 C20.949093,22.7452167 21.7349327,22.8315111 22.5406671,22.8348301 C28.8472791,22.8613823 34,17.7301835 34,11.4174151 C34,10.5942991 33.9137897,9.79109721 33.7480008,9.01444749 Z M31.1484299,15.0351425 C30.680905,16.1403748 30.0111176,17.1360797 29.1589624,17.9890668 C28.3068071,18.8420539 27.3120733,19.5124951 26.2079189,19.9804764 C25.063975,20.4650527 23.8503999,20.7106599 22.5937195,20.7106599 C21.625512,20.7106599 20.6771991,20.5646232 19.7653599,20.2725498 L19.1486249,20.0767278 C18.7706261,19.9572433 18.3561537,20.0568137 18.0743125,20.3389301 L17.6200507,20.7936353 L7.46050322,30.9631003 C6.87361029,31.5505662 6.08777065,31.8758297 5.2455627,31.8758297 C4.40335474,31.8758297 3.62083088,31.5505662 3.0306222,30.9631003 C2.44372927,30.3756345 2.11878292,29.5890277 2.11878292,28.7459977 C2.11878292,27.9062866 2.44372927,27.1196798 3.0306222,26.528895 L13.2100644,16.3395158 L13.6643261,15.8848106 C13.9428516,15.6060133 14.0456407,15.1911363 13.9262727,14.8160875 L13.7339575,14.2020695 C13.4521163,13.3092542 13.3095378,12.3699727 13.3095378,11.4174151 C13.3095378,10.162827 13.5549054,8.94474812 14.0390092,7.79968762 C14.506534,6.6944553 15.1763214,5.69875049 16.0284767,4.84576337 C16.880632,3.99277625 17.8753657,3.32233504 18.9795202,2.85435376 C20.123464,2.36977742 21.3370392,2.12417025 22.5937195,2.12417025 L22.6003511,2.12417025 C22.7926663,2.12417025 22.8921396,2.3598204 22.7528769,2.49590002 L18.8800468,6.37251073 C16.4727911,8.78211636 16.4131071,12.7018743 18.8004681,15.134713 C19.4105715,15.758688 20.123464,16.2233503 20.8860932,16.5320188 C21.6321436,16.8340492 22.4246148,16.9834049 23.217086,16.9834049 C24.8020284,16.9834049 26.3902867,16.379344 27.5939146,15.1745412 L31.506534,11.2581023 C31.642481,11.1220227 31.8779013,11.2182741 31.8779013,11.4107771 L31.8779013,11.4174151 C31.8779013,12.6720031 31.6325336,13.890082 31.1484299,15.0351425 Z" id="形状"></path>
                </g>
            </g>
        </g>
    </g>
</svg>