<?xml version="1.0" encoding="UTF-8"?>
<svg width="40px" height="30px" viewBox="0 0 40 30" version="1.1" xmlns="http://www.w3.org/2000/svg" xmlns:xlink="http://www.w3.org/1999/xlink">
    <title>滑块,设置,控制</title>
    <g id="页面-1" stroke="none" stroke-width="1" fill="none" fill-rule="evenodd">
        <g id="解决方案-复制" transform="translate(-1093, -1103)" fill="#666666" fill-rule="nonzero">
            <g id="编组-2备份" transform="translate(350, 1020)">
                <g id="滑块,设置,控制" transform="translate(743, 83)">
                    <path d="M15,2.3359375 L15,1.25 C15,0.55859375 14.4414062,0 13.75,0 L6.25,0 C5.55859375,0 5,0.55859375 5,1.25 L5,2.3359375 C5,2.421875 4.9296875,2.4921875 4.84375,2.4921875 L0,2.4921875 L0,4.9921875 L4.84375,4.9921875 C4.9296875,4.9921875 5,5.0625 5,5.1484375 L5,6.25 C5,6.94140625 5.55859375,7.5 6.25,7.5 L13.75,7.5 C14.4414062,7.5 15,6.94140625 15,6.25 L15,5.14453125 C15,5.05859375 15.0703125,4.98828125 15.15625,4.98828125 L40,4.98828125 L40,2.48828125 L15.15625,2.48828125 C15.0703125,2.4921875 15,2.421875 15,2.3359375 Z M12.34375,5 L7.65625,5 C7.5703125,5 7.5,4.9296875 7.5,4.84375 L7.5,2.65625 C7.5,2.5703125 7.5703125,2.5 7.65625,2.5 L12.34375,2.5 C12.4296875,2.5 12.5,2.5703125 12.5,2.65625 L12.5,4.84375 C12.5,4.9296875 12.4296875,5 12.34375,5 Z M30,13.59375 L30,12.5 C30,11.8085938 29.4414062,11.25 28.75,11.25 L21.25,11.25 C20.5585938,11.25 20,11.8085938 20,12.5 L20,13.59375 C20,13.6796875 19.9296875,13.75 19.84375,13.75 L0,13.75 L0,16.25 L19.84375,16.25 C19.9296875,16.25 20,16.3203125 20,16.40625 L20,17.5 C20,18.1914062 20.5585938,18.75 21.25,18.75 L28.75,18.75 C29.4414062,18.75 30,18.1914062 30,17.5 L30,16.40625 C30,16.3203125 30.0703125,16.25 30.15625,16.25 L40,16.25 L40,13.75 L30.15625,13.75 C30.0703125,13.75 30,13.6796875 30,13.59375 Z M27.34375,16.25 L22.65625,16.25 C22.5703125,16.25 22.5,16.1796875 22.5,16.09375 L22.5,13.90625 C22.5,13.8203125 22.5703125,13.75 22.65625,13.75 L27.34375,13.75 C27.4296875,13.75 27.5,13.8203125 27.5,13.90625 L27.5,16.09375 C27.5,16.1796875 27.4296875,16.25 27.34375,16.25 Z M18.75,24.8554688 L18.75,23.75 C18.75,23.0585938 18.1914062,22.5 17.5,22.5 L10,22.5 C9.30859375,22.5 8.75,23.0585938 8.75,23.75 L8.75,24.8554688 C8.75,24.9414062 8.6796875,25.0117188 8.59375,25.0117188 L0,25.0117188 L0,27.5117188 L8.59375,27.5117188 C8.6796875,27.5117188 8.75,27.5820312 8.75,27.6679688 L8.75,28.75 C8.75,29.4414062 9.30859375,30 10,30 L17.5,30 C18.1914062,30 18.75,29.4414062 18.75,28.75 L18.75,27.6640625 C18.75,27.578125 18.8203125,27.5078125 18.90625,27.5078125 L40,27.5078125 L40,25.0078125 L18.90625,25.0078125 C18.8203125,25.0117188 18.75,24.9414062 18.75,24.8554688 L18.75,24.8554688 Z M16.09375,27.5 L11.40625,27.5 C11.3203125,27.5 11.25,27.4296875 11.25,27.34375 L11.25,25.15625 C11.25,25.0703125 11.3203125,25 11.40625,25 L16.09375,25 C16.1796875,25 16.25,25.0703125 16.25,25.15625 L16.25,27.34375 C16.25,27.4296875 16.1796875,27.5 16.09375,27.5 Z" id="形状"></path>
                </g>
            </g>
        </g>
    </g>
</svg>