<?xml version="1.0" encoding="UTF-8"?>
<svg width="39px" height="31px" viewBox="0 0 39 31" version="1.1" xmlns="http://www.w3.org/2000/svg" xmlns:xlink="http://www.w3.org/1999/xlink">
    <title>形状</title>
    <g id="页面-1" stroke="none" stroke-width="1" fill="none" fill-rule="evenodd">
        <g id="解决方案-复制" transform="translate(-1381, -1103)" fill="#666666" fill-rule="nonzero">
            <g id="编组-2备份" transform="translate(350, 1020)">
                <g id="扩音器,喇叭,大声公,广播,公告" transform="translate(1031, 83)">
                    <path d="M37.4102538,12.3059277 C37.148535,8.37233392 36.3165038,4.52077142 34.9219725,0.809833916 C34.7741401,0.412550854 34.4339789,0.118038963 34.0196288,0.028583916 C33.6055663,-0.061259834 33.1758788,0.063740166 32.8750975,0.360615166 C30.5782225,2.62624017 27.9688475,4.43483392 25.1094725,5.73952142 C23.4727538,6.48561517 21.6094725,7.10670892 19.72666,7.53249017 C19.4024413,7.60670892 19.0782225,7.67311517 18.7540038,7.73561517 L18.7540038,7.73170892 C18.7540038,7.25905267 18.3711913,6.87624017 17.898535,6.87624017 L8.19931626,6.87624017 C3.71494126,6.87624017 -0.0155274927,10.5442089 4.86010924e-05,15.0285839 C0.00791000731,17.2512402 0.918066257,19.2746777 2.38681626,20.7395214 C3.26572251,21.6184277 4.34384751,22.2981152 5.54306626,22.7043652 C6.17978501,22.9192089 6.62119126,23.5051464 6.64853501,24.1809277 C6.67587876,24.8293652 6.77353501,25.4738964 6.93759751,26.1028027 C7.48837876,28.2199902 8.66416001,29.7043652 9.69931626,30.6613964 C10.25791,31.1770214 11.148535,31.0754589 11.5782225,30.4465527 L12.2930663,29.3996777 C12.63291,28.8996777 12.5743163,28.2238964 12.1407225,27.8020214 C11.554785,27.2317089 10.88291,26.3567089 10.57041,25.1574902 C10.5665038,25.1496777 10.5665038,25.1418652 10.5665038,25.1340527 C10.304785,24.1184277 11.0821288,23.1301464 12.13291,23.1301464 L17.9024413,23.1301464 C18.3750975,23.1301464 18.75791,22.7473339 18.75791,22.2746777 C19.086035,22.3371777 19.4102538,22.4035839 19.7344725,22.4738964 C21.60166,22.8918652 23.461035,23.5129589 25.1133788,24.2668652 C27.9688475,25.5715527 30.5821288,27.3801464 32.8790038,29.6457714 C33.1133788,29.8801464 33.429785,30.0051464 33.75791,30.0051464 C33.8477538,30.0051464 33.9375975,29.9973339 34.0274413,29.9738964 C34.4415038,29.8840527 34.7813475,29.5910839 34.929785,29.1926464 C36.3243163,25.4856152 37.1602538,21.6301464 37.4219725,17.7004589 C38.19541,17.3567089 38.7618163,16.2785839 38.7618163,15.0051464 C38.7618163,13.7317089 38.1836913,12.6496777 37.4102538,12.3059277 Z M16.2500975,20.6262402 L8.12509751,20.6262402 C6.63291001,20.6262402 5.22275376,20.0403027 4.15244126,18.9699902 C3.08603501,17.9035839 2.50009751,16.4934277 2.50009751,15.0012402 C2.50009751,13.5090527 3.08603501,12.0988964 4.15244126,11.0285839 C5.22275376,9.96217767 6.63291001,9.37624017 8.12509751,9.37624017 L16.2500975,9.37624017 L16.2500975,20.6262402 Z M33.1993163,26.5363964 C31.054785,24.6731152 28.6915038,23.1496777 26.1446288,21.9895214 C24.336035,21.1653027 22.304785,20.4856152 20.273535,20.0324902 C19.7696288,19.9192089 19.25791,19.8176464 18.7500975,19.7317089 L18.7500975,10.2746777 C19.2618163,10.1848339 19.7696288,10.0832714 20.2774413,9.96999017 C22.3243163,9.50905267 24.3555663,8.82936517 26.1446288,8.01295892 C28.6915038,6.85280267 31.054785,5.32545892 33.1993163,3.46608392 C34.3946288,7.19655267 35.0000975,11.0676464 35.0000975,15.0012402 C35.0000975,18.9348339 34.3946288,22.8059277 33.1993163,26.5363964 Z" id="形状"></path>
                </g>
            </g>
        </g>
    </g>
</svg>