<?xml version="1.0" encoding="UTF-8"?>
<svg width="40px" height="40px" viewBox="0 0 40 40" version="1.1" xmlns="http://www.w3.org/2000/svg" xmlns:xlink="http://www.w3.org/1999/xlink">
    <title>设施面属性数据</title>
    <g id="页面-1" stroke="none" stroke-width="1" fill="none" fill-rule="evenodd">
        <g id="解决方案-复制" transform="translate(-356, -1598)" fill="#E82AB4" fill-rule="nonzero">
            <g id="网络加密-2" transform="translate(0, 1346)">
                <g id="设施面属性数据" transform="translate(356, 252)">
                    <path d="M8.57142855,31.4285714 L8.57142855,40 L0,40 L0,31.4285714 L8.57142855,31.4285714 Z M40,31.4285714 L40,40 L31.4285714,40 L31.4285714,31.4285714 L40,31.4285714 Z M31.4285714,8.57142855 L31.4285714,31.4285714 L8.57142855,31.4285714 L8.57142855,8.57142855 L31.4285714,8.57142855 L31.4285714,8.57142855 Z M8.57142855,0 L8.57142855,8.57142855 L0,8.57142855 L0,0 L8.57142855,0 Z M40,0 L40,8.57142855 L31.4285714,8.57142855 L31.4285714,0 L40,0 Z" id="形状"></path>
                </g>
            </g>
        </g>
    </g>
</svg>