<?xml version="1.0" encoding="UTF-8"?>
<svg width="46px" height="30px" viewBox="0 0 46 30" version="1.1" xmlns="http://www.w3.org/2000/svg" xmlns:xlink="http://www.w3.org/1999/xlink">
    <title>带宽</title>
    <g id="页面-1" stroke="none" stroke-width="1" fill="none" fill-rule="evenodd">
        <g id="解决方案-复制" transform="translate(-1015, -1603)" fill="#4E6BF6" fill-rule="nonzero">
            <g id="网络加密-2" transform="translate(0, 1346)">
                <g id="带宽" transform="translate(1015, 257)">
                    <path d="M23.0005166,1.77107965e-06 C30.3232062,-0.00254316659 37.2091485,3.49586012 41.542333,9.42017427 C45.8755175,15.3444884 47.1376253,22.9860695 44.9408178,29.9967037 L38.5459426,29.9967037 C37.2761663,29.9967037 36.2468092,28.9636283 36.2468092,27.6892652 C36.2468092,26.4149021 37.2761663,25.3818267 38.5459426,25.3818267 L41.252351,25.3818267 C41.6566989,22.1934969 41.2218551,18.9544828 39.9911121,15.9872558 L38.2503397,16.995936 C37.1949127,17.5888783 35.8622034,17.2597213 35.2014986,16.2429231 C34.5407937,15.226125 34.7780563,13.8694332 35.7442844,13.1392175 L35.9544909,13.0007712 L37.7051167,11.9854982 C34.717282,7.9894613 30.2419411,5.38091392 25.3029345,4.75662313 L25.29965,6.92231896 C25.29965,8.19668203 24.2702929,9.22975743 23.0005166,9.22975743 C21.7307403,9.22975743 20.7013833,8.19668203 20.7013833,6.92231896 L20.7013833,4.75662313 C15.7611905,5.38006193 11.2845176,7.9886949 8.29591656,11.9854982 L10.0465424,13.0007712 C11.1133057,13.6527139 11.4663521,15.040136 10.8416922,16.1255969 C10.2170322,17.2110579 8.84317102,17.5974883 7.74740903,16.995936 L6.0099211,15.9905521 C4.77932697,18.9578196 4.34448856,22.1967938 4.74868223,25.3851231 L7.43209931,25.3851231 C8.7018756,25.3851231 9.73123267,26.4181985 9.73123267,27.6925615 C9.73123267,28.9669246 8.7018756,30.0000018 7.43209931,30.0000018 L1.06021543,30.0000018 C-1.13787498,22.988941 0.123612037,15.3463291 4.45695384,9.42114889 C8.79029564,3.49596867 15.6770384,-0.00287377244 23.0005166,1.77107965e-06 Z M29.8979167,12.7733236 C30.9968865,13.4107312 31.3732638,14.8213425 30.7387426,15.9246253 L26.7973711,22.7810139 C27.9684937,24.5051726 27.8411169,26.8035083 26.4866975,28.386685 C25.132278,29.9698618 22.8878428,30.4439299 21.0124904,29.5429433 C19.1371379,28.6419568 18.0975216,26.5901126 18.4768523,24.5384683 C18.856183,22.4868239 20.56007,20.9459003 22.6326553,20.7801351 L26.7579574,13.6171869 C27.3930708,12.5142473 28.7986049,12.1365104 29.8979167,12.7733236 Z" id="形状"></path>
                </g>
            </g>
        </g>
    </g>
</svg>