<?xml version="1.0" encoding="UTF-8"?>
<svg width="35px" height="38px" viewBox="0 0 35 38" version="1.1" xmlns="http://www.w3.org/2000/svg" xmlns:xlink="http://www.w3.org/1999/xlink">
    <title>漏斗</title>
    <g id="页面-1" stroke="none" stroke-width="1" fill="none" fill-rule="evenodd">
        <g id="解决方案-复制" transform="translate(-357, -1813)" fill-rule="nonzero">
            <g id="网络加密-2" transform="translate(0, 1346)">
                <g id="漏斗" transform="translate(357, 467)">
                    <path d="M33.312412,34.6626016 L30.9760676,34.6626016 L30.9760676,30.6910569 C30.9760676,30.5894309 30.9760676,30.4878049 30.9719615,30.3902439 L30.9719615,30.3699187 C30.9719615,30.3292683 30.9719615,30.2926829 30.9678555,30.2520325 C30.8200375,25.5650407 25.7778038,21.4878049 21.9714923,19.2073171 C25.7531675,16.9430894 30.7871891,12.898374 30.9678555,8.24796748 C30.9760676,8.18699187 30.9801736,8.12601626 30.9801736,8.06097561 L30.9801736,3.33333333 L33.3165181,3.33333333 C34.2444862,3.33333333 35,2.58943089 35,1.66666667 C35,0.74796748 34.2485922,0 33.3165181,0 L1.68348193,0 C0.755513843,0 0,0.743902439 0,1.66666667 C0,2.58536585 0.75140779,3.33333333 1.68348193,3.33333333 L3.88022055,3.33333333 L3.88022055,8.06097561 C3.88022055,8.12601626 3.88432661,8.18699187 3.89253871,8.24796748 C4.07320507,12.898374 9.517832,16.9430894 13.2995073,19.2113821 C9.52604411,21.4756098 4.08141718,25.5081301 3.89664477,30.1504065 C3.88843266,30.2235772 3.88022055,30.296748 3.88022055,30.3699187 L3.88022055,34.6666667 L1.68348193,34.6666667 C0.755513843,34.6666667 0,35.4105691 0,36.3333333 C0,37.2520325 0.75140779,38 1.68348193,38 L33.312412,38 C34.2403801,38 34.9958939,37.2560976 34.9958939,36.3333333 C34.9958939,35.4105691 34.2444862,34.6626016 33.312412,34.6626016 L33.312412,34.6626016 Z" id="路径" fill="#4D8BDE"></path>
                    <path d="M28,32.3570427 C28,33.2626728 27.2428631,34 26.3036823,34 L9.69631775,34 C8.76127431,34 8,33.26668 8,32.3570427 C8,31.4514125 8.75713695,30.7140854 9.69631775,30.7140854 L26.3036823,30.7140854 C27.2387257,30.7180926 28,31.4514125 28,32.3570427 Z M18,21.1328391 C18.9350434,21.1328391 19.6963177,21.8661591 19.6963177,22.7757964 L19.6963177,25.9815668 C19.6963177,26.887197 18.9391808,27.6245241 18,27.6245241 C17.0649566,27.6245241 16.3036823,26.8912042 16.3036823,25.9815668 L16.3036823,22.7717892 C16.3078196,21.8661591 17.0649566,21.1328391 18,21.1328391 Z M18,14 C18.9350434,14 19.6963177,14.73332 19.6963177,15.6429573 C19.6963177,16.5485875 18.9391808,17.2859146 18,17.2859146 C17.0649566,17.2859146 16.3036823,16.5525947 16.3036823,15.6429573 C16.3078196,14.73332 17.0649566,14 18,14 Z" id="形状" fill="#FFFFFF"></path>
                </g>
            </g>
        </g>
    </g>
</svg>