<?xml version="1.0" encoding="UTF-8"?>
<svg width="40px" height="38px" viewBox="0 0 40 38" version="1.1" xmlns="http://www.w3.org/2000/svg" xmlns:xlink="http://www.w3.org/1999/xlink">
    <title>大楼,建筑</title>
    <g id="页面-1" stroke="none" stroke-width="1" fill="none" fill-rule="evenodd">
        <g id="解决方案-复制" transform="translate(-1020, -1817)" fill="#2DC15F" fill-rule="nonzero">
            <g id="网络加密-2" transform="translate(0, 1346)">
                <g id="大楼,建筑" transform="translate(1020, 471)">
                    <path d="M39.0898438,34.1796875 L37.2734375,34.1796875 L37.2734375,12.59375 C37.2734375,10.6171875 35.6367188,8.99609375 33.6367188,8.99609375 L26.3632812,8.99609375 L26.3632812,34.1796875 L24.5429688,34.1796875 L24.5429688,3.59765625 C24.5429688,1.62109375 22.90625,-1.33226763e-15 20.90625,-1.33226763e-15 L6.36328125,-1.33226763e-15 C4.36328125,-1.33226763e-15 2.7265625,1.62109375 2.7265625,3.59765625 L2.7265625,34.1796875 L0.91015625,34.1796875 C0.36328125,34.1796875 0,34.5390625 0,35.0820312 L0,36.8828125 C0,37.421875 0.359375,37.7851562 0.91015625,37.7851562 L39.0898437,37.7851562 C39.6367187,37.7851562 40,37.4257812 40,36.8828125 L40,35.0820312 C40,34.5429688 39.6367187,34.1796875 39.0898438,34.1796875 Z M11.8203125,26.0859375 C11.8203125,26.625 11.4570312,26.9882813 10.9101562,26.9882813 L7.2734375,26.9882813 C6.7265625,26.9882813 6.36328125,26.6289062 6.36328125,26.0859375 L6.36328125,24.2851562 C6.36328125,23.7460938 6.7265625,23.3828125 7.2734375,23.3828125 L10.9101562,23.3828125 C11.4570312,23.3828125 11.8203125,23.7421875 11.8203125,24.2851562 L11.8203125,26.0859375 Z M11.8203125,18.890625 C11.8203125,19.4296875 11.4570312,19.7929688 10.9101562,19.7929688 L7.2734375,19.7929688 C6.7265625,19.7929688 6.36328125,19.4335938 6.36328125,18.890625 L6.36328125,17.0898438 C6.36328125,16.5507812 6.7265625,16.1875 7.2734375,16.1875 L10.9101562,16.1875 C11.4570312,16.1875 11.8203125,16.546875 11.8203125,17.0898438 L11.8203125,18.890625 Z M11.8203125,11.6914062 C11.8203125,12.2304688 11.4570312,12.59375 10.9101562,12.59375 L7.2734375,12.59375 C6.7265625,12.59375 6.36328125,12.234375 6.36328125,11.6914062 L6.36328125,9.890625 C6.36328125,9.3515625 6.7265625,8.98828125 7.2734375,8.98828125 L10.9101562,8.98828125 C11.4570312,8.98828125 11.8203125,9.34765625 11.8203125,9.890625 L11.8203125,11.6914062 Z M20.9101562,26.0859375 C20.9101562,26.625 20.546875,26.9882813 20,26.9882813 L16.3632812,26.9882813 C15.8164062,26.9882813 15.453125,26.6289062 15.453125,26.0859375 L15.453125,24.2851562 C15.453125,23.7460938 15.8164062,23.3828125 16.3632812,23.3828125 L20,23.3828125 C20.546875,23.3828125 20.9101562,23.7421875 20.9101562,24.2851562 L20.9101562,26.0859375 Z M20.9101562,18.890625 C20.9101562,19.4296875 20.546875,19.7929688 20,19.7929688 L16.3632812,19.7929688 C15.8164062,19.7929688 15.453125,19.4335938 15.453125,18.890625 L15.453125,17.0898438 C15.453125,16.5507812 15.8164062,16.1875 16.3632812,16.1875 L20,16.1875 C20.546875,16.1875 20.9101562,16.546875 20.9101562,17.0898438 L20.9101562,18.890625 Z M20.9101562,11.6914062 C20.9101562,12.2304688 20.546875,12.59375 20,12.59375 L16.3632812,12.59375 C15.8164062,12.59375 15.453125,12.234375 15.453125,11.6914062 L15.453125,9.890625 C15.453125,9.3515625 15.8164062,8.98828125 16.3632812,8.98828125 L20,8.98828125 C20.546875,8.98828125 20.9101562,9.34765625 20.9101562,9.890625 L20.9101562,11.6914062 Z M33.75,17.0898438 L33.75,18.890625 C33.75,19.4296875 33.4921875,19.7929688 33.1054688,19.7929688 L30.53125,19.7929688 C30.1445312,19.7929688 29.8867188,19.4335938 29.8867188,18.890625 L29.8867188,17.0898438 C29.8867188,16.5507812 30.1445312,16.1875 30.53125,16.1875 L33.1054688,16.1875 C33.4921875,16.1875 33.75,16.546875 33.75,17.0898438 Z M29.8867188,24.2851562 C29.8867188,23.7460938 30.1445312,23.3828125 30.53125,23.3828125 L33.1054688,23.3828125 C33.4921875,23.3828125 33.75,23.7421875 33.75,24.2851562 L33.75,26.0859375 C33.75,26.625 33.4921875,26.9882813 33.1054688,26.9882813 L30.53125,26.9882813 C30.1445312,26.9882813 29.8867188,26.6289062 29.8867188,26.0859375 L29.8867188,24.2851562 Z" id="形状"></path>
                </g>
            </g>
        </g>
    </g>
</svg>