<?xml version="1.0" encoding="UTF-8"?>
<svg width="82px" height="27px" viewBox="0 0 82 27" version="1.1" xmlns="http://www.w3.org/2000/svg" xmlns:xlink="http://www.w3.org/1999/xlink">
    <title>logo 2</title>
    <g id="控件" stroke="none" stroke-width="1" fill="none" fill-rule="evenodd">
        <g id="按钮效果" transform="translate(-1653, -72)" fill="#E8037D">
            <path d="M1725.13262,86.8965994 C1724.09597,86.8965994 1723.25262,86.0157738 1723.25262,84.9330636 L1723.25262,84.6772508 C1723.25262,83.5945406 1724.09597,82.713715 1725.13262,82.713715 L1733.04321,82.713715 C1734.12355,82.713715 1735,81.799703 1735,80.6699785 C1735,79.5416368 1734.12355,78.6262419 1733.04321,78.6262419 L1725.13262,78.6262419 C1721.93794,78.6262419 1719.3377,81.3406228 1719.3377,84.6772508 L1719.3377,84.9330636 C1719.3377,88.2696917 1721.93794,90.9854553 1725.13262,90.9854553 L1729.15212,90.9854553 C1730.18878,90.9854553 1731.03213,91.8662809 1731.03213,92.9489911 C1731.03213,94.0303185 1730.18878,94.9111441 1729.15212,94.9111441 L1713.84729,94.9111441 L1713.84729,82.713715 L1715.91265,82.713715 C1716.99432,82.713715 1717.87077,81.799703 1717.87077,80.6699785 C1717.87077,79.5416368 1716.99432,78.6262419 1715.91265,78.6262419 L1713.84729,78.6262419 L1713.84729,78.2459797 C1713.84729,77.0567961 1714.77406,76.0888559 1715.91265,76.0888559 C1716.99432,76.0888559 1717.87077,75.173461 1717.87077,74.0437366 C1717.87077,72.9153949 1716.99432,72 1715.91265,72 C1712.61602,72 1709.93371,74.8014954 1709.93371,78.2459797 L1709.93371,78.6262419 L1703.37752,78.6262419 L1703.37752,74.0437366 C1703.37752,72.9153949 1702.50107,72 1701.4194,72 C1700.33906,72 1699.46261,72.9153949 1699.46261,74.0437366 L1699.46261,78.6262419 L1686.89305,78.6262419 C1683.69837,78.6262419 1681.09946,81.3406228 1681.09946,84.6772508 L1681.09946,84.9330636 C1681.09946,88.2696917 1683.69837,90.9854553 1686.89305,90.9854553 L1690.91255,90.9854553 C1691.94921,90.9854553 1692.79256,91.8662809 1692.79256,92.9489911 C1692.79256,94.0303185 1691.94921,94.9111441 1690.91255,94.9111441 L1682.33205,94.9111441 C1680.0403,94.9111441 1678.17751,92.9642016 1678.17751,90.5720066 L1678.17751,80.6699785 C1678.17751,79.5416368 1677.30105,78.6262419 1676.22071,78.6262419 C1676.21012,78.6262419 1676.20218,78.6290075 1676.19291,78.6290075 C1676.18232,78.6290075 1676.17437,78.6262419 1676.16511,78.6262419 C1675.08344,78.6262419 1674.20699,79.5416368 1674.20699,80.6699785 L1674.20699,91.9146779 C1674.20699,93.56709 1672.92011,94.9111441 1671.33799,94.9111441 C1669.75588,94.9111441 1668.469,93.56709 1668.469,91.9146779 L1668.469,80.6699785 C1668.469,79.5416368 1667.59255,78.6262419 1666.51088,78.6262419 C1662.76146,78.6262419 1659.36421,80.2288743 1656.91359,82.8132746 L1656.91359,80.7086961 C1656.91359,79.5803544 1656.03714,78.6649595 1654.95679,78.6649595 C1653.87645,78.6649595 1653,79.5803544 1653,80.7086961 L1653,96.9562634 C1653,98.0846051 1653.87645,99 1654.95679,99 C1656.03714,99 1656.91359,98.0846051 1656.91359,96.9562634 L1656.91359,92.737427 C1656.91359,87.9101711 1660.1983,83.8697122 1664.55409,82.9238963 L1664.55409,91.9146779 C1664.55409,95.8210079 1667.59652,99 1671.33799,99 C1673.43115,99 1675.30586,98.0030216 1676.5517,96.4404896 C1678.01863,98.0168493 1680.06678,99 1682.33205,99 L1690.91255,99 C1694.10724,99 1696.70747,96.2856192 1696.70747,92.9489911 C1696.70747,89.6109802 1694.10724,86.8965994 1690.91255,86.8965994 L1686.89305,86.8965994 C1685.8564,86.8965994 1685.01305,86.0157738 1685.01305,84.9330636 L1685.01305,84.6772508 C1685.01305,83.5945406 1685.8564,82.713715 1686.89305,82.713715 L1699.46261,82.713715 L1699.46261,92.7554031 C1699.46261,96.1985046 1702.14492,99 1705.44288,99 C1706.52322,99 1707.39967,98.0846051 1707.39967,96.9562634 C1707.39967,95.826539 1706.52322,94.9111441 1705.44288,94.9111441 C1704.30296,94.9111441 1703.37752,93.9445867 1703.37752,92.7554031 L1703.37752,82.713715 L1709.93371,82.713715 L1709.93371,96.9562634 C1709.93371,98.0846051 1710.81016,99 1711.8905,99 L1729.15212,99 C1732.34681,99 1734.94704,96.2856192 1734.94704,92.9489911 C1734.94704,89.6109802 1732.34681,86.8965994 1729.15212,86.8965994 L1725.13262,86.8965994 Z" id="logo-2"></path>
        </g>
    </g>
</svg>