<?xml version="1.0" encoding="UTF-8"?>
<svg width="150px" height="20px" viewBox="0 0 150 20" version="1.1" xmlns="http://www.w3.org/2000/svg" xmlns:xlink="http://www.w3.org/1999/xlink">
    <title>官网logo</title>
    <g id="官网logo" stroke="none" stroke-width="1" fill="none" fill-rule="evenodd">
        <g id="编组" transform="translate(0.908897, 0.462681)" fill="#018EDD">
            <polygon id="Fill-1" points="95.9146324 7.90062562 86.6749417 7.90062562 86.6749417 4.20795912 93.169787 4.20795912 93.169787 0.243201413 80.9146324 0.243201413 80.9146324 17.8902602 86.6749417 17.8902602 86.6749417 11.3212009 95.9146324 11.3212009"></polygon>
            <polygon id="Fill-2" points="78.7969853 4.20795912 78.7969853 0.243201413 60.6205147 0.243201413 60.6205147 4.20795912 66.8469227 4.20795912 66.8469227 17.8902602 72.6092507 17.8902602 72.6092507 4.20795912"></polygon>
            <g>
                <path d="M42.0909958,12.6865839 L42.0909958,0.771170604 L36.7283415,0.771170604 L36.7283415,10.3343502 C36.7283415,11.6839925 36.3811193,12.6480227 35.6866748,13.2264408 C34.9922304,13.8434201 33.9119835,14.1133486 32.3687736,14.1133486 C30.7869835,14.1133486 29.6681563,13.8434201 28.9351316,13.265002 C28.2406872,12.6865839 27.8934649,11.7611149 27.8934649,10.4500338 L27.8934649,0.771170604 L22.5308106,0.771170604 L22.5308106,12.4552166 C22.5308106,14.6146443 23.3409958,16.041409 24.9227859,16.8511944 C26.504576,17.6609797 28.9351316,18.085153 32.2916131,18.085153 C35.5323538,18.085153 37.9629094,17.6609797 39.5832797,16.8511944 C41.2422304,16.041409 42.0909958,14.6532055 42.0909958,12.6865839" id="Fill-3"></path>
                <path d="M9.83796296,8.48357289 L9.49074074,8.48357289 L5.5941358,8.48357289 L5.5941358,3.54773826 L9.83796296,3.54773826 L9.83796296,0.270035571 L0,0.270035571 L0,17.776824 L5.74845679,17.776824 L5.74845679,11.2599799 L9.02777778,11.2599799 L9.83796296,11.2599799 L9.83796296,8.48357289 Z M14.1203704,5.93853316 C14.1203704,6.86400215 13.7345679,7.51954269 12.9243827,7.90515477 C12.2299383,8.25220564 11.1882716,8.44501168 9.83796296,8.48357289 L9.83796296,11.2599799 C10.6095679,11.2985411 11.2654321,11.4527859 11.7669753,12.1468877 L15.0848765,17.776824 L21.6435185,17.776824 L18.4027778,12.4168161 C17.3996914,10.720123 16.4351852,10.3345109 14.5833333,9.9488988 C17.3225309,9.60184792 19.7145062,8.25220564 19.7145062,5.2058702 C19.7145062,3.85622792 19.0972222,2.3137796 17.8626543,1.46543302 C16.6666667,0.655647652 15.007716,0.270035571 13.0015432,0.270035571 L9.83796296,0.270035571 L9.83796296,3.54773826 L10.4166667,3.54773826 C11.6126543,3.54773826 12.5385802,3.7405443 13.1944444,4.12615638 C13.8117284,4.51176846 14.1203704,5.09018658 14.1203704,5.93853316 L14.1203704,5.93853316 Z" id="Fill-5"></path>
                <path d="M60.6095143,12.4938314 C60.6095143,11.1827503 60.1079711,10.0644753 59.1048847,9.17756752 C58.1403785,8.32922094 56.3271069,7.67368041 53.6650699,7.21094591 C52.8548847,7.05670108 52.12186,6.94101745 51.5431563,6.78677262 C47.6079711,5.89986483 48.1480946,3.66331477 52.0446995,3.66331477 C54.1280328,3.66331477 56.1342057,4.3188553 58.1403785,4.66590618 C58.4104402,4.70446738 58.526181,4.74302859 58.5647612,4.74302859 L58.9891439,0.886907786 C56.9058106,0.231367248 54.4366748,0 52.276181,0 C49.6913044,0 47.6851316,0.462734497 46.2576625,1.34964228 C44.8301933,2.23655007 44.0971686,4.01036564 44.0971686,5.74562 C44.0971686,7.21094591 44.6372921,8.32922094 45.7561193,9.17756752 C46.8363662,9.98735289 48.842539,10.6428934 51.6974773,11.1441891 C52.584823,11.298434 53.3178477,11.4141176 53.8579711,11.5683624 C54.4366748,11.7226073 54.8610575,11.8768521 55.1311193,12.0310969 C55.6326625,12.3010254 55.9027242,12.6866375 55.9027242,13.1108107 C55.9027242,13.6892289 55.5940822,14.1134022 54.938218,14.4218918 C53.0477859,15.3087996 47.6851316,14.7689427 45.5246378,13.8049125 L44.6372921,17.23686 C44.8687736,17.2754212 45.254576,17.3525436 45.7561193,17.429666 C49.6913044,18.0466454 54.8224773,18.8564307 58.3332797,16.6198807 C59.8379094,15.6944117 60.6095143,14.3447694 60.6095143,12.4938314" id="Fill-7"></path>
                <path d="M113.091103,12.9651268 C113.091103,11.6187154 112.58956,10.5031173 111.586473,9.65680148 C110.621967,8.81048569 108.808696,8.1565144 106.146659,7.69488761 C105.336473,7.54101201 104.642029,7.38713641 104.024745,7.27172971 C103.986165,7.27172971 103.947584,7.27172971 103.947584,7.23326081 L103.947584,8.2719211 L99.8580783,5.69450483 L103.947584,3.11708856 L103.947584,4.15574885 L104.526288,4.15574885 C106.609621,4.15574885 108.615794,4.80972014 110.621967,5.15594024 C110.892029,5.19440914 111.00777,5.19440914 111.04635,5.19440914 L111.470733,1.34751919 C109.387399,0.732016793 106.918263,0.462734497 104.75777,0.462734497 C102.172893,0.462734497 100.16672,0.924361291 98.7778314,1.80914598 C97.311782,2.73239957 96.5787573,4.50196895 96.5787573,6.23306943 C96.5787573,7.69488761 97.1188807,8.81048569 98.2377079,9.61833258 C99.3565351,10.4646484 101.324128,11.1186197 104.179066,11.6187154 C104.75777,11.6956532 105.259313,11.772591 105.683696,11.8879977 L105.722276,10.9647441 L109.696041,13.6960359 L105.529375,16.1195766 L105.567955,15.2732608 C103.137399,15.4656053 99.6265968,15.0039785 98.0062264,14.2346005 L97.1188807,17.6968015 C97.3503622,17.7352704 97.7361647,17.7737393 98.2377079,17.889146 C102.172893,18.5046484 107.304066,19.3124953 110.814868,17.0812991 C112.358078,16.1580455 113.091103,14.7731651 113.091103,12.9651268" id="Fill-9"></path>
            </g>
        </g>
    </g>
</svg>