<?xml version="1.0" encoding="UTF-8"?>
<svg width="66px" height="66px" viewBox="0 0 66 66" version="1.1" xmlns="http://www.w3.org/2000/svg" xmlns:xlink="http://www.w3.org/1999/xlink">
    <title>1</title>
    <defs>
        <linearGradient x1="50%" y1="0%" x2="50%" y2="100%" id="linearGradient-1">
            <stop stop-color="#EB2588" offset="0%"></stop>
            <stop stop-color="#F0B2D5" offset="100%"></stop>
        </linearGradient>
    </defs>
    <g id="页面-2" stroke="none" stroke-width="1" fill="none" fill-rule="evenodd">
        <g id="小文件优化" transform="translate(-350, -1092)">
            <g id="编组-3" transform="translate(0, 911)">
                <g id="1" transform="translate(350, 181)">
                    <circle id="椭圆形" fill="url(#linearGradient-1)" cx="33" cy="33" r="33"></circle>
                    <path d="M46.5365593,26.4322177 L38.4296217,26.4322177 L38.4296217,20.4804011 C38.4296217,19.6608933 37.7896003,19 36.9736666,19 L31.0375618,19 C30.2253709,19 29.5816067,19.6608933 29.5816067,20.4804011 L29.5816067,26.4322177 L21.4746692,26.4322177 C20.6624783,26.4322177 20.0112284,26.9798151 20.0112284,27.8030994 L20,33.1280115 C20,33.9475192 20.89079,34.6235187 21.7067237,34.6235187 L22.2307178,34.6235187 L22.2307178,42.0519599 C22.2307178,42.9469983 21.4709263,46.5120458 21.4709263,46.5120458 C21.4709263,47.3315536 22.1521187,48 22.9905093,48 L45.024462,48 C45.8665954,48 46.5440449,47.3353301 46.5440449,46.5120458 C46.5440449,46.5120458 45.7842534,42.9621044 45.7842534,42.0519599 L45.7842534,34.6235187 L46.3045047,34.6235187 C47.1166956,34.6235187 48,33.7095976 48,32.8863133 L48,27.8030994 C48,26.9798151 47.352493,26.4322177 46.5365593,26.4322177 Z M44.3478261,45.5833333 L40.7716969,45.5833333 L40.7716969,41.168474 C40.7716969,40.80364 40.2706564,40.5088247 39.6472243,40.5088247 C39.0276169,40.5088247 38.5227516,40.80364 38.5227516,41.168474 L38.5227516,45.5833333 L35.5088588,45.5833333 L35.5088588,41.168474 C35.5088588,40.80364 35.0039935,40.5088247 34.3767366,40.5088247 C33.7494797,40.5088247 33.2446144,40.80364 33.2446144,41.168474 L33.2446144,45.5833333 L30.2307216,45.5833333 L30.2307216,41.168474 C30.2307216,40.80364 29.7296811,40.5088247 29.1062489,40.5088247 C28.4866415,40.5088247 27.9817763,40.80364 27.9817763,41.168474 L27.9817763,45.5833333 L23.6521739,45.5833333 C23.9160808,44.3229979 24.2220597,42.690458 24.2220597,41.9607901 L24.2220597,34.7083333 L43.7779403,34.7083333 L43.7779403,41.9571049 C43.7779403,42.6941432 44.0839192,44.3229979 44.3478261,45.5833333 L44.3478261,45.5833333 Z M46.778744,32.2916667 L22.4347826,32.2916667 L22.4425121,28.6593063 L32.3285024,28.6593063 L32.3285024,21.4166667 L36.8966184,21.4166667 L36.8966184,28.6593063 L46.7826087,28.6593063 L46.7826087,32.2916667 L46.778744,32.2916667 Z" id="形状" fill="#FFFFFF" fill-rule="nonzero"></path>
                </g>
            </g>
        </g>
    </g>
</svg>