<?xml version="1.0" encoding="UTF-8"?>
<svg width="66px" height="66px" viewBox="0 0 66 66" version="1.1" xmlns="http://www.w3.org/2000/svg" xmlns:xlink="http://www.w3.org/1999/xlink">
    <title>2</title>
    <defs>
        <linearGradient x1="50%" y1="0%" x2="50%" y2="100%" id="linearGradient-1">
            <stop stop-color="#EB2588" offset="0%"></stop>
            <stop stop-color="#F0B2D5" offset="100%"></stop>
        </linearGradient>
    </defs>
    <g id="页面-2" stroke="none" stroke-width="1" fill="none" fill-rule="evenodd">
        <g id="小文件优化" transform="translate(-995, -1092)">
            <g id="编组-3" transform="translate(0, 911)">
                <g id="编组-4备份-2" transform="translate(350, 181)">
                    <g id="2" transform="translate(645, 0)">
                        <circle id="椭圆形" fill="url(#linearGradient-1)" cx="33" cy="33" r="33"></circle>
                        <g id="内容管理" transform="translate(21, 20)" fill="#FFFFFF" fill-rule="nonzero">
                            <path d="M19.5645363,4.875 L19.5645363,1.625 C19.5645363,0.728125 18.8345865,0 17.9354637,0 L1.62907268,0 C0.729949875,0 0,0.728125 0,1.625 L0,24.375 C0,25.271875 0.729949875,26 1.62907268,26 L19.5614035,26 L19.5614035,4.875 L19.5645363,4.875 Z M13.0419799,20.584375 L4.34837093,20.584375 C3.75,20.584375 3.2612782,20.096875 3.2612782,19.5 C3.2612782,18.903125 3.75,18.415625 4.34837093,18.415625 L13.0451128,18.415625 C13.6434837,18.415625 14.1322055,18.903125 14.1322055,19.5 C14.1290727,20.096875 13.6403509,20.584375 13.0419799,20.584375 L13.0419799,20.584375 Z M13.0419799,14.084375 L4.34837093,14.084375 C3.75,14.084375 3.2612782,13.596875 3.2612782,13 C3.2612782,12.403125 3.75,11.915625 4.34837093,11.915625 L13.0451128,11.915625 C13.6434837,11.915625 14.1322055,12.403125 14.1322055,13 C14.1290727,13.596875 13.6403509,14.084375 13.0419799,14.084375 L13.0419799,14.084375 Z M15.2161654,7.584375 L4.3452381,7.584375 C3.74686717,7.584375 3.25814536,7.096875 3.25814536,6.5 C3.25814536,5.903125 3.74686717,5.415625 4.3452381,5.415625 L15.2161654,5.415625 C15.8145363,5.415625 16.3032581,5.903125 16.3032581,6.5 C16.3032581,7.096875 15.8145363,7.584375 15.2161654,7.584375 Z M23.3709273,5.415625 L21.7418546,5.415625 L21.7418546,26 L23.3709273,26 C24.2669173,26 25,25.26875 25,24.375 L25,7.040625 C25,6.146875 24.2669173,5.415625 23.3709273,5.415625 Z" id="形状"></path>
                        </g>
                    </g>
                </g>
            </g>
        </g>
    </g>
</svg>