<?xml version="1.0" encoding="UTF-8"?>
<svg width="66px" height="66px" viewBox="0 0 66 66" version="1.1" xmlns="http://www.w3.org/2000/svg" xmlns:xlink="http://www.w3.org/1999/xlink">
    <title>3</title>
    <defs>
        <linearGradient x1="50%" y1="0%" x2="50%" y2="100%" id="linearGradient-1">
            <stop stop-color="#EB2588" offset="0%"></stop>
            <stop stop-color="#F0B2D5" offset="100%"></stop>
        </linearGradient>
    </defs>
    <g id="页面-2" stroke="none" stroke-width="1" fill="none" fill-rule="evenodd">
        <g id="小文件优化" transform="translate(-350, -1469)">
            <g id="编组-3" transform="translate(0, 911)">
                <g id="编组-4备份-2" transform="translate(350, 181)">
                    <g id="3" transform="translate(0, 377)">
                        <circle id="椭圆形" fill="url(#linearGradient-1)" cx="33" cy="33" r="33"></circle>
                        <g id="滚动" transform="translate(20, 19)" fill="#FFFFFF" fill-rule="nonzero">
                            <path d="M0,21.75 L0,0 L21.75,0 L21.75,21.75 L0,21.75 Z M27.3888889,9.21722067 C28.3268127,9.59146648 29,10.5979609 29,11.7802374 C29,12.9653492 28.3268127,13.9718436 27.3888889,14.3432542 L27.3888889,25.375 L25.7777778,25.375 L25.7777778,14.3460894 C24.8398539,13.9718436 24.1666667,12.9653492 24.1666667,11.7830726 C24.1666667,10.5979609 24.8398539,9.59146648 25.7777778,9.22005587 L25.7777778,0 L27.3888889,0 L27.3888889,9.21722067 Z M16.1577793,27.3888889 C15.7835335,28.3268127 14.7770391,29 13.5947626,29 C12.4096508,29 11.4031564,28.3268127 11.0317458,27.3888889 L0,27.3888889 L0,25.7777778 L11.0317458,25.7777778 C11.4059916,24.8398539 12.412486,24.1666667 13.5947626,24.1666667 C14.7798743,24.1666667 15.7863687,24.8398539 16.1577793,25.7777778 L25.375,25.7777778 L25.375,27.3888889 L16.1577793,27.3888889 Z" id="形状"></path>
                        </g>
                    </g>
                </g>
            </g>
        </g>
    </g>
</svg>