<?xml version="1.0" encoding="UTF-8"?>
<svg width="66px" height="66px" viewBox="0 0 66 66" version="1.1" xmlns="http://www.w3.org/2000/svg" xmlns:xlink="http://www.w3.org/1999/xlink">
    <title>4</title>
    <defs>
        <linearGradient x1="50%" y1="0%" x2="50%" y2="100%" id="linearGradient-1">
            <stop stop-color="#EB2588" offset="0%"></stop>
            <stop stop-color="#F0B2D5" offset="100%"></stop>
        </linearGradient>
    </defs>
    <g id="页面-2" stroke="none" stroke-width="1" fill="none" fill-rule="evenodd">
        <g id="小文件优化" transform="translate(-995, -1469)">
            <g id="编组-3" transform="translate(0, 911)">
                <g id="编组-4备份-2" transform="translate(350, 181)">
                    <g id="4" transform="translate(645, 377)">
                        <circle id="椭圆形" fill="url(#linearGradient-1)" cx="33" cy="33" r="33"></circle>
                        <g id="自动更新" transform="translate(15, 18)" fill="#FFFFFF" fill-rule="nonzero">
                            <path d="M33.3972675,12.2654861 C33.3972675,12.038348 33.4163541,11.8063739 33.4163541,11.5742101 C33.4163541,5.189469 28.3671466,0 22.1159883,0 C17.6082451,0 13.7513498,2.70106521 11.9321271,6.59680192 C11.0437426,5.90078469 9.92749147,5.47596764 8.73990328,5.47596766 C5.84234918,5.47596766 3.52449615,7.87087378 3.52449615,10.8187375 C3.52449615,11.3767524 3.60052563,11.8950671 3.74779708,12.3987155 C1.50105919,13.7665379 0,16.2749815 0,19.1486918 C0,23.4300512 3.3772564,26.7282309 7.53348212,26.9801815 L30.1150321,26.9801815 C30.248163,26.9801815 30.3764746,27 30.5234924,27 C34.6418302,27 38,23.5632806 38,19.3413135 C38,16.1566712 36.0859149,13.4209632 33.3972675,12.2654545 L33.3972675,12.2654861 Z M12.0551757,13.2887768 C12.494545,11.585045 13.5176938,10.0881237 14.9474667,9.05720068 C16.4106697,7.97568725 18.1250426,7.43495989 20.0877004,7.43495989 C21.1256838,7.4342124 22.1555475,7.6172985 23.129292,7.97568728 C24.1135536,8.33374736 24.9870684,8.84498181 25.7525946,9.49772711 L27.144841,8.24533863 C27.2753495,8.12372618 27.4480116,8.05719928 27.6266359,8.05970245 C27.8128415,8.05970245 27.9739365,8.12152849 28.1084307,8.24533863 C28.2371388,8.3539584 28.3116735,8.51332578 28.3123914,8.68143988 L28.3123914,13.0457397 C28.3120789,13.2143577 28.2375086,13.3743328 28.1084307,13.483295 C27.9779025,13.6048762 27.8052536,13.671398 27.6266359,13.6689311 L22.8292958,13.6689311 C22.6506756,13.6714112 22.4780219,13.6048875 22.3475009,13.483295 C22.2182802,13.3741174 22.1437726,13.2137998 22.1437726,13.0449337 C22.1437726,12.8760676 22.2182802,12.71575 22.3475009,12.6065725 L23.8254152,11.2628989 C22.7686751,10.372964 21.522749,9.9279492 20.086242,9.9279492 C19.1300079,9.9279492 18.2388332,10.1401049 17.4112596,10.5615082 C16.5820689,10.9829432 15.9185072,11.5634316 15.4174672,12.3045857 C15.3391232,12.4150887 15.1514591,12.795243 14.849941,13.444954 C14.793759,13.5938296 14.6873875,13.6689312 14.5292411,13.6689311 L12.3980693,13.6689311 C12.3087565,13.6701702 12.2224281,13.6369021 12.1571719,13.5760973 C12.0924159,13.5214502 12.0551757,13.4411267 12.0551757,13.3565452 L12.0551757,13.2887768 L12.0551757,13.2887768 Z M28.3021188,17.7885819 C27.8677868,19.4922714 26.84729,20.9898766 25.4186419,22.020158 C23.9554389,23.1016714 22.2410977,23.64244 20.2754913,23.64244 C19.2382872,23.6441317 18.2089897,23.462546 17.2353582,23.1060966 C16.2762138,22.761021 15.3886048,22.2436684 14.6164943,21.5796631 L13.2272599,22.8349596 C13.0961018,22.9565384 12.9229895,23.023047 12.7439115,23.020659 C12.5643553,23.023397 12.3906817,22.9568647 12.2591681,22.8349596 C12.1300971,22.7259921 12.0555284,22.5660204 12.0552074,22.3974044 L12.0552074,18.0317138 C12.0555049,17.8630655 12.1300753,17.7030553 12.2591681,17.5940637 C12.3906929,17.4721875 12.5643672,17.4056889 12.7439115,17.4084591 L17.5634454,17.4084591 C17.7512046,17.4084591 17.9122679,17.4703484 18.0482205,17.5940637 C18.1773814,17.7032769 18.2518449,17.8635813 18.2518449,18.032425 C18.2518449,18.2012686 18.1773814,18.3615731 18.0482205,18.4707862 L16.574745,19.8042187 C17.083109,20.2329868 17.6610345,20.5644642 18.306873,20.7987773 C18.9511896,21.0315417 19.6222338,21.1494094 20.3182619,21.1494094 C21.2789664,21.1494094 22.1760382,20.9372854 23.0081458,20.5158504 C23.8145514,20.1162303 24.503827,19.5158459 25.0092622,18.7728046 C25.0875744,18.6623016 25.2782823,18.282242 25.5797369,17.6324047 C25.6373456,17.4835291 25.745239,17.4084591 25.9018952,17.4084591 L27.968071,17.4084591 C28.061158,17.4084591 28.1424823,17.4393721 28.2104586,17.5012614 C28.2784666,17.5631823 28.3124231,17.6353443 28.3124231,17.7208451 L28.3124231,17.7193595 C28.3143762,17.7429166 28.3108499,17.7666054 28.3021188,17.7885819 L28.3021188,17.7885819 Z" id="形状"></path>
                        </g>
                    </g>
                </g>
            </g>
        </g>
    </g>
</svg>