<?xml version="1.0" encoding="UTF-8"?>
<svg width="66px" height="66px" viewBox="0 0 66 66" version="1.1" xmlns="http://www.w3.org/2000/svg" xmlns:xlink="http://www.w3.org/1999/xlink">
    <title>5</title>
    <defs>
        <linearGradient x1="50%" y1="0%" x2="50%" y2="100%" id="linearGradient-1">
            <stop stop-color="#EB2588" offset="0%"></stop>
            <stop stop-color="#F0B2D5" offset="100%"></stop>
        </linearGradient>
    </defs>
    <g id="页面-2" stroke="none" stroke-width="1" fill="none" fill-rule="evenodd">
        <g id="小文件优化" transform="translate(-350, -1722)">
            <g id="编组-3" transform="translate(0, 911)">
                <g id="编组-4备份-2" transform="translate(350, 181)">
                    <g id="5" transform="translate(0, 630)">
                        <circle id="椭圆形" fill="url(#linearGradient-1)" cx="33" cy="33" r="33"></circle>
                        <g id="扩展组件" transform="translate(16, 17)" fill="#FFFFFF" fill-rule="nonzero">
                            <path d="M16.350211,32 L14.5189873,32 L11.6413502,29.1497976 L12.556962,26.9473684 C13.8649789,26.9473684 14.9113924,25.9109312 14.9113924,24.6153846 C14.9113924,23.3198381 13.8649789,22.2834008 12.556962,22.2834008 C11.2489451,22.2834008 10.2025316,23.3198381 10.2025316,24.6153846 L7.97890295,25.5222672 L0,17.6194332 L0,15.805668 L5.23206751,10.6234818 L7.4556962,11.4008097 C7.58649789,12.5668016 8.63291139,13.3441296 9.81012658,13.3441296 C11.1181435,13.3441296 12.164557,12.3076923 12.164557,11.0121457 C12.164557,9.84615385 11.2489451,8.8097166 10.2025316,8.68016194 L9.41772152,6.47773279 L14.649789,1.29554656 L16.4810127,1.29554656 L17.7890295,2.59109312 C18.5738397,1.03643725 20.2742616,0 22.2362869,0 C24.9831224,0 27.2067511,2.20242915 27.2067511,4.92307692 C27.2067511,6.86639676 26.1603376,8.42105263 24.5907173,9.32793522 L31,15.6761134 L31,17.4898785 L27.2067511,21.2469636 C28.5147679,22.1538462 29.4303797,23.708502 29.4303797,25.3927126 C29.4303797,28.1133603 27.2067511,30.3157895 24.4599156,30.3157895 C22.7594937,30.3157895 21.1898734,29.4089069 20.2742616,28.1133603 L16.350211,32 Z M15.0421941,28.8906883 L15.4345992,29.2793522 L19.7510549,25.0040486 L21.9746835,25.7813765 C22.1054852,26.9473684 23.1518987,27.854251 24.3291139,27.854251 C25.6371308,27.854251 26.6835443,26.8178138 26.6835443,25.5222672 C26.6835443,24.3562753 25.7679325,23.3198381 24.5907173,23.1902834 L23.8059072,20.9878543 L28.1223629,16.7125506 L20.92827,9.58704453 L21.9746835,7.38461538 L22.1054852,7.38461538 C23.4135021,7.38461538 24.4599156,6.34817814 24.4599156,5.05263158 C24.4599156,3.75708502 23.4135021,2.72064777 22.1054852,2.72064777 C20.7974684,2.72064777 19.7510549,3.75708502 19.7510549,5.05263158 L19.7510549,5.18218623 L17.5274262,6.21862348 L15.4345992,4.14574899 L12.556962,6.99595142 C13.8649789,7.90283401 14.649789,9.32793522 14.649789,11.0121457 C14.649789,13.7327935 12.4261603,15.9352227 9.67932489,15.9352227 C7.97890295,15.9352227 6.54008439,15.1578947 5.62447257,13.8623482 L2.74683544,16.7125506 L8.24050633,22.1538462 C9.15611814,20.7287449 10.7257384,19.6923077 12.556962,19.6923077 C15.3037975,19.6923077 17.5274262,21.8947368 17.5274262,24.6153846 C17.5274262,26.4291498 16.4810127,27.9838057 15.0421941,28.8906883 Z" id="形状"></path>
                        </g>
                    </g>
                </g>
            </g>
        </g>
    </g>
</svg>