<?xml version="1.0" encoding="UTF-8"?>
<svg width="16px" height="11px" viewBox="0 0 16 11" version="1.1" xmlns="http://www.w3.org/2000/svg" xmlns:xlink="http://www.w3.org/1999/xlink">
    <title>路径</title>
    <g id="页面-1" stroke="none" stroke-width="1" fill="none" fill-rule="evenodd">
        <g id="价格备份-2" transform="translate(-1044, -769)" fill="#2172DF" fill-rule="nonzero">
            <g id="3" transform="translate(350.3798, 544)">
                <g id="矩形-2备份-3" transform="translate(629, 0)">
                    <g id="对号" transform="translate(65.3075, 225.4602)">
                        <path d="M4.95680509,10 C4.70365164,9.99214312 4.46340588,9.88643498 4.28658199,9.70510184 L0.285349962,5.72397651 C-0.0951166541,5.32935643 -0.0951166541,4.70442582 0.285349962,4.30980574 C0.471559419,4.12235095 0.724862244,4.01693462 0.989084236,4.01693462 C1.25330623,4.01693462 1.50660905,4.12235095 1.69281851,4.30980574 L4.95680509,7.59389902 L13.2943807,0.295169263 C13.4785335,0.106428059 13.731068,0 13.9947638,0 C14.2584597,0 14.5109942,0.106428059 14.695147,0.295169263 C14.8826018,0.48137872 14.9880181,0.734681545 14.9880181,0.998903537 C14.9880181,1.26312553 14.8826018,1.51642835 14.695147,1.70263781 L5.66053937,9.70510184 C5.47424281,9.89267596 5.22117006,9.9987255 4.95680509,10 Z" id="路径"></path>
                    </g>
                </g>
            </g>
        </g>
    </g>
</svg>