<?xml version="1.0" encoding="UTF-8"?>
<svg width="37px" height="40px" viewBox="0 0 37 40" version="1.1" xmlns="http://www.w3.org/2000/svg" xmlns:xlink="http://www.w3.org/1999/xlink">
    <title>代码生成</title>
    <g id="页面-1" stroke="none" stroke-width="1" fill="none" fill-rule="evenodd">
        <g id="价格" transform="translate(-796, -1033)" fill-rule="nonzero">
            <g id="矩形-3" transform="translate(0, 861)">
                <g id="代码生成" transform="translate(796, 172)">
                    <path d="M30.9356417,40 L6.07125548,40 C2.71853033,40 0.000476104111,37.3238804 0,34.0224128 L0,5.9784362 C0,2.67696857 2.71766821,0.000468825281 6.07039333,0 L27.6189533,0 L37,9.12980728 L37,34.0215638 C37,37.3203814 34.2865351,39.995784 30.9365039,40 L30.9356417,40 Z" id="路径" fill="#42B4FA"></path>
                    <path d="M28,0.000911826388 L28,7.83441233 C28,9.03043337 28.8795068,10 29.9644334,10 L37,10 L37,9.80669281 L28.0008271,0 L28,0.000911826388 Z" id="路径" fill="#92DBFF"></path>
                    <path d="M7.51165586,31.5507606 C8.22499202,32.2454513 9.35793771,32.2454513 10.0704347,31.5507606 L17.1861727,24.4723346 C17.5443739,24.0945754 17.7441995,23.5928692 17.7442534,23.0711502 C17.8084778,22.5713777 17.6364812,22.0701732 17.2793261,21.7163347 L10.1627487,14.5207218 C9.4501519,13.8264261 8.31740602,13.8264261 7.60480917,14.5207218 C7.26828234,14.8807132 7.08449337,15.3587346 7.09288556,15.8527744 C7.08086838,16.3334658 7.2659575,16.7980078 7.60480917,17.1376149 L13.4189186,23.0011753 L7.51165586,28.9347106 C7.17311173,29.2744596 6.98833313,29.7389837 7.00057147,30.2195511 C6.99217928,30.7135908 7.17512903,31.1916122 7.51249507,31.5516036 L7.51165586,31.5507606 Z M19.5351468,33 L25.1394514,33 C26.167004,33 27,32.1631804 27,31.1309111 C27,30.0986418 26.167004,29.2618222 25.1394514,29.2618222 L19.5351468,29.2618222 C18.5075942,29.2618222 17.6745982,30.0986418 17.6745982,31.1309111 C17.6745982,32.1631804 18.5075942,33 19.5351468,33 L19.5351468,33 Z" id="形状" fill="#FFFFFF"></path>
                </g>
            </g>
        </g>
    </g>
</svg>