<?xml version="1.0" encoding="UTF-8"?>
<svg width="45px" height="40px" viewBox="0 0 45 40" version="1.1" xmlns="http://www.w3.org/2000/svg" xmlns:xlink="http://www.w3.org/1999/xlink">
    <title>供应商管理</title>
    <g id="页面-1" stroke="none" stroke-width="1" fill="none" fill-rule="evenodd">
        <g id="价格" transform="translate(-352, -1033)" fill-rule="nonzero">
            <g id="矩形-3" transform="translate(0, 861)">
                <g id="供应商管理" transform="translate(352, 172)">
                    <path d="M11.0565996,7.10119004 L18.5053062,1.49399788 C20.5778245,-0.0428444744 23.266394,-0.427055063 25.6459872,0.495430756 L37.5487066,4.94999115 C38.3066358,5.25051425 39.1139643,5.40693839 39.9292505,5.41123406 L41.925713,5.41123406 C42.4628565,5.41123406 43,5.87152595 43,6.40980118 L43,20.9270651 C43,21.4643893 42.5398629,22.0017136 41.925713,22.0017136 L39.3141499,22.0017136 C38.9300685,22.0017136 38.5469379,22.1557782 38.3159186,22.3868752 L37.7787751,22.8471671 C37.625713,23.0012317 37.3946938,22.9241994 37.3176874,22.7710858 L23.4194561,6.02463957 C23.0353748,5.56339667 22.4212249,5.48636434 21.9610878,5.79449363 L15.5876188,9.32751921 C14.2823126,10.0189081 12.8229936,10.0959404 11.440681,9.55766516 C10.7495247,9.25048689 10.366394,8.40598441 10.6725182,7.71459556 C10.7495247,7.40741729 10.9035375,7.25335265 11.0565996,7.10023902 L11.0565996,7.10119004 Z M1.30530621,21.9256323 L3.53183728,21.9256323 L5.14421844,20.0045793 C6.52653106,18.3155743 9.06108777,18.0854284 10.7495247,19.4672551 C11.3632557,19.9973314 11.8155795,20.6893923 12.0548309,21.4643893 C13.4371435,21.8485999 14.4353748,22.8471671 14.8194561,24.2299448 C15.8176874,24.537123 16.6628565,25.1524306 17.1229936,26.0730144 C17.9659142,26.219303 18.7433348,26.6217585 19.3495247,27.2256461 C20.6548309,28.5313915 20.8858501,30.6055581 19.8876188,32.1424005 L19.6575503,32.52566 L19.6575503,32.6017413 C20.7318373,33.2940812 22.1141499,33.0639353 22.8823126,32.0653681 C23.266394,31.5270929 23.3424497,30.9127364 23.266394,30.2983798 L23.266394,30.2222985 L23.3424497,30.2222985 L23.4964625,30.3744611 C24.2646252,31.1428823 25.5689808,31.296947 26.4911563,30.6825904 C27.259319,30.1443152 27.5654433,29.2227804 27.4133319,28.3782779 L27.4133319,28.3012456 L27.4893876,28.3012456 L27.6434004,28.4543592 C28.4106124,29.2227804 29.6398629,29.376845 30.6380942,28.7615375 C31.4053062,28.2242133 31.7893876,27.3026785 31.6363254,26.457225 L31.7123812,26.457225 L31.866394,26.6112896 C32.6345567,27.3797108 33.7858501,27.4557921 34.6310192,26.9955002 C35.7053062,26.3811437 36.0893876,24.9213336 35.3982313,23.8457342 C35.3221755,23.6926206 35.2451691,23.6155882 35.1681627,23.4615236 L33.7088437,21.8485999 L22.3442184,8.17583846 C22.1911563,8.02272484 22.0371435,8.02272484 21.8840814,8.09975716 L16.4318373,11.0954585 C14.6654433,12.0169933 12.592925,12.2471393 10.7495247,11.5557504 C9.67523767,11.1715398 8.90707495,10.4040697 8.52299359,9.40550255 C8.2201251,8.3722464 8.35920047,7.25961343 8.90707495,6.33276886 C9.06013708,6.10262291 8.98313067,5.79449363 8.67700641,5.64138 C8.6,5.5652987 8.52299359,5.5652987 8.44598718,5.5652987 L1.07428698,5.5652987 C0.805683188,5.52433402 0.53256579,5.60245913 0.326218517,5.77928335 C0.119871244,5.95610757 0.000769908395,6.21408465 0,6.48588248 L0,20.9270651 C0.230068539,21.4643893 0.691156312,21.9256323 1.30530621,21.9256323 L1.30530621,21.9256323 Z M9.13714349,20.8509838 C8.29292505,20.3897409 7.21673668,20.6198869 6.60353748,21.388308 L5.06721203,23.2313776 C4.37700641,24.0768311 4.53006854,25.3045932 5.29823126,25.9199008 L5.37428698,25.9199008 L5.60530621,26.0730144 C6.22915432,26.542827 7.07039781,26.6031222 7.75483086,26.227079 C7.83183728,26.1509977 7.83183728,26.227079 7.90884369,26.3031603 L7.90884369,26.457225 C7.75483086,27.1486138 8.06190581,27.917035 8.6,28.3012456 L8.75306213,28.4543592 C9.3483165,28.9090309 10.1458339,28.9979176 10.8265311,28.6854562 C10.9025868,28.6084239 10.9805439,28.6854562 10.9805439,28.7615375 L10.9805439,28.8385698 C10.9035375,29.4529263 11.2106124,30.1443152 11.7477559,30.6055581 L11.9017687,30.6816394 C12.5159186,31.1428823 13.2840814,31.2199146 13.974287,30.8357041 C14.0512934,30.7596227 14.1282998,30.8357041 14.1282998,30.9127364 L14.1282998,30.9888177 C14.2043555,31.4500606 14.5123812,31.9113035 14.8964625,32.2184818 L14.9725182,32.2945631 C15.8186381,32.9098706 17.0459872,32.8328383 17.7371435,31.9113035 C17.8141499,31.8352222 17.8911563,31.7572389 17.8911563,31.6811575 L18.1212249,31.2199146 C18.5823126,30.3754122 18.5053062,29.376845 17.7371435,28.7615375 C17.2,28.2242133 16.3548309,28.1471809 15.5876188,28.3782779 C15.5106124,28.3782779 15.5106124,28.3782779 15.5106124,28.3012456 L15.5106124,28.2251643 C15.5866681,27.1486138 14.7424497,26.3041113 13.667212,26.1500467 C13.4371435,26.1500467 13.1300685,26.227079 12.9,26.3041113 C12.592925,26.3801926 12.6699315,26.0739654 12.6699315,26.0739654 C13.0530621,25.0753983 12.592925,23.9997988 11.5946938,23.5385559 C11.0565996,23.30841 10.4424497,23.3854423 9.90530621,23.6146372 C9.67523767,23.6926206 9.75129339,23.4624746 9.75129339,23.4624746 C10.3654433,22.5399888 10.0583683,21.388308 9.13714349,20.8500328 L9.13714349,20.8509838 Z" id="形状" fill="#F82595"></path>
                    <path d="M1.02540227,36.0009158 L43.9745977,36.0009158 C44.6581992,36.0009158 45,36.3333333 45,36.9981685 L45,39.0018315 C45,39.6675824 44.6581992,40 43.9736561,40 L1.02634387,40 C0.342742357,40 0,39.6675824 0,39.0018315 L0,36.9981685 C0,36.3333333 0.342742357,36 1.02634387,36 L1.02540227,36.0009158 Z" id="路径" fill-opacity="0.602414431" fill="#E8037D"></path>
                </g>
            </g>
        </g>
    </g>
</svg>