<?xml version="1.0" encoding="UTF-8"?>
<svg width="36px" height="40px" viewBox="0 0 36 40" version="1.1" xmlns="http://www.w3.org/2000/svg" xmlns:xlink="http://www.w3.org/1999/xlink">
    <title>生产任务</title>
    <g id="页面-1" stroke="none" stroke-width="1" fill="none" fill-rule="evenodd">
        <g id="价格" transform="translate(-1222, -1033)" fill-rule="nonzero">
            <g id="矩形-3" transform="translate(0, 861)">
                <g id="生产任务" transform="translate(1222, 172)">
                    <path d="M10.4946693,6 L24.5053307,6 C25.2530576,6 26,5.40025199 26,4.399832 L26,1.600168 C26,0.799664007 25.4397932,0 24.5053307,0 L10.4946693,0 C9.74772696,0 9,0.599748005 9,1.600168 L9,4.59974801 C9.18752019,5.40025199 9.74772696,6 10.4946693,6 L10.4946693,6 Z" id="路径" fill="#FECC87"></path>
                    <path d="M32.302579,3 L28.7996731,3 L28.7996731,5.21979799 C28.7996731,7.25545453 27.0482201,8.73480187 25.1022521,8.73480187 L10.7024155,8.73480187 C8.7572648,8.73480187 7.00499455,7.06975914 7.00499455,5.21979799 L7.00499455,3.00077697 L3.697421,3.00077697 C1.75145296,3.00077697 0,4.84996115 0,6.88561769 L0,36.1151593 C0,38.3341803 1.55693789,40 3.697421,40 L31.9135489,40 C33.0806393,40 34.054032,39.6293862 34.8320923,38.8889356 C35.6109699,38.1492619 36,37.2246698 36,36.1151593 L36,6.88561769 C36,4.84996115 34.4430621,3.00077697 32.302579,3.00077697 L32.302579,3 Z M6.61514711,17.4290754 C6.61514711,17.24338 6.61514711,17.0584616 6.80966219,16.8735432 L8.95096259,14.8386636 C9.33999274,14.6537452 9.72902288,14.6537452 9.92353796,14.8386636 L11.2859608,16.1338695 C11.869506,16.6886248 11.869506,17.4290754 11.4804758,18.1687491 L14.2045042,20.7583839 L12.8420814,21.8686714 L10.118053,19.2782596 C9.92353796,19.2782596 9.53450781,19.463955 9.33999274,19.463955 C8.75563022,19.463955 8.36741736,19.2782596 7.97756992,18.9084228 L6.61514711,17.6139938 C6.80966219,17.7989122 6.61514711,17.6139938 6.61514711,17.4290754 L6.61514711,17.4290754 Z M26.0748275,33.1533567 C25.6857973,33.5231935 24.9069197,33.8930304 24.3233745,33.8930304 C23.7398293,33.8930304 23.1554668,33.708112 22.7664366,33.3382751 L18.6799855,29.4534344 L22.1828914,26.1233489 L26.2693425,30.0081897 C26.6583727,30.3780265 26.8528878,30.9327818 26.8528878,31.488314 C27.0474028,32.0430692 26.4638576,32.7827429 26.0748275,33.1533567 Z M28.4098256,20.2036287 C27.8262804,23.1638773 25.1014348,24.828143 21.9883763,24.2733878 L18.2909553,27.4185548 L13.620959,31.8581508 C13.0365964,32.4129061 12.0640211,32.7827429 11.2859608,32.7827429 C10.3133854,32.7827429 9.53450781,32.4129061 8.9501453,31.8581508 C8.172085,31.3033956 7.78305485,30.5629449 7.78305485,29.6383528 C7.78305485,28.7137607 8.172085,27.9733101 8.75563022,27.4185548 L14.9833818,22.2385082 L16.7340174,20.7583839 L17.3175627,20.3885471 C16.7340174,18.5393629 17.3175627,16.5037063 18.8745005,15.2085005 C20.2369234,13.9140715 22.3774065,13.3593163 24.3233745,13.7291531 C24.5178896,13.7291531 24.9069197,13.9140715 24.9069197,14.2839084 C24.9069197,14.4688268 24.9069197,14.8386636 24.7124046,15.023582 L23.7398293,15.9481741 C23.1554668,16.5037063 23.1554668,17.6139938 23.7398293,18.1687491 C24.3233745,18.9084228 25.4904649,18.9084228 26.2693425,18.3536675 L27.2419179,17.4290754 C27.4372503,17.24338 27.8262804,17.24338 28.0207955,17.24338 C28.2153106,17.24338 28.6043407,17.6139938 28.6043407,17.7989122 C28.6043407,18.5385859 28.6043407,19.463955 28.4098256,20.2036287 L28.4098256,20.2036287 Z" id="形状" fill="#FD9F55"></path>
                </g>
            </g>
        </g>
    </g>
</svg>