<?xml version="1.0" encoding="UTF-8"?>
<svg width="23px" height="22px" viewBox="0 0 23 22" version="1.1" xmlns="http://www.w3.org/2000/svg" xmlns:xlink="http://www.w3.org/1999/xlink">
    <title>路径</title>
    <g id="页面-1" stroke="none" stroke-width="1" fill="none" fill-rule="evenodd">
        <g id="价格" transform="translate(-874, -1790)" fill="#FFB400" fill-rule="nonzero">
            <g id="为什么我们的客户购买RustFS？备份-2" transform="translate(0, 1405)">
                <g id="星星-(1)" transform="translate(874, 385)">
                    <path d="M17.4768035,22 C17.2009386,22 16.9250738,21.9312008 16.6262202,21.770617 L11.9824729,19.3389198 C11.8675292,19.2700982 11.7066081,19.2242171 11.5227206,19.2242171 C11.3617995,19.2242171 11.1778896,19.2700982 11.0629459,19.3159793 L6.44220979,21.770617 C6.16634495,21.9312008 5.89048011,22 5.56863779,22 C5.01690811,22 4.48816716,21.7476541 4.12032492,21.3347468 C3.75250513,20.9217946 3.61459516,20.3712441 3.70652766,19.8206711 L4.60311085,14.6819902 C4.64908832,14.3608227 4.53414464,14.0396551 4.30423482,13.8102497 L0.580081901,10.2085626 C0.0513409536,9.70389311 -0.132568941,8.96977344 0.0973184273,8.28155724 C0.327183346,7.59331865 0.901924216,7.11156732 1.61457506,6.99686462 L6.76405211,6.23982681 C7.08589442,6.19394573 7.38472555,5.98748087 7.52265797,5.71219439 L9.82153166,1.03232429 C10.143374,0.389989175 10.7870586,0 11.4997094,0 C12.2123603,0 12.8560449,0.389989175 13.1778872,1.03232429 L15.4767609,5.71219439 C15.6376821,6.01044381 15.9135469,6.19394573 16.2353892,6.23982681 L21.3848887,6.99688702 C22.0975396,7.11158972 22.672258,7.59334105 22.9021454,8.2586167 C23.1320327,8.9468329 22.9481228,9.68093017 22.4423706,10.1856444 L18.741184,13.8102273 C18.4882854,14.0396327 18.3963529,14.3608003 18.442308,14.6819678 L19.31588,19.7977082 C19.4078349,20.3482811 19.2699025,20.8988541 18.9020827,21.3117838 C18.5572741,21.7476541 18.0285332,22 17.4768035,22 Z" id="路径"></path>
                </g>
            </g>
        </g>
    </g>
</svg>