<?xml version="1.0" encoding="UTF-8"?>
<svg width="16px" height="16px" viewBox="0 0 16 16" version="1.1" xmlns="http://www.w3.org/2000/svg" xmlns:xlink="http://www.w3.org/1999/xlink">
    <title>形状</title>
    <g id="页面-1" stroke="none" stroke-width="1" fill="none" fill-rule="evenodd">
        <g id="价格备份-2" transform="translate(-778, -617)" fill="#A7A7A7" fill-rule="nonzero">
            <g id="3" transform="translate(350.3798, 544)">
                <g id="回流区价格" transform="translate(427.6202, 73)">
                    <path d="M15.5812166,7.99478743 C16.1332658,8.64736499 16.1394985,9.27492707 15.6000583,9.87740543 L9.76649295,15.7322969 C9.64107142,15.832686 9.50619254,15.9048359 9.3619293,15.9487724 C9.21766607,15.992709 9.07032177,16.0083334 8.91968458,15.9958362 C8.76918862,15.9832473 8.62805351,15.951902 8.49628157,15.9017063 C8.36462732,15.8515106 8.25479933,15.7824902 8.16696708,15.6945982 C6.76187682,14.2889127 5.50737902,13.0276212 4.40337719,11.9105589 L3.01087239,10.4986142 C2.54668137,10.0468149 2.13586148,9.63895214 1.77834444,9.27492709 C1.42070971,8.91099858 1.12907862,8.61601974 0.903215834,8.39015541 L0.545698794,8.03239186 C0.520624377,8.00730577 0.479812823,7.95386505 0.423405378,7.87241825 C0.366997934,7.79078543 0.307344669,7.68415834 0.244586831,7.55237687 C0.181923143,7.42052475 0.125421549,7.27306948 0.0752491551,7.10991921 C0.0250767842,6.94672184 0,6.77107679 0,6.58281688 L0,6.24390282 C0,6.06823422 0.00312813328,5.84862906 0.00936083943,5.58501902 C0.0157112327,5.32147961 0.0219698438,5.03280705 0.02820255,4.71907192 C0.0344587936,4.4052426 0.0376810766,4.08524831 0.0376810766,3.7589242 C0.0501723938,2.99329557 0.0627554933,2.14612831 0.0752468105,1.21742239 C0.100344765,1.06676689 0.128549659,0.916207945 0.159974492,0.765623084 C0.19130752,0.614967578 0.269682441,0.470644243 0.395198116,0.332580063 C0.520619642,0.20710484 0.661754768,0.12234243 0.818601127,0.0784058579 C0.975355681,0.0344716319 1.11648846,0.0125857769 1.24200414,0.0125857769 L6.96263887,0.0125857769 C6.98771329,-5.77311392e-07 7.0755691,-0.0031327699 7.22606741,0.00312638617 C7.37665753,0.00983296154 7.47074839,0.025553877 7.50833766,0.0501901787 C7.58358682,0.0757472361 7.6683145,0.119681462 7.762403,0.181995202 C7.85649386,0.245156685 7.93486879,0.307941393 7.99762662,0.37025511 L15.5812166,7.99478743 Z M3.00806013,3.99999942 C3.28540081,3.99999942 3.52000025,3.90324443 3.71204057,3.70965172 C3.90408091,3.51613971 4,3.27956339 4,2.99997925 C4,2.72039713 3.90408089,2.48387931 3.71204057,2.29030678 C3.52000023,2.09669389 3.28540079,1.99999942 3.00806013,1.99999942 C2.73071946,1.99999942 2.49336027,2.09671407 2.29602056,2.29030678 C2.09868085,2.48387931 2,2.7203951 2,2.99997925 C2,3.27956137 2.09868087,3.51613971 2.29602056,3.70965172 C2.49336027,3.90326259 2.73073947,3.99999942 3.00806013,3.99999942 L3.00806013,3.99999942 Z" id="形状"></path>
                </g>
            </g>
        </g>
    </g>
</svg>