<?xml version="1.0" encoding="UTF-8"?>
<svg width="27px" height="18px" viewBox="0 0 27 18" version="1.1" xmlns="http://www.w3.org/2000/svg" xmlns:xlink="http://www.w3.org/1999/xlink">
    <title>形状</title>
    <g id="页面-1" stroke="none" stroke-width="1" fill="none" fill-rule="evenodd" opacity="0.454333351">
        <g id="价格" transform="translate(-946, -1552)" fill="#FFFFFF" fill-rule="nonzero">
            <g id="为什么我们的客户购买RustFS？备份-2" transform="translate(0, 1405)">
                <path d="M973,150.2 C972.53125,150.466667 972.140625,150.68 971.828125,150.84 C969.588542,152.12 968.104167,153.72 967.375,155.64 L971.671875,155.64 L971.671875,165 L963,165 L963,158.6 C963,154.013333 965.473958,150.146667 970.421875,147 L973,150.2 Z M956,150.2 C955.53125,150.466667 955.140625,150.68 954.828125,150.84 C952.588542,152.12 951.104167,153.72 950.375,155.64 L954.671875,155.64 L954.671875,165 L946,165 L946,158.6 C946,154.013333 948.473958,150.146667 953.421875,147 L956,150.2 Z" id="形状"></path>
            </g>
        </g>
    </g>
</svg>