<?xml version="1.0" encoding="UTF-8"?>
<svg width="20px" height="20px" viewBox="0 0 20 20" version="1.1" xmlns="http://www.w3.org/2000/svg" xmlns:xlink="http://www.w3.org/1999/xlink">
    <title>加号</title>
    <g id="页面-1" stroke="none" stroke-width="1" fill="none" fill-rule="evenodd">
        <g id="价格" transform="translate(-1525, -2300)" fill="#B1B1B1" fill-rule="nonzero">
            <g id="矩形-3备份" transform="translate(0, 1881)">
                <g id="编组备份" transform="translate(350, 415)">
                    <g id="加号" transform="translate(1175, 4)">
                        <path d="M10,0 C10.6133333,0 11.1116667,0.49666668 11.1116667,1.11166668 L11.1116667,8.88833332 L18.8883333,8.88833332 C19.5022899,8.88833332 20,9.38604345 20,10 C20,10.6139566 19.5022899,11.1116667 18.8883333,11.1116667 L11.1116667,11.1116667 L11.1116667,18.8883333 C11.1116667,19.5022899 10.6139566,20 10,20 C9.38604345,20 8.88833332,19.5022899 8.88833332,18.8883333 L8.88833332,11.1116667 L1.11166668,11.1116667 C0.497710126,11.1116667 0,10.6139566 0,10 C0,9.38604345 0.497710126,8.88833332 1.11166668,8.88833332 L8.88833332,8.88833332 L8.88833332,1.11166668 C8.88833332,0.49666668 9.38666664,0 10,0 Z" id="路径"></path>
                    </g>
                </g>
            </g>
        </g>
    </g>
</svg>