<?xml version="1.0" encoding="UTF-8"?>
<svg width="1920px" height="290px" viewBox="0 0 1920 290" version="1.1" xmlns="http://www.w3.org/2000/svg" xmlns:xlink="http://www.w3.org/1999/xlink">
    <title>33</title>
    <defs>
        <rect id="path-1" x="0" y="0" width="1920" height="290"></rect>
        <filter x="-12.0%" y="-104.9%" width="124.0%" height="309.8%" filterUnits="objectBoundingBox" id="filter-3">
            <feGaussianBlur stdDeviation="50" in="SourceGraphic"></feGaussianBlur>
        </filter>
        <linearGradient x1="47.6392681%" y1="-0.383507403%" x2="51.3279117%" y2="114.313065%" id="linearGradient-4">
            <stop stop-color="#FFFFFF" offset="0%"></stop>
            <stop stop-color="#FFFFFF" stop-opacity="0" offset="100%"></stop>
        </linearGradient>
        <linearGradient x1="47.2307557%" y1="139.991464%" x2="55.7720896%" y2="7.12529489%" id="linearGradient-5">
            <stop stop-color="#FFFFFF" stop-opacity="0" offset="0%"></stop>
            <stop stop-color="#FFFFFF" offset="100%"></stop>
        </linearGradient>
        <linearGradient x1="49.6264877%" y1="104.155157%" x2="53.5846848%" y2="1.04783469%" id="linearGradient-6">
            <stop stop-color="#FFFFFF" stop-opacity="0.38" offset="2.08333%"></stop>
            <stop stop-color="#FFFFFF" offset="100%"></stop>
        </linearGradient>
    </defs>
    <g id="页面-2" stroke="none" stroke-width="1" fill="none" fill-rule="evenodd">
        <g id="-商标下载" transform="translate(0, -56)">
            <g id="33" transform="translate(0, 56)">
                <mask id="mask-2" fill="white">
                    <use xlink:href="#path-1"></use>
                </mask>
                <use id="蒙版" fill="#192361" xlink:href="#path-1"></use>
                <ellipse id="椭圆形" fill="#4498F3" filter="url(#filter-3)" mask="url(#mask-2)" cx="959.5" cy="326.5" rx="625.5" ry="71.5"></ellipse>
                <g id="Shapes" opacity="0.296013242" mask="url(#mask-2)">
                    <g transform="translate(-190, 137)" id="路径">
                        <polygon stroke="none" fill-opacity="0.25" fill="#FFFFFF" fill-rule="nonzero" points="0 0 272 0 272 272 0 272"></polygon>
                        <polygon stroke="#FFFFFF" stroke-width="1" fill="none" points="272 0 542 0 542 270 272 270"></polygon>
                        <polygon stroke="#FFFFFF" stroke-width="1" fill="none" points="340 68 474 68 474 202 340 202"></polygon>
                    </g>
                </g>
                <g id="Lines" opacity="0.296013242" mask="url(#mask-2)" stroke="#FFFFFF">
                    <g transform="translate(54, -62)">
                        <polygon id="路径" points="0 99.292893 99.292893 0 198.585893 99.292893 99.292893 198.585893"></polygon>
                        <polygon id="路径" points="19.999993 99.292893 99.292893 19.999993 178.585893 99.292893 99.292893 178.585893"></polygon>
                        <polygon id="路径" points="39.999993 99.292893 99.292893 39.999993 158.585893 99.292893 99.292893 158.585893"></polygon>
                        <polygon id="路径" points="59.999993 99.292893 99.292893 59.999993 138.585893 99.292893 99.292893 138.585893"></polygon>
                        <path d="M94.292893,84.292893 L99.292893,79.292893 L104.292893,84.292893 M84.292893,94.292893 L79.292893,99.292893 L84.292893,104.292893 M114.292893,94.292893 L119.292893,99.292893 L114.292893,104.292893 M94.292893,114.292893 L99.292893,119.292893 L104.292893,114.292893" id="形状" stroke-linejoin="round"></path>
                    </g>
                </g>
                <g id="32" opacity="0.296013242" mask="url(#mask-2)" stroke="#FFFFFF">
                    <g transform="translate(298, -79)">
                        <circle id="椭圆形" transform="translate(54, 54) rotate(-90) translate(-54, -54)" cx="54" cy="54" r="54"></circle>
                        <path d="M54,48 C61.0914,48 68.1133,49.3968 74.6649,52.1105 C81.2165,54.8243 87.1694,58.8019 92.1838,63.8162 C97.1981,68.8306 101.176,74.7835 103.889,81.3351 C106.603,87.8867 108,94.9086 108,102 C108,109.091 106.603,116.113 103.889,122.665 C101.176,129.216 97.1981,135.169 92.1838,140.184 C87.1694,145.198 81.2165,149.176 74.6649,151.889 C68.1133,154.603 61.0914,156 54,156 L54,48 Z" id="路径"></path>
                        <path d="M54,108 C46.9086,108 39.8867,109.397 33.3351,112.111 C26.7835,114.824 20.8306,118.802 15.8162,123.816 C10.8019,128.831 6.82426,134.784 4.1105,141.335 C1.39675,147.887 0,154.909 0,162 C0,169.091 1.39675,176.113 4.11051,182.665 C6.82426,189.216 10.8019,195.169 15.8162,200.184 C20.8306,205.198 26.7835,209.176 33.3351,211.889 C39.8867,214.603 46.9086,216 54,216 L54,108 Z" id="路径"></path>
                    </g>
                </g>
                <g id="212" opacity="0.296013242" mask="url(#mask-2)" stroke="#FFFFFF">
                    <g transform="translate(1700, 128)">
                        <path d="M23.998302,78.5 C23.998302,51.1619 46.160202,29 73.498302,29 C100.836302,29 122.998302,51.1619 122.998302,78.5 L122.998302,169 L23.998302,169 L23.998302,78.5 Z" id="路径"></path>
                        <path d="M73.498302,99 C100.836397,99 122.998302,76.8380951 122.998302,49.5 C122.998302,22.1619049 100.836397,0 73.498302,0 C46.1602069,0 23.998302,22.1619049 23.998302,49.5 C23.998302,76.8380951 46.1602069,99 73.498302,99 Z" id="椭圆形" stroke-dasharray="4"></path>
                        <polyline id="路径" points="123.498302 169.5 73.498302 99.5 23.498302 169.5"></polyline>
                    </g>
                </g>
                <g id="lines2" opacity="0.296013242" mask="url(#mask-2)">
                    <g transform="translate(1470, -332)">
                        <circle id="椭圆形" stroke="#FFFFFF" stroke-width="1" cx="230" cy="230" r="230"></circle>
                        <rect id="矩形" stroke="url(#linearGradient-4)" stroke-width="1" x="133" y="35" width="194" height="390" rx="41.9264"></rect>
                        <path d="M175.511381,35.5134815 L285.489174,35.5134815 C308.644485,35.5134815 327.415574,54.2845702 327.415574,77.4398815 L327.415574,383.56075 C327.415574,406.716061 308.644485,425.48715 285.489174,425.48715 L175.511381,425.48715 C152.35607,425.48715 133.584981,406.716061 133.584981,383.56075 L133.584981,77.4398815 C133.584981,54.2845702 152.35607,35.5134815 175.511381,35.5134815 Z" id="矩形" stroke="url(#linearGradient-5)" stroke-width="1" transform="translate(230.5003, 230.5003) rotate(-45) translate(-230.5003, -230.5003)"></path>
                        <path d="M175.510964,35.5134433 L285.488817,35.5134433 C308.644128,35.5134433 327.415217,54.284532 327.415217,77.4398433 L327.415217,383.560832 C327.415217,406.716144 308.644128,425.487232 285.488817,425.487232 L175.510964,425.487232 C152.355653,425.487232 133.584564,406.716144 133.584564,383.560832 L133.584564,77.4398433 C133.584564,54.284532 152.355653,35.5134433 175.510964,35.5134433 Z" id="矩形" stroke="url(#linearGradient-6)" stroke-width="1.00000031" transform="translate(230.4999, 230.5003) scale(-1, 1) rotate(-45) translate(-230.4999, -230.5003)"></path>
                    </g>
                </g>
                <g id="32备份" opacity="0.296013242" mask="url(#mask-2)" stroke="#FFFFFF">
                    <g transform="translate(1592, 128)">
                        <circle id="椭圆形" transform="translate(54, 54) rotate(-90) translate(-54, -54)" cx="54" cy="54" r="54"></circle>
                        <path d="M54,48 C61.0914,48 68.1133,49.3968 74.6649,52.1105 C81.2165,54.8243 87.1694,58.8019 92.1838,63.8162 C97.1981,68.8306 101.176,74.7835 103.889,81.3351 C106.603,87.8867 108,94.9086 108,102 C108,109.091 106.603,116.113 103.889,122.665 C101.176,129.216 97.1981,135.169 92.1838,140.184 C87.1694,145.198 81.2165,149.176 74.6649,151.889 C68.1133,154.603 61.0914,156 54,156 L54,48 Z" id="路径"></path>
                        <path d="M54,108 C46.9086,108 39.8867,109.397 33.3351,112.111 C26.7835,114.824 20.8306,118.802 15.8162,123.816 C10.8019,128.831 6.82426,134.784 4.1105,141.335 C1.39675,147.887 0,154.909 0,162 C0,169.091 1.39675,176.113 4.11051,182.665 C6.82426,189.216 10.8019,195.169 15.8162,200.184 C20.8306,205.198 26.7835,209.176 33.3351,211.889 C39.8867,214.603 46.9086,216 54,216 L54,108 Z" id="路径"></path>
                    </g>
                </g>
            </g>
        </g>
    </g>
</svg>