<?xml version="1.0" encoding="UTF-8"?>
<svg width="406px" height="132px" viewBox="0 0 406 132" version="1.1" xmlns="http://www.w3.org/2000/svg" xmlns:xlink="http://www.w3.org/1999/xlink">
    <title>logo 2</title>
    <g id="页面-2" stroke="none" stroke-width="1" fill="none" fill-rule="evenodd">
        <g id="-商标下载" transform="translate(-757, -834)" fill="#E8037D">
            <g id="编组-2" transform="translate(350, 663)">
                <path d="M764.144439,243.827819 C759.011754,243.827819 754.836121,239.521561 754.836121,234.228311 L754.836121,232.977671 C754.836121,227.684421 759.011754,223.378162 764.144439,223.378162 L803.311483,223.378162 C808.660488,223.378162 813,218.909659 813,213.386562 C813,207.870224 808.660488,203.394961 803.311483,203.394961 L764.144439,203.394961 C748.326854,203.394961 735.452532,216.665267 735.452532,232.977671 L735.452532,234.228311 C735.452532,250.540715 748.326854,263.817781 764.144439,263.817781 L784.045886,263.817781 C789.178571,263.817781 793.354204,268.12404 793.354204,273.41729 C793.354204,278.70378 789.178571,283.010038 784.045886,283.010038 L708.268309,283.010038 L708.268309,223.378162 L718.494349,223.378162 C723.84991,223.378162 728.189421,218.909659 728.189421,213.386562 C728.189421,207.870224 723.84991,203.394961 718.494349,203.394961 L708.268309,203.394961 L708.268309,201.535901 C708.268309,195.722114 712.856917,190.989962 718.494349,190.989962 C723.84991,190.989962 728.189421,186.514698 728.189421,180.991601 C728.189421,175.475264 723.84991,171 718.494349,171 C702.172016,171 688.891275,184.6962 688.891275,201.535901 L688.891275,203.394961 L656.430154,203.394961 L656.430154,180.991601 C656.430154,175.475264 652.090642,171 646.735081,171 C641.386076,171 637.046564,175.475264 637.046564,180.991601 L637.046564,203.394961 L574.811935,203.394961 C558.994349,203.394961 546.126582,216.665267 546.126582,232.977671 L546.126582,234.228311 C546.126582,250.540715 558.994349,263.817781 574.811935,263.817781 L594.713382,263.817781 C599.846067,263.817781 604.0217,268.12404 604.0217,273.41729 C604.0217,278.70378 599.846067,283.010038 594.713382,283.010038 L552.22943,283.010038 C540.882459,283.010038 531.659358,273.491652 531.659358,261.796476 L531.659358,213.386562 C531.659358,207.870224 527.319846,203.394961 521.970841,203.394961 C521.9184,203.394961 521.879069,203.408481 521.833183,203.408481 C521.780741,203.408481 521.74141,203.394961 521.695524,203.394961 C516.339964,203.394961 512.000452,207.870224 512.000452,213.386562 L512.000452,268.360647 C512.000452,276.439107 505.628843,283.010038 497.795434,283.010038 C489.962025,283.010038 483.590416,276.439107 483.590416,268.360647 L483.590416,213.386562 C483.590416,207.870224 479.250904,203.394961 473.895344,203.394961 C455.331148,203.394961 438.510624,211.230052 426.377034,223.864898 L426.377034,213.575848 C426.377034,208.05951 422.037523,203.584247 416.688517,203.584247 C411.339512,203.584247 407,208.05951 407,213.575848 L407,293.008399 C407,298.524736 411.339512,303 416.688517,303 C422.037523,303 426.377034,298.524736 426.377034,293.008399 L426.377034,272.382977 C426.377034,248.783058 442.640371,229.029704 464.206826,224.405715 L464.206826,268.360647 C464.206826,287.458261 479.27057,303 497.795434,303 C508.159132,303 517.44123,298.125883 523.609629,290.486838 C530.87274,298.193486 541.013562,303 552.22943,303 L594.713382,303 C610.530967,303 623.405289,289.729694 623.405289,273.41729 C623.405289,257.098126 610.530967,243.827819 594.713382,243.827819 L574.811935,243.827819 C569.67925,243.827819 565.503617,239.521561 565.503617,234.228311 L565.503617,232.977671 C565.503617,227.684421 569.67925,223.378162 574.811935,223.378162 L637.046564,223.378162 L637.046564,272.470859 C637.046564,289.3038 650.327306,303 666.656193,303 C672.005199,303 676.344711,298.524736 676.344711,293.008399 C676.344711,287.485302 672.005199,283.010038 666.656193,283.010038 C661.012206,283.010038 656.430154,278.284646 656.430154,272.470859 L656.430154,223.378162 L688.891275,223.378162 L688.891275,293.008399 C688.891275,298.524736 693.230787,303 698.579792,303 L784.045886,303 C799.863472,303 812.737794,289.729694 812.737794,273.41729 C812.737794,257.098126 799.863472,243.827819 784.045886,243.827819 L764.144439,243.827819 Z" id="logo-2"></path>
            </g>
        </g>
    </g>
</svg>