<?xml version="1.0" encoding="UTF-8"?>
<svg width="148px" height="48px" viewBox="0 0 148 48" version="1.1" xmlns="http://www.w3.org/2000/svg" xmlns:xlink="http://www.w3.org/1999/xlink">
    <title>logo 2备份 2</title>
    <g id="页面-2" stroke="none" stroke-width="1" fill="none" fill-rule="evenodd">
        <g id="-商标下载" transform="translate(-886, -1146)" fill="#060B17">
            <g id="编组-2" transform="translate(350, 663)">
                <g id="编组-4" transform="translate(407, 408)">
                    <path d="M259.190584,101.482843 C257.319556,101.482843 255.797404,99.9169313 255.797404,97.9921131 L255.797404,97.5373348 C255.797404,95.6125166 257.319556,94.0466045 259.190584,94.0466045 L273.468225,94.0466045 C275.418109,94.0466045 277,92.4216942 277,90.4132951 C277,88.4073543 275.418109,86.7799857 273.468225,86.7799857 L259.190584,86.7799857 C253.424567,86.7799857 248.731465,91.6055516 248.731465,97.5373348 L248.731465,97.9921131 C248.731465,103.923896 253.424567,108.751921 259.190584,108.751921 L266.445298,108.751921 C268.316327,108.751921 269.838478,110.317833 269.838478,112.242651 C269.838478,114.165011 268.316327,115.730923 266.445298,115.730923 L238.821945,115.730923 L238.821945,94.0466045 L242.549664,94.0466045 C244.501937,94.0466045 246.083828,92.4216942 246.083828,90.4132951 C246.083828,88.4073543 244.501937,86.7799857 242.549664,86.7799857 L238.821945,86.7799857 L238.821945,86.1039639 C238.821945,83.9898597 240.49464,82.2690771 242.549664,82.2690771 C244.501937,82.2690771 246.083828,80.6417085 246.083828,78.6333094 C246.083828,76.6273686 244.501937,75 242.549664,75 C236.599651,75 231.758396,79.9804363 231.758396,86.1039639 L231.758396,86.7799857 L219.925278,86.7799857 L219.925278,78.6333094 C219.925278,76.6273686 218.343387,75 216.391113,75 C214.44123,75 212.859339,76.6273686 212.859339,78.6333094 L212.859339,86.7799857 L190.172824,86.7799857 C184.406807,86.7799857 179.716094,91.6055516 179.716094,97.5373348 L179.716094,97.9921131 C179.716094,103.923896 184.406807,108.751921 190.172824,108.751921 L197.427538,108.751921 C199.298566,108.751921 200.820718,110.317833 200.820718,112.242651 C200.820718,114.165011 199.298566,115.730923 197.427538,115.730923 L181.940778,115.730923 C177.804443,115.730923 174.442328,112.269692 174.442328,108.016901 L174.442328,90.4132951 C174.442328,88.4073543 172.860437,86.7799857 170.910553,86.7799857 C170.891436,86.7799857 170.877099,86.7849022 170.860372,86.7849022 C170.841255,86.7849022 170.826918,86.7799857 170.810191,86.7799857 C168.857918,86.7799857 167.276027,88.4073543 167.276027,90.4132951 L167.276027,110.403872 C167.276027,113.341493 164.953371,115.730923 162.097843,115.730923 C159.242315,115.730923 156.919659,113.341493 156.919659,110.403872 L156.919659,90.4132951 C156.919659,88.4073543 155.337768,86.7799857 153.385495,86.7799857 C146.618251,86.7799857 140.486631,89.6291099 136.063549,94.2235993 L136.063549,90.4821264 C136.063549,88.4761856 134.481658,86.848817 132.531775,86.848817 C130.581891,86.848817 129,88.4761856 129,90.4821264 L129,119.366691 C129,121.372631 130.581891,123 132.531775,123 C134.481658,123 136.063549,121.372631 136.063549,119.366691 L136.063549,111.866537 C136.063549,103.284749 141.992056,96.1017105 149.85372,94.4202602 L149.85372,110.403872 C149.85372,117.348458 155.344937,123 162.097843,123 C165.875743,123 169.259365,121.227594 171.507944,118.449759 C174.15558,121.252177 177.852235,123 181.940778,123 L197.427538,123 C203.193555,123 207.886657,118.174434 207.886657,112.242651 C207.886657,106.308409 203.193555,101.482843 197.427538,101.482843 L190.172824,101.482843 C188.301795,101.482843 186.779644,99.9169313 186.779644,97.9921131 L186.779644,97.5373348 C186.779644,95.6125166 188.301795,94.0466045 190.172824,94.0466045 L212.859339,94.0466045 L212.859339,111.898494 C212.859339,118.019564 217.700594,123 223.652997,123 C225.60288,123 227.184771,121.372631 227.184771,119.366691 C227.184771,117.358292 225.60288,115.730923 223.652997,115.730923 C221.595583,115.730923 219.925278,114.012599 219.925278,111.898494 L219.925278,94.0466045 L231.758396,94.0466045 L231.758396,119.366691 C231.758396,121.372631 233.340287,123 235.29017,123 L266.445298,123 C272.211315,123 276.904417,118.174434 276.904417,112.242651 C276.904417,106.308409 272.211315,101.482843 266.445298,101.482843 L259.190584,101.482843 Z" id="logo-2备份-2"></path>
                </g>
            </g>
        </g>
    </g>
</svg>