<?xml version="1.0" encoding="utf-8"?>
<!-- Generator: Adobe Illustrator 25.0.1, SVG Export Plug-In . SVG Version: 6.00 Build 0)  -->
<svg version="1.1" id="图层_1" xmlns="http://www.w3.org/2000/svg" xmlns:xlink="http://www.w3.org/1999/xlink" x="0px" y="0px"
	 viewBox="0 0 1036 750" style="enable-background:new 0 0 1036 750;" xml:space="preserve">
<style type="text/css">
	.st0{fill-rule:evenodd;clip-rule:evenodd;}
	.st1{fill-rule:evenodd;clip-rule:evenodd;fill:#EAECF0;stroke:#BABABA;stroke-width:0.4;}
	.st2{filter:url(#Adobe_OpacityMaskFilter);}
	.st3{fill-rule:evenodd;clip-rule:evenodd;fill:#FFFFFF;}
	.st4{mask:url(#mask-4_1_);}
	.st5{fill:url(#矩形_2_);}
	.st6{fill:#E8037D;}
	.st7{fill:#090C2C;}
	.st8{fill:#2172DF;}
	.st9{fill:#060B17;}
	.st10{font-family:'PingFangHK-Medium-B5pc-H';}
	.st11{font-size:36px;}
	.st12{font-family:'PingFangSC-Regular-GBpc-EUC-H';}
	.st13{font-size:12px;}
	.st14{font-size:16px;}
</style>
<g id="_x31_" transform="translate(450, 137)">
	<g id="矩形备份-3">
		<g>
			<rect id="path-1" x="-442" y="-134" class="st0" width="1020" height="734"/>
		</g>
		<rect x="-441.8" y="-133.8" class="st1" width="1019.6" height="733.6"/>
	</g>
	<g id="Clipped" transform="translate(162, 216)">
		<g id="矩形">
		</g>
		<defs>
			<filter id="Adobe_OpacityMaskFilter" filterUnits="userSpaceOnUse" x="-575.3" y="-145.3" width="397.2" height="320.8">
				<feColorMatrix  type="matrix" values="1 0 0 0 0  0 1 0 0 0  0 0 1 0 0  0 0 0 1 0"/>
			</filter>
		</defs>
		<mask maskUnits="userSpaceOnUse" x="-575.3" y="-145.3" width="397.2" height="320.8" id="mask-4_1_">
			<g class="st2">
				<path id="path-3_1_" class="st3" d="M-366-134H-252c42,0,76,34,76,76V56c0,42-34,76-76,76H-366c-42,0-76-34-76-76V-58
					C-442-100-408-134-366-134z"/>
			</g>
		</mask>
		<g id="编组_1_" class="st4">
			<g transform="translate(-133.311, -11.2998)">
				
					<linearGradient id="矩形_2_" gradientUnits="userSpaceOnUse" x1="-918.0789" y1="573.7104" x2="-918.0789" y2="572.7104" gradientTransform="matrix(397.2498 0 0 -278.2496 364463.2812 159500.6719)">
					<stop  offset="0" style="stop-color:#626262"/>
					<stop  offset="1" style="stop-color:#26292D"/>
				</linearGradient>
				<rect id="矩形_1_" x="-442" y="-134" class="st5" width="397.2" height="278.2"/>
				<g id="编组" transform="translate(159.1798, 54.9453)">
					<path id="路径" class="st6" d="M-442-117.8c0-8.9,7.3-16.2,16.2-16.2h92.1V23.6H-442V-117.8z"/>
					<path id="路径_1_" class="st7" d="M-442,23.6h216.5v100.2c0,4.5-3.6,8.1-8.1,8.1h-200.3c-4.5,0-8.1-3.6-8.1-8.1V23.6z"/>
					<path id="路径_2_" class="st8" d="M-333.7-134h92.1c8.9,0,16.2,7.3,16.2,16.2V23.6h-108.3V-134z"/>
				</g>
			</g>
		</g>
	</g>
	<text transform="matrix(1 0 0 1 100 170)" class="st9 st10 st11">RustFS 官方配色</text>
	<text transform="matrix(1 0 0 1 100 217)" class="st9 st12 st13">我们的二次色彩可用于增加布局的趣味性。这些颜色</text>
	<text transform="matrix(1 0 0 1 376 217)" class="st9 st12 st13"> </text>
	<text transform="matrix(1 0 0 1 100 238)" class="st9 st12 st13">的色调或色调是允许的。</text>
	<text transform="matrix(1 0 0 1 100 294)" class="st8 st12 st14">rustfs.com/html/trademark.html</text>
</g>
</svg>
