<?xml version="1.0" encoding="UTF-8"?>
<svg width="22px" height="22px" viewBox="0 0 22 22" version="1.1" xmlns="http://www.w3.org/2000/svg" xmlns:xlink="http://www.w3.org/1999/xlink">
    <title>关闭</title>
    <g id="移动端" stroke="none" stroke-width="1" fill="none" fill-rule="evenodd">
        <g id="移动端导航" transform="translate(-696, -60)" fill="#E8037D" fill-rule="nonzero">
            <g id="关闭" transform="translate(696, 60)">
                <path d="M20.6509569,22 C20.3072517,22 19.9606822,21.8682462 19.7000391,21.6047389 L0.395261034,2.29996093 C-0.131753678,1.77294622 -0.131753678,0.92227574 0.395261034,0.395261032 C0.922275745,-0.131753677 1.77294623,-0.131753677 2.29996094,0.395261032 L21.604739,19.700039 C22.1317537,20.2270537 22.1317537,21.0777241 21.604739,21.6047389 C21.3519247,21.857937 21.0087618,22 20.6509569,22 L20.6509569,22 Z" id="路径"></path>
                <path d="M1.34617888,22 C1.00247364,22 0.655904179,21.8682463 0.395261034,21.604739 C-0.131753678,21.0777243 -0.131753678,20.2270538 0.395261034,19.7000391 L19.7000391,0.395261034 C20.2270538,-0.131753678 21.0777243,-0.131753678 21.604739,0.395261034 C22.1317537,0.922275745 22.1317537,1.77294623 21.604739,2.29996094 L2.29996094,21.604739 C2.03358938,21.8682463 1.68988413,22 1.34617888,22 Z" id="路径"></path>
            </g>
        </g>
    </g>
</svg>