<?xml version="1.0" encoding="UTF-8"?>
<svg width="51px" height="44px" viewBox="0 0 51 44" version="1.1" xmlns="http://www.w3.org/2000/svg" xmlns:xlink="http://www.w3.org/1999/xlink">
    <title>监控控制管理 (1)</title>
    <g id="页面-1" stroke="none" stroke-width="1" fill="none" fill-rule="evenodd">
        <g id="解决方案-日志和审计" transform="translate(-555, -621)" fill="#FFFFFF" fill-rule="nonzero">
            <g id="监控控制管理-(1)" transform="translate(555, 621)">
                <path d="M38.1162336,43.9688502 C37.8610421,43.987639 37.6566896,43.9940667 37.4593149,43.9940667 C29.4247713,44 21.3777673,44 13.3437221,44 C12.6608856,44 12.6544061,43.9935723 12.6608856,43.3161869 L12.6608856,41.6326125 C12.6608856,41.1579484 12.8587587,40.9616549 13.3502016,40.9616549 C15.0283845,40.9616549 16.7130468,40.9675882 18.3917281,40.9616549 C19.0935047,40.9552272 19.1578009,40.8790832 19.1578009,40.20862 L19.1578009,38.5245512 C19.1513215,37.8975989 18.9983063,37.7458053 18.3727882,37.7458053 L3.01843647,37.7458053 C1.68466236,37.7458053 0.733675443,37.1569251 0.255191458,35.9099428 C0.121116259,35.5682834 0.018939991,35.1944854 0.018939991,34.8399706 C0.0059810498,24.2109546 0.018939991,13.582433 0,2.95984465 C0,1.72571784 0.669877578,0.940544212 1.60142608,0.332875201 C1.92041541,0.123726306 2.3799594,0.0797209834 2.77570553,0.0287934747 C3.13905431,-0.0221340339 3.52832096,0.0100046851 3.91160657,0.0100046851 L47.6051691,0.0100046851 C48.6518528,0.0100046851 49.5769218,0.307164226 50.2213799,1.13040988 C50.649025,1.67479033 51.0063927,2.21917079 51,3.03549425 C50.9615348,13.6007273 50.9744938,24.1728826 50.9744938,34.7381156 C50.9744938,35.2572795 50.9744938,35.7190882 50.5279087,36.1685358 C50.2149005,36.4914063 50.0299863,36.9917815 49.5898808,37.2192247 C49.1811757,37.4343069 48.7410701,37.7067444 48.307444,37.7191054 C45.6334163,37.7700329 42.9534076,37.7443219 40.2793799,37.7443219 C37.6691501,37.7507497 35.0529392,37.7443219 32.4427094,37.7443219 C31.7982513,37.7443219 31.7788129,37.7631107 31.7728318,38.4152795 C31.7663523,39.0798093 31.7982513,39.7448336 31.7598729,40.4152967 C31.7279739,40.9028164 31.9961243,40.9725327 32.3724321,40.9725327 C34.031675,40.9661049 35.6779589,40.9661049 37.3247413,40.9661049 C38.0459562,40.9661049 38.1157351,41.042249 38.1097541,41.7384231 C38.1162336,42.4617915 38.1162336,43.1836765 38.1162336,43.9688502 L38.1162336,43.9688502 Z M4.05312213,3.00683073 C4.03448852,3.32543569 4.00261524,3.5752454 4.00261524,3.83139793 C3.99673095,6.06163265 4.00261524,8.28552454 4.00261524,10.5216142 L4.00261524,27.1754321 C4.00261524,28.0063421 4.00261524,28 4.83769517,28 L47.184044,28 C47.8558347,28 48,27.8687516 48,27.1939726 L48,3.712348 C48,3.04391186 47.9494931,3 47.2781928,3 L4.05312213,3 L4.05312213,3.00683073 Z M21.8994094,15.1032426 C21.2413666,15.1649031 20.6534755,15.0232766 20.1159751,14.6282637 C20.0339667,14.5728656 19.7997983,14.6345261 19.6921006,14.7144921 C18.4906291,15.6394003 17.3074365,16.5830957 16.105965,17.5084855 C15.3466468,18.0942607 14.5690497,18.6559497 13.8097315,19.2354625 C13.5128218,19.4695799 13.2218404,19.716222 13.5760572,20.123278 C13.6264478,20.1786761 13.6392925,20.3019972 13.6140972,20.3761825 C13.3226218,21.3136155 13.0573297,22.244786 12.0203689,22.7135025 C10.698355,23.3060218 9.45834937,22.9538823 8.56020986,21.89361 C8.02913177,21.2582173 7.90908342,20.5120284 8.06074944,19.7658395 C8.23810483,18.914635 8.74398758,18.2118011 9.60408707,17.8847112 C10.0660015,17.7117726 10.5906573,17.6934672 11.0841894,17.6072387 C11.1849707,17.5889333 11.3178637,17.5947139 11.3939437,17.6443314 C12.1211502,18.0947424 12.665567,17.8418378 13.2534581,17.3172415 C13.9366962,16.7006361 14.7212097,16.1823021 15.4612609,15.6210948 C16.5555287,14.7949399 17.6557249,13.9745656 18.7247975,13.1233611 C18.9021529,12.9879969 19.0281295,12.6979997 19.0222012,12.4759254 C18.9970059,11.4768319 19.4841156,10.6872879 20.2681351,10.2002659 C21.0081863,9.73781185 21.9127481,9.62027144 22.8044653,10.0090219 C23.291575,10.2127907 23.6961824,10.4777384 23.9935862,10.9030998 C24.5503536,11.7109493 24.708442,12.5375859 24.2909899,13.4687565 C24.2089816,13.6412133 24.4110382,13.9928711 24.5755489,14.1841151 C25.2523647,14.998227 26.0176112,15.7318911 26.6124187,16.5830957 C26.9162447,17.0330249 27.2324215,16.9655837 27.6246782,16.9901516 C28.1369833,17.0209819 28.6744837,16.8422626 29.1359041,17.2367938 C29.1867888,17.2926736 29.4649255,17.1997011 29.5790456,17.1072103 C30.3694874,16.398114 31.1540009,15.6822736 31.9385144,14.9611343 C33.2669506,13.7524913 34.5953869,12.5371042 35.9356798,11.3284612 C36.3911719,10.9214053 36.8718593,10.5451796 37.3021561,10.1135558 C37.4538221,9.95940443 37.5550974,9.71276226 37.5867151,9.49068796 C37.6247551,9.14529257 37.5234798,8.7815917 37.5674481,8.42993392 C37.6751458,7.61534033 37.9784778,6.87589552 38.7817643,6.48088267 C39.2184834,6.26507076 39.6927485,5.99337899 40.1546629,6 C40.9451048,6.01264791 41.7296182,6.25929009 42.311087,6.84506525 C43.1143735,7.65965884 43.0827558,8.69536329 42.8742768,9.66410824 C42.7161884,10.3794669 42.102608,10.9161063 41.3497122,11.1627485 C40.9386824,11.2985944 40.476768,11.3414677 40.0405429,11.4098724 C39.9585346,11.4281779 39.8384862,11.4281779 39.7747568,11.3853045 C38.9902434,10.8544458 38.585636,11.4532275 38.1049485,11.8911137 C37.3397021,12.6064723 36.5487662,13.2910007 35.7642527,14.0005787 C34.6324389,15.0305024 33.500131,16.072951 32.3678231,17.1028748 C31.8110556,17.6149463 31.2419375,18.1202737 30.7103654,18.6569132 C30.5774724,18.7864966 30.476197,19.0451819 30.5013924,19.2243829 C30.6278631,20.3713653 30.1787933,21.3150607 29.1981514,21.876268 C28.5593756,22.2404505 27.7941292,22.4437376 26.9656474,22.0920799 C26.3965293,21.8454377 25.8585348,21.6233634 25.5300074,21.0992488 C25.030053,20.328492 24.802801,19.5201608 25.2326037,18.6260829 C25.3719191,18.3486104 25.3971144,18.0528325 25.1189777,17.7445298 C24.3976995,16.942461 23.7460791,16.0849941 23.063335,15.2651015 C22.9749043,15.1600859 22.8039712,15.0801199 22.6582335,15.0738575 C22.4245592,15.0541069 22.1587731,15.0974619 21.8994094,15.1032426 L21.8994094,15.1032426 Z M11.9999198,19.9204642 C11.9931284,19.304557 11.64507,19 10.9710253,19 C10.3552733,19.0067931 9.9857089,19.3770167 10.0004236,19.9929239 C10.0072149,20.6014718 10.4062087,21 10.9930973,21 C11.5075445,20.9932069 12.0072771,20.4644778 11.9999198,19.9204642 L11.9999198,19.9204642 Z M40.9966242,7.00012453 C40.3469401,6.99276788 40.007435,7.31136717 40.0001035,7.95648829 C39.992772,8.57218284 40.3757021,9 40.9385362,9 C41.4224155,9 41.9999125,8.46409675 41.9999125,7.99270562 C42.007244,7.44887983 41.5526907,7.00691527 40.9966242,7.00012453 L40.9966242,7.00012453 Z M27.0006247,19.9933946 C26.9857558,20.7034362 27.2350963,20.9931106 27.8796074,20.9998998 C28.5241185,21.0072548 28.9924899,20.6089526 28.9999244,20.0437482 C29.0073589,19.7037203 28.4652147,18.9789687 27.9676773,19.000468 C27.3597666,19.015178 27.0149217,19.3337066 27.0006247,19.9933946 L27.0006247,19.9933946 Z M23,12.0202044 C22.7852028,11.230816 22.3902356,10.810193 21.5797414,11.0833099 C21.1366207,11.230816 21.1225534,11.6664201 21.0116379,11.9908184 C20.9147898,12.3077261 21.4412323,12.9127318 21.8913867,12.9864849 C22.5839319,13.0971145 22.7916954,12.5065137 23,12.0202044 Z" id="形状"></path>
            </g>
        </g>
    </g>
</svg>