<?xml version="1.0" encoding="UTF-8"?>
<svg width="50px" height="50px" viewBox="0 0 50 50" version="1.1" xmlns="http://www.w3.org/2000/svg" xmlns:xlink="http://www.w3.org/1999/xlink">
    <title>日志服务</title>
    <g id="页面-1" stroke="none" stroke-width="1" fill="none" fill-rule="evenodd">
        <g id="解决方案-日志和审计" transform="translate(-1203, -614)" fill="#FFFFFF" fill-rule="nonzero">
            <g id="3" transform="translate(350, 419)">
                <g id="日志服务" transform="translate(853, 195)">
                    <path d="M12.0625,11 C13.1625,11 14.125,10.1444445 14.125,9.16666667 L14.125,1.83333333 C14.125,0.855555536 13.1625,0 12.0625,0 C10.9625,0 10,0.855555536 10,1.83333333 L10,9.16666667 C10,10.1444445 10.9625,11 12.0625,11 Z M29.9375,11 C31.0375,11 32,10.1444445 32,9.16666667 L32,1.83333333 C32,0.855555536 31.0375,0 29.9375,0 C28.8375,0 27.875,0.855555536 27.875,1.83333333 L27.875,9.16666667 C27.875,10.1444445 28.8375,11 29.9375,11 Z" id="形状"></path>
                    <path d="M22.6666666,38.0882353 C22.6666666,31.6029412 26.6666666,25.9117647 32.2666666,23.5294118 L7.33333331,23.5294118 C6.26666663,23.5294118 5.33333331,22.6029412 5.33333331,21.5441177 C5.33333331,20.4852941 6.26666663,19.5588236 7.33333331,19.5588236 L32.6666666,19.5588236 C33.7333333,19.5588236 34.6666666,20.4852941 34.6666666,21.5441177 C34.6666666,22.0735294 34.3999999,22.4705882 34.1333333,22.8676471 C35.6,22.4705882 37.0666666,22.2058823 38.6666666,22.2058823 C39.0666666,22.2058823 39.5999999,22.2058823 40,22.3382353 L40,10.2941176 C40,7.38235294 37.6,5 34.6666666,5 L34.6666666,9.63235296 C34.6666666,12.9411765 32,15.5882353 28.6666666,15.5882353 C25.3333333,15.5882353 22.6666666,12.9411765 22.6666666,9.63235296 L22.6666666,5 L17.3333333,5 L17.3333333,9.63235296 C17.3333333,12.9411765 14.6666666,15.5882353 11.3333333,15.5882353 C8,15.5882353 5.33333331,12.9411765 5.33333331,9.63235296 L5.33333331,5 C2.4,5 0,7.38235294 0,10.2941176 L0,44.7058824 C0,47.6176471 2.4,50 5.33333331,50 L28.1333333,50 C24.8,47.0882353 22.6666666,42.8529412 22.6666666,38.0882353 Z M19.3333333,39.4117647 L7.33333331,39.4117647 C6.26666662,39.4117647 5.33333331,38.4852942 5.33333331,37.4264706 C5.33333331,36.3676471 6.26666662,35.4411765 7.33333331,35.4411765 L19.3333333,35.4411765 C20.4,35.4411765 21.3333333,36.3676471 21.3333333,37.4264706 C21.3333333,38.4852942 20.4,39.4117647 19.3333333,39.4117647 Z M19.3333333,31.4705883 L7.33333331,31.4705883 C6.26666662,31.4705883 5.33333331,30.5441177 5.33333331,29.4852941 C5.33333331,28.4264706 6.26666662,27.5 7.33333331,27.5 L19.3333333,27.5 C20.4,27.5 21.3333333,28.4264706 21.3333333,29.4852941 C21.3333333,30.5441177 20.4,31.4705883 19.3333333,31.4705883 Z" id="形状"></path>
                    <path d="M38,26 C31.3333333,26 26,31.4666667 26,38 C26,44.5333333 31.4666667,50 38,50 C44.5333333,50 50,44.5333333 50,38 C50,31.4666667 44.6666667,26 38,26 Z M42.6666667,42 L36,42 C34.9333333,42 34,41.0666667 34,40 L34,32 C34,30.9333333 34.9333333,30 36,30 C37.0666667,30 38,30.9333333 38,32 L38,38 L42.6666667,38 C43.7333334,38 44.6666667,38.9333333 44.6666667,40 C44.6666667,41.0666667 43.7333334,42 42.6666667,42 Z" id="形状"></path>
                </g>
            </g>
        </g>
    </g>
</svg>