<?xml version="1.0" encoding="UTF-8"?>
<svg width="31px" height="18px" viewBox="0 0 31 18" version="1.1" xmlns="http://www.w3.org/2000/svg" xmlns:xlink="http://www.w3.org/1999/xlink">
    <title>形状</title>
    <g id="页面-1" stroke="none" stroke-width="1" fill="none" fill-rule="evenodd">
        <g id="下载备份-2" transform="translate(-1363, -1195)" fill="#060B17" fill-rule="nonzero">
            <g id="1备份-5" transform="translate(1188, 1146)">
                <g id="android" transform="translate(175, 49)">
                    <path d="M31,18 L0,18 C0.308030097,15.2102774 1.2871768,12.5354069 2.85458332,10.2017398 C4.05999441,8.34953864 5.67751148,6.79786255 7.58208332,5.66667255 L8.11166668,5.37118656 L5.5025,0.990285887 C5.31394295,0.681564385 5.41216509,0.279294884 5.72208332,0.090980751 C5.87074306,0.00260666642 6.04886005,-0.0226782753 6.21644053,0.0208033165 C6.38402102,0.0642849083 6.52702156,0.172889225 6.61333332,0.322230641 L9.3,4.81875629 C11.2873701,4.02888779 13.4116701,3.63599725 15.5516667,3.66250684 C17.653876,3.6369931 19.7399665,4.03012712 21.6870833,4.81875629 L24.3608333,0.322230641 C24.4492994,0.171450347 24.5956562,0.0629775596 24.7662188,0.021777935 C24.9367814,-0.0194216895 25.116857,0.0102009319 25.265,0.103827977 C25.5703356,0.29639686 25.662569,0.697748287 25.4716667,1.00313311 L22.8625,5.39688102 L23.5083333,5.75660305 C25.4065428,6.93195559 27.010145,8.52254169 28.1970833,10.4072953 C29.6799587,12.703098 30.6368801,15.2952625 31,18 Z M21.3125,12.2444472 C21.3125,12.9539793 21.8907989,13.5291688 22.6041667,13.5291688 C23.3175345,13.5291688 23.8958333,12.9539793 23.8958333,12.2444472 C23.8958333,11.534915 23.3175345,10.9597256 22.6041667,10.9597256 C21.8907989,10.9597256 21.3125,11.534915 21.3125,12.2444472 Z M7.10416668,12.2444472 C7.10416668,12.9539793 7.68246553,13.5291688 8.39583332,13.5291688 C9.10920113,13.5291688 9.6875,12.9539793 9.6875,12.2444472 C9.6875,11.534915 9.10920113,10.9597256 8.39583332,10.9597256 C7.68246553,10.9597256 7.10416668,11.534915 7.10416668,12.2444472 L7.10416668,12.2444472 Z" id="形状"></path>
                </g>
            </g>
        </g>
    </g>
</svg>