<?xml version="1.0" encoding="UTF-8"?>
<svg width="28px" height="35px" viewBox="0 0 28 35" version="1.1" xmlns="http://www.w3.org/2000/svg" xmlns:xlink="http://www.w3.org/1999/xlink">
    <title>形状</title>
    <g id="页面-1" stroke="none" stroke-width="1" fill="none" fill-rule="evenodd">
        <g id="下载备份-2" transform="translate(-945, -910)" fill="#060B17" fill-rule="nonzero">
            <g id="1备份" transform="translate(769, 874)">
                <path d="M204,61.5029028 C203.956782,61.638524 203.281569,64.0742114 201.622498,66.5787643 C200.186571,68.7392102 198.701774,70.9171471 196.356695,70.9553812 C194.050543,70.9973069 193.312564,69.5323698 190.679536,69.5323698 C188.049864,69.5323698 187.223154,70.9171471 185.043682,70.9973069 C182.790606,71.0926724 181.05687,68.6373405 179.615504,66.4874419 C176.66975,62.083314 174.401589,54.007219 177.443552,48.5948976 C178.940248,45.886913 181.630433,44.1655878 184.559954,44.1185643 C186.767601,44.0754081 188.868032,45.6651553 190.208897,45.6651553 C191.586435,45.6651553 194.127333,43.741541 196.807914,44.0293515 C197.930266,44.0787921 201.069587,44.5145729 203.092251,47.5462727 C202.933105,47.6582502 199.335978,49.8535464 199.376052,54.3215296 C199.430106,59.7154371 203.951342,61.484489 204,61.5029028 M195.163388,41.5510081 C196.378222,40.0666725 197.176524,38.0262991 196.966485,36 C195.231934,36.0681465 193.118605,37.1538274 191.862599,38.6293506 C190.752058,39.9166902 189.773229,41.9888481 190.046219,43.991619 C191.97347,44.1088754 193.955087,42.9807153 195.163388,41.5510081" id="形状"></path>
            </g>
        </g>
    </g>
</svg>