<?xml version="1.0" encoding="UTF-8"?>
<svg width="33px" height="24px" viewBox="0 0 33 24" version="1.1" xmlns="http://www.w3.org/2000/svg" xmlns:xlink="http://www.w3.org/1999/xlink">
    <title>docker</title>
    <g id="页面-1" stroke="none" stroke-width="1" fill="none" fill-rule="evenodd">
        <g id="下载" transform="translate(-612, -525)" fill="#717273" fill-rule="nonzero">
            <g id="编组-2" transform="translate(350, 522)">
                <g id="docker" transform="translate(262, 3)">
                    <path d="M6.61921376,19.0914917 C5.67988271,19.0914917 4.82809895,18.3221054 4.82809895,17.3889542 C4.82809895,16.4558029 5.59748525,15.6822968 6.62024373,15.6822968 C7.64712209,15.6822968 8.41959828,16.451683 8.41959828,17.3879242 C8.41959828,18.3241653 7.56575459,19.0904617 6.62745351,19.0904617 L6.61921376,19.0914917 Z M28.6080062,9.80426788 C28.4226119,8.44161987 27.5780379,7.33234405 26.4656722,6.4805603 L26.0330855,6.13758087 L25.6839263,6.56295776 C25.0051772,7.33234406 24.7363555,8.69602203 24.8187529,9.71466064 C24.9011504,10.4861069 25.1483428,11.2524033 25.5798995,11.8487549 C25.2307403,12.0269394 24.8002135,12.1917343 24.4675338,12.3668289 C23.6847579,12.623291 22.9236113,12.7098083 22.1604049,12.7098083 L0.13247365,12.7098083 L0.0500761886,13.2175827 C-0.120254174,14.8775889 0.145659418,16.5533061 0.821522416,18.0790329 L1.1562621,18.6764145 L1.1562621,18.758812 C3.21619862,22.1690369 6.88288564,23.7026596 10.8760726,23.7026596 C18.5586059,23.7026596 24.8589217,20.378952 27.8458297,13.2206726 C29.8027694,13.30616 31.7792785,12.7952957 32.7072799,10.9186935 L32.9544722,10.4933167 L32.5424849,10.2368546 C31.4301192,9.55810547 29.9057662,9.46746826 28.6286055,9.81147766 L28.6038863,9.81456757 L28.6080062,9.80426788 Z M17.6110351,8.44161987 L14.2770278,8.44161987 L14.2770278,11.7653275 L17.614125,11.7653275 L17.614125,8.43955994 L17.6110351,8.44367981 L17.6110351,8.44161987 Z M17.6110351,4.26303864 L14.2770278,4.26303864 L14.2770278,7.58674622 L17.614125,7.58674622 L17.614125,4.26715851 L17.6110351,4.26303864 Z M17.6110351,0 L14.2770278,0 L14.2770278,3.32370758 L17.614125,3.32370758 L17.614125,0 L17.6110351,0 Z M21.6897094,8.44161987 L18.3742415,8.44161987 L18.3742415,11.7653275 L21.6979491,11.7653275 L21.6979491,8.43955994 L21.6886794,8.44367981 L21.6897094,8.44161987 Z M9.33215016,8.44161987 L6.01874227,8.44161987 L6.01874227,11.7653275 L9.34450978,11.7653275 L9.34450978,8.43955994 L9.33112019,8.44367981 L9.33215016,8.44161987 Z M13.4932219,8.44161987 L10.1973235,8.44161987 L10.1973235,11.7653275 L13.5127913,11.7653275 L13.5127913,8.43955994 L13.492192,8.44367981 L13.4932219,8.44161987 Z M5.21227712,8.44161987 L1.92152852,8.44161987 L1.92152852,11.7653275 L5.25553578,11.7653275 L5.25553578,8.43955994 L5.21433705,8.44367981 L5.21227712,8.44161987 Z M13.4932219,4.26303864 L10.1973235,4.26303864 L10.1973235,7.58674622 L13.5127913,7.58674622 L13.5127913,4.26715851 L13.492192,4.26303864 L13.4932219,4.26303864 Z M9.3115508,4.26303864 L6.02389211,4.26303864 L6.02389211,7.58674622 L9.3373,7.58674622 L9.3373,4.26715851 L9.31567067,4.26303864 L9.3115508,4.26303864 Z" id="形状"></path>
                </g>
            </g>
        </g>
    </g>
</svg>