<?xml version="1.0" encoding="UTF-8"?>
<svg width="32px" height="32px" viewBox="0 0 32 32" version="1.1" xmlns="http://www.w3.org/2000/svg" xmlns:xlink="http://www.w3.org/1999/xlink">
    <title>形状</title>
    <g id="页面-1" stroke="none" stroke-width="1" fill="none" fill-rule="evenodd">
        <g id="下载备份-2" transform="translate(-943, -1193)" fill="#060B17" fill-rule="nonzero">
            <g id="1备份-4" transform="translate(769, 1146)">
                <g id="iOS" transform="translate(174, 47)">
                    <path d="M31.9865958,8.80490689 C32.0579728,7.2698585 31.8438418,5.73124023 31.3549092,4.27115931 C30.5697619,2.40768196 28.9923297,0.994009489 27.0580124,0.415688932 C25.7946391,0.101539493 24.4955773,-0.0376858261 23.1929466,0.00872261368 L8.80690773,0.00872261368 C7.50784591,-0.0376858261 6.20521525,0.101539493 4.94184195,0.415688932 C3.00752464,0.994009489 1.43009244,2.40768196 0.644945189,4.27115931 C0.159581435,5.73124023 -0.058118484,7.26628862 0.0132585386,8.80490689 L0.0132585386,23.1950931 C-0.0545496329,24.7337114 0.159581435,26.2687598 0.644945189,27.7288407 C1.43009244,29.592318 3.00752464,31.0059905 4.94184195,31.5843111 C6.20521525,31.8984605 7.50427706,32.0376858 8.80690773,31.9912774 L23.1929466,31.9912774 C24.4920084,32.0376858 25.7946391,31.8984605 27.0580124,31.5843111 C28.9923297,31.0059905 30.5697619,29.592318 31.3549092,27.7288407 C31.8402729,26.2687598 32.0579728,24.7337114 31.9865958,23.1950931 L31.9865958,8.80490689 Z M6.355107,21.9991833 L5.16667957,21.9991833 L5.16667957,14.8951221 L6.355107,14.8951221 L6.355107,21.9991833 Z M5.75910886,13.6956425 C5.35225983,13.6920726 5.02392553,13.3600738 5.02749438,12.9495376 C5.03106323,12.5425712 5.36296638,12.2141423 5.77338426,12.2177122 C6.17666444,12.221282 6.50499875,12.549711 6.50499875,12.9566773 C6.5014299,13.3672135 6.16952674,13.6992124 5.75910886,13.6956425 Z M12.90038,22.1776773 C9.76335983,22.1776773 7.7862163,19.9357927 7.7862163,16.3694826 C7.7862163,12.8031725 9.75979098,10.5541481 12.90038,10.5541481 C16.040969,10.5541481 18.0216813,12.8031725 18.0216813,16.3694826 C18.0216813,19.9357927 16.0481067,22.1776773 12.90038,22.1776773 Z M23.257186,22.1776773 C20.9017442,22.1776773 19.2457973,20.878241 19.1280252,18.9362263 L20.1986805,18.9362263 C20.3164526,20.2892108 21.5869636,21.20667 23.3535449,21.20667 C25.0416115,21.20667 26.2514521,20.2856409 26.2514521,19.0219034 C26.2514521,17.9687888 25.5234064,17.3440598 23.8531841,16.922814 L22.4541945,16.5622561 C20.3699854,16.030344 19.4420841,15.1485836 19.4420841,13.6635136 C19.4420841,11.8428748 21.0801868,10.5470083 23.2964433,10.5470083 C25.4948556,10.5470083 27.0937009,11.8464446 27.1615091,13.6313846 L26.0908538,13.6313846 C25.9909259,12.3605074 24.863169,11.5144458 23.2643237,11.5144458 C21.7047357,11.5144458 20.5484279,12.3819266 20.5484279,13.620675 C20.5484279,14.5881125 21.2479228,15.1592933 22.9038697,15.5805391 L24.1244168,15.8946885 C26.3870684,16.4658693 27.3399576,17.3333502 27.3399576,18.9005275 C27.3435205,20.8818109 25.748244,22.1776773 23.257186,22.1776773 L23.257186,22.1776773 Z M12.90038,11.5430048 C10.4343038,11.5430048 8.8818536,13.4100521 8.8818536,16.3694826 C8.8818536,19.3289131 10.4343038,21.1852507 12.90038,21.1852507 C15.3664561,21.1852507 16.9296129,19.3182034 16.9296129,16.3694826 C16.9296129,13.4207617 15.370025,11.5430048 12.90038,11.5430048 Z" id="形状"></path>
                </g>
            </g>
        </g>
    </g>
</svg>