<?xml version="1.0" encoding="UTF-8"?>
<svg width="33px" height="32px" viewBox="0 0 33 32" version="1.1" xmlns="http://www.w3.org/2000/svg" xmlns:xlink="http://www.w3.org/1999/xlink">
    <title>Kubernetes</title>
    <g id="页面-1" stroke="none" stroke-width="1" fill="none" fill-rule="evenodd">
        <g id="下载" transform="translate(-368, -523)" fill="#060B17" fill-rule="nonzero">
            <g id="编组-2" transform="translate(350, 522)">
                <g id="Kubernetes" transform="translate(18, 1)">
                    <path d="M16.5020806,0 C16.743382,0 16.9919017,0.0528402237 17.304356,0.146326773 C17.5678705,0.225757506 17.827347,0.317657068 18.0818825,0.421705632 L28.6527368,5.35921807 L28.7620443,5.41815525 C28.8775389,5.49030248 29.0466561,5.59801524 29.2188669,5.71487343 L29.2848638,5.75958439 C29.4962603,5.904895 29.642691,6.01464008 29.7571544,6.12844979 L29.9273028,6.2981482 L30.0036118,6.52576763 C30.0386727,6.63144808 30.0778583,6.77371022 30.1242624,6.95966716 L30.1469489,7.05112139 C30.198509,7.25638534 30.2449131,7.45961697 30.274818,7.59273368 L32.7816707,18.6251627 C32.8126067,18.7166169 32.8476676,18.8344913 32.8816973,18.9757373 C32.9879111,19.4157337 33.0322528,19.8699564 32.9745055,20.3241791 L32.931195,20.5172492 C32.865198,20.7123515 32.757953,20.901357 32.5939918,21.1513319 L32.5300573,21.2458346 L32.411469,21.4185815 C32.3330977,21.5283265 32.2588511,21.6309585 32.191823,21.7193643 L24.8290389,30.899337 C24.7455101,31.0300834 24.6539041,31.1556463 24.5547391,31.2753155 C24.387454,31.4804441 24.1850361,31.6551478 23.9566417,31.7915238 L23.9587041,31.7894915 L24.0711052,31.7254736 L23.9597354,31.7905077 C23.7277148,31.9053335 23.5163184,31.9388668 23.1811776,31.9632546 C23.0150634,31.9747042 22.8485958,31.9804659 22.6820758,31.9805292 L10.4654226,31.9805292 C10.2996755,31.9978584 10.1328933,32.0036309 9.96632073,31.9978039 C9.61571196,31.9805292 9.32388172,31.9154951 9.05886274,31.7051504 C8.98109114,31.6530553 8.90764451,31.5949513 8.83921666,31.5313873 C8.70125862,31.4023517 8.57433433,31.2623248 8.45973423,31.1127302 L0.653533148,21.4805671 L0.534944889,21.2976586 L0.257551482,20.7458848 C0.135405073,20.5729965 0.0549850098,20.3748795 0.0224373671,20.1666746 C-0.00747912236,19.9835904 -0.00747912236,19.7969688 0.0224373671,19.6138846 L0.0409990077,19.5163334 L0.1286512,19.0793854 L2.88093002,7.32650025 C2.89846046,7.21980364 2.92733412,7.0704284 2.9634262,6.91394004 C3.01292391,6.7035953 3.06139042,6.54507463 3.13666818,6.39366707 L3.21091474,6.24632414 L3.3284718,6.12946595 C3.42334241,6.03496324 3.52955624,5.95367059 3.65536292,5.87034562 C3.8497399,5.7456594 4.05076991,5.63134646 4.25758504,5.52790033 L14.9913693,0.34549377 L15.1460497,0.284524282 C15.2584507,0.252007221 15.4296303,0.20323163 15.6193715,0.15343988 L15.7575526,0.118890503 C16.0772253,0.0406463259 16.2958402,0 16.5020806,0 Z M16.5020806,2.03333245 L16.4814566,2.0394294 C16.4422709,2.04959099 16.3535875,2.06788183 16.2576857,2.09125347 L16.1442534,2.1197059 C16.0236028,2.1512068 15.9091393,2.18372386 15.8214871,2.20912781 L5.17638625,7.34580725 C5.12173253,7.37324352 5.03820514,7.41693833 4.95158415,7.46774623 C4.93508492,7.54497425 4.92064809,7.62728306 4.90311765,7.71975345 L2.14568281,19.5061718 L2.08484188,19.8018738 L2.33439283,20.297759 L10.0931586,29.8730172 C10.1086266,29.8933404 10.1375003,29.9289059 10.1694676,29.9654876 L10.2179341,29.9624392 L10.2560886,29.9583745 L10.4035505,29.9482129 L22.6820758,29.9482129 C22.7583847,29.9482129 22.8800666,29.9451645 22.9996861,29.9380514 C23.0419653,29.8811465 23.0780574,29.8272901 23.0966191,29.7978215 L23.1739592,29.6860441 L30.5542738,20.483716 C30.6171771,20.3993748 30.7172037,20.2621935 30.8141368,20.117899 L30.8626033,20.046768 L30.9368498,19.9299098 C30.9353739,19.7658528 30.9146114,19.602517 30.8749777,19.44317 C30.8606801,19.3803403 30.8431267,19.3182734 30.8223864,19.2572131 L30.7821695,19.1251125 L28.26088,8.03374632 C28.2233716,7.86536589 28.1841841,7.69735295 28.1433229,7.52973188 L28.1226989,7.44843923 L28.1196053,7.43624533 C28.1151404,7.43319161 28.1106719,7.43014313 28.1061996,7.42709991 L28.0525771,7.39153437 C27.929864,7.3082094 27.8050886,7.22793291 27.7122804,7.16797958 L17.2527959,2.28330736 C17.072837,2.21270515 16.8901781,2.14897841 16.7052275,2.09226963 C16.5794208,2.05263946 16.4814566,2.0323163 16.5020806,2.0323163 L16.5020806,2.03333245 Z M16.1617839,4.632665 C16.5711712,4.632665 16.8165973,4.95783561 16.8165973,5.44559152 C16.8165973,6.09491657 16.6526362,6.09491657 16.6526362,6.90682693 C16.6526362,7.23199754 16.8165973,7.63744464 16.9805585,7.96159909 C19.0089805,8.11793203 20.9047492,9.01610443 22.2953749,10.479639 C22.785196,10.479639 23.1120871,10.235761 23.3575132,10.0731757 C24.0123267,9.58541981 23.9298305,9.42283451 24.4206828,9.09868006 C24.8300701,8.85480211 25.2384261,8.85480211 25.4838523,9.09868006 C25.7292784,9.34255802 25.5663485,9.83031393 25.2384261,10.0731757 C24.7475739,10.479639 24.6661089,10.3983463 24.0112955,10.8861022 C23.6854356,11.128964 23.5214744,11.4531185 23.3575132,11.7782891 C24.2577528,13.0779554 24.7475739,14.7017761 24.7475739,16.3255968 C24.7475739,16.6507674 24.7475739,17.0562145 24.6661089,17.3813851 C24.993,17.7878484 25.4023873,17.8681249 25.6478134,17.9494175 C26.4655568,18.1120028 26.5470218,17.9494175 27.1193391,18.1120028 C27.5276952,18.1932955 27.7731213,18.5184661 27.7731213,18.9239132 C27.6906251,19.2490838 27.282269,19.4116691 26.8739129,19.3303765 C26.3015957,19.1677912 26.2201307,19.0052058 25.4838523,18.8426205 C25.0754962,18.7613279 24.6661089,18.8426205 24.3392178,18.9239132 C23.674343,20.8084876 22.3762617,22.4127948 20.6598881,23.4712209 C20.6598881,23.7963915 20.7413531,24.120546 20.9053143,24.4447004 C21.2322054,25.0950416 21.3951353,25.1763343 21.6405615,25.663074 C21.8045226,26.0695373 21.7230577,26.4760006 21.3951353,26.6375697 C21.0682442,26.800155 20.6598881,26.556277 20.495927,26.1498138 C20.2505008,25.5817814 20.332997,25.5004887 20.0050747,24.769871 C19.8421447,24.5259931 19.5967186,24.2008225 19.3512925,24.0382372 C17.4703796,24.769871 15.3450717,24.769871 13.3826938,24.0382372 L13.3826938,24.1195298 C12.9733065,24.2821151 12.7278804,24.6885784 12.6464154,24.9324563 C12.3195243,25.663074 12.4009893,25.8256593 12.1555631,26.3123991 C11.9926332,26.7188624 11.5832459,26.9627403 11.2563548,26.800155 C10.9294636,26.6375697 10.8479987,26.2311064 11.0109286,25.8246432 C11.2563548,25.3379034 11.4203159,25.2566108 11.747207,24.6072857 C11.910137,24.2008225 11.910137,23.876668 11.910137,23.4712209 L11.9926332,23.3899283 C10.2746502,22.4144164 8.96708574,20.7916119 8.31227231,18.8426205 C7.90391621,18.6800352 7.49556012,18.7613279 7.25013398,18.8426205 C6.51385557,19.0052058 6.51385557,19.1677912 5.61464721,19.4116691 C5.20525991,19.4929618 4.79690382,19.4116691 4.71543884,19.0052058 C4.63294266,18.5987426 4.95983377,18.273572 5.36922107,18.1922793 C5.94153832,18.029694 6.10549948,18.1922793 6.84074669,18.029694 C7.1676378,17.9484014 7.49556012,17.7868322 7.73995506,17.5429543 C7.65849008,17.136491 7.65849008,16.8123366 7.65849008,16.4068895 C7.65849008,14.7830687 8.14934235,13.2395245 9.04855072,11.8595817 C8.88562076,11.3718258 8.64019463,11.1279479 8.39476849,10.9663787 C7.73995506,10.4786228 7.65849008,10.4786228 7.1676378,10.1534522 C6.84074669,9.91059042 6.67781673,9.42385067 6.92221167,9.17997271 C7.1676378,8.85480211 7.65849008,8.93609476 7.98538119,9.17997271 C8.47623347,9.50514332 8.47623347,9.66772862 9.04855072,10.1544684 C9.29397686,10.3983463 9.70233295,10.479639 10.0302553,10.5609316 C11.4203159,9.09868006 13.3001976,8.1241844 15.3450717,7.96159909 C15.6719628,7.63642849 15.6719628,7.14968873 15.6719628,6.90682693 C15.6719628,6.09390042 15.5080017,6.01260776 15.5080017,5.44457536 C15.5080017,4.95681945 15.7534278,4.632665 16.1628151,4.632665 L16.1617839,4.632665 Z M16.6526362,19.3293603 L16.1628151,19.3293603 C15.6719628,19.8171162 14.8531882,21.197059 14.117941,22.5780179 C14.8542194,22.8218959 15.5904978,22.9844812 16.325745,22.9844812 C17.0620235,22.9844812 17.7972707,22.8218959 18.6150141,22.5780179 C17.9612318,21.2783516 17.1434884,19.8984089 16.6526362,19.3293603 Z M13.7910499,18.0307102 C13.0547715,17.9494175 11.4192847,18.1932955 10.0302553,18.5184661 C10.5200763,19.9797015 11.5017809,21.1157663 12.7278804,21.9276767 C13.3826938,20.4664413 13.9550111,18.8426205 14.036476,18.3548646 C13.9539799,18.273572 13.8725149,18.1109867 13.7910499,18.029694 L13.7910499,18.0307102 Z M18.7789752,18.0307102 C18.696479,18.1932955 18.6150141,18.2745881 18.5335491,18.3558808 C18.7789752,19.1677912 19.3512925,20.6290266 19.9236097,21.9276767 C21.1507404,21.1157663 22.1314138,19.8984089 22.622266,18.5174499 L22.071604,18.4320927 C20.6970114,18.2197156 19.3564485,18.0307102 18.7789752,18.0307102 Z M16.8165973,15.2698085 L15.8348928,15.2698085 L15.2625755,16.082735 L15.5080017,17.0562145 L16.40721,17.4626778 L17.3074496,16.9749219 L17.4703796,16.0004262 L16.8165973,15.2698085 Z M10.6015413,12.8340774 C9.95549296,13.8871492 9.61586822,15.0950547 9.61980238,16.3255968 L9.61980238,17.0562145 C11.0913624,16.7310439 12.6453842,16.243288 13.2991664,15.9191336 C13.2991664,15.7565482 13.3816626,15.5939629 13.3816626,15.5126703 C12.8908103,14.8633452 11.7461758,13.8085731 10.6015413,12.8340774 L10.6015413,12.8340774 Z M21.9664214,12.8340774 L21.7643057,13.0210505 L21.3580121,13.397029 C20.414462,14.270925 19.522472,15.112304 19.1863001,15.5136865 C19.1863001,15.5949791 19.2687963,15.6762718 19.2687963,15.8388571 C20.0040435,16.2443042 21.4755691,16.7310439 22.9481259,17.0562145 C23.0306221,16.8123366 23.0306221,16.5684586 22.9481259,16.3245807 C22.9519052,15.0943834 22.6122874,13.8868541 21.9664214,12.8340774 L21.9664214,12.8340774 Z M15.5894666,9.74800512 C14.0354448,9.91059042 12.6453842,10.5609316 11.6636796,11.6969964 C12.8908103,12.5912156 14.199406,13.4834025 14.8531882,13.8085731 C15.0161182,13.7272804 15.0986144,13.6459878 15.2615443,13.5646951 C15.4255055,12.8330613 15.5894666,11.2102567 15.5894666,9.74800512 L15.5894666,9.74800512 Z M17.2239222,9.74800512 C17.2239222,11.2915493 17.3878834,12.9966627 17.5518445,13.5646951 C17.6333095,13.5646951 17.7962395,13.6459878 17.8787356,13.7272804 C18.5325179,13.4021098 19.9225785,12.5089068 21.067213,11.6157038 C20.0340057,10.5872883 18.6808713,9.92971452 17.2239222,9.74800512 Z" id="形状"></path>
                </g>
            </g>
        </g>
    </g>
</svg>