<?xml version="1.0" encoding="UTF-8"?>
<svg width="23px" height="28px" viewBox="0 0 23 28" version="1.1" xmlns="http://www.w3.org/2000/svg" xmlns:xlink="http://www.w3.org/1999/xlink">
    <title>linux</title>
    <g id="页面-1" stroke="none" stroke-width="1" fill="none" fill-rule="evenodd">
        <g id="下载" transform="translate(-826, -525)" fill="#717273" fill-rule="nonzero">
            <g id="编组-2" transform="translate(350, 522)">
                <g id="linux" transform="translate(476, 3)">
                    <path d="M10.001421,7.02160405 C9.98006835,6.99344493 10.2042715,6.97534264 10.3430639,6.96327445 C10.5245616,6.9491949 10.7594411,6.9431608 10.9302625,6.96126309 C10.9729678,6.96528582 11.0156732,6.97534264 10.9943205,6.98338811 C10.9516151,7.0075245 10.7380884,7.00350176 10.6206486,7.01556996 C10.5138853,7.02562679 10.4284746,7.04976317 10.3003585,7.04976317 C10.1935951,7.05177453 10.0120974,7.04171771 10.001421,7.02160405 Z M11.368675,7.01641354 C11.4754384,7.02629655 11.5608491,7.05001577 11.6889652,7.05001577 C11.8064049,7.05001577 11.9879026,7.04210936 11.998579,7.02036674 C12.0199317,6.99269432 11.7957285,6.9749049 11.6569361,6.96304529 C11.4754384,6.94920908 11.2405589,6.94327928 11.0697375,6.96106869 C11.0270322,6.9650219 10.9843268,6.9749049 11.0056795,6.9828113 C11.0377085,7.00850713 11.2512353,7.00455393 11.368675,7.01641354 L11.368675,7.01641354 Z M22.9987482,23.7050892 C22.9715517,24.1534894 22.6451942,24.4597139 22.2426866,24.7057872 C21.4322321,25.1979337 20.2138307,25.5697777 19.474087,26.4665781 L19.3326654,26.3462756 L19.474087,26.4665781 C18.7017075,27.3907199 17.7498315,27.9211445 16.846909,27.9922323 C15.9494258,28.0633202 15.1063356,27.6477297 14.6548744,26.7345245 L14.6548744,26.7290562 C14.5950422,26.614222 14.5515278,26.4884513 14.5188921,26.3626805 C13.3494443,26.4283 12.3322967,26.0728609 11.5218422,26.1384804 C10.325198,26.2040999 9.57457573,26.4939195 8.89466423,26.4993878 C8.63357821,27.0790271 8.11684549,27.4618077 7.48588764,27.6039834 C6.61560093,27.8063103 5.52230326,27.6039834 4.44532346,27.0352807 L4.53235212,26.8712319 L4.44532346,27.0352807 C3.43905445,26.4993879 2.16082085,26.5486025 1.21982336,26.3517439 C0.746604969,26.2533146 0.333218771,26.0783292 0.126525686,25.6791436 C-0.0747281176,25.2799581 -0.0366530591,24.7331287 0.246190089,23.9456942 C0.338658053,23.6668112 0.267947246,23.2512208 0.202675748,22.8082889 C0.170039999,22.5950254 0.13740425,22.3762936 0.13740425,22.1630301 C0.13740425,21.9278935 0.175479282,21.6982251 0.28970443,21.4849616 C0.534472574,21.0201565 0.931540871,20.8232979 1.29597345,20.6920588 C1.66040599,20.5608198 1.99220282,20.4733271 2.22065306,20.2381904 C2.50349624,19.9374342 2.77002154,19.4507559 3.12357552,19.1335948 C2.98215393,18.1930481 3.13445411,17.1978185 3.4608116,16.2189937 C4.14616238,14.14651 5.59301404,12.1615191 6.62104021,10.9311528 C7.4967662,9.67891326 7.75241294,8.67274703 7.8448809,7.39316606 C7.90471312,5.65424833 6.51225437,-0.0109050175 12.0820893,1.57672791e-05 C16.4824765,0.0054998654 16.232269,4.66995528 16.2050726,7.17990255 C16.1887547,8.82585926 17.0916771,9.94139138 18.0217961,11.1170748 C18.8485684,12.1013678 19.9309875,13.5395294 20.5510668,15.185486 C21.0569209,16.5306865 21.2527355,18.0180627 20.7523206,19.5109072 C20.8284707,19.5382486 20.9046208,19.5765267 20.9753316,19.6202731 C21.0514817,19.6640194 21.1221924,19.7187024 21.1929032,19.7788536 C21.5518965,20.0850781 21.6661216,20.5608198 21.7640289,21.0037516 C21.8673755,21.4466835 21.9598434,21.8622739 22.1556579,22.0810057 C22.7594193,22.7590742 23.0205053,23.2566891 22.9987482,23.7050892 Z M11.0249116,6.03449854 C11.2370838,6.08224389 11.5494484,6.16181948 11.791089,6.26792028 C11.6673219,5.62070542 12.0563042,5.02123593 12.4865423,5.04776114 C13.0110792,5.06367626 13.3057628,5.8700423 13.0228665,6.49603699 C12.9757172,6.59683276 12.8578437,6.67640835 12.7930133,6.74006882 C13.1878894,6.86208473 13.4413173,6.95757544 13.5356161,7.00001577 C14.0012162,6.49603699 14.1721327,5.61009535 13.789044,4.85677969 C13.2114641,3.72150117 11.773408,3.70028102 11.1958281,4.87799987 C11.0072305,5.25996273 10.9659748,5.6684508 11.0249116,6.03449854 L11.0249116,6.03449854 Z M8.5,7.00001577 C8.92270131,6.67180079 8.87392836,6.72938238 8.81973617,6.68331711 C8.38619876,6.28600425 8.46206781,5.10558197 8.91728208,5.06527488 C9.25869279,5.03648408 9.50255759,5.68139771 9.43752698,6.19387375 C9.60552273,6.07295245 9.80061455,5.98658007 9.99028718,5.92899848 C10.0824139,4.81767411 9.50255761,4.00001577 8.95521662,4.00001577 C7.93098449,4.00001577 7.65460439,6.15932481 8.5,7.00001577 L8.5,7.00001577 Z M8.02953084,8.13046821 C8.1139046,8.41260921 8.37265081,8.73505608 8.85639374,9.0114391 C9.29513732,9.27630616 9.53138387,9.67360675 9.9813773,9.87513603 C10.1276252,9.93847381 10.3019976,9.98453765 10.5213694,9.99605359 C11.5563543,10.0593914 12.0457221,9.34540191 12.670088,9.13811464 C13.3282034,8.92506939 13.8006965,8.50473689 13.9469443,8.09592034 C14.1269417,7.60649206 13.8288211,7.24949735 13.3563279,7.04796807 C12.7207123,6.76582707 12.4394663,6.74855313 12.0850965,6.51247595 C11.50573,6.1324493 11.027612,6.00001577 10.6282428,6.00001577 C9.81825469,6.00001577 9.32326191,6.56429776 9.05889079,6.81764888 C9.03076619,6.84643879 8.61452228,7.15736969 8.26577736,7.42223672 C8.02953081,7.61225006 7.95078196,7.84832721 8.02953084,8.13046821 L8.02953084,8.13046821 Z M6.85767724,21.7736974 L5.83589075,19.8706882 C5.48139339,19.3788993 5.11646966,19.0795496 4.69420076,19.0154032 C4.29278464,18.9512569 4.03733803,19.0902407 3.77146501,19.3842449 C3.52123158,19.656867 3.31270373,20.0417453 3.02597793,20.3464405 C2.61934863,20.6939001 2.54115069,20.6778635 2.00419147,20.8756481 C1.6757601,20.9932498 1.41510029,21.1215426 1.2326384,21.4796932 C1.09188211,21.7469698 1.12316129,22.131848 1.18571964,22.5487995 C1.24827799,22.9710965 1.34211552,23.4201211 1.21699882,23.8263815 L1.21699882,23.8370725 C0.956339011,24.5694103 0.956339011,24.9970528 1.08145571,25.2482928 C1.49329823,26.0715047 3.51080521,25.5743702 5.0695509,26.4189642 C6.70649455,27.2956313 8.85433141,27.3330501 8.99508773,25.4567685 C9.10456484,24.3609346 7.35293089,22.8374582 6.85767724,21.7736974 L6.85767724,21.7736974 Z M14.7753712,23.7516644 C14.944664,23.1381087 15.1086665,22.5635974 15.1351185,22.1341084 C15.1774417,21.2862859 15.2197649,20.5332857 15.3678961,19.9085745 C15.5318986,19.2057743 15.8599035,18.6201074 16.5000421,18.3858407 C16.6217213,17.2089293 17.4893471,17.2089293 18.5262658,17.6886183 C19.5261517,18.1627296 19.9017702,18.581063 19.7324773,19.1444187 C19.7853813,19.1444187 19.8382854,19.1388409 19.9546742,19.1444187 C20.2297751,18.201774 19.1981468,17.5826405 18.330521,17.2033515 C18.4839426,16.534018 18.4574906,15.8591067 18.3093593,15.2120843 C17.9919353,13.8009062 17.1137286,12.5459058 16.447138,11.9211946 C16.3254588,11.9156168 16.3360396,12.0271724 16.5846885,12.2837502 C17.198375,12.8805726 18.5474274,15.0280176 17.817352,17.0192848 C17.6110264,16.963507 17.4152815,16.9356181 17.2406983,16.9411959 C16.960307,15.3180621 16.314878,13.9738173 15.9921635,13.3379505 C15.3837673,12.1443057 14.4314951,9.69566066 14.0241342,8.00001577 C13.7860661,8.35699363 13.3681244,8.66377151 12.8443747,8.83668264 C12.5957258,8.92034933 12.3312057,9.1434605 12.0032008,9.33868279 C11.267835,9.78490514 10.4160804,9.82952737 9.76007062,9.27174945 C9.52200255,9.07094938 9.33683851,8.84783821 9.09348004,8.69723818 C9.00883361,8.64703817 8.82366956,8.51317145 8.76547514,8.46854922 C8.65966711,10.5769498 7.32119556,13.2263949 6.68634738,14.7547064 C6.24724406,15.853529 5.9880144,17.0304404 5.95627199,18.1850407 C4.80296448,16.5619069 5.64413829,14.486973 6.09382242,13.5889506 C6.59641056,12.6072614 6.67576657,12.3339502 6.55408737,12.4287725 C6.09911284,13.2096616 5.39019904,14.4535064 5.11509817,15.7308178 C4.97225735,16.3945736 4.94580533,17.0694848 5.13096938,17.6941961 C5.31613342,18.3189074 5.71820394,18.8934186 6.43240813,19.3619521 C6.43240813,19.3619521 7.7444277,20.1595745 8.45863187,21.1747303 C8.85012158,21.7325083 8.97180081,22.2177751 8.85012158,22.5635974 C8.71786153,22.9373086 8.34224303,23.0600197 7.96662454,23.0600197 C8.22056382,23.3946865 8.51153589,23.785131 8.72844234,24.1532645 C10.7176333,25.5867537 13.0771523,25.0289758 14.7753712,23.7516644 L14.7753712,23.7516644 Z M22.2334663,22.4419098 C21.6746874,21.7926043 21.8311455,20.5399617 21.2779544,20.051546 C20.892397,19.706782 20.5180152,19.7412584 20.0151142,19.7584966 C19.5848545,20.2641505 18.5734648,20.8847257 17.8694035,20.6951055 C17.2268078,20.5284696 16.8636015,19.7584966 16.8188992,19.0000158 C16.8021359,19.0115079 16.7797847,19.017254 16.7630213,19.0287461 C16.3662884,19.2528427 16.1427768,19.6493213 15.9974943,20.2411662 C15.8577996,20.827265 15.8075095,21.5914919 15.7628072,22.4648941 C15.7236927,23.14293 15.4163643,23.9818557 15.2096161,24.7977972 C15.0140436,25.5562781 14.8855244,26.2458061 15.1481505,26.8836195 C15.5504712,27.7167992 16.2377692,28.0558171 17.0312352,27.9926104 C17.8247012,27.9294037 18.7299229,27.4294959 19.467511,26.5273634 C20.6968244,24.9989096 22.9487032,24.8207815 22.9989933,23.8554423 C23.0157566,23.5623929 22.8257718,23.1084536 22.2334663,22.4419098 L22.2334663,22.4419098 Z M9.15279991,7.7276176 C9.26512245,7.86420272 9.41675788,8.05110867 9.60209009,8.23801461 C9.97275448,8.61182649 10.4894382,9.00001577 11.1352928,9.00001577 C11.7867635,9.00001577 12.3989214,8.57588303 12.9212212,8.22363722 C13.1964115,8.03673128 13.5333791,7.72042892 13.7524081,7.47601345 C13.9714371,7.23159798 14.0837596,7.02312597 13.926508,7.0015599 C13.7692565,6.97999383 13.7804887,7.18846584 13.5895404,7.36818311 C13.3424308,7.59822119 13.0447761,7.90014618 12.8088987,8.07267474 C12.3933053,8.37459974 11.7137539,8.80592115 11.1296767,8.80592111 C10.5455995,8.80592111 10.0794609,8.46086397 9.73126101,8.10861816 C9.55716106,7.9289009 9.41114176,7.74918367 9.29881922,7.61259854 C9.21457731,7.51195687 9.19211279,7.28191879 9.05732575,7.26035273 C8.97869996,7.25316405 8.95623546,7.52633427 9.15279991,7.7276176 L9.15279991,7.7276176 Z" id="形状"></path>
                </g>
            </g>
        </g>
    </g>
</svg>