<?xml version="1.0" encoding="UTF-8"?>
<svg width="26px" height="32px" viewBox="0 0 26 32" version="1.1" xmlns="http://www.w3.org/2000/svg" xmlns:xlink="http://www.w3.org/1999/xlink">
    <title>形状</title>
    <g id="页面-1" stroke="none" stroke-width="1" fill="none" fill-rule="evenodd">
        <g id="下载备份-2" transform="translate(-1365, -915)" fill="#060B17" fill-rule="nonzero">
            <g id="1备份-2" transform="translate(1188, 874)">
                <path d="M188.001421,49.0215883 C187.980068,48.9934292 188.204271,48.9753269 188.343064,48.9632587 C188.524562,48.9491791 188.759441,48.943145 188.930262,48.9612473 C188.972968,48.9652701 189.015673,48.9753269 188.99432,48.9833723 C188.951615,49.0075087 188.738088,49.003486 188.620649,49.0155542 C188.513885,49.025611 188.428475,49.0497474 188.300358,49.0497474 C188.193595,49.0517588 188.012097,49.0417019 188.001421,49.0215883 Z M190.368675,49.0163978 C190.475438,49.0262808 190.560849,49.05 190.688965,49.05 C190.806405,49.05 190.987903,49.0420936 190.998579,49.020351 C191.019932,48.9926785 190.795729,48.9748891 190.656936,48.9630295 C190.475438,48.9491933 190.240559,48.9432635 190.069738,48.9610529 C190.027032,48.9650061 189.984327,48.9748891 190.00568,48.9827955 C190.037709,49.0084914 190.251235,49.0045382 190.368675,49.0163978 L190.368675,49.0163978 Z M202.998585,68.0915125 C202.967841,68.6039699 202.598915,68.9539407 202.143907,69.2351673 C201.227741,69.7976205 199.850417,70.2225851 199.014185,71.2474998 L198.854317,71.1100112 L199.014185,71.2474998 C198.141061,72.3036618 197.065027,72.9098614 196.044332,72.9911046 C195.029786,73.0723479 194.076727,72.5973874 193.56638,71.5537243 L193.56638,71.5474748 C193.498743,71.4162357 193.449553,71.2724977 193.412661,71.1287597 C192.090676,71.2037534 190.940857,70.7975373 190.024691,70.872531 C188.671963,70.9475247 187.823433,71.2787472 187.054838,71.2849966 C186.759697,71.9474415 186.175564,72.3849051 185.462308,72.5473916 C184.478505,72.7786223 183.242604,72.5473916 182.025148,71.8974457 L182.123528,71.7099613 L182.025148,71.8974457 C180.887627,71.2849967 179.442667,71.341242 178.378931,71.1162607 C177.843988,71.0037701 177.376682,70.8037867 177.143029,70.3475747 C176.915525,69.8913627 176.958566,69.2664147 177.278302,68.3664896 C177.382831,68.0477662 177.302897,67.5728057 177.229112,67.0665979 C177.192219,66.8228681 177.155327,66.572889 177.155327,66.3291593 C177.155327,66.0604316 177.198368,65.7979535 177.327492,65.5542238 C177.604186,65.023018 178.053046,64.7980367 178.465013,64.6480492 C178.876981,64.4980617 179.252055,64.39807 179.510303,64.1293424 C179.830039,63.785621 180.131329,63.2294173 180.530998,62.8669475 C180.371131,61.792037 180.543296,60.6546317 180.912222,59.5359748 C181.686966,57.167422 183.322538,54.8988609 184.484654,53.492728 C185.474605,52.0615971 185.763597,50.9116929 185.868126,49.4493146 C185.935763,47.4619801 184.361679,40.9875191 190.658014,41 C195.632365,41.0062675 195.349522,46.3370737 195.318778,49.2055849 C195.300331,51.0866783 196.321026,52.3615721 197.372465,53.7052103 C198.307077,54.8301166 199.530682,56.4737298 200.231641,58.3548232 C200.803476,59.8921952 201.024831,61.5920537 200.459145,63.2981616 C200.545228,63.329409 200.63131,63.3731553 200.711244,63.4231512 C200.797327,63.473147 200.877261,63.5356418 200.957195,63.6043861 C201.363013,63.954357 201.492137,64.4980617 201.602815,65.0042696 C201.719642,65.5104774 201.824171,65.9854379 202.045526,66.2354171 C202.728039,67.0103525 203.02318,67.5790552 202.998585,68.0915125 Z M190.024912,48.0344828 C190.237084,48.0822281 190.549448,48.1618037 190.791089,48.2679045 C190.667322,47.6206896 191.056304,47.0212202 191.486542,47.0477454 C192.011079,47.0636605 192.305763,47.8700265 192.022867,48.4960212 C191.975717,48.596817 191.857844,48.6763926 191.793013,48.7400531 C192.187889,48.862069 192.441317,48.9575597 192.535616,49 C193.001216,48.4960212 193.172133,47.6100796 192.789044,46.8567639 C192.211464,45.7214854 190.773408,45.7002653 190.195828,46.8779841 C190.007231,47.259947 189.965975,47.668435 190.024912,48.0344828 L190.024912,48.0344828 Z M186.5,49 C186.922701,48.671785 186.873928,48.7293666 186.819736,48.6833013 C186.386199,48.2859885 186.462068,47.1055662 186.917282,47.0652591 C187.258693,47.0364683 187.502558,47.6813819 187.437527,48.193858 C187.605523,48.0729367 187.800615,47.9865643 187.990287,47.9289827 C188.082414,46.8176583 187.502558,46 186.955217,46 C185.930984,46 185.654604,48.159309 186.5,49 L186.5,49 Z M186.034453,50.6630656 C186.132889,51.0157418 186.434759,51.4188004 186.999126,51.7642792 C187.510994,52.095363 187.786615,52.5919887 188.311607,52.8439003 C188.482229,52.9230726 188.685664,52.9806524 188.941598,52.9950473 C190.14908,53.0742195 190.720009,52.1817327 191.448436,51.9226236 C192.216237,51.656317 192.767479,51.1309014 192.938102,50.6198807 C193.148099,50.0080954 192.800291,49.561852 192.249049,49.3099404 C191.507498,48.9572641 191.179377,48.9356717 190.765946,48.6405752 C190.090018,48.1655419 189.532214,48 189.066283,48 C188.121297,48 187.543806,48.7053525 187.235373,49.0220414 C187.202561,49.0580288 186.716943,49.4466924 186.310074,49.7777762 C186.034453,50.0152929 185.942579,50.3103893 186.034453,50.6630656 L186.034453,50.6630656 Z M184.589887,66.1203919 L183.440377,63.9795065 C183.041568,63.426244 182.631028,63.0894755 182.155976,63.0173109 C181.704383,62.9451462 181.417005,63.101503 181.117898,63.4322578 C180.836386,63.7389576 180.601792,64.1719457 180.279225,64.5147279 C179.821767,64.9056199 179.733795,64.8875787 179.129715,65.1100864 C178.76023,65.2423883 178.466988,65.3867177 178.261718,65.7896371 C178.103367,66.0903232 178.138556,66.5233113 178.208935,66.9923817 C178.279313,67.4674658 178.38488,67.9726185 178.244124,68.4296614 L178.244124,68.4416889 C177.950881,69.2655689 177.950881,69.7466667 178.091638,70.0293117 C178.554961,70.955425 180.824656,70.3961488 182.578245,71.346317 C184.419806,72.3325675 186.836123,72.3746636 186.994474,70.2638469 C187.117635,69.0310337 185.147047,67.3171227 184.589887,66.1203919 L184.589887,66.1203919 Z M194.078754,67.6047837 C194.270619,66.919045 194.456489,66.2769442 194.486468,65.796927 C194.534434,64.8493608 194.5824,64.0077723 194.750282,63.3095656 C194.936152,62.524083 195.307891,61.8695142 196.033381,61.6076867 C196.171284,60.2923151 197.154593,60.2923151 198.329768,60.8284381 C199.462972,61.3583272 199.888673,61.8258763 199.696808,62.4555092 C199.756766,62.4555092 199.816723,62.4492752 199.948631,62.4555092 C200.260412,61.4019651 199.091233,60.7099923 198.107924,60.2860811 C198.281802,59.5380025 198.251823,58.7836899 198.083941,58.0605472 C197.724193,56.4833481 196.728892,55.0807007 195.973423,54.382494 C195.83552,54.37626 195.847512,54.5009397 196.129314,54.7877032 C196.824825,55.45474 198.353751,57.8548256 197.526332,60.0803595 C197.292497,60.0180196 197.070652,59.9868497 196.872791,59.9930837 C196.555015,58.178993 195.823528,56.6766017 195.457785,55.9659271 C194.76827,54.6318535 193.689028,51.8951325 193.227352,50 C192.957542,50.3989753 192.483874,50.7418447 191.890291,50.9350983 C191.608489,51.0286081 191.3087,51.2779676 190.936961,51.4961573 C190.103546,51.9948764 189.138224,52.0447483 188.394747,51.4213494 C188.124936,51.1969258 187.915084,50.9475663 187.639277,50.7792486 C187.543345,50.7231427 187.333492,50.5735269 187.267538,50.523655 C187.147623,52.8801027 185.630688,55.8412473 184.911194,57.5493602 C184.413543,58.7774559 184.11975,60.0928275 184.083775,61.3832631 C182.776693,59.5691724 183.730023,57.2501287 184.239665,56.2464566 C184.809265,55.1492746 184.899202,54.8438091 184.761299,54.9497869 C184.245661,55.8225453 183.442226,57.2127248 183.130445,58.6403082 C182.968558,59.3821528 182.938579,60.1364654 183.148432,60.8346721 C183.358285,61.5328789 183.813964,62.1749797 184.623396,62.6986347 C184.623396,62.6986347 186.110351,63.5900951 186.919783,64.724681 C187.363471,65.3480799 187.501374,65.8904368 187.363471,66.2769441 C187.213576,66.6946214 186.787875,66.8317691 186.362174,66.8317691 C186.649972,67.2058084 186.979741,67.6421876 187.225568,68.0536309 C189.479984,69.655766 192.154106,69.0323671 194.078754,67.6047837 L194.078754,67.6047837 Z M202.13765,66.8243267 C201.509023,66.1028761 201.685039,64.711051 201.062699,64.1683669 C200.628947,63.7852958 200.207767,63.8236029 199.642004,63.8427565 C199.157961,64.4045941 198.020148,65.0941221 197.228079,64.883433 C196.505159,64.698282 196.096552,63.8427565 196.046262,63 C196.027403,63.012769 196.002258,63.0191536 195.983399,63.0319226 C195.537074,63.2809188 195.285624,63.7214506 195.122181,64.379056 C194.965025,65.030277 194.908448,65.8794179 194.858158,66.8498648 C194.814154,67.603238 194.46841,68.5353777 194.235818,69.4419794 C194.015799,70.2847359 193.871215,71.0508781 194.166669,71.7595597 C194.61928,72.6853149 195.39249,73.0620015 196.28514,72.9917718 C197.177789,72.9215421 198.196163,72.366089 199.02595,71.3637195 C200.408927,69.6654376 202.942291,69.4675175 202.998867,68.3949183 C203.017726,68.0693079 202.803993,67.5649309 202.13765,66.8243267 L202.13765,66.8243267 Z M187.18336,49.7276018 C187.318147,49.864187 187.500109,50.0510929 187.722508,50.2379988 C188.167305,50.6118107 188.787326,51 189.562351,51 C190.344116,51 191.078706,50.5758673 191.705465,50.2236215 C192.035694,50.0367155 192.440055,49.7204132 192.70289,49.4759977 C192.965724,49.2315822 193.100512,49.0231102 192.91181,49.0015441 C192.723108,48.9799781 192.736586,49.1884501 192.507448,49.3681673 C192.210917,49.5982054 191.853731,49.9001304 191.570678,50.072659 C191.071966,50.374584 190.256505,50.8059054 189.555612,50.8059053 C188.854719,50.8059053 188.295353,50.4608482 187.877513,50.1086024 C187.668593,49.9288851 187.49337,49.7491679 187.358583,49.6125828 C187.257493,49.5119411 187.230535,49.281903 187.068791,49.260337 C186.97444,49.2531483 186.947483,49.5263185 187.18336,49.7276018 L187.18336,49.7276018 Z" id="形状"></path>
            </g>
        </g>
    </g>
</svg>