<?xml version="1.0" encoding="UTF-8"?>
<svg width="25px" height="31px" viewBox="0 0 25 31" version="1.1" xmlns="http://www.w3.org/2000/svg" xmlns:xlink="http://www.w3.org/1999/xlink">
    <title>mac</title>
    <g id="页面-1" stroke="none" stroke-width="1" fill="none" fill-rule="evenodd">
        <g id="下载" transform="translate(-1215, -522)" fill="#717273" fill-rule="nonzero">
            <g id="编组-2" transform="translate(350, 522)">
                <g id="mac" transform="translate(865, 0)">
                    <path d="M25,22.7213577 C24.9614125,22.839579 24.3585438,24.9627736 22.87723,27.1459982 C21.5951523,29.0292641 20.2694407,30.927777 18.1756209,30.9611057 C16.1165563,30.9976524 15.4576466,29.7206633 13.1067282,29.7206633 C10.7588073,29.7206633 10.0206735,30.927777 8.07471565,30.9976524 C6.06304133,31.0807827 4.51506248,28.9404641 3.22812819,27.0663923 C0.59799084,23.2273035 -1.42715308,16.1873522 1.28888612,11.4694187 C2.62522157,9.10886214 5.02717264,7.60837886 7.64281599,7.56738836 C9.61392977,7.529769 11.4893146,8.91555543 12.6865148,8.91555543 C13.9164595,8.91555543 16.1851185,7.23873623 18.5784946,7.4896213 C19.5805944,7.5327188 22.3835599,7.91258995 24.1895099,10.5553299 C24.0474152,10.652941 20.8356949,12.5665859 20.8714747,16.4613376 C20.9197376,21.1632195 24.9565558,22.7053063 25,22.7213577 M17.0123033,4.97100214 C18.0915782,3.64175969 18.8007997,1.81457803 18.6141984,0 C17.073201,0.0610260979 15.1956914,1.03326786 14.0798399,2.35461868 C13.0932206,3.50744861 12.2236161,5.36309378 12.4661446,7.15660192 C14.1783387,7.26160662 15.9388336,6.25132412 17.0123033,4.97100214" id="形状"></path>
                </g>
            </g>
        </g>
    </g>
</svg>