<?xml version="1.0" encoding="UTF-8"?>
<svg width="34px" height="27px" viewBox="0 0 34 27" version="1.1" xmlns="http://www.w3.org/2000/svg" xmlns:xlink="http://www.w3.org/1999/xlink">
    <title>形状</title>
    <g id="页面-1" stroke="none" stroke-width="1" fill="none" fill-rule="evenodd">
        <g id="下载备份-2" transform="translate(-524, -1198)" fill="#060B17" fill-rule="nonzero">
            <g id="1备份-3" transform="translate(350.3798, 1146)">
                <g id="web" transform="translate(173.6202, 52)">
                    <path d="M30,8.8817842e-16 L3.33333336,8.8817842e-16 C1.5,8.8817842e-16 4.4408921e-16,1.5 4.4408921e-16,3.33333332 L4.4408921e-16,23.3333333 C4.4408921e-16,25.1666666 1.5,26.6666666 3.33333332,26.6666666 L30,26.6666666 C31.8333333,26.6666666 33.3333334,25.1666666 33.3333334,23.3333333 L33.3333334,3.33333332 C33.3333334,1.5 31.8333334,8.8817842e-16 30,8.8817842e-16 Z M21.6666667,23.3333333 L3.33333336,23.3333333 L3.33333336,16.6666666 L21.6666667,16.6666666 L21.6666667,23.3333333 Z M21.6666667,15 L3.33333336,15 L3.33333336,8.33333332 L21.6666667,8.33333332 L21.6666667,15 Z M30,23.3333333 L23.3333333,23.3333333 L23.3333333,8.33333332 L30,8.33333332 L30,23.3333333 Z" id="形状"></path>
                </g>
            </g>
        </g>
    </g>
</svg>