<?xml version="1.0" encoding="UTF-8"?>
<svg width="28px" height="25px" viewBox="0 0 28 25" version="1.1" xmlns="http://www.w3.org/2000/svg" xmlns:xlink="http://www.w3.org/1999/xlink">
    <title>数据源模型</title>
    <g id="页面-1" stroke="none" stroke-width="1" fill="none" fill-rule="evenodd">
        <g id="下载" transform="translate(-1483, -525)" fill="#717273" fill-rule="nonzero">
            <g id="编组-2" transform="translate(350, 522)">
                <g id="数据源模型" transform="translate(1133, 3)">
                    <path d="M13.3,19.1654266 L26.459375,19.1654266 C27.3,19.1654266 28,19.859871 28,20.8333333 L28,23.3320933 C28,24.1660466 27.3,25 26.459375,25 L13.3,25 C12.459375,25 11.759375,24.3055556 11.759375,23.3320933 L11.759375,23.0530754 L2.940625,23.0530754 C2.38125,23.0530754 1.959375,22.6376488 1.959375,22.0796131 L1.959375,5.83457341 L1.540625,5.83457341 C0.7,5.83457341 0,5.00062004 0,4.16666667 L0,1.66790675 C0,0.694444444 0.7,0 1.540625,0 L4.2,0 C5.040625,0 5.740625,0.694444444 5.740625,1.66790675 L5.740625,4.16666667 C5.740625,5.00062004 5.040625,5.83457341 4.2,5.83457341 L3.78125,5.83457341 L3.78125,11.6691468 L11.621875,11.6691468 L11.621875,11.390129 C11.621875,10.5561756 12.321875,9.72222222 13.1625,9.72222222 L26.321875,9.72222222 C27.1625,9.72222222 27.8625,10.4166667 27.8625,11.390129 L27.8625,13.8888889 C27.8625,14.7228423 27.1625,15.5567956 26.321875,15.5567956 L13.159375,15.5567956 C12.31875,15.5567956 11.61875,14.8623512 11.61875,13.8888889 L11.61875,13.609871 L3.78125,13.609871 L3.78125,21.2487599 L11.621875,21.2487599 L11.621875,20.8333333 C11.61875,19.99938 12.31875,19.1654266 13.3,19.1654266 Z M26.459375,5.83457341 L9.240625,5.83457341 C8.259375,5.83457341 7.559375,5.00062004 7.559375,4.16666667 L7.559375,1.66790675 C7.559375,0.694444444 8.259375,0 9.240625,0 L26.459375,0 C27.3,0 28,0.694444444 28,1.66790675 L28,4.16666667 C28,5.00062004 27.3,5.83457341 26.459375,5.83457341 Z" id="形状"></path>
                </g>
            </g>
        </g>
    </g>
</svg>