<?xml version="1.0" encoding="UTF-8"?>
<svg width="120px" height="32px" viewBox="0 0 120 32" version="1.1" xmlns="http://www.w3.org/2000/svg" xmlns:xlink="http://www.w3.org/1999/xlink">
    <title>elastic</title>
    <g id="elastic" stroke="none" stroke-width="1" fill="none" fill-rule="evenodd">
        <g id="elastic备份" transform="translate(10.000000, 0.000000)">
            <g id="编组" transform="translate(0.000000, 0.000000)" stroke="#FFFFFF">
                <path d="M11.8765068,4.93038591 C11.8301309,5.21630469 11.4993162,7.00368343 10.8840625,10.2925221 C10.867058,10.377525 10.8771061,10.4586641 10.9142068,10.5359395 C11.33159,11.4246059 11.7412438,12.3086359 12.1431683,13.1880293 C12.2637456,13.44922 12.4654808,13.6439539 12.7483738,13.7722309 C15.2356682,14.900451 17.6255731,15.9923516 19.9180886,17.0479328 C19.9560843,17.065011 20.0013366,17.0577723 20.0340284,17.0293867 L27.5260557,10.4501638 C27.6426579,10.3485663 27.7184625,10.2077011 27.7393849,10.0537413 C28.9892155,1.19566847 18.1952238,-3.6309496 12.4608432,3.2936941 C12.2954359,3.49461 12.169448,3.75734617 12.0828796,4.08190262 C11.965394,4.51619006 11.8966031,4.79901783 11.8765068,4.93038591" id="路径"></path>
                <path d="M10.75421,3.80139312 C10.7626433,3.754462 10.7427632,3.70657995 10.7031965,3.67852532 C7.32703065,1.40663016 3.19493758,4.48296166 4.3496976,8.3173643 C4.37291014,8.39348833 4.43463902,8.45167643 4.51201326,8.47036948 L9.50901694,9.67586487 C9.53866731,9.68283026 9.56983163,9.677599 9.59524537,9.66139053 C9.6206591,9.64518206 9.63810164,9.61941264 9.64350706,9.59008924 L10.75421,3.80139312" id="路径"></path>
                <path d="M3.93463326,9.7268666 C3.89450756,9.71815427 3.85352953,9.72056419 3.8163747,9.73382138 C-1.16207861,11.600021 -1.29656874,18.3925238 3.57058241,20.5137321 C3.64219264,20.5449692 3.72617867,20.5314262 3.78623036,20.4789582 L11.037103,13.96001 C11.0881587,13.9136277 11.1015312,13.839141 11.0695661,13.7791857 L9.63886947,11.1456419 C9.5909477,11.0590936 9.51906505,11.0050008 9.42322152,10.9833637 L3.93463326,9.7268666" id="路径"></path>
                <path d="M28.1150297,22.2895195 C28.155922,22.298579 28.197735,22.2961673 28.2356071,22.2825647 C33.2627551,20.4650486 33.478403,13.6331353 28.6089331,11.4423793 C28.5366157,11.4099064 28.4516363,11.4225599 28.3909663,11.4748349 L21.0218352,17.9474178 C20.9688211,17.9935496 20.9543899,18.0695364 20.9870532,18.1305604 L22.3945619,20.7942416 C22.4424837,20.8823355 22.5143663,20.9379737 22.6102099,20.9611563 L28.1150297,22.2895195" id="路径"></path>
                <path d="M11.8927384,14.9383159 C9.04371203,17.5007663 6.6221169,19.6938406 4.62795302,21.5175388 C4.49810049,21.6349973 4.42544491,21.7563196 4.40998627,21.8815057 C3.96786932,25.2414377 4.97963696,27.9599843 7.4452892,30.0371456 C8.67115894,31.0710897 10.0006015,31.6885198 11.433617,31.8894357 C14.8329707,32.3669973 17.6008393,31.2975065 19.7372226,28.6809633 C19.8809879,28.5047755 20.0548976,28.1918104 20.1082298,27.9228922 C20.5008792,25.8874596 20.8958473,23.8303899 21.2931342,21.7516831 C21.3111,21.6588089 21.2963425,21.562907 21.2513959,21.4804466 L19.6931655,18.5293012 C19.637551,18.4226672 19.5468357,18.3376922 19.4357792,18.2882021 L12.0480977,14.9151333 C11.9958321,14.8911565 11.9347121,14.9002768 11.8927384,14.9383159" id="路径"></path>
                <path d="M21.4113928,28.1755826 C21.4029594,28.2225137 21.4228395,28.2703957 21.4624062,28.2984504 C24.8223405,30.565709 28.9428396,27.5032871 27.7973548,23.682794 C27.774649,23.6068239 27.7128287,23.5485496 27.6350391,23.5297888 L22.6589046,22.3219751 C22.6292542,22.3150098 22.5980899,22.320241 22.5726761,22.3364495 C22.5472624,22.352658 22.5298199,22.3784274 22.5244145,22.4077508 L21.4113928,28.1755826" id="路径"></path>
            </g>
            <path d="M11.8765068,4.93038591 C11.8966031,4.79901783 11.965394,4.51619006 12.0828796,4.08190262 C12.169448,3.75734617 12.2954359,3.49461 12.4608432,3.2936941 C18.1952238,-3.6309496 28.9892155,1.19566847 27.7393849,10.0537413 C27.7184625,10.2077011 27.6426579,10.3485663 27.5260557,10.4501638 L20.0340284,17.0293867 C20.0013366,17.0577723 19.9560843,17.065011 19.9180886,17.0479328 C17.6255731,15.9923516 15.2356682,14.900451 12.7483738,13.7722309 C12.4654808,13.6439539 12.2637456,13.44922 12.1431683,13.1880293 C11.7412438,12.3086359 11.33159,11.4246059 10.9142068,10.5359395 C10.8771061,10.4586641 10.867058,10.377525 10.8840625,10.2925221 C11.4993162,7.00368343 11.8301309,5.21630469 11.8765068,4.93038591 Z" id="路径" fill="#565E6F" fill-rule="nonzero"></path>
            <path d="M10.75421,3.80139312 L9.64350706,9.59008924 C9.63810164,9.61941264 9.6206591,9.64518206 9.59524537,9.66139053 C9.56983163,9.677599 9.53866731,9.68283026 9.50901694,9.67586487 L4.51201326,8.47036948 C4.43463902,8.45167643 4.37291014,8.39348833 4.3496976,8.3173643 C3.19493758,4.48296166 7.32703065,1.40663016 10.7031965,3.67852532 C10.7427632,3.70657995 10.7626433,3.754462 10.75421,3.80139312 Z" id="路径" fill="#565E6F" fill-rule="nonzero"></path>
            <rect id="矩形" fill="#565E6F" fill-rule="nonzero" x="51.0502331" y="7.2532828" width="1.80866026" height="17.2617667" rx="0.46"></rect>
            <path d="M87.50126,7.68216025 L88.4945579,7.68216025 C88.7209946,7.68216025 88.9045579,7.86572351 88.9045579,8.09216025 L88.9045579,9.38641517 C88.9045579,9.61285192 88.7209946,9.79641517 88.4945579,9.79641517 L87.50126,9.79641517 C87.2748233,9.79641517 87.09126,9.61285192 87.09126,9.38641517 L87.09126,8.09216025 C87.09126,7.86572351 87.2748233,7.68216025 87.50126,7.68216025 Z" id="矩形" fill="#565E6F" fill-rule="nonzero" transform="translate(87.997909, 8.739288) rotate(-0.200000) translate(-87.997909, -8.739288) "></path>
            <path d="M80.807332,14.17329 C80.7485892,18.2147905 80.7609561,20.7061477 80.8444328,21.6473614 C80.9449139,22.7693994 81.5686698,23.2755529 82.7157005,23.1658219 C83.4190684,23.0993651 84.0497807,23.0576364 84.6078374,23.0406359 C84.646484,23.0390903 84.6665802,23.0576364 84.6681261,23.0962741 L84.7469651,24.4292738 C84.7500568,24.4710025 84.7315065,24.4965034 84.691314,24.5057764 C83.3464128,24.8256963 82.109722,24.867425 80.9812417,24.6309625 C79.1401183,24.243813 78.9662087,22.1063769 78.9754838,20.4975042 C78.9986718,16.646101 79.007947,14.5465299 79.0033094,14.1987908 C79.0033094,14.1029694 78.9546147,14.0550587 78.8572253,14.0550587 L77.3778339,14.0550587 C77.3221828,14.0550587 77.2943573,14.0272396 77.2943573,13.9716013 L77.2943573,12.5690538 C77.2943573,12.5216812 77.3327692,12.4832782 77.3801527,12.4832782 L78.8595441,12.4832782 C78.929979,12.4832782 78.9870778,12.4261925 78.9870778,12.3557739 L78.9870778,8.90156591 C78.9870778,8.84283665 79.0156763,8.81347202 79.0728732,8.81347202 L80.6403788,8.81347202 C80.6760478,8.81347202 80.7102559,8.82788245 80.7354777,8.85353318 C80.7606995,8.87918391 80.7748689,8.91397377 80.7748689,8.95024938 L80.7748689,12.383593 C80.7748689,12.4500498 80.8088779,12.4832782 80.8768959,12.4832782 L84.4663909,12.4832782 C84.5467758,12.4832782 84.5869682,12.5242341 84.5869682,12.606146 L84.5869682,13.9368274 C84.5869682,14.0171938 84.5460029,14.057377 84.4640721,14.057377 L80.9255906,14.057377 C80.8482974,14.057377 80.8088779,14.0960146 80.807332,14.17329 Z" id="路径" fill="#565E6F" fill-rule="nonzero"></path>
            <path d="M3.93463326,9.7268666 L9.42322152,10.9833637 C9.51906505,11.0050008 9.5909477,11.0590936 9.63886947,11.1456419 L11.0695661,13.7791857 C11.1015312,13.839141 11.0881587,13.9136277 11.037103,13.96001 L3.78623036,20.4789582 C3.72617867,20.5314262 3.64219264,20.5449692 3.57058241,20.5137321 C-1.29656874,18.3925238 -1.16207861,11.600021 3.8163747,9.73382138 C3.85352953,9.72056419 3.89450756,9.71815427 3.93463326,9.7268666 Z" id="路径" fill="#A4A9B2" fill-rule="nonzero"></path>
            <path d="M28.1150297,22.2895195 L22.6102099,20.9611563 C22.5143663,20.9379737 22.4424837,20.8823355 22.3945619,20.7942416 L20.9870532,18.1305604 C20.9543899,18.0695364 20.9688211,17.9935496 21.0218352,17.9474178 L28.3909663,11.4748349 C28.4516363,11.4225599 28.5366157,11.4099064 28.6089331,11.4423793 C33.478403,13.6331353 33.2627551,20.4650486 28.2356071,22.2825647 C28.197735,22.2961673 28.155922,22.298579 28.1150297,22.2895195 L28.1150297,22.2895195 Z" id="路径" fill="#8E949F" fill-rule="nonzero"></path>
            <path d="M40.5414532,19.3569201 C40.521357,19.5902917 40.5267675,19.8252087 40.5576848,20.0616713 C40.8173899,22.0136465 41.4944781,23.1704584 43.7112463,23.1704584 C45.2153714,23.1704584 46.6630726,23.0993651 48.0543497,22.9571785 C48.0768134,22.9545173 48.0993383,22.9616312 48.1161963,22.9767112 C48.1330543,22.9917912 48.1426211,23.0133842 48.1424639,23.0359993 L48.1424639,24.3179973 C48.1424639,24.359726 48.1223677,24.3836814 48.0821753,24.3898634 C46.9351446,24.5660512 45.5871516,24.6866007 44.0381964,24.751512 C41.7912839,24.8465607 39.8319019,24.3179973 39.1339445,21.8907787 C38.5975299,20.0346249 38.5380142,18.1019685 38.9553973,16.0928096 C39.6116164,12.9353389 42.095046,11.8272105 45.095567,12.392866 C46.646841,12.6849668 47.7529063,13.6539997 48.2027526,15.1608689 C48.4779163,16.0835365 48.594629,16.9729757 48.5528907,17.8291866 C48.5420696,18.0192839 48.5188817,18.4582079 48.4833268,19.1459584 C48.4796212,19.217489 48.4204796,19.2735586 48.3488367,19.2734628 L40.6295675,19.2734628 C40.5835008,19.273424 40.5450988,19.3097964 40.5414532,19.3569201 L40.5414532,19.3569201 Z M40.6481178,17.8384996 L46.6816229,17.806004 C46.7178528,17.8047542 46.7465492,17.7750175 46.7465492,17.7387744 L46.7419116,16.853199 C46.7377072,16.0360044 46.4480338,15.2537481 45.9366283,14.6785495 C45.4252227,14.103351 44.7339852,13.7823371 44.0150085,13.7861071 L43.2683564,13.790777 C41.7714196,13.7986509 40.565121,15.1842251 40.5738686,16.8856546 L40.578554,17.7712301 C40.5785431,17.7894695 40.5859452,17.8069305 40.5990622,17.8196073 C40.6121792,17.8322841 40.629885,17.8390886 40.6481178,17.8384996 L40.6481178,17.8384996 Z" id="形状" fill="#565E6F" fill-rule="nonzero"></path>
            <path d="M62.4030545,17.0618424 C62.4633431,15.4181958 62.4494304,13.9229179 60.4622229,13.8580066 C60.392659,13.8549156 58.8475685,13.8518245 55.8269513,13.8487335 C55.7526744,13.8487335 55.6924611,13.7874962 55.6924611,13.7119562 L55.6924611,12.3859112 C55.6924611,12.3070904 55.7311077,12.26768 55.8084009,12.26768 C58.4997492,12.2645889 59.9010744,12.2614979 60.0123766,12.2584069 C62.5282694,12.1795861 64.1885268,13.0906624 64.2093959,15.8517105 C64.2248546,18.0787859 64.2233087,19.9766684 64.2047583,21.5453579 C64.1985749,21.9920094 64.2735493,22.2740644 64.4296815,22.391523 C64.6677445,22.5692562 65.0024239,22.6720325 65.4337198,22.6998516 C65.5944896,22.7091246 65.6748745,22.7941275 65.6748745,22.9548602 L65.6748745,24.2206304 C65.6748745,24.3009967 65.6346821,24.3458164 65.5542972,24.3550895 C64.6978888,24.460184 63.8785812,24.3944999 63.0963742,24.1580374 C63.0175352,24.1333092 62.9502901,24.090035 62.8946391,24.0282148 L62.8436256,23.9702583 C62.7864286,23.905347 62.7176377,23.8875736 62.6372528,23.9169383 C60.7899459,24.6046888 59.1760645,24.8728343 57.7956084,24.7213746 C55.3469606,24.4547747 54.6350905,22.2014256 55.05943,20.0871722 C55.3956553,18.4087517 56.6872243,17.7874579 58.2245855,17.5764962 C59.0624435,17.4590377 60.4143011,17.3292151 62.2801583,17.1870284 C62.3589974,17.1808464 62.3999627,17.1391177 62.4030545,17.0618424 Z M60.0100578,18.768082 C59.0941337,18.874722 57.5451785,18.8074924 57.0906946,19.7904348 C56.803164,20.4117286 56.735146,21.0824786 56.8866407,21.8026848 C57.1138826,22.8783576 57.8396655,23.3049175 58.931818,23.237688 C60.2179765,23.1588671 61.3395004,22.9231773 62.2963899,22.5306186 C62.3705913,22.4997084 62.4076923,22.4432974 62.4076923,22.3613856 L62.4076923,18.6753516 C62.4077522,18.6445938 62.3950757,18.6151829 62.3726727,18.5941025 C62.3502696,18.5730221 62.3201383,18.5621527 62.2894335,18.5640751 C61.3541861,18.6320774 60.5943942,18.7000797 60.0100578,18.768082 Z" id="形状" fill="#565E6F" fill-rule="nonzero"></path>
            <path d="M73.4034189,22.6581229 C74.2683296,22.0971039 74.3842693,20.4117286 73.4845768,19.8089809 C73.2403303,19.6451572 72.8090344,19.498334 72.190689,19.3685114 C71.8150442,19.2896906 71.0846237,19.1529132 69.9994276,18.9581794 C67.6690384,18.5385742 66.620943,17.6228614 66.8736916,15.1423228 C67.073108,13.1810745 68.9397382,12.3580921 70.741442,12.2792713 C71.5607497,12.2437246 73.1189801,12.3186817 75.4161332,12.5041425 C75.5011557,12.5103245 75.5436669,12.555917 75.5436669,12.6409199 L75.5436669,13.9391457 C75.5437115,13.9789301 75.5275255,14.0169696 75.4989623,14.0442082 C75.4703991,14.0714468 75.432014,14.0854478 75.3929452,14.0828778 C74.6694811,14.0380581 73.4652535,13.9716013 71.7802623,13.8835074 C70.4747806,13.8162779 68.6429324,13.9414639 68.635976,15.7311609 C68.6313384,16.6236912 69.2226312,16.9992494 70.1246425,17.2055745 C71.6341782,17.5486771 72.995311,17.7179101 74.330937,18.2557465 C75.5900428,18.7611272 75.8613419,19.7695705 75.905399,21.0817059 C76.0236575,24.5799607 72.6938676,24.920745 70.0411659,24.6958738 C68.703994,24.5830517 67.7053662,24.4864576 67.0452825,24.4060912 C66.9896314,24.3983637 66.9618059,24.3666808 66.9618059,24.3110425 L66.9618059,22.9571785 C66.9618059,22.8567205 67.0120464,22.8119008 67.1125275,22.8227194 C68.1188847,22.9293594 69.168526,23.0251808 70.2614514,23.1101837 C71.3675168,23.193641 72.5848842,23.1913228 73.4034189,22.6581229 Z" id="路径" fill="#565E6F" fill-rule="nonzero"></path>
            <path d="M100,12.6316468 L100,12.9608398 L99.8956542,13.9808744 C99.8879249,14.0566042 99.8461866,14.0906054 99.7704393,14.0828778 C98.1403262,13.9345092 94.7548852,13.2668502 93.9734512,15.4436967 C93.3844773,17.0873432 93.4586787,19.2780993 93.7740349,20.9101546 C94.0414692,22.2841102 94.8862836,23.0128167 96.308478,23.0962741 C97.4245915,23.1627309 98.5754868,23.1040016 99.7611641,22.9200863 C99.8074705,22.9127793 99.8546966,22.9255553 99.8909992,22.9552103 C99.9273017,22.9848653 99.9492374,23.0285866 99.9513053,23.0754098 L100,24.0003956 L100,24.368999 C98.2609036,24.7754674 96.6292447,24.8666523 95.1050233,24.6425538 C93.9116167,24.466366 93.0041949,23.8072073 92.3827577,22.6650777 C92.1910707,22.3111566 92.0341655,21.7764112 91.9120423,21.0608415 C91.6384245,19.4396048 91.6337869,17.7426382 91.8981295,15.9699418 C92.5543486,11.5861114 96.7467303,12.0312174 100,12.6316468 Z" id="路径" fill="#565E6F" fill-rule="nonzero"></path>
            <rect id="矩形" fill="#565E6F" fill-rule="nonzero" x="87.0959047" y="12.4855964" width="1.80402267" height="12.0364078" rx="0.46"></rect>
            <path d="M11.8927384,14.9383159 C11.9347121,14.9002768 11.9958321,14.8911565 12.0480977,14.9151333 L19.4357792,18.2882021 C19.5468357,18.3376922 19.637551,18.4226672 19.6931655,18.5293012 L21.2513959,21.4804466 C21.2963425,21.562907 21.3111,21.6588089 21.2931342,21.7516831 C20.8958473,23.8303899 20.5008792,25.8874596 20.1082298,27.9228922 C20.0548976,28.1918104 19.8809879,28.5047755 19.7372226,28.6809633 C17.6008393,31.2975065 14.8329707,32.3669973 11.433617,31.8894357 C10.0006015,31.6885198 8.67115894,31.0710897 7.4452892,30.0371456 C4.97963696,27.9599843 3.96786932,25.2414377 4.40998627,21.8815057 C4.42544491,21.7563196 4.49810049,21.6349973 4.62795302,21.5175388 C6.6221169,19.6938406 9.04371203,17.5007663 11.8927384,14.9383159 Z" id="路径" fill="#828894" fill-rule="nonzero"></path>
            <path d="M21.4113928,28.1755826 L22.5244145,22.4077508 C22.5298199,22.3784274 22.5472624,22.352658 22.5726761,22.3364495 C22.5980899,22.320241 22.6292542,22.3150098 22.6589046,22.3219751 L27.6350391,23.5297888 C27.7128287,23.5485496 27.774649,23.6068239 27.7973548,23.682794 C28.9428396,27.5032871 24.8223405,30.565709 21.4624062,28.2984504 C21.4228395,28.2703957 21.4029594,28.2225137 21.4113928,28.1755826 L21.4113928,28.1755826 Z" id="路径" fill="#565E6F" fill-rule="nonzero"></path>
        </g>
    </g>
</svg>