<?xml version="1.0" encoding="UTF-8"?>
<svg width="40px" height="40px" viewBox="0 0 40 40" version="1.1" xmlns="http://www.w3.org/2000/svg" xmlns:xlink="http://www.w3.org/1999/xlink">
    <title>1</title>
    <g id="首页" stroke="none" stroke-width="1" fill="none" fill-rule="evenodd">
        <g transform="translate(-374, -707)" fill="#FFFFFF" fill-rule="nonzero" id="编组">
            <g transform="translate(351, 672)">
                <g id="1" transform="translate(23, 35)">
                    <g id="编组-4" transform="translate(4, 7)">
                        <path d="M2.5,3 C2.77613915,3 3,2.77616418 3,2.50003409 C3,2.223904 2.77613915,2 2.5,2 C2.22386085,2 2,2.223904 2,2.50003409 C2,2.77616418 2.22386085,3 2.5,3 Z" id="路径"></path>
                        <path d="M6.49996591,3 C6.776096,3 7,2.77616418 7,2.50003409 C7,2.223904 6.776096,2 6.49996591,2 C6.22383582,2 6,2.223904 6,2.50003409 C6,2.77616418 6.22383582,3 6.49996591,3 Z" id="路径"></path>
                        <path d="M4.49998636,3 C4.7761195,3 5,2.77616418 5,2.50003409 C5,2.223904 4.7761195,2 4.49998636,2 C4.22385322,2 4,2.223904 4,2.50003409 C4,2.77616418 4.22385322,3 4.49998636,3 Z" id="路径"></path>
                        <path d="M9.69844219,10.989924 L11.7945786,9.08716648 C11.9261588,8.9677252 12,8.80581783 12,8.63690485 C12,8.46799187 11.9261588,8.30599801 11.7945786,8.18655673 C11.6629984,8.06711545 11.484541,8 11.2984612,8 C11.1123815,8 10.9339241,8.06711545 10.8023439,8.18655673 L8.20313468,10.5522898 C8.07307894,10.6711257 8,10.8319087 8,10.9994378 C8,11.1670535 8.07307894,11.32775 8.20313468,11.4465858 L10.8023439,13.8124054 C10.8673241,13.8718233 10.9445953,13.9190463 11.0297747,13.9512202 C11.1148587,13.9833941 11.2062312,14 11.2984612,14 C11.3906912,14 11.4820637,13.9833941 11.5671478,13.9512202 C11.6523272,13.9190463 11.7295984,13.8718233 11.7945786,13.8124054 C11.9247296,13.6935695 11.9977133,13.5327865 11.9977133,13.3652574 C11.9977133,13.1976417 11.9247296,13.0369452 11.7945786,12.9181094 L9.69844219,10.989924 Z" id="路径"></path>
                        <path d="M18.20651,13.8144555 C18.3373857,13.9333363 18.5143631,14 18.6989607,14 C18.8834631,14 19.0605358,13.9333363 19.1914115,13.8144555 L21.7968283,11.4658213 C21.926942,11.3462444 22,11.1845457 22,11.0158847 C22,10.8473108 21.926942,10.6855251 21.7968283,10.5659481 L19.1914115,8.18546156 C19.059869,8.06614568 18.8818438,7.99939494 18.6964842,8 C18.5111246,8.00061333 18.3335756,8.06849545 18.2029857,8.18868161 C18.0723957,8.30878074 17.9993378,8.47152376 18,8.64088094 C18.0006713,8.81023812 18.0749675,8.97237194 18.20651,9.09168782 L20.3020451,11.0063116 L18.20651,12.9209354 C18.0784918,13.0402513 18.0067674,13.2006446 18.0067674,13.367739 C18.0067674,13.5347464 18.0784918,13.6951397 18.20651,13.8144555 Z" id="路径"></path>
                        <path d="M16.6242006,9.07909277 C16.5448965,9.0402859 16.4573494,9.01508144 16.3664862,9.00499965 C16.2756229,8.99491787 16.1832437,9.00011879 16.0947491,9.02028236 C16.0062545,9.04052594 15.9234448,9.07525209 15.8509626,9.12262048 C15.7783857,9.16990885 15.717747,9.2289593 15.6723628,9.2961712 L13.1084835,13.0984443 C13.0581724,13.1652561 13.0244421,13.2399094 13.0091877,13.3180032 C12.994028,13.396097 12.9976284,13.4759511 13.0199889,13.5528448 C13.0422547,13.6296584 13.0827121,13.7019912 13.1388976,13.7652824 C13.1951779,13.8285736 13.2659546,13.881623 13.3470588,13.92123 C13.4282578,13.960837 13.5179841,13.9862015 13.6110266,13.9957232 C13.7040691,14.0052448 13.798438,13.9988437 13.8884486,13.9767598 C13.9783644,13.9547559 14.0622163,13.9175493 14.1346985,13.8674605 C14.2072754,13.8172916 14.2670613,13.7553606 14.3104559,13.6851882 L16.902191,9.90051819 C16.9506072,9.83178602 16.9819688,9.75537249 16.9941913,9.67607845 C17.0064138,9.5967044 16.9993077,9.51605012 16.973252,9.43915651 C16.9471963,9.36218289 16.9028543,9.29057021 16.8427841,9.22863924 C16.7828086,9.16670828 16.7084315,9.11581927 16.6242006,9.07909277 Z" id="路径"></path>
                        <path d="M31.5841166,17.607335 C31.5475339,17.6070801 31.5117981,17.5956104 31.4819054,17.574455 C31.4519279,17.5532997 31.4290638,17.5234783 31.4164462,17.4889841 C31.169344,16.8368218 30.8191839,16.2288394 30.3794301,15.6884012 C30.3585983,15.658155 30.3474203,15.6223014 30.3474203,15.5855981 C30.3474203,15.5488099 30.3585983,15.5129563 30.3794301,15.4827951 C30.5685251,15.1538253 30.6198424,14.7630887 30.5220346,14.3963112 C30.4242269,14.0294487 30.1853389,13.7166215 29.8577889,13.5263934 L29.3920377,13.2460214 L29.3920377,1.86912106 C29.3920377,1.37345738 29.1957448,0.89798898 28.8463468,0.547456033 C28.4969488,0.196923085 28.0230682,0 27.5290332,0 L1.8630045,0 C1.36890184,0 0.895038172,0.196923085 0.545657082,0.547456033 C0.196275993,0.89798898 0,1.37345738 0,1.86912106 L0,17.6572073 C0.00163436304,18.0417417 0.154603969,18.4100485 0.425603379,18.6819244 C0.696602788,18.9538002 1.06368242,19.1072402 1.44692785,19.1089394 L9.93600426,19.1089394 L9.31503098,21.4141918 L8.48912721,21.4141918 C7.88424352,21.4146166 7.29714306,21.619628 6.82275437,21.9960911 C6.34836568,22.3725542 6.01437978,22.8984641 5.87465444,23.4889445 L4.34700768,23.4889445 C4.18230962,23.4889445 4.02435224,23.5546195 3.90789752,23.6714412 C3.79143434,23.7882628 3.72600901,23.9467155 3.72600901,24.111965 C3.72600901,24.2772146 3.79143434,24.4356672 3.90789752,24.5525738 C4.02435224,24.6693955 4.18230962,24.7350705 4.34700768,24.7350705 L20.163899,24.7350705 C20.1533984,24.8839226 20.1681331,25.0334543 20.2074255,25.1773786 C20.253916,25.3601301 20.3368197,25.5316668 20.450971,25.6815384 C20.5651224,25.8314099 20.7083197,25.9566427 20.8718407,26.0496753 L22.1822103,26.8098232 C22.3448845,26.9034504 22.5243257,26.9641127 22.7103721,26.9882417 C22.8964185,27.0122857 23.0854288,26.9993716 23.2664789,26.9502641 C23.4475291,26.9010715 23.6172319,26.8165351 23.7657641,26.7015826 C23.9142117,26.5866301 24.038779,26.4434705 24.1320986,26.280175 C24.1522529,26.2483995 24.1812141,26.223251 24.215341,26.2077031 C24.2495525,26.1922402 24.2875748,26.1871425 24.3245808,26.1930048 C25.0067792,26.3113558 25.7041356,26.3113558 26.386334,26.1930048 C26.4241022,26.1868027 26.4628866,26.1924951 26.4972675,26.2092324 C26.531733,26.2259698 26.5601862,26.2529025 26.5789009,26.2864622 C26.7054159,26.5038779 26.8868895,26.6839956 27.1049457,26.8087187 C27.3229172,26.9333568 27.5699346,26.9982671 27.8208475,26.9967378 C28.0712522,26.9991168 28.3177616,26.9346312 28.5350557,26.8098232 L29.8453406,26.0496753 C30.0080148,25.9555383 30.1504499,25.8299656 30.2645166,25.680179 C30.3785833,25.5304773 30.4619104,25.3596203 30.5098404,25.1773786 C30.5592101,24.9962413 30.5720817,24.8070327 30.5475239,24.6208827 C30.5230508,24.4346477 30.4616564,24.2552946 30.3669819,24.0932736 C30.345642,24.0620928 30.3342099,24.0252196 30.3342099,23.9874119 C30.3342099,23.9495192 30.345642,23.912646 30.3669819,23.8814653 C30.8053807,23.3423864 31.1554562,22.736613 31.4040826,22.0870846 C31.4158534,22.0520806 31.4384635,22.0217494 31.4686103,22.0004242 C31.4987571,21.9791838 31.5348316,21.9680539 31.571753,21.9687336 C31.9500276,21.9670344 32.312382,21.8155486 32.5798925,21.5471561 C32.847403,21.2787637 32.998391,20.9152147 33,20.5356929 L33,19.0154821 C32.9935642,18.6419076 32.8418987,18.2855803 32.5774367,18.0225404 C32.3129747,17.7595005 31.9565481,17.6105636 31.5841166,17.607335 Z M1.24199736,1.86912106 C1.24199736,1.70387152 1.30743116,1.54541886 1.42388587,1.42859721 C1.54034906,1.31177555 1.69829797,1.24610053 1.8630045,1.24610053 L27.5290332,1.24610053 C27.6936551,1.24610053 27.8516717,1.31177555 27.9681095,1.42859721 C28.0845473,1.54541886 28.1500065,1.70387152 28.1500065,1.86912106 L28.1500065,3.73826761 L1.24199736,3.73826761 L1.24199736,1.86912106 Z M1.44692785,17.8628134 C1.4200159,17.8628134 1.39336647,17.8574608 1.36850383,17.8471805 C1.34364119,17.8368152 1.32105649,17.8216922 1.30201997,17.8025759 C1.28299192,17.7834596 1.26790159,17.7608599 1.25759578,17.7358813 C1.24729845,17.7109027 1.24199736,17.6842249 1.24199736,17.6572073 L1.24199736,4.98439364 L28.1500065,4.98439364 L28.1500065,12.6230009 C27.8561599,12.5446666 27.5449535,12.5629333 27.2622002,12.6750821 C26.9794469,12.7871459 26.7399661,12.9873145 26.5789009,13.2460214 C26.5595088,13.2767774 26.5313943,13.3009063 26.498199,13.3153497 C26.4649189,13.3297931 26.4281669,13.3338713 26.3926005,13.3269894 C25.709894,13.2148406 25.0135537,13.2148406 24.3308473,13.3269894 C24.2952808,13.3348059 24.2581054,13.3311525 24.224656,13.3166242 C24.1912913,13.3020958 24.1631769,13.2773721 24.1445468,13.2460214 C24.0512272,13.082641 23.92666,12.9394814 23.7779583,12.8246988 C23.6292567,12.7098312 23.4593846,12.6257196 23.278165,12.5770369 C23.0968608,12.528439 22.9078506,12.5162046 22.7218888,12.5411832 C22.5359271,12.5661618 22.35674,12.6278437 22.1945739,12.7226604 L20.8842889,13.4828083 C20.7211067,13.5748213 20.5782481,13.6990345 20.4640121,13.8478016 C20.3498607,13.9966537 20.2667876,14.1670009 20.2197891,14.3488179 C20.1205418,14.7161052 20.1695727,15.1079462 20.3564659,15.439125 C20.379076,15.4686066 20.3913549,15.5047151 20.3913549,15.5419281 C20.3913549,15.5791411 20.379076,15.6153346 20.3564659,15.6447311 C19.9166275,16.1851694 19.5664673,16.7932367 19.3193652,17.445399 C19.3067475,17.4798932 19.2838834,17.5097146 19.253906,17.5308699 C19.2240132,17.5519403 19.1882774,17.563495 19.1516948,17.5637499 C18.8475169,17.5641747 18.5515533,17.6624748 18.3071609,17.8441219 L1.44692785,17.8628134 Z M18.0090802,21.4141918 L10.5570622,21.4141918 L11.1780355,19.1089394 L17.6985512,19.1089394 L17.6985512,20.5356929 C17.7025313,20.8548922 17.8116864,21.1638111 18.0090802,21.4141918 Z M8.495309,22.6603178 L19.5491075,22.6603178 C19.6910346,22.9475717 19.8529466,23.2244603 20.0334887,23.4889445 L7.18502406,23.4889445 C7.30222398,23.2413675 7.48691547,23.032193 7.71767398,22.88555 C7.94851718,22.738907 8.21594301,22.6608276 8.48912721,22.6603178 L8.495309,22.6603178 Z M31.7705247,20.5356929 C31.7705247,20.5852253 31.7507708,20.6328036 31.7158818,20.6678926 C31.6809081,20.7028966 31.6335709,20.7226076 31.5841166,20.7226076 C31.2948428,20.7232873 31.0125976,20.8117319 30.7743024,20.9763018 C30.5360072,21.1408716 30.3529246,21.3738352 30.2490198,21.6446916 C30.0504405,22.1700067 29.7695502,22.660063 29.4168496,23.0964237 C29.2349526,23.3218258 29.1252047,23.5971001 29.1019171,23.8861381 C29.0786296,24.1751762 29.1429879,24.464554 29.2864393,24.7163791 C29.2964317,24.7377893 29.3015973,24.7612386 29.3015973,24.7848578 C29.3015973,24.808562 29.2964317,24.8319263 29.2864393,24.8534215 C29.2810196,24.8781452 29.270519,24.9015095 29.2555303,24.9219002 C29.2405416,24.9422909 29.2214035,24.9592831 29.1994708,24.9717724 L27.9078159,25.7070267 C27.886222,25.7190063 27.862511,25.7266528 27.8379533,25.7293715 C27.8133955,25.7321752 27.7885836,25.7299662 27.7648727,25.7229994 C27.7412464,25.7161176 27.7191444,25.7044779 27.7000062,25.688845 C27.6807834,25.6732971 27.6648632,25.6540109 27.6531771,25.6322609 C27.5063384,25.3811155 27.2870967,25.1806071 27.0243284,25.0571585 C26.7615601,24.9337098 26.4676288,24.8930984 26.1814035,24.9406766 C25.6346964,25.034049 25.0762184,25.034049 24.529596,24.9406766 C24.2426933,24.8936081 23.9482539,24.9352391 23.6854856,25.0597922 C23.4226326,25.1844303 23.2037296,25.3862132 23.0578224,25.638463 C23.0319944,25.6802639 22.991347,25.7105951 22.9440098,25.7233393 C22.8966725,25.7359985 22.8463714,25.7302211 22.8031836,25.7070267 L21.4928986,24.9468788 C21.4708813,24.9343895 21.4518279,24.9173123 21.4368391,24.8969216 C21.4218504,24.8765309 21.4113499,24.8532516 21.4059302,24.8285278 C21.3959377,24.8070327 21.3907721,24.7836683 21.3907721,24.7599642 C21.3907721,24.73626 21.3959377,24.7128956 21.4059302,24.6914005 C21.5476879,24.4391506 21.6110301,24.1501126 21.5878272,23.8614144 C21.5646243,23.5728012 21.4558079,23.2976968 21.2755199,23.0715301 C20.9196013,22.6362738 20.6365093,22.1460477 20.4371679,21.6197979 C20.333009,21.3560784 20.1525516,21.1296567 19.9189986,20.9697597 C19.6854455,20.8098628 19.4095515,20.7237971 19.1268829,20.7226076 C19.0774286,20.7226076 19.0300067,20.7028966 18.9951177,20.6678926 C18.960144,20.6328036 18.9404562,20.5852253 18.9404562,20.5356929 L18.9404562,19.0154821 C18.939651,18.9906734 18.9438851,18.9659497 18.952946,18.9429252 C18.962007,18.9198158 18.9757255,18.8989153 18.99317,18.8813283 C19.0106145,18.8638263 19.031531,18.8500626 19.0545645,18.8409718 C19.0775133,18.8318809 19.1021558,18.8276328 19.1268829,18.8285674 C19.4152252,18.827378 19.6965389,18.7387634 19.9337332,18.5741086 C20.1710123,18.4095387 20.3529939,18.176745 20.4557979,17.9063985 C20.6536998,17.379554 20.9369612,16.888988 21.2941499,16.4547513 C21.474438,16.2285846 21.5832544,15.9534802 21.6064572,15.664782 C21.6296601,15.3760838 21.566318,15.0870458 21.4245603,14.834796 C21.4143984,14.8122812 21.4092328,14.7878124 21.4092328,14.7631737 C21.4092328,14.73845 21.4143984,14.7139811 21.4245603,14.6914664 C21.4295565,14.6674224 21.4400571,14.6447377 21.4551305,14.6253666 C21.4702039,14.6059105 21.4894267,14.5901926 21.5115287,14.5793176 L22.8218136,13.8192547 C22.8522992,13.8107585 22.8844783,13.8107585 22.9149639,13.8192547 C22.9460422,13.8195945 22.9765277,13.8278357 23.0036259,13.8430438 C23.0307242,13.8582519 23.0535883,13.8800869 23.070186,13.9064249 C23.2167706,14.1580799 23.4357583,14.359353 23.6984419,14.4839062 C23.9611256,14.6084593 24.2551415,14.6503452 24.5419596,14.6042962 C25.0886667,14.5108389 25.6471446,14.5108389 26.1938518,14.6042962 C26.4826175,14.6433784 26.7763794,14.5941009 27.0367766,14.4629208 C27.2971739,14.3317407 27.5120121,14.1247752 27.6531771,13.8690419 C27.6653713,13.8484813 27.6813762,13.8305545 27.7005143,13.816281 C27.7195678,13.8020075 27.7413311,13.7917272 27.7644493,13.7858649 C27.7875674,13.7800875 27.8115325,13.778983 27.8350741,13.7825514 C27.8586157,13.7861198 27.8812258,13.794361 27.9016341,13.8067654 L29.2119191,14.5669133 C29.2339364,14.5777034 29.2532439,14.5934212 29.2683173,14.6128773 C29.2833907,14.6323334 29.2938066,14.6549331 29.2988875,14.6790621 C29.3089647,14.7015768 29.314215,14.7259607 29.314215,14.7506844 C29.314215,14.7754081 29.3089647,14.7997919 29.2988875,14.8223067 C29.1559443,15.0731121 29.0919246,15.3614705 29.1151275,15.649404 C29.1384151,15.9374225 29.2479089,16.2115923 29.4292131,16.4360598 C29.7820831,16.8745446 30.0629734,17.3667249 30.2613834,17.8939941 C30.3592758,18.1693534 30.5381242,18.4084342 30.7743024,18.579801 C31.0103959,18.7510828 31.2928104,18.8464942 31.5841166,18.853461 C31.6088437,18.8526114 31.6334015,18.8568595 31.656435,18.8659503 C31.6794685,18.8749562 31.7003003,18.8887199 31.7178295,18.9063069 C31.735274,18.9238089 31.7489925,18.9447943 31.7580535,18.9678188 C31.7671144,18.9909283 31.7712638,19.015567 31.7705247,19.0403757 L31.7705247,20.5356929 Z" id="形状"></path>
                        <path d="M25.0000168,17 C24.4066521,17 23.8266235,17.1759808 23.3332793,17.5055956 C22.8399351,17.8352104 22.455442,18.3037716 22.2283686,18.8519882 C22.0012951,19.4001147 21.9419135,20.0032972 22.0576129,20.5853043 C22.1734024,21.1672213 22.4591365,21.7017415 22.8786818,22.121284 C23.2982271,22.5408265 23.8327509,22.8265588 24.4147619,22.9423474 C24.9966828,23.0581361 25.5998692,22.9986649 26.1480895,22.7715929 C26.6962197,22.5445209 27.1647841,22.1600304 27.494401,21.6666895 C27.8241082,21.1733486 28,20.5933239 28,19.9999632 C28,19.2043102 27.6839894,18.4412763 27.1213517,17.8786424 C26.5587141,17.3160986 25.7956751,17 25.0000168,17 Z M25.0000168,21.6784036 C24.668057,21.6784036 24.3435761,21.5800057 24.0674836,21.3955548 C23.7914812,21.2111038 23.5763921,20.9489799 23.4493391,20.6422525 C23.3222861,20.3356152 23.289036,19.998161 23.3538241,19.672511 C23.4186121,19.3469511 23.5784646,19.0478828 23.8131974,18.8131517 C24.0479301,18.5784206 24.3470003,18.4185691 24.6725624,18.3538716 C24.9981245,18.289084 25.3355809,18.3223338 25.6423104,18.449386 C25.9490398,18.5763481 26.2111655,18.7915258 26.3955275,19.0675264 C26.5799797,19.343527 26.6784683,19.6680056 26.6784683,19.9999632 C26.6749541,20.4428437 26.4965392,20.8663509 26.1821506,21.1783046 C25.8677619,21.4901681 25.4429002,21.6651577 25.0000168,21.6651577 L25.0000168,21.6784036 Z" id="形状"></path>
                    </g>
                </g>
            </g>
        </g>
    </g>
</svg>