<?xml version="1.0" encoding="UTF-8"?>
<svg width="40px" height="40px" viewBox="0 0 40 40" version="1.1" xmlns="http://www.w3.org/2000/svg" xmlns:xlink="http://www.w3.org/1999/xlink">
    <title>2</title>
    <g id="首页" stroke="none" stroke-width="1" fill="none" fill-rule="evenodd">
        <g transform="translate(-678, -707)" fill="#FFFFFF" fill-rule="nonzero" id="编组备份">
            <g transform="translate(661, 672)">
                <g id="2" transform="translate(17, 35)">
                    <g id="编组-5" transform="translate(7, 7)">
                        <path d="M23.2916667,0 L2.70833333,0 C1.99004,0 1.30116278,0.285341333 0.793252778,0.793252778 C0.285341333,1.30116278 0,1.99004 0,2.70833333 L0,23.2916667 C0,23.6473611 0.0700531,23.9995167 0.206159778,24.3281278 C0.342266167,24.6566667 0.541760556,24.9552333 0.793252778,25.2067111 C1.044745,25.4582611 1.34331167,25.6577389 1.67190111,25.7938056 C2.00049056,25.9299444 2.35266778,26 2.70833333,26 L9.20833333,26 L9.20833333,24.9166667 L2.70833333,24.9166667 C2.27735444,24.9166667 1.86403389,24.7454278 1.559285,24.4407222 C1.25453611,24.1359444 1.08333333,23.7226167 1.08333333,23.2916667 L1.08333333,4.875 L24.9166667,4.875 L24.9166667,9.75 L26,9.75 L26,2.70833333 C26,2.35266778 25.9299444,2.00049056 25.7938056,1.67190111 C25.6577389,1.34331167 25.4582611,1.044745 25.2067111,0.793252778 C24.9552333,0.541760556 24.6566667,0.342266167 24.3281278,0.206159778 C23.9995167,0.0700531 23.6473611,0 23.2916667,0 Z M24.9166667,3.79166667 L1.08333333,3.79166667 L1.08333333,2.70833333 C1.08333333,2.27735444 1.25453611,1.86403389 1.559285,1.559285 C1.86403389,1.25453611 2.27735444,1.08333333 2.70833333,1.08333333 L23.2916667,1.08333333 C23.7226167,1.08333333 24.1359444,1.25453611 24.4407222,1.559285 C24.7454278,1.86403389 24.9166667,2.27735444 24.9166667,2.70833333 L24.9166667,3.79166667 Z" id="形状"></path>
                        <path d="M21.8342705,9.15408142 C21.780861,9.10485234 21.7175468,9.06589407 21.6479088,9.03947328 C21.578347,9.01298166 21.5037566,8.99959418 21.4285567,9.00000937 L11.7142835,9.00000937 C11.2596555,9.00000937 10.823618,9.1678939 10.5020946,9.46681006 C10.1806474,9.76572623 10,10.1711047 10,10.5937665 L10,24.4062433 C10,24.8289051 10.1806474,25.2342836 10.5020946,25.5331997 C10.823618,25.8320451 11.2596555,25.9999906 11.7142835,25.9999906 L24.2856959,25.9999906 C24.7403239,25.9999906 25.1763614,25.8320451 25.4978848,25.5331997 C25.819332,25.2342836 25.9999899,24.8289051 25.9999899,24.4062433 L25.9999899,13.250012 C26.0004365,13.1800997 25.9860365,13.1107539 25.9575413,13.0460832 C25.9291223,12.9813417 25.8872176,12.9224793 25.8342653,12.8728252 L21.8342705,9.15408142 Z M21.9999845,10.8115786 L24.0514105,12.7187629 L22.5714124,12.7187629 C22.4198697,12.7187629 22.2744985,12.6628047 22.1673748,12.5631424 C22.0601749,12.4635509 21.9999845,12.3284011 21.9999845,12.1875138 L21.9999845,10.8115786 Z M24.8571237,24.4062433 C24.8571237,24.5471306 24.7969333,24.6822803 24.6897334,24.7818718 C24.5826098,24.8815342 24.4372385,24.9374924 24.2856959,24.9374924 L11.7142835,24.9374924 C11.5627408,24.9374924 11.4173696,24.8815342 11.3102459,24.7818718 C11.2030461,24.6822803 11.1428557,24.5471306 11.1428557,24.4062433 L11.1428557,10.5937665 C11.1428557,10.4528792 11.2030461,10.3177295 11.3102459,10.218138 C11.4173696,10.1184756 11.5627408,10.0625174 11.7142835,10.0625174 L20.8571289,10.0625174 L20.8571289,12.1875138 C20.8571289,12.6101756 21.0377762,13.0155541 21.3592234,13.3144703 C21.6807468,13.6133156 22.1167844,13.7812612 22.5714124,13.7812612 L24.8571237,13.7812612 L24.8571237,24.4062433 Z" id="形状"></path>
                        <polygon id="路径" points="20 16 14 16 14 17 20 17"></polygon>
                        <polygon id="路径" points="23 19 14 19 14 20 23 20"></polygon>
                        <polygon id="路径" points="23 22 14 22 14 23 23 23"></polygon>
                    </g>
                </g>
            </g>
        </g>
    </g>
</svg>