<?xml version="1.0" encoding="UTF-8"?>
<svg width="40px" height="40px" viewBox="0 0 40 40" version="1.1" xmlns="http://www.w3.org/2000/svg" xmlns:xlink="http://www.w3.org/1999/xlink">
    <title>3</title>
    <g id="首页" stroke="none" stroke-width="1" fill="none" fill-rule="evenodd">
        <g transform="translate(-991, -708)" fill="#FFFFFF" fill-rule="nonzero" id="编组备份-2">
            <g transform="translate(970, 672)">
                <g id="3" transform="translate(21, 36)">
                    <g id="编组-6" transform="translate(6, 6)">
                        <path d="M27.5590551,21 L0.440944882,21 C0.198425197,21 0,20.8057554 0,20.5683453 L0,0.431654676 C0,0.194244604 0.198425197,0 0.440944882,0 L27.5590551,0 C27.8015748,0 28,0.194244604 28,0.431654676 L28,20.5683453 C28,20.8273381 27.8015748,21 27.5590551,21 Z M0.881889764,20.1366906 L27.1181102,20.1366906 L27.1181102,0.863309353 L0.881889764,0.863309353 L0.881889764,20.1366906 Z" id="形状"></path>
                        <path d="M25.7813688,17 L3.21863118,17 C3.08745247,17 3,16.9099099 3,16.7747748 L3,2.22522523 C3,2.09009009 3.08745247,2 3.21863118,2 L25.7813688,2 C25.9125475,2 26,2.09009009 26,2.22522523 L26,16.7747748 C26,16.9099099 25.8906844,17 25.7813688,17 Z M3.43726236,16.5495495 L25.5627376,16.5495495 L25.5627376,2.45045045 L3.43726236,2.45045045 L3.43726236,16.5495495 Z" id="形状"></path>
                        <path d="M17.7394137,14 L10.2605863,14 C10.1042345,14 10,13.9047619 10,13.7619048 L10,9.23809524 C10,9.0952381 10.1042345,9 10.2605863,9 L17.7394137,9 C17.8957655,9 18,9.0952381 18,9.23809524 L18,13.7619048 C18,13.8809524 17.8957655,14 17.7394137,14 Z M10.5211726,13.5238095 L17.4788274,13.5238095 L17.4788274,9.47619048 L10.5211726,9.47619048 L10.5211726,13.5238095 L10.5211726,13.5238095 Z" id="形状"></path>
                        <path d="M11.9699568,9.16683023 C11.8397396,9.16683023 11.7529281,9.08047105 11.7529281,8.95093229 L11.7529281,7.39646712 C11.7529281,6.0794897 12.8380715,5 14.1619465,5 C15.4858214,5 16.5709648,6.0794897 16.5709648,7.39646712 L16.5709648,8.95093229 C16.5926677,9.05888126 16.5058562,9.16683023 16.375639,9.16683023 L11.9699568,9.16683023 Z M12.1869855,8.73503435 L16.1586103,8.73503435 L16.1586103,7.39646712 C16.1586103,6.31697743 15.2687927,5.43179588 14.1836493,5.43179588 C13.0985059,5.43179588 12.2086883,6.31697743 12.2086883,7.39646712 L12.2086883,8.73503435 L12.1869855,8.73503435 Z M20.5859954,28 L7.43405736,28 C7.19532581,28 7,27.8056919 7,27.5682041 L7,25.4308145 C7,25.1933268 7.19532581,24.9990186 7.43405736,24.9990186 L20.5642925,24.9990186 C20.8030241,24.9990186 20.9983499,25.1933268 20.9983499,25.4308145 L20.9983499,27.5682041 C21.0200528,27.8056919 20.824727,28 20.5859954,28 Z M7.86811472,27.1364082 L20.1302352,27.1364082 L20.1302352,25.8626104 L7.86811472,25.8626104 L7.86811472,27.1364082 Z" id="形状"></path>
                        <path d="M18.5401282,26 L9.45307525,26 C9.29244553,26 9.15476291,25.936 9.0859216,25.808 C8.99413319,25.7013333 8.97118608,25.552 9.04002739,25.424 L10.738113,21.2213333 C10.8069543,21.0506667 10.9675841,20.944 11.174108,20.944 L16.8420425,20.944 C17.0256193,20.944 17.2091962,21.0506667 17.2780375,21.2213333 L18.9761231,25.424 C19.0220173,25.552 18.9990702,25.7013333 18.9302289,25.808 C18.8384405,25.936 18.7007579,26 18.5401282,26 Z M10.1185412,25.1466667 L17.8746622,25.1466667 L16.5207831,21.776 L11.4724203,21.776 L10.1185412,25.1466667 Z M13.9966017,20.2186667 C13.3311357,20.2186667 12.8033523,19.7066667 12.8033523,19.1093333 C12.8033523,18.4906667 13.3540828,18 13.9966017,18 C14.6620677,18 15.1898511,18.512 15.1898511,19.1093333 C15.1898511,19.728 14.6620677,20.2186667 13.9966017,20.2186667 Z M13.9966017,18.4053333 C13.5835538,18.4053333 13.2622944,18.7253333 13.2622944,19.088 C13.2622944,19.472 13.6065009,19.7706667 13.9966017,19.7706667 C14.4096496,19.7706667 14.730909,19.4506667 14.730909,19.088 C14.730909,18.7253333 14.4096496,18.4053333 13.9966017,18.4053333 Z" id="形状"></path>
                    </g>
                </g>
            </g>
        </g>
    </g>
</svg>