<?xml version="1.0" encoding="UTF-8"?>
<svg width="40px" height="40px" viewBox="0 0 40 40" version="1.1" xmlns="http://www.w3.org/2000/svg" xmlns:xlink="http://www.w3.org/1999/xlink">
    <title>4</title>
    <g id="首页" stroke="none" stroke-width="1" fill="none" fill-rule="evenodd">
        <g transform="translate(-1300, -709)" fill="#FFFFFF" fill-rule="nonzero" id="编组备份-3">
            <g transform="translate(1280, 672)">
                <g id="4" transform="translate(20, 37)">
                    <g id="编组-7" transform="translate(4, 7)">
                        <path d="M26,14 L23.408284,14 C22.8662324,13.998255 22.3587277,13.7070503 22.0473373,13.2190929 L19.5502959,9.43169356 C19.34799,9.12115862 19.0219115,8.93700561 18.6745562,8.93711908 L14,8.93711908 L14,8 L18.8047337,8 C19.3451027,7.9965926 19.8530422,8.28318919 20.1656805,8.76792254 L22.6627219,12.5553219 C22.8650278,12.8658568 23.1911062,13.0500098 23.5384616,13.0498964 L26,13.0498964 L26,14 Z" id="路径"></path>
                        <path d="M16.4050274,9.05371095 C16.4042709,9.44250971 16.1614959,9.79148245 15.7924926,9.93418832 C15.4234893,10.0768942 15.0029956,9.98442961 14.7315638,9.70089512 C14.460132,9.41736062 14.3927379,9.00018316 14.5615246,8.64833346 C14.7303114,8.29648376 15.1010931,8.08122531 15.4970273,8.10522457 C16.0314936,8.10522457 16.4647642,8.52987639 16.4647642,9.05371095 M27.5519236,13.5268195 C27.5567692,13.9114764 27.3240847,14.2609066 26.9628769,14.4114109 C26.6016691,14.5619152 26.1834839,14.4836826 25.9042304,14.2133631 C25.6249769,13.9430436 25.539968,13.5341805 25.6890282,13.1783158 C25.8380884,12.822451 26.1916927,12.5900722 26.5841866,12.5900429 C27.1140218,12.5900033 27.5453824,13.0075636 27.5519236,13.5268195 M20.7897121,13.5268195 C20.7945578,13.9114764 20.5618733,14.2609066 20.2006655,14.4114109 C19.8394577,14.5619152 19.4212725,14.4836826 19.1420189,14.2133631 C18.8627654,13.9430436 18.7777565,13.5341805 18.9268168,13.1783158 C19.075877,12.822451 19.4294813,12.5900722 19.8219752,12.5900429 C20.3518104,12.5900033 20.783171,13.0075636 20.7897121,13.5268195 M23.0238703,17.6135078 C23.0238703,18.1373423 22.5905997,18.5619941 22.0561334,18.5619941 C21.521667,18.5619941 21.0883964,18.1373423 21.0883964,17.6135078 C21.0883964,17.0896732 21.521667,16.6650214 22.0561334,16.6650214 C22.3137731,16.6618447 22.5618084,16.7607538 22.7440017,16.9393228 C22.9261949,17.1178918 23.0271115,17.3609931 23.0238703,17.6135078 M32.9999243,17.6135078 C32.9999243,18.1373423 32.5666537,18.5619941 32.0321873,18.5619941 C31.4977209,18.5619941 31.0644503,18.1373423 31.0644503,17.6135078 C31.0644503,17.0896732 31.4977209,16.6650214 32.0321873,16.6650214 C32.289827,16.6618447 32.5378624,16.7607538 32.7200556,16.9393228 C32.9022488,17.1178918 33.0031654,17.3609931 32.9999243,17.6135078 M14.9355009,17.6135078 C14.935471,17.998194 14.6983758,18.3447643 14.3352883,18.4908593 C13.9722009,18.6369544 13.5550395,18.5536365 13.2792336,18.279938 C13.0034276,18.0062396 12.9236072,17.5963731 13.0771662,17.2423505 C13.2307251,16.888328 13.5872473,16.6602722 13.9797113,16.6650214 C14.2352861,16.6650018 14.4802232,16.7653034 14.6598159,16.9435239 C14.8394087,17.1217444 14.9386956,17.3630365 14.9355009,17.6135078 M28.7705553,22.0397775 C28.7753846,22.4254946 28.5413918,22.7756571 28.1787065,22.9254595 C27.8160213,23.075262 27.3968976,22.9948607 27.1185978,22.722097 C26.840298,22.4493332 26.7582649,22.0385469 26.9111078,21.6830763 C27.0639506,21.3276057 27.42122,21.0982676 27.8147657,21.1030008 C28.3426337,21.1030008 28.7705553,21.52241 28.7705553,22.0397775 M18.7706066,22.0397775 C18.7754522,22.4244344 18.5427678,22.7738646 18.1815599,22.9243689 C17.8203521,23.0748732 17.4021669,22.9966406 17.1229134,22.7263211 C16.8436599,22.4560016 16.758651,22.0471385 16.9077112,21.6912737 C17.0567714,21.335409 17.4103758,21.1030302 17.8028697,21.1030008 C18.3327048,21.1029613 18.7640654,21.5205216 18.7706066,22.0397775 M26.0585023,9.05371095 C26.003818,9.53384407 25.5896597,9.89697275 25.096739,9.89697275 C24.6038183,9.89697275 24.1896601,9.53384407 24.1349757,9.05371095 C24.0937625,8.69185497 24.2675333,8.33881531 24.5821537,8.14520656 C24.8967741,7.95159781 25.296704,7.95159781 25.6113244,8.14520656 C25.9259448,8.33881531 26.0997156,8.69185497 26.0585023,9.05371095" id="形状"></path>
                        <path d="M22.588785,22.2707904 L16.894704,22.2707904 L16.894704,21.4295533 L22.458567,21.4295533 C22.8060305,21.4296551 23.1322106,21.2643385 23.3345794,20.985567 L25.8323988,17.585567 C26.1411287,17.1444289 26.6505568,16.8821015 27.1937695,16.8845193 L32,16.8845193 L32,17.737457 L27.3239875,17.737457 C26.976524,17.7373552 26.6503439,17.9026719 26.4479751,18.1814433 L23.9501558,21.5814433 C23.6347637,22.0135576 23.128372,22.2699754 22.588785,22.2707904 M24.482866,8.44879726 L28.3894081,8.44879726 L28.3894081,9.30171821 L24.482866,9.30171821 L24.482866,8.44879726 Z M13,17.0013746 L22.1744548,17.0013746 L22.1744548,17.8542955 L13,17.8542955 L13,17.0013746 Z M28.7563863,8.34364262 L30.023053,8.34364262 L30.023053,9.19656359 L28.7563863,9.19656359 L28.7563863,8.34364262 Z M30.4847352,8.34364262 L31.7514019,8.34364262 L31.7514019,9.19656359 L30.4847352,9.19656359 L30.4847352,8.34364262 Z M18.8006231,7 L20.0672897,7 L20.0672897,7.85292097 L18.8006231,7.85292097 L18.8006231,7 Z M17.0604361,7 L18.3271028,7 L18.3271028,7.85292097 L17.0604361,7.85292097 L17.0604361,7 Z M20.54081,7 L21.8074766,7 L21.8074766,7.85292097 L20.54081,7.85292097 L20.54081,7 Z M22.1981308,23.147079 L23.4647975,23.147079 L23.4647975,24 L22.1981308,24 L22.1981308,23.147079 Z M20.4579439,23.147079 L21.7246106,23.147079 L21.7246106,24 L20.4579439,24 L20.4579439,23.147079 Z M23.9264797,23.147079 L25.1931464,23.147079 L25.1931464,24 L23.9264797,24 L23.9264797,23.147079 Z M26.7676012,15.1786942 L28.0342679,15.1786942 L28.0342679,16.0316151 L26.7676012,16.0316151 L26.7676012,15.1786942 Z M25.0274143,15.1786942 L26.294081,15.1786942 L26.294081,16.0316151 L25.0274143,16.0316151 L25.0274143,15.1786942 Z M28.5077882,15.1786942 L29.7744548,15.1786942 L29.7744548,16.0316151 L28.5077882,16.0316151 L28.5077882,15.1786942 Z" id="形状"></path>
                        <path d="M21.4879059,1.07436354 C18.4515827,-0.488341289 14.83119,-0.337996263 11.9313536,1.47122108 C9.03151713,3.28043842 7.27017455,6.48777542 7.28203399,9.93745297 L7.28203399,10.0946428 L6.84033882,10.0946428 C5.02339577,10.0853087 3.27823335,10.812396 1.99362959,12.1139279 C0.711019146,13.4314757 -0.0055541393,15.2090496 0,17.0593625 C-0.00503651274,18.9001052 0.72218533,20.6653115 2.01750499,21.956431 C3.29816769,23.2668348 5.04381989,24.0028361 6.86421423,24 L14.2059043,24 C14.3979288,24.0031412 14.5831949,23.9281393 14.7201132,23.7917303 C14.8570315,23.6553212 14.9341312,23.4689332 14.9341045,23.2744075 C14.9373048,23.0767017 14.861999,22.8859732 14.7250866,22.7450232 C14.5881742,22.6040733 14.4011213,22.5247062 14.2059043,22.5247328 L6.85227651,22.5247328 C4.12421166,22.2051327 2.06582951,19.8651835 2.06582951,17.0835455 C2.06582951,14.3019076 4.12421166,11.9619584 6.85227651,11.6423583 L8.04604728,11.6423583 C8.24787899,11.6446466 8.44029728,11.5560568 8.57130641,11.4005278 C8.71246518,11.2524931 8.78230142,11.0491268 8.76230973,10.8443175 C8.74307201,10.5665537 8.74307201,10.2877659 8.76230973,10.0100021 C8.76230972,7.76519147 9.64271312,5.61232239 11.2098412,4.02500153 C12.7769693,2.43768068 14.9024511,1.54593311 17.118705,1.54593311 C18.3964427,1.54957032 19.6556134,1.85599646 20.7955189,2.44070612 C21.9182019,3.01790067 22.8976076,3.8445886 23.6605687,4.85901157 C23.8183711,5.0750059 24.0779524,5.18932151 24.3415306,5.15889681 C24.6051088,5.12847211 24.8326402,4.95792934 24.938416,4.7115103 C25.0441917,4.46509127 25.0121419,4.18023288 24.8543394,3.96423856 C23.9582644,2.7594244 22.8082097,1.7721735 21.4879059,1.07436354" id="路径"></path>
                    </g>
                </g>
            </g>
        </g>
    </g>
</svg>