<?xml version="1.0" encoding="UTF-8"?>
<svg width="10px" height="10px" viewBox="0 0 10 10" version="1.1" xmlns="http://www.w3.org/2000/svg" xmlns:xlink="http://www.w3.org/1999/xlink">
    <title>错号</title>
    <g id="首页" stroke="none" stroke-width="1" fill="none" fill-rule="evenodd">
        <g transform="translate(-412, -1641)" fill="#A2A2A2" fill-rule="nonzero" id="错号">
            <g transform="translate(412, 1641)">
                <path d="M5,3.61930361 L8.31351514,0.306569411 C8.55745435,0.0478177793 8.92280389,-0.0578090635 9.26718432,0.0308524492 C9.61156475,0.119513962 9.88048604,0.388435247 9.96914755,0.732815679 C10.0578091,1.07719611 9.95218222,1.44254565 9.69343059,1.68648486 L6.38069639,5 L9.69343059,8.31351514 C9.95218222,8.55745435 10.0578091,8.92280389 9.96914755,9.26718432 C9.88048604,9.61156475 9.61156475,9.88048604 9.26718432,9.96914755 C8.92280389,10.0578091 8.55745435,9.95218222 8.31351514,9.69343059 L5,6.38069639 L1.68648486,9.69343059 C1.44254565,9.95218222 1.07719611,10.0578091 0.732815679,9.96914755 C0.388435246,9.88048604 0.11951396,9.61156475 0.0308524475,9.26718432 C-0.057809065,8.92280389 0.0478177784,8.55745435 0.306569411,8.31351514 L3.61930361,5 L0.306569411,1.68648486 C0.0478177784,1.44254565 -0.057809065,1.07719611 0.0308524475,0.732815678 C0.11951396,0.388435246 0.388435246,0.11951396 0.732815679,0.0308524475 C1.07719611,-0.057809065 1.44254565,0.0478177784 1.68648486,0.306569411 L5,3.61930361 Z" id="路径"></path>
            </g>
        </g>
    </g>
</svg>