<?xml version="1.0" encoding="UTF-8"?>
<svg width="15px" height="10px" viewBox="0 0 15 10" version="1.1" xmlns="http://www.w3.org/2000/svg" xmlns:xlink="http://www.w3.org/1999/xlink">
    <title>路径</title>
    <g id="首页" stroke="none" stroke-width="1" fill="none" fill-rule="evenodd">
        <g transform="translate(-371, -1641)" fill="#1CBE42" fill-rule="nonzero" id="路径">
            <path d="M375.956805,1651 C375.703652,1650.99214 375.463406,1650.88643 375.286582,1650.7051 L371.28535,1646.72398 C370.904883,1646.32936 370.904883,1645.70443 371.28535,1645.30981 C371.471559,1645.12235 371.724862,1645.01693 371.989084,1645.01693 C372.253306,1645.01693 372.506609,1645.12235 372.692819,1645.30981 L375.956805,1648.5939 L384.294381,1641.29517 C384.478534,1641.10643 384.731068,1641 384.994764,1641 C385.25846,1641 385.510994,1641.10643 385.695147,1641.29517 C385.882602,1641.48138 385.988018,1641.73468 385.988018,1641.9989 C385.988018,1642.26313 385.882602,1642.51643 385.695147,1642.70264 L376.660539,1650.7051 C376.474243,1650.89268 376.22117,1650.99873 375.956805,1651 Z"></path>
        </g>
    </g>
</svg>