<?xml version="1.0" encoding="UTF-8"?>
<svg width="13px" height="10px" viewBox="0 0 13 10" version="1.1" xmlns="http://www.w3.org/2000/svg" xmlns:xlink="http://www.w3.org/1999/xlink">
    <title>邮箱</title>
    <g id="控件" stroke="none" stroke-width="1" fill="none" fill-rule="evenodd">
        <g id="页尾备份" transform="translate(-1263, -104)" fill="#717273" fill-rule="nonzero">
            <g id="邮箱" transform="translate(1263, 104)">
                <path d="M1.7,10 C0.761115925,10 0,9.26339818 0,8.35475379 L0,1.64524621 C0,0.736296067 0.7608,0 1.7,0 L11.3,0 C12.2392,0 13,0.736296067 13,1.64524621 L13,8.35475379 C13,9.26339818 12.2388841,10 11.3,10 L1.7,10 Z M1.7,9.03220811 L11.3,9.03220811 C11.6865993,9.03220811 12,8.72890148 12,8.35475379 L12,1.64524621 C12,1.27109852 11.6865993,0.967791886 11.3,0.967791886 L1.7,0.967791886 C1.31340068,0.967791886 1,1.27109852 1,1.64524621 L1,8.35475379 C1,8.72948281 1.3136,9.03220811 1.7,9.03220811 Z" id="形状"></path>
                <path d="M0.299522904,3.04284514 C0.034943965,2.90993915 -0.0749693432,2.58120932 0.0540246592,2.30860651 C0.183018662,2.03600371 0.50207257,1.92275707 0.76665151,2.05566306 L6.36026083,4.86878068 C6.44806055,4.91269447 6.55205633,4.91269447 6.63985605,4.86878068 L12.2334654,2.05566306 C12.4046179,1.96968796 12.6072865,1.98432161 12.7651279,2.09405166 C12.9229692,2.2037817 13.0120034,2.39193754 12.9986922,2.5876427 C12.9853809,2.78334785 12.8717465,2.95687004 12.700594,3.04284514 L7.10783708,5.85508448 C6.72424607,6.04830517 6.27587081,6.04830517 5.8922798,5.85508448 L0.299522904,3.04284514 Z" id="路径"></path>
            </g>
        </g>
    </g>
</svg>