<?xml version="1.0" encoding="UTF-8"?>
<svg width="12px" height="12px" viewBox="0 0 12 12" version="1.1" xmlns="http://www.w3.org/2000/svg" xmlns:xlink="http://www.w3.org/1999/xlink">
    <title>客服</title>
    <g id="控件" stroke="none" stroke-width="1" fill="none" fill-rule="evenodd">
        <g id="页尾备份" transform="translate(-1264, -198)" fill="#717273" fill-rule="nonzero">
            <g id="客服" transform="translate(1264, 198)">
                <path d="M11.1952,5.28137232 C11.1416,2.35989245 8.9236,0 6.2,0 L5.8,0 C3.0764,0 0.8584,2.35989245 0.8048,5.28096389 C0.3264,5.56400395 0,6.08638236 0,6.69044621 L0,7.50730064 C0,8.40829107 0.7176,9.1410095 1.6,9.1410095 C2.4824,9.1410095 3.2,8.40829107 3.2,7.50730064 L3.2,6.69044621 C3.19872903,5.79501949 2.49210821,5.06731992 1.6152,5.05837106 C1.7716,2.69153535 3.5864,0.81685443 5.8,0.81685443 L6.2,0.81685443 C8.414,0.81685443 10.2284,2.69153535 10.3848,5.05837106 C9.50789179,5.06731992 8.80127097,5.79501949 8.8,6.69044621 L8.8,7.50730064 C8.8,8.24492019 9.284,8.86246214 9.9424,9.06463361 C9.34819514,9.86326637 8.49968905,10.4251583 7.5432,10.6534155 C7.40777909,10.2387524 7.02809012,9.95875527 6.6,9.95786393 C6.04771525,9.95786393 5.6,10.4150117 5.6,10.978932 C5.6,11.5428523 6.04771525,12 6.6,12 C6.94640274,11.9995294 7.26768643,11.8153189 7.4484,11.5135632 C8.9074853,11.2529253 10.1799049,10.3489203 10.9264,9.04257854 C11.5496,8.81957728 12,8.21918927 12,7.50730064 L12,6.69044621 C12,6.08638236 11.6736,5.56400395 11.1952,5.28137232 Z M2.4,6.69044621 L2.4,7.50730064 C2.4,7.95779585 2.0412,8.32415507 1.6,8.32415507 C1.1588,8.32415507 0.8,7.95779585 0.8,7.50730064 L0.8,6.69044621 C0.8,6.23995099 1.1588,5.87359178 1.6,5.87359178 C2.0412,5.87359178 2.4,6.23995099 2.4,6.69044621 Z M11.2,7.50730064 C11.2,7.94513461 10.86,8.30087471 10.436,8.32047922 L10.4048,8.30536741 C10.402,8.31190225 10.3976,8.3172118 10.3948,8.32333821 C9.95531609,8.32042154 9.60043021,7.95605287 9.6,7.50730064 L9.6,6.69044621 C9.6,6.23995099 9.9588,5.87359178 10.4,5.87359178 C10.8412,5.87359178 11.2,6.23995099 11.2,6.69044621 L11.2,7.50730064 Z" id="形状"></path>
            </g>
        </g>
    </g>
</svg>