<?xml version="1.0" encoding="UTF-8"?>
<svg width="12px" height="12px" viewBox="0 0 12 12" version="1.1" xmlns="http://www.w3.org/2000/svg" xmlns:xlink="http://www.w3.org/1999/xlink">
    <title>地址</title>
    <g id="控件" stroke="none" stroke-width="1" fill="none" fill-rule="evenodd">
        <g id="页尾备份" transform="translate(-1263, -166)" fill-rule="nonzero">
            <g id="地址" transform="translate(1263, 166)">
                <path d="M6.00423349,0 C3.79695514,0 2.00955249,1.82579867 2,4.0978173 C2,4.9136775 2.23056257,5.69044774 2.65847106,6.3542914 L2.70037179,6.41715538 L2.72468723,6.45967429 L2.74466065,6.49167778 C2.75812098,6.51248005 2.77244973,6.53236793 2.78851529,6.55202721 L2.79850199,6.56345702 L5.34489402,9.68196777 C5.51019184,9.88426769 5.7511751,10.0004357 6.00462407,10 C6.25807305,9.99955686 6.49869166,9.88255381 6.66335586,9.67968181 L9.19585335,6.56071386 L9.17913647,6.58014455 C9.2041236,6.55265118 9.22685575,6.52298014 9.24708947,6.49144918 L9.26662867,6.45990289 C9.27466146,6.4466443 9.29029282,6.41875556 9.28985861,6.41966995 C9.73882602,5.75902663 9.9906646,4.95391046 10,4.10536098 C10,1.83082778 8.20782111,0 6.00423349,0 Z M6.00423349,0.914385199 C7.73388694,0.914385199 9.13159108,2.3421977 9.13159108,4.09987467 C9.12570839,4.74785459 8.93035588,5.3781899 8.57211864,5.90509967 L8.53455996,5.96773506 L6.00314799,9.08578861 L3.45653885,5.96727786 L3.43200629,5.92453036 L3.41941437,5.90509967 C3.06024428,5.37922473 2.8674593,4.74761525 2.86840542,4.09987467 C2.87600749,2.33854017 4.2700209,0.914385199 6.00423349,0.914385199 Z" id="形状" fill="#717273"></path>
                <path d="M10.0656468,8.07590774 C10.2956787,7.92953174 10.5902547,8.00066037 10.7421183,8.23924928 L10.7635531,8.27598025 L11.8608099,10.3259581 C12.0394685,10.6597209 12.0465788,11.0706537 11.8795933,11.4115284 C11.7126077,11.7524031 11.3954289,11.9744263 11.0416949,11.9980521 L10.9735629,12 L1.01506464,11.9407296 C0.662157515,11.9386029 0.335295687,11.7378301 0.150723582,11.4098135 C-0.0338485231,11.0817968 -0.0499410314,10.6730803 0.108169162,10.329019 L0.140066156,10.2647398 L1.18577738,8.32022438 C1.32400616,8.06143455 1.62525211,7.9683382 1.86743767,8.10956567 C2.10962323,8.25079313 2.20589103,8.57569462 2.08527275,8.84475379 L2.06638973,8.88315435 L1.02067851,10.8276698 L10.9791768,10.8869402 L9.88192004,8.83696238 C9.73995922,8.57147375 9.82221137,8.23075914 10.0656468,8.07590774 L10.0656468,8.07590774 Z" id="路径" fill="#444444"></path>
                <path d="M5.99975008,2 C5.2852189,2.00008929 4.62501249,2.38136965 4.26782423,3.00021645 C3.91063597,3.61906326 3.91073126,4.38145895 4.2680742,5.00021645 C4.62541713,5.61897395 5.28571883,6.00008927 6.00025002,6 C7.1048195,5.99986188 8.00013805,5.10431948 8,3.99975001 C7.99986195,2.89518054 7.10431956,1.99986197 5.99975008,2 L5.99975008,2 Z M5.99975008,2.99987498 C6.55210386,3.00001306 6.99976315,3.44789618 6.99962513,4.00024995 C6.99948705,4.55260372 6.55160393,5.00026301 5.99925015,5.00012499 C5.64193991,5.00003565 5.31181927,4.80933039 5.13324149,4.49984599 C4.95466371,4.1903616 4.954759,3.80911611 5.13349146,3.49972102 C5.31222392,3.19032593 5.64243984,2.9997857 5.99975008,2.99987498 Z" id="形状" fill="#717273"></path>
            </g>
        </g>
    </g>
</svg>