<?xml version="1.0" encoding="UTF-8"?>
<svg width="82px" height="27px" viewBox="0 0 82 27" version="1.1" xmlns="http://www.w3.org/2000/svg" xmlns:xlink="http://www.w3.org/1999/xlink">
    <title>logo</title>
    <g id="首页" stroke="none" stroke-width="1" fill="none" fill-rule="evenodd">
        <g transform="translate(-350, -14)" fill="#E8037D" id="头">
            <g transform="translate(0, 6)">
                <path d="M426.152125,22.8965994 L422.132621,22.8965994 C421.09597,22.8965994 420.252616,22.0157738 420.252616,20.9330636 L420.252616,20.6772508 C420.252616,19.5945406 421.09597,18.713715 422.132621,18.713715 L430.043206,18.713715 C431.123547,18.713715 432,17.799703 432,16.6699785 C432,15.5416368 431.123547,14.6262419 430.043206,14.6262419 L422.132621,14.6262419 C418.937936,14.6262419 416.337703,17.3406228 416.337703,20.6772508 L416.337703,20.9330636 C416.337703,24.2696917 418.937936,26.9854553 422.132621,26.9854553 L426.152125,26.9854553 C427.188776,26.9854553 428.03213,27.8662809 428.03213,28.9489911 C428.03213,30.0303185 427.188776,30.9111441 426.152125,30.9111441 L410.847294,30.9111441 L410.847294,18.713715 L412.912652,18.713715 C413.994317,18.713715 414.87077,17.799703 414.87077,16.6699785 C414.87077,15.5416368 413.994317,14.6262419 412.912652,14.6262419 L410.847294,14.6262419 L410.847294,14.2459797 C410.847294,13.0567961 411.774057,12.0888559 412.912652,12.0888559 C413.994317,12.0888559 414.87077,11.173461 414.87077,10.0437366 C414.87077,8.91539486 413.994317,8 412.912652,8 C409.616023,8 406.933706,10.8014954 406.933706,14.2459797 L406.933706,14.6262419 L400.377519,14.6262419 L400.377519,10.0437366 C400.377519,8.91539486 399.501066,8 398.419401,8 C397.33906,8 396.462607,8.91539486 396.462607,10.0437366 L396.462607,14.6262419 L383.893051,14.6262419 C380.698366,14.6262419 378.099458,17.3406228 378.099458,20.6772508 L378.099458,20.9330636 C378.099458,24.2696917 380.698366,26.9854553 383.893051,26.9854553 L387.912555,26.9854553 C388.949206,26.9854553 389.79256,27.8662809 389.79256,28.9489911 C389.79256,30.0303185 388.949206,30.9111441 387.912555,30.9111441 L379.332052,30.9111441 C377.0403,30.9111441 375.177506,28.9642016 375.177506,26.5720066 L375.177506,16.6699785 C375.177506,15.5416368 374.301053,14.6262419 373.220712,14.6262419 C373.21012,14.6262419 373.202176,14.6290075 373.192909,14.6290075 C373.182317,14.6290075 373.174374,14.6262419 373.165106,14.6262419 C372.083441,14.6262419 371.206988,15.5416368 371.206988,16.6699785 L371.206988,27.9146779 C371.206988,29.56709 369.920111,30.9111441 368.337994,30.9111441 C366.755877,30.9111441 365.469,29.56709 365.469,27.9146779 L365.469,16.6699785 C365.469,15.5416368 364.592547,14.6262419 363.510882,14.6262419 C359.761463,14.6262419 356.364215,16.2288743 353.913588,18.8132746 L353.913588,16.7086961 C353.913588,15.5803544 353.037135,14.6649595 351.956794,14.6649595 C350.876453,14.6649595 350,15.5803544 350,16.7086961 L350,32.9562634 C350,34.0846051 350.876453,35 351.956794,35 C353.037135,35 353.913588,34.0846051 353.913588,32.9562634 L353.913588,28.737427 C353.913588,23.9101711 357.198301,19.8697122 361.554088,18.9238963 L361.554088,27.9146779 C361.554088,31.8210079 364.596519,35 368.337994,35 C370.431155,35 372.305864,34.0030216 373.551699,32.4404896 C375.018632,34.0168493 377.066779,35 379.332052,35 L387.912555,35 C391.10724,35 393.707472,32.2856192 393.707472,28.9489911 C393.707472,25.6109802 391.10724,22.8965994 387.912555,22.8965994 L383.893051,22.8965994 C382.8564,22.8965994 382.013046,22.0157738 382.013046,20.9330636 L382.013046,20.6772508 C382.013046,19.5945406 382.8564,18.713715 383.893051,18.713715 L396.462607,18.713715 L396.462607,28.7554031 C396.462607,32.1985046 399.144924,35 402.442877,35 C403.523218,35 404.399671,34.0846051 404.399671,32.9562634 C404.399671,31.826539 403.523218,30.9111441 402.442877,30.9111441 C401.302958,30.9111441 400.377519,29.9445867 400.377519,28.7554031 L400.377519,18.713715 L406.933706,18.713715 L406.933706,32.9562634 C406.933706,34.0846051 407.810159,35 408.8905,35 L426.152125,35 C429.34681,35 431.947042,32.2856192 431.947042,28.9489911 C431.947042,25.6109802 429.34681,22.8965994 426.152125,22.8965994" id="logo"></path>
            </g>
        </g>
    </g>
</svg>