<?xml version="1.0" encoding="UTF-8"?>
<svg width="14px" height="9px" viewBox="0 0 14 9" version="1.1" xmlns="http://www.w3.org/2000/svg" xmlns:xlink="http://www.w3.org/1999/xlink">
    <title>Arrows Right Left_L</title>
    <g id="首页" stroke="none" stroke-width="1" fill="none" fill-rule="evenodd">
        <g transform="translate(-445, -1128)" fill="#E8037D" fill-rule="nonzero" id="Arrows-Right-Left_L">
            <g transform="translate(452, 1132.5) rotate(-270) translate(-452, -1132.5)translate(448, 1126)">
                <path d="M4.471416,0.190380498 C4.21106213,-0.063460166 3.78895459,-0.063460166 3.52860071,0.190380498 L0.195262456,3.44037854 C-0.0650874852,3.69422303 -0.0650874852,4.10577703 0.195262456,4.35962153 C0.455612996,4.61345953 0.877721873,4.61345953 1.13807575,4.35962153 L3.33334031,2.21923654 L3.33334031,12.35 C3.33334031,12.708995 3.63182093,13 4,13 C4.36819579,13 4.66667641,12.708995 4.66667641,12.35 L4.66667641,2.21923654 L6.86194764,4.35962153 C7.12228151,4.61345953 7.54441572,4.61345953 7.80474959,4.35962153 C8.06508347,4.10577703 8.06508347,3.69422303 7.80474959,3.44037854 L4.471416,0.190380498 Z" id="路径"></path>
            </g>
        </g>
    </g>
</svg>