<?xml version="1.0" encoding="UTF-8"?>
<svg width="30px" height="30px" viewBox="0 0 30 30" version="1.1" xmlns="http://www.w3.org/2000/svg" xmlns:xlink="http://www.w3.org/1999/xlink">
    <title>跨云支持</title>
    <g id="首页" stroke="none" stroke-width="1" fill="none" fill-rule="evenodd">
        <g transform="translate(-389, -1300)" fill="#FFFFFF" fill-rule="nonzero" id="跨云支持">
            <g transform="translate(389, 1300)">
                <path d="M17.7017441,15.7751235 L17.7017441,23.2259853 C17.7017441,23.4211269 17.5394866,23.5807882 17.3411719,23.5807882 L12.0227317,23.5807882 C11.973153,23.5807882 11.9325887,23.6207036 11.9325887,23.669489 L11.9325887,24.2016934 C11.9325887,24.2504788 11.973153,24.2903941 12.0227317,24.2903941 L13.4650206,24.2903941 C13.638546,24.2903941 13.7962963,24.3591372 13.9112287,24.4722306 C14.0261611,24.5853241 14.0960219,24.7405503 14.0960219,24.9112993 C14.0960219,24.9600847 14.0554576,25 14.0058789,25 L7.69586518,25 C7.67107584,25 7.64854007,24.9889124 7.63276504,24.9733898 C7.61699001,24.9578672 7.60572212,24.935692 7.60572212,24.9112993 C7.60572212,24.5675839 7.88741917,24.2903941 8.2367235,24.2903941 L9.67901235,24.2903941 C9.72859102,24.2903941 9.7691554,24.2504788 9.7691554,24.2016934 L9.7691554,23.669489 C9.7691554,23.6207036 9.72859102,23.5807882 9.67901235,23.5807882 L4.36057221,23.5807882 C4.1622575,23.5807882 4,23.4211269 4,23.2259853 L4,15.7751235 C4,15.3826227 4.32226141,15.0655176 4.72114442,15.0655176 L16.9805996,15.0655176 C17.3794827,15.0655176 17.7017441,15.3826227 17.7017441,15.7751235 Z M27,7.71666163 C27,9.42193327 25.6253184,10.8078823 23.9328826,10.8078823 L18.8172644,10.8078823 C17.2961003,10.7280516 16.090437,9.59046467 16.090437,8.20451567 C16.090437,7.02923092 16.9580639,6.0380002 18.1479522,5.71424252 C18.2628846,4.19745993 19.5857339,3 21.2038017,3 C22.4117186,3 23.4528709,3.66747304 23.9554184,4.63652858 C25.6523614,4.73188187 27,6.0734805 27,7.71666163 Z M13.8684107,7.04031852 L11.2024299,9.76786614 C11.1551048,9.81665155 11.0694689,9.79669388 11.0514403,9.73016833 L10.7427004,8.67906461 C10.7269253,8.62362665 10.659318,8.59701643 10.6097394,8.62806169 C10.1229669,8.91412156 9.67450519,9.25118436 9.27336861,9.63481504 C8.62208505,10.2535027 8.09249461,10.9897188 7.69586518,11.8168531 C7.57417206,12.0740853 7.3127572,12.2248765 7.04232804,12.2248765 C6.93866353,12.2248765 6.83499902,12.2027013 6.73584166,12.158351 C6.37526945,11.9920371 6.21977268,11.5684911 6.38879091,11.2136881 C6.85978836,10.22911 7.49078973,9.3531902 8.26827356,8.61475658 C8.85194983,8.06037698 9.50999412,7.58804556 10.2356457,7.20441488 C10.2739565,7.18445721 10.2919851,7.14232436 10.2807172,7.10240903 L9.9404272,5.94486443 C9.92014501,5.87833888 9.98099157,5.81846588 10.0485989,5.83398851 L13.7827748,6.74317105 C13.9179894,6.77865135 13.9653145,6.94053019 13.8684107,7.04031852 Z M25.9611013,13.1096664 C25.6501078,14.1541175 25.1633353,15.114303 24.5120517,15.9636125 C24.0230257,16.6000403 23.4461101,17.167725 22.7903194,17.6555791 C22.7565158,17.6799718 22.7452479,17.7265397 22.7632765,17.7642375 L23.2793455,18.8552565 C23.308642,18.917347 23.2590633,18.9860901 23.1892024,18.9816551 L19.3581227,18.6512448 C19.2206545,18.6401572 19.1462865,18.484931 19.2251617,18.3718375 L21.4314129,15.2717468 C21.4719773,15.2163088 21.5576132,15.2229614 21.5869097,15.2850519 L22.0556535,16.2762826 C22.0804429,16.3295031 22.1503037,16.3450257 22.1953753,16.3073279 C22.6303155,15.9503074 23.0201842,15.5489366 23.3582207,15.109868 C23.9035861,14.3980446 24.313737,13.5930854 24.5751519,12.7149481 C24.6878307,12.33797 25.0867137,12.1228707 25.4698217,12.2315291 C25.8529296,12.3401875 26.0715266,12.7349058 25.9611013,13.1096664 Z" id="形状备份"></path>
            </g>
        </g>
    </g>
</svg>