<?xml version="1.0" encoding="UTF-8"?>
<svg width="30px" height="30px" viewBox="0 0 30 30" version="1.1" xmlns="http://www.w3.org/2000/svg" xmlns:xlink="http://www.w3.org/1999/xlink">
    <title>安全加密备份</title>
    <g id="首页" stroke="none" stroke-width="1" fill="none" fill-rule="evenodd">
        <g transform="translate(-550, -1303)" fill="#FFFFFF" fill-rule="nonzero" id="安全加密备份">
            <g transform="translate(550, 1303)">
                <path d="M15.9761,7.33333332 L25.85,7.33333332 C26.4851275,7.33333332 27,7.85566779 27,8.5 L27,24.8333333 C27,25.4776655 26.4851275,26 25.85,26 L5.15000001,26 C4.51487254,26 4,25.4776655 4,24.8333333 L4,6.16666668 C4,5.52233446 4.51487254,5 5.15000001,5 L13.6761,5 L15.9761,7.33333332 Z M18.95,16.6666667 L18.95,15.5 C18.95,13.5670034 17.4053824,12 15.5,12 C13.5946176,12 12.05,13.5670034 12.05,15.5 L12.05,16.6666667 L10.9,16.6666667 L10.9,21.3333333 L20.1,21.3333333 L20.1,16.6666667 L18.95,16.6666667 Z M16.65,16.6666667 L14.35,16.6666667 L14.35,15.5 C14.35,14.8556678 14.8648725,14.3333333 15.5,14.3333333 C16.1351275,14.3333333 16.65,14.8556678 16.65,15.5 L16.65,16.6666667 Z" id="形状"></path>
            </g>
        </g>
    </g>
</svg>