<?xml version="1.0" encoding="UTF-8"?>
<svg width="30px" height="30px" viewBox="0 0 30 30" version="1.1" xmlns="http://www.w3.org/2000/svg" xmlns:xlink="http://www.w3.org/1999/xlink">
    <title>安全加密</title>
    <g id="首页" stroke="none" stroke-width="1" fill="none" fill-rule="evenodd">
        <g transform="translate(-550, -1219)" fill="#1E80E6" fill-rule="nonzero" id="安全加密">
            <g transform="translate(550, 1219)">
                <path d="M15.9761,6.33333332 L25.85,6.33333332 C26.4851275,6.33333332 27,6.85566779 27,7.5 L27,23.8333333 C27,24.4776655 26.4851275,25 25.85,25 L5.15000001,25 C4.51487254,25 4,24.4776655 4,23.8333333 L4,5.16666668 C4,4.52233446 4.51487254,4 5.15000001,4 L13.6761,4 L15.9761,6.33333332 Z M18.95,15.6666667 L18.95,14.5 C18.95,12.5670034 17.4053824,11 15.5,11 C13.5946176,11 12.05,12.5670034 12.05,14.5 L12.05,15.6666667 L10.9,15.6666667 L10.9,20.3333333 L20.1,20.3333333 L20.1,15.6666667 L18.95,15.6666667 Z M16.65,15.6666667 L14.35,15.6666667 L14.35,14.5 C14.35,13.8556678 14.8648725,13.3333333 15.5,13.3333333 C16.1351275,13.3333333 16.65,13.8556678 16.65,14.5 L16.65,15.6666667 Z" id="形状"></path>
            </g>
        </g>
    </g>
</svg>