<?xml version="1.0" encoding="UTF-8"?>
<svg width="30px" height="30px" viewBox="0 0 30 30" version="1.1" xmlns="http://www.w3.org/2000/svg" xmlns:xlink="http://www.w3.org/1999/xlink">
    <title>版本控制备份</title>
    <g id="首页" stroke="none" stroke-width="1" fill="none" fill-rule="evenodd">
        <g transform="translate(-711, -1303)" fill="#FFFFFF" fill-rule="nonzero" id="版本控制备份">
            <g transform="translate(711, 1303)">
                <g id="编组-2" transform="translate(4, 6)">
                    <path d="M21.5625,0 L1.4375,0 C0.644628906,0 0,0.653125 0,1.46153846 L0,17.5384615 C0,18.3445913 0.644628906,19 1.4375,19 L21.5625,19 C22.3553711,19 23,18.3445913 23,17.5384615 L23,1.46153846 C23,0.653125 22.3553711,0 21.5625,0 Z M19.765625,2.92307692 C19.765625,3.12403846 19.6847656,3.30673077 19.5544922,3.43918269 C19.4242188,3.57163462 19.2445313,3.65384615 19.046875,3.65384615 C18.6493164,3.65384615 18.328125,3.32728365 18.328125,2.92307692 C18.328125,2.72211538 18.4089844,2.53942308 18.5392578,2.40697115 C18.6695312,2.27451923 18.8492187,2.19230769 19.046875,2.19230769 C19.2445313,2.19230769 19.4242187,2.27451923 19.5544922,2.40697115 C19.6847656,2.53942308 19.765625,2.72211538 19.765625,2.92307692 Z M16.890625,2.92307692 C16.890625,3.12403846 16.8097656,3.30673077 16.6794922,3.43918269 C16.5492188,3.57163462 16.3695313,3.65384615 16.171875,3.65384615 C15.7743164,3.65384615 15.453125,3.32728365 15.453125,2.92307692 C15.453125,2.72211538 15.5339844,2.53942308 15.6642578,2.40697115 C15.7945312,2.27451923 15.9742187,2.19230769 16.171875,2.19230769 C16.3695313,2.19230769 16.5492187,2.27451923 16.6794922,2.40697115 C16.8097656,2.53942308 16.890625,2.72211538 16.890625,2.92307692 Z M12.7892578,2.40697115 C12.9195312,2.27451923 13.0992187,2.19230769 13.296875,2.19230769 C13.4945313,2.19230769 13.6742187,2.27451923 13.8044922,2.40697115 C13.9347656,2.53942308 14.015625,2.72211538 14.015625,2.92307692 C14.015625,3.12403846 13.9347656,3.30673077 13.8044922,3.43918269 C13.6742188,3.57163462 13.4945313,3.65384615 13.296875,3.65384615 C12.8993164,3.65384615 12.578125,3.32728365 12.578125,2.92307692 C12.578125,2.72211538 12.6589844,2.53942308 12.7892578,2.40697115 Z M21.5625,17.1730769 C21.5625,17.3740385 21.4007812,17.5384615 21.203125,17.5384615 L1.796875,17.5384615 C1.59921875,17.5384615 1.4375,17.3740385 1.4375,17.1730769 L1.4375,6.02884615 C1.4375,5.92836538 1.51835937,5.84615385 1.6171875,5.84615385 L21.3828125,5.84615385 C21.4816406,5.84615385 21.5625,5.92836538 21.5625,6.02884615 L21.5625,17.1730769 Z" id="形状"></path>
                    <path d="M9.77510797,15.9191561 C9.40241661,15.7406736 9.26146283,15.3234977 9.45975374,14.9880367 L12.1928237,10.3646956 C12.3911146,10.0292346 12.8545897,9.90236147 13.2272811,10.0808439 C13.5999724,10.2593264 13.7409262,10.6765023 13.5426353,11.0119633 L10.8071763,15.6353044 C10.6088854,15.9707654 10.1477993,16.0976385 9.77510797,15.9191561 Z M6.68607002,14.6353725 L5.22397317,13.3193331 C4.92534228,13.0505342 4.92534228,12.6140048 5.22397317,12.3452059 L6.68607002,11.0291665 C6.72429477,10.9947602 6.78402095,10.9947602 6.8222457,11.0291665 L7.76830837,11.8807214 C7.80653313,11.9151276 7.80653313,11.9688874 7.76830837,12.0032937 L7.11848755,12.5882001 C6.97036663,12.7215243 6.97036663,12.9408642 7.11848755,13.0741885 L7.76830837,13.6590949 C7.80653313,13.6935012 7.80653313,13.7472609 7.76830837,13.7816672 L6.8222457,14.6332221 C6.78402095,14.6697788 6.72429477,14.6697788 6.68607002,14.6353725 L6.68607002,14.6353725 Z M16.1777543,14.6353725 L15.2316916,13.7838176 C15.1934669,13.7494113 15.1934669,13.6956516 15.2316916,13.6612453 L15.8815125,13.0763389 C16.0296334,12.9430146 16.0296334,12.7236747 15.8815125,12.5903505 L15.2316916,12.0054441 C15.1934669,11.9710378 15.1934669,11.917278 15.2316916,11.8828718 L16.1777543,11.0313169 C16.215979,10.9969106 16.2757052,10.9969106 16.31393,11.0313169 L17.7760268,12.3473563 C18.0746577,12.6161552 18.0746577,13.0526846 17.7760268,13.3214835 L16.31393,14.6375229 C16.2757052,14.6697788 16.215979,14.6697788 16.1777543,14.6353725 L16.1777543,14.6353725 Z" id="形状"></path>
                </g>
            </g>
        </g>
    </g>
</svg>