<?xml version="1.0" encoding="UTF-8"?>
<svg width="30px" height="30px" viewBox="0 0 30 30" version="1.1" xmlns="http://www.w3.org/2000/svg" xmlns:xlink="http://www.w3.org/1999/xlink">
    <title>无限扩容备份</title>
    <g id="首页" stroke="none" stroke-width="1" fill="none" fill-rule="evenodd">
        <g transform="translate(-873, -1303)" fill="#FFFFFF" fill-rule="nonzero" id="无限扩容备份">
            <g transform="translate(873, 1303)">
                <path d="M26,20.0219298 L26,22.8947368 C26,24.0570175 25.0761719,25 23.9375,25 L21.875,25 C20.7363281,25 19.8125,24.0570175 19.8125,22.8947368 L19.8125,20.0219298 C19.8125,18.8596491 20.7363281,17.9166667 21.875,17.9166667 C22.0640625,17.9166667 22.21875,17.7587719 22.21875,17.5657895 L22.21875,15.877193 C22.21875,15.4890351 21.9115234,15.1754386 21.53125,15.1754386 L16.03125,15.1754386 C15.8421875,15.1754386 15.6875,15.3333333 15.6875,15.5263158 L15.6875,17.5877193 C15.6875,17.7697368 15.8314453,17.9166667 16.0097656,17.9166667 L16.03125,17.9166667 C17.1699219,17.9166667 18.09375,18.8596491 18.09375,20.0219298 L18.09375,22.8947368 C18.09375,24.0570175 17.1699219,25 16.03125,25 L13.96875,25 C12.8300781,25 11.90625,24.0570175 11.90625,22.8947368 L11.90625,20.0219298 C11.90625,18.8596491 12.8300781,17.9166667 13.96875,17.9166667 L13.9902344,17.9166667 C14.1685547,17.9166667 14.3125,17.7697368 14.3125,17.5877193 L14.3125,15.5263158 C14.3125,15.3333333 14.1578125,15.1754386 13.96875,15.1754386 L8.46875,15.1754386 C8.08847656,15.1754386 7.78125,15.4890351 7.78125,15.877193 L7.78125,17.5657895 C7.78125,17.7587719 7.9359375,17.9166667 8.125,17.9166667 C9.26367188,17.9166667 10.1875,18.8596491 10.1875,20.0219298 L10.1875,22.8947368 C10.1875,24.0570175 9.26367188,25 8.125,25 L6.0625,25 C4.92382812,25 4,24.0570175 4,22.8947368 L4,20.0219298 C4,18.8596491 4.92382812,17.9166667 6.0625,17.9166667 C6.2515625,17.9166667 6.40625,17.7587719 6.40625,17.5657895 L6.40625,15.877193 C6.40625,14.7149123 7.33007812,13.7719298 8.46875,13.7719298 L13.96875,13.7719298 C14.1578125,13.7719298 14.3125,13.6140351 14.3125,13.4210526 L14.3125,12.3684211 L12.25,12.3684211 C11.1113281,12.3684211 10.1875,11.4254386 10.1875,10.2631579 L10.1875,7.10526316 C10.1875,5.94298246 11.1113281,5 12.25,5 L17.75,5 C18.8886719,5 19.8125,5.94298246 19.8125,7.10526316 L19.8125,10.2631579 C19.8125,11.4254386 18.8886719,12.3684211 17.75,12.3684211 L15.6875,12.3684211 L15.6875,13.4210526 C15.6875,13.6140351 15.8421875,13.7719298 16.03125,13.7719298 L21.53125,13.7719298 C22.6699219,13.7719298 23.59375,14.7149123 23.59375,15.877193 L23.59375,17.5657895 C23.59375,17.7587719 23.7484375,17.9166667 23.9375,17.9166667 C25.0761719,17.9166667 26,18.8596491 26,20.0219298 Z" id="路径"></path>
            </g>
        </g>
    </g>
</svg>