<?xml version="1.0" encoding="UTF-8"?>
<svg width="30px" height="30px" viewBox="0 0 30 30" version="1.1" xmlns="http://www.w3.org/2000/svg" xmlns:xlink="http://www.w3.org/1999/xlink">
    <title>对象只读</title>
    <g id="首页" stroke="none" stroke-width="1" fill="none" fill-rule="evenodd">
        <g transform="translate(-1033, -1218)" fill="#B232E5" fill-rule="nonzero" id="对象只读">
            <g transform="translate(1033, 1218)">
                <path d="M4.815375,18.2587498 C5.25262501,18.2587498 5.61287501,18.60525 5.629375,19.0425 L5.629375,21.925875 C5.629375,23.259625 6.69912501,24.345875 8.02875001,24.370625 L10.925875,24.370625 C11.3645008,24.3785527 11.7182317,24.7321098 11.7263749,25.1707317 C11.7345181,25.6093535 11.3941543,25.9757969 10.956125,26 L7.80187501,26 C5.70215742,26 4,24.2978426 4,22.198125 L4,19.0425 C4.01699787,18.6045772 4.37712252,18.2584202 4.815375,18.2587498 L4.815375,18.2587498 Z M25.184625,18.25875 C25.62325,18.25875 25.982125,18.60525 26,19.0425 L26,22.198125 C26,24.2978426 24.2978426,26 22.198125,26 L19.0425,26 C18.6055716,25.9820462 18.2606014,25.6226096 18.2606014,25.1853125 C18.2606014,24.7480154 18.6055716,24.3885788 19.0425,24.370625 L21.925875,24.370625 C23.259625,24.370625 24.345875,23.300875 24.370625,21.97125 L24.370625,19.0425 C24.3876021,18.6051094 24.7469053,18.2591588 25.184625,18.25875 L25.184625,18.25875 Z M10.925875,4 C11.3645008,4.00792767 11.7182317,4.36148485 11.7263749,4.8001067 C11.7345181,5.23872855 11.3941543,5.60517188 10.956125,5.629375 L8.07412501,5.629375 C6.74037502,5.629375 5.65412501,6.69912501 5.629375,8.02875001 L5.629375,10.925875 C5.62144733,11.3645008 5.26789014,11.7182318 4.8292683,11.7263749 C4.39064645,11.7345181 4.02420312,11.3941543 4,10.956125 L4,7.80187501 C4,5.70215742 5.70215742,4 7.80187501,4 L10.925875,4 L10.925875,4 Z M15,9.89875 C19.62,9.89875 22.65875,14.3785 22.65875,14.3785 C22.65875,14.3785 20.412,20.10125 15,20.10125 C9.588,20.10125 7.34125001,14.377125 7.34125001,14.377125 C7.34125001,14.377125 10.38,9.89737501 15,9.89737501 L15,9.89875 Z M15,11.7605 C13.1662708,11.7174267 11.6435029,13.1663932 11.5955,15 C11.6435029,16.8336068 13.1662708,18.2825733 15,18.2395 C16.8337292,18.2825733 18.3564971,16.8336068 18.4045,15 C18.3564971,13.1663932 16.8337292,11.7174267 15,11.7605 Z M15,13.299125 C15.6079097,13.299125 16.1696415,13.623441 16.4735964,14.1499062 C16.7775513,14.6763715 16.7775513,15.3250035 16.4735964,15.8514688 C16.1696415,16.3779341 15.6079097,16.70225 15,16.70225 C14.060253,16.70225 13.2984375,15.9404345 13.2984375,15.0006875 C13.2984375,14.0609405 14.060253,13.299125 15,13.299125 Z M22.198125,4 C24.2978426,4 26,5.70215742 26,7.80187501 L26,10.925875 C25.9920723,11.3645008 25.6385151,11.7182318 25.1998933,11.7263749 C24.7612714,11.7345181 24.3948281,11.3941543 24.370625,10.956125 L24.370625,8.07412501 C24.370625,6.723875 23.276125,5.629375 21.925875,5.629375 L19.043875,5.629375 C18.6069466,5.61142115 18.2619764,5.25198459 18.2619764,4.8146875 C18.2619764,4.37739041 18.6069466,4.01795385 19.043875,4 L22.198125,4 L22.198125,4 Z" id="形状"></path>
            </g>
        </g>
    </g>
</svg>