<?xml version="1.0" encoding="UTF-8"?>
<svg width="30px" height="30px" viewBox="0 0 30 30" version="1.1" xmlns="http://www.w3.org/2000/svg" xmlns:xlink="http://www.w3.org/1999/xlink">
    <title>主动复制</title>
    <g id="首页" stroke="none" stroke-width="1" fill="none" fill-rule="evenodd">
        <g transform="translate(-1191, -1218)" fill="#0E78E9" fill-rule="nonzero" id="主动复制">
            <g transform="translate(1191, 1218)">
                <path d="M23.48,8.25 L20.70125,8.25 C20.556375,8.25 20.44,8.13515625 20.44,7.9921875 L20.44,4.5 C20.44,3.6703125 19.758375,3 18.92,3 L14.09875,3 C13.29125,3 12.519375,3.31640625 11.949375,3.87890625 L6.890625,8.87109375 C6.320625,9.43359375 6,10.1976563 6,10.9921875 L6,20.25 C6,21.0773437 6.681625,21.75 7.52,21.75 L10.18,21.75 C10.389,21.75 10.56,21.91875 10.56,22.125 L10.56,25.5 C10.56,26.3273437 11.241625,27 12.08,27 L23.48,27 C24.318375,27 25,26.3273437 25,25.5 L25,9.75 C25,8.9203125 24.318375,8.25 23.48,8.25 Z M17.4,10.3710938 L17.4,13.5 C17.4,14.3273438 16.718375,15 15.88,15 L12.709375,15 L17.4,10.3710938 Z M12.84,5.12109375 L12.84,8.25 C12.84,9.07734375 12.158375,9.75 11.32,9.75 L8.149375,9.75 L12.84,5.12109375 Z M23.48,24.75 C23.48,25.1648438 23.140375,25.5 22.72,25.5 L12.84,25.5 C12.419625,25.5 12.08,25.1648438 12.08,24.75 L12.08,16.5 L15.88,16.5 C17.559125,16.5 18.92,15.1570313 18.92,13.5 L18.92,9.75 L22.72,9.75 C23.140375,9.75 23.48,10.0851563 23.48,10.5 L23.48,24.75 Z" id="形状"></path>
            </g>
        </g>
    </g>
</svg>