<?xml version="1.0" encoding="UTF-8"?>
<svg width="14px" height="14px" viewBox="0 0 14 14" version="1.1" xmlns="http://www.w3.org/2000/svg" xmlns:xlink="http://www.w3.org/1999/xlink">
    <title>选中-1</title>
    <g id="首页" stroke="none" stroke-width="1" fill="none" fill-rule="evenodd">
        <g transform="translate(-404, -1477)" fill="#060B17" fill-rule="nonzero" id="选中-1">
            <g transform="translate(404, 1477)">
                <path d="M9.72335,0.5495 C9.95374165,0.646845942 10.1146989,0.859709782 10.1455906,1.10790777 C10.1764824,1.35610576 10.0726155,1.60193072 9.87311563,1.75278277 C9.67361575,1.90363482 9.40879165,1.93659594 9.1784,1.83925 C8.48906082,1.54826123 7.74823908,1.39888281 7,1.4 C3.90705,1.4 1.4,3.90705 1.4,7 C1.4,10.09295 3.90705,12.6 7,12.6 C10.09295,12.6 12.6,10.09295 12.6,7 C12.6,6.61340068 12.9134007,6.3 13.3,6.3 C13.6865993,6.3 14,6.61340068 14,7 C14,10.8661 10.8661,14 7,14 C3.1339,14 0,10.8661 0,7 C0,3.1339 3.1339,0 7,0 C7.9471,0 8.869,0.18865 9.72335,0.5495 Z" id="路径"></path>
                <path d="M5.24999999,5.25 L7.75,7.75000001 C8.08333333,8.08333334 8.08333333,8.41666667 7.75,8.75 L7.75,8.75 C7.41666666,9.08333333 7.08333333,9.08333333 6.75000001,8.75 L4.25,6.24999999 C3.91666667,5.91666666 3.91666667,5.58333333 4.25,5.25 L4.25,5.25 C4.58333334,4.91666667 4.91666667,4.91666667 5.24999999,5.25 L5.24999999,5.25 Z" id="路径"></path>
                <path d="M12.75,4.25000001 L8.25000001,8.75 C7.91666667,9.08333333 7.58333334,9.08333333 7.25,8.75 L7.25,8.75 C6.91666667,8.41666666 6.91666667,8.08333333 7.25,7.74999999 L11.75,3.25 C12.0833333,2.91666667 12.4166667,2.91666667 12.75,3.25 L12.75,3.25 C13.0833333,3.58333334 13.0833333,3.91666667 12.75,4.25000001 Z" id="路径"></path>
            </g>
        </g>
    </g>
</svg>