<?xml version="1.0" encoding="UTF-8"?>
<svg width="19px" height="18px" viewBox="0 0 19 18" version="1.1" xmlns="http://www.w3.org/2000/svg" xmlns:xlink="http://www.w3.org/1999/xlink">
    <title>路径</title>
    <g id="首页" stroke="none" stroke-width="1" fill="none" fill-rule="evenodd">
        <g transform="translate(-376, -1537)" fill="#FFB400" fill-rule="nonzero" id="路径">
            <path d="M390.299203,1555 C390.073495,1555 389.847788,1554.94371 389.603271,1554.81232 L385.803841,1552.82275 C385.709797,1552.76644 385.578134,1552.7289 385.427681,1552.7289 C385.296018,1552.7289 385.145546,1552.76644 385.051501,1552.80398 L381.270899,1554.81232 C381.045191,1554.94371 380.819484,1555 380.556158,1555 C380.104743,1555 379.672137,1554.79354 379.371175,1554.4557 C379.070231,1554.11783 378.957396,1553.66738 379.032614,1553.21691 L379.766182,1549.01254 C379.8038,1548.74976 379.709755,1548.48699 379.521647,1548.2993 L376.474612,1545.35246 C376.042006,1544.93955 375.891535,1544.33891 376.079624,1543.77582 C376.267695,1543.21272 376.737938,1542.81856 377.321016,1542.72471 L381.534224,1542.10531 C381.79755,1542.06777 382.042048,1541.89885 382.154902,1541.67361 L384.035799,1537.84463 C384.299124,1537.31908 384.825775,1537 385.408853,1537 C385.991931,1537 386.518582,1537.31908 386.781908,1537.84463 L388.662804,1541.67361 C388.794467,1541.91764 389.020175,1542.06777 389.2835,1542.10531 L393.496727,1542.72473 C394.079805,1542.81857 394.550029,1543.21273 394.738119,1543.75705 C394.926209,1544.32014 394.775737,1544.92076 394.36194,1545.33371 L391.333696,1548.29928 C391.126779,1548.48697 391.051562,1548.74975 391.089161,1549.01252 L391.803902,1553.19812 C391.879138,1553.64859 391.766284,1554.09906 391.46534,1554.43691 C391.183224,1554.79354 390.750618,1555 390.299203,1555 Z"></path>
        </g>
    </g>
</svg>