<?xml version="1.0" encoding="UTF-8"?>
<svg width="12px" height="12px" viewBox="0 0 12 12" version="1.1" xmlns="http://www.w3.org/2000/svg" xmlns:xlink="http://www.w3.org/1999/xlink">
    <title>电话</title>
    <g id="控件" stroke="none" stroke-width="1" fill="none" fill-rule="evenodd">
        <g id="页尾备份" transform="translate(-1263, -134)" fill="#717273" fill-rule="nonzero">
            <g id="电话" transform="translate(1263, 134)">
                <path d="M9.32658408,8.01764104 C9.15750397,7.8915216 8.9038838,7.8915216 8.77774467,8.05923362 L7.80754691,8.98768739 C7.68140778,9.11380683 7.46938669,9.15674111 7.30164848,9.07221425 C6.37304979,8.56639478 5.52899115,7.93311418 4.81107164,7.21530672 C4.09315213,6.49884095 3.45977267,5.65491404 2.95387425,4.72646027 C2.86933419,4.55740655 2.91227517,4.34676025 3.0384143,4.22064081 L4.00861207,3.25059446 C4.17769218,3.08154074 4.17769218,2.87089443 4.05021115,2.70184071 L2.70025409,1.05423779 C2.70025409,1.05423779 2.70025409,1.0126452 2.65865501,1.0126452 C2.4895749,0.843591483 2.23595474,0.843591483 2.06821653,1.0126452 L0.927596751,2.15174527 C0.378757349,2.70049902 1.77165539,5.3168066 4.22063316,7.80699474 C6.66961093,10.2971829 9.32658408,11.6469292 9.87542348,11.0981755 L11.0147014,9.95907544 L11.0563004,9.91748285 C11.1824396,9.74842913 11.1824396,9.45325597 10.9717604,9.32713653 L9.32658408,8.01764104 Z M8.1873062,7.42729471 C8.65160554,6.96306783 9.36952506,6.92147525 9.87542348,7.34276785 L11.5219417,8.65092164 C12.0707811,9.07355595 12.1553211,9.87454858 11.7326209,10.4233023 C11.6910218,10.4648949 11.6910218,10.5078292 11.6480808,10.5078292 L10.5088029,11.6469292 C9.41112413,12.7444367 6.45624794,11.1827024 3.62885278,8.35440679 C0.801457622,5.52611121 -0.718921455,2.61597216 0.335816369,1.51846467 L1.47509425,0.379364599 C1.98099267,-0.126454866 2.78345223,-0.126454866 3.24775158,0.379364599 L3.33229164,0.46389146 L4.64199153,2.108811 C5.0646918,2.61463046 5.02175082,3.33243793 4.55745147,3.79666481 L3.83953196,4.51447227 C4.30383131,5.27387232 4.80972973,5.94874551 5.40151011,6.54043353 C5.9932905,7.13212155 6.66826903,7.63794102 7.42778761,8.1021679 L8.1873062,7.42729471 Z M6.7098681,1.72911097 C6.45624794,1.72911097 6.28716783,1.56005725 6.28716783,1.30647667 C6.28716783,1.05289609 6.45624794,0.883842369 6.7098681,0.883842369 C9.03136484,0.883842369 10.9315032,2.78234249 10.9315032,5.1048186 C10.9315032,5.35839918 10.7624231,5.5274529 10.5088029,5.5274529 C10.2551828,5.5274529 10.0861027,5.35839918 10.0861027,5.1048186 C10.0874446,3.24925276 8.56706549,1.72911097 6.7098681,1.72911097 Z M6.7098681,3.41696479 C6.45624794,3.41696479 6.28716783,3.24791107 6.28716783,2.99433048 C6.28716783,2.7407499 6.45624794,2.57169618 6.7098681,2.57169618 C8.10276614,2.57169618 9.24204402,3.71079625 9.24204402,5.1034769 C9.24204402,5.35705748 9.07296391,5.52611121 8.81934375,5.52611121 C8.56572358,5.52611121 8.39664348,5.35705748 8.39664348,5.1034769 C8.39798538,4.17770653 7.6384668,3.41696479 6.7098681,3.41696479 L6.7098681,3.41696479 Z" id="形状"></path>
            </g>
        </g>
    </g>
</svg>