<?xml version="1.0" encoding="UTF-8"?>
<svg width="47px" height="35px" viewBox="0 0 47 35" version="1.1" xmlns="http://www.w3.org/2000/svg" xmlns:xlink="http://www.w3.org/1999/xlink">
    <title>编组</title>
    <defs>
        <polygon id="path-1" points="0 0 46.2626 0 46.2626 34.061 0 34.061"></polygon>
        <linearGradient x1="50%" y1="0%" x2="50%" y2="100%" id="linearGradient-3">
            <stop stop-color="#EB2588" offset="0%"></stop>
            <stop stop-color="#F0B2D5" offset="100%"></stop>
        </linearGradient>
    </defs>
    <g id="页面-1" stroke="none" stroke-width="1" fill="none" fill-rule="evenodd">
        <g id="产品-云原生" transform="translate(-351, -709)">
            <g id="网络加密-2" transform="translate(0, 466)">
                <g id="编组" transform="translate(351, 243)">
                    <g>
                        <mask id="mask-2" fill="white">
                            <use xlink:href="#path-1"></use>
                        </mask>
                        <g id="Clip-2"></g>
                        <path d="M35.3136,34.061 L11.1856,34.061 C3.7536,34.061 -1.2654,28.071 0.2796,20.801 C1.0936,16.974 3.8686,13.879 7.3266,12.655 C7.3326,12.653 7.3366,12.647 7.3376,12.641 C8.3156,5.59 14.3956,0 21.9336,0 C28.2556,0 33.8486,4.131 35.7976,9.722 C35.7996,9.728 35.8056,9.732 35.8116,9.733 C41.6456,10.468 46.2626,15.575 46.2626,21.896 C46.2626,28.222 41.3976,33.33 35.3156,34.061 C35.3156,34.061 35.3146,34.061 35.3136,34.061" id="Fill-1" fill="url(#linearGradient-3)" mask="url(#mask-2)"></path>
                    </g>
                    <path d="M29.5695,15.107 L27.8365,13.374 L28.4365,12.774 C28.9025,12.24 28.9025,11.44 28.3695,10.907 C27.8365,10.44 27.0365,10.44 26.5025,10.974 L19.7695,18.24 C19.3695,18.107 18.9695,18.04 18.5025,18.04 C16.3025,18.04 14.5695,19.84 14.5695,21.974 C14.5695,24.174 16.3695,25.907 18.5025,25.907 C20.7025,25.907 22.4365,24.107 22.4365,21.974 C22.4365,21.174 22.2365,20.44 21.8365,19.84 L23.1695,18.374 L24.7025,19.907 C24.9695,20.174 25.3025,20.307 25.6365,20.307 C25.9695,20.307 26.3025,20.174 26.5695,19.907 C27.1025,19.374 27.1025,18.574 26.5695,18.04 L24.9695,16.44 L26.0365,15.24 L27.7025,16.907 C27.9695,17.174 28.3025,17.307 28.6365,17.307 C28.9695,17.307 29.3025,17.174 29.5695,16.907 C30.1025,16.44 30.1025,15.574 29.5695,15.107" id="Fill-3" fill="#FFFFFF"></path>
                </g>
            </g>
        </g>
    </g>
</svg>