<?xml version="1.0" encoding="UTF-8"?>
<svg width="47px" height="35px" viewBox="0 0 47 35" version="1.1" xmlns="http://www.w3.org/2000/svg" xmlns:xlink="http://www.w3.org/1999/xlink">
    <title>编组</title>
    <defs>
        <polygon id="path-1" points="0 0 46.2626 0 46.2626 34.061 0 34.061"></polygon>
        <linearGradient x1="50%" y1="0%" x2="50%" y2="100%" id="linearGradient-3">
            <stop stop-color="#EB2588" offset="0%"></stop>
            <stop stop-color="#F0B2D5" offset="100%"></stop>
        </linearGradient>
    </defs>
    <g id="页面-1" stroke="none" stroke-width="1" fill="none" fill-rule="evenodd">
        <g id="产品-云原生" transform="translate(-779, -712)">
            <g id="网络加密-2" transform="translate(0, 466)">
                <g id="编组" transform="translate(779, 246)">
                    <g>
                        <mask id="mask-2" fill="white">
                            <use xlink:href="#path-1"></use>
                        </mask>
                        <g id="Clip-2"></g>
                        <path d="M35.3136,34.061 L11.1856,34.061 C3.7536,34.061 -1.2654,28.071 0.2796,20.801 C1.0936,16.974 3.8686,13.879 7.3266,12.655 C7.3326,12.653 7.3366,12.647 7.3376,12.641 C8.3156,5.59 14.3956,0 21.9336,0 C28.2556,0 33.8486,4.131 35.7976,9.722 C35.7996,9.728 35.8056,9.732 35.8116,9.733 C41.6456,10.468 46.2626,15.575 46.2626,21.896 C46.2626,28.222 41.3976,33.33 35.3156,34.061 C35.3156,34.061 35.3146,34.061 35.3136,34.061" id="Fill-1" fill="url(#linearGradient-3)" mask="url(#mask-2)"></path>
                    </g>
                    <path d="M25.9765,17.646 L17.4165,17.646 L17.4165,17.425 C17.4165,16.605 17.5615,15.824 17.8235,15.115 C18.6125,12.983 20.4585,11.488 22.6105,11.488 C25.4795,11.488 27.8055,12.568 27.8055,15.846 L30.4025,15.846 C30.4025,10.928 26.9145,8.52 22.6105,8.52 C18.3075,8.52 14.8185,12.508 14.8185,17.426 C14.8185,17.435 14.8195,17.444 14.8195,17.454 L14.8195,18.119 C13.2735,18.877 12.2085,20.466 12.2085,22.304 L12.2085,24.504 C12.2085,27.077 14.2935,29.162 16.8665,29.162 L25.9775,29.162 C28.5495,29.162 30.6355,27.077 30.6355,24.504 L30.6355,22.304 C30.6345,19.731 28.5495,17.646 25.9765,17.646" id="Fill-3" fill="#FFFFFF"></path>
                </g>
            </g>
        </g>
    </g>
</svg>