<?xml version="1.0" encoding="UTF-8"?>
<svg width="47px" height="35px" viewBox="0 0 47 35" version="1.1" xmlns="http://www.w3.org/2000/svg" xmlns:xlink="http://www.w3.org/1999/xlink">
    <title>编组</title>
    <defs>
        <polygon id="path-1" points="0 0 46.2626 0 46.2626 34.061 0 34.061"></polygon>
        <linearGradient x1="50%" y1="0%" x2="50%" y2="100%" id="linearGradient-3">
            <stop stop-color="#EB2588" offset="0%"></stop>
            <stop stop-color="#F0B2D5" offset="100%"></stop>
        </linearGradient>
    </defs>
    <g id="页面-1" stroke="none" stroke-width="1" fill="none" fill-rule="evenodd">
        <g id="产品-云原生" transform="translate(-1211, -713)">
            <g id="网络加密-2" transform="translate(0, 466)">
                <g id="编组" transform="translate(1211, 247)">
                    <g>
                        <mask id="mask-2" fill="white">
                            <use xlink:href="#path-1"></use>
                        </mask>
                        <g id="Clip-2"></g>
                        <path d="M35.3136,34.061 L11.1856,34.061 C3.7536,34.061 -1.2654,28.071 0.2796,20.801 C1.0936,16.974 3.8686,13.879 7.3266,12.655 C7.3326,12.653 7.3366,12.647 7.3376,12.641 C8.3156,5.59 14.3956,0 21.9336,0 C28.2556,0 33.8486,4.131 35.7976,9.722 C35.7996,9.728 35.8056,9.732 35.8116,9.733 C41.6456,10.468 46.2626,15.575 46.2626,21.896 C46.2626,28.222 41.3976,33.33 35.3156,34.061 C35.3156,34.061 35.3146,34.061 35.3136,34.061" id="Fill-1" fill="url(#linearGradient-3)" mask="url(#mask-2)"></path>
                    </g>
                    <path d="M22.8801,23.5342 C20.7631,23.5342 19.0481,21.8192 19.0481,19.7022 C19.0481,17.5842 20.7631,15.8692 22.8801,15.8692 C24.9971,15.8692 26.7121,17.5842 26.7121,19.7022 C26.7121,21.8192 24.9971,23.5342 22.8801,23.5342 M32.1351,22.0952 L31.5181,21.7372 C31.2211,21.5632 31.0541,21.2302 31.1001,20.8842 C31.1571,20.4982 31.1851,20.1062 31.1851,19.7022 C31.1851,19.2972 31.1541,18.9052 31.1001,18.5192 C31.0541,18.1732 31.2161,17.8432 31.6001,17.6202 L32.1371,17.3102 C32.4961,17.1062 32.6521,16.6762 32.5161,16.2892 C32.3321,15.7622 32.0991,15.2552 31.8301,14.7682 C31.7661,14.6482 31.6941,14.5252 31.6201,14.4072 C31.3361,13.9342 31.0111,13.4882 30.6521,13.0712 C30.3841,12.7562 29.9331,12.6842 29.4981,12.9352 L28.9531,13.2502 C28.6561,13.4242 28.2791,13.3992 28.0081,13.1862 C27.3911,12.6972 26.7051,12.2952 25.9601,11.9982 C25.6401,11.8702 25.4351,11.5552 25.4351,11.2152 L25.4351,10.4952 C25.4351,10.0832 25.1411,9.7302 24.7361,9.6532 C24.1321,9.5432 23.5151,9.4872 22.8801,9.4872 C22.2451,9.4872 21.6281,9.5432 21.0241,9.6532 C20.6191,9.7302 20.3251,10.0832 20.3251,10.4952 L20.3251,11.2152 C20.3251,11.5552 20.1201,11.8702 19.8001,11.9982 C19.0551,12.2952 18.3691,12.6972 17.7521,13.1862 C17.4811,13.3992 17.1041,13.4242 16.8071,13.2502 L16.1851,12.8892 C15.8271,12.6842 15.3761,12.7562 15.1081,13.0732 C14.7491,13.4912 14.4271,13.9392 14.1401,14.4102 C14.0681,14.5302 13.9941,14.6532 13.9301,14.7712 C13.6611,15.2572 13.4281,15.7642 13.2441,16.2922 C13.1081,16.6782 13.2641,17.1082 13.6231,17.3132 L14.2401,17.6712 C14.5371,17.8452 14.7031,18.1782 14.6571,18.5242 C14.6011,18.9102 14.5731,19.3022 14.5731,19.7072 C14.5731,20.1112 14.6031,20.5032 14.6571,20.8892 C14.7031,21.2352 14.5371,21.5652 14.2401,21.7422 L13.6231,22.1002 C13.2641,22.3052 13.1081,22.7352 13.2441,23.1222 C13.4281,23.6492 13.6611,24.1562 13.9301,24.6432 C13.9941,24.7632 14.0661,24.8862 14.1401,25.0032 C14.4241,25.4772 14.7491,25.9232 15.1081,26.3402 C15.3761,26.6552 15.8271,26.7262 16.1851,26.5242 L16.8071,26.1632 C17.1041,25.9892 17.4811,26.0152 17.7521,26.2272 C18.3691,26.7162 19.0551,27.1182 19.8001,27.4152 C20.1201,27.5432 20.3251,27.8582 20.3251,28.1982 L20.3251,28.9182 C20.3251,29.3302 20.6191,29.6832 21.0241,29.7602 C21.6281,29.8702 22.2451,29.9272 22.8801,29.9272 C23.5151,29.9272 24.1321,29.8702 24.7361,29.7602 C25.1411,29.6832 25.4351,29.3302 25.4351,28.9182 L25.4351,28.1982 C25.4351,27.8582 25.6401,27.5432 25.9601,27.4152 C26.7051,27.1182 27.3911,26.7162 28.0081,26.2272 C28.2791,26.0152 28.6561,25.9892 28.9531,26.1632 L29.5751,26.5242 C29.9331,26.7292 30.3841,26.6572 30.6521,26.3402 C31.0111,25.9232 31.3331,25.4752 31.6201,25.0032 C31.6921,24.8832 31.7661,24.7602 31.8301,24.6432 C32.0991,24.1562 32.3321,23.6492 32.5161,23.1222 C32.6491,22.7302 32.4931,22.3002 32.1351,22.0952" id="Fill-3" fill="#FFFFFF"></path>
                </g>
            </g>
        </g>
    </g>
</svg>