<?xml version="1.0" encoding="UTF-8"?>
<svg width="63px" height="72px" viewBox="0 0 63 72" version="1.1" xmlns="http://www.w3.org/2000/svg" xmlns:xlink="http://www.w3.org/1999/xlink">
    <title>hbr 混合云备份</title>
    <g id="页面-1" stroke="none" stroke-width="1" fill="none" fill-rule="evenodd">
        <g id="集成" transform="translate(-929, -142)" fill="#2172DF" fill-rule="nonzero">
            <g id="hbr-混合云备份" transform="translate(929, 142)">
                <polygon id="路径" points="23.7209302 52.1242236 16.2790698 56.4332298 0 47 0 62.5667702 16.2790698 72 30 64.0419255 23.7209302 60.431677"></polygon>
                <polygon id="路径" points="49.7966418 30.9196873 46.505597 29.0042644 32.7929104 36.9004975 26.641791 33.4605544 32.9104478 29.8642502 32.9104478 21.4989339 16.4552239 12 0 21.4989339 0 40.4577114 3.21268657 42.2949538 16.494403 49.9566453 24.016791 45.6176262 24.016791 38.9331912 30.0895522 42.2949538 30.0895522 57.5010661 46.5447761 67 63 57.5010661 63 38.5422886"></polygon>
                <polygon id="路径" points="38.4605263 26 46.0394737 21.5668203 52 25.0414747 52 9.70506912 35.4210526 0 22 7.82795699 38.4210526 17.4132104 38.4210526 26"></polygon>
            </g>
        </g>
    </g>
</svg>