<?xml version="1.0" encoding="UTF-8"?>
<svg width="32px" height="32px" viewBox="0 0 32 32" version="1.1" xmlns="http://www.w3.org/2000/svg" xmlns:xlink="http://www.w3.org/1999/xlink">
    <title>备份</title>
    <g id="页面-1" stroke="none" stroke-width="1" fill="none" fill-rule="evenodd">
        <g id="集成" transform="translate(-1443, -648)" fill="#2172DF" fill-rule="nonzero">
            <g id="2备份-3" transform="translate(-2, 480)">
                <g id="备份" transform="translate(1445, 168)">
                    <path d="M19.9168901,32 L3.08310992,32 C1.38035533,32 0,30.604121 0,28.8822171 L0,8.11778291 C0,6.39587896 1.38035533,5 3.08310992,5 L19.9168901,5 C21.6196447,5 23,6.39587896 23,8.11778291 L23,9.08429561 C23,9.77305719 22.4478579,10.3314088 21.766756,10.3314088 C21.0856542,10.3314088 20.5335121,9.77305719 20.5335121,9.08429561 L20.5335121,8.11778291 C20.5335121,7.77340212 20.257441,7.49422633 19.9168901,7.49422633 L3.08310992,7.49422633 C2.742559,7.49422633 2.46648794,7.77340212 2.46648794,8.11778291 L2.46648794,28.8822171 C2.46648794,29.2265979 2.742559,29.5057737 3.08310992,29.5057737 L19.9168901,29.5057737 C20.257441,29.5057737 20.5335121,29.2265979 20.5335121,28.8822171 L20.5335121,22.3036952 C20.5335121,21.6149336 21.0856542,21.056582 21.766756,21.056582 C22.4478579,21.056582 23,21.6149336 23,22.3036952 L23,28.8822171 C23,30.604121 21.6196447,32 19.9168901,32 Z" id="路径"></path>
                    <path d="M28.9168901,27 L25.2788204,27 C24.5977185,27 24.0455764,26.4416484 24.0455764,25.7528868 C24.0455764,25.0641253 24.5977185,24.5057737 25.2788204,24.5057737 L28.9168901,24.5057737 C29.0804284,24.5057737 29.2372686,24.4400777 29.3529077,24.3231382 C29.4685467,24.2061986 29.5335121,24.0475946 29.5335121,23.8822171 L29.5335121,3.11778291 C29.5335121,2.77340212 29.257441,2.49422633 28.9168901,2.49422633 L12.0831099,2.49422633 C11.742559,2.49422633 11.4664879,2.77340212 11.4664879,3.11778291 L11.4664879,3.36720554 C11.4664879,4.05596711 10.9143458,4.61431867 10.233244,4.61431867 C9.55214215,4.61431867 9,4.05596711 9,3.36720554 L9,3.11778291 C9,1.39587896 10.3803553,0 12.0831099,0 L28.9168901,0 C30.6196447,0 32,1.39587896 32,3.11778291 L32,23.8822171 C32,25.604121 30.6196447,27 28.9168901,27 Z" id="路径"></path>
                    <path d="M14.2032866,27.9998928 C13.8963353,28.0039496 13.5988208,27.8927416 13.3686143,27.6877873 L4.40361496,19.6071863 C4.14130755,19.3658324 3.99441917,19.0223527 4.00016232,18.664166 C4.00624949,18.3059793 4.16439771,17.9676304 4.43452875,17.7352324 L13.3995281,9.99782297 C13.7646401,9.68260442 14.2776242,9.60937658 14.7150358,9.81003589 C15.1524475,10.0106952 15.4350852,10.4489085 15.4398382,10.9337999 L15.4398382,14.9273016 C18.3395301,14.6120438 21.0075579,13.1819157 22.8900618,10.9337999 L25.7959581,7.4706852 C26.1598238,7.00949203 26.7938386,6.86818494 27.3163121,7.13183381 C27.8387856,7.39548268 28.1071831,7.99216209 27.9599235,8.56265831 L27.1561649,11.9633746 C25.8739749,17.6055528 21.1505287,21.781447 15.4398382,22.3215195 L15.4398382,26.7518104 C15.4398382,27.4410448 14.8862152,27.9998928 14.2032866,27.9998928 L14.2032866,27.9998928 Z M7.12402854,18.7024086 L12.966735,23.9750788 L12.966735,21.1359487 C12.966735,20.4467143 13.520358,19.8879794 14.2032866,19.8879794 C18.6548725,19.8879794 22.5190963,17.2360447 24.188441,13.2113438 C21.5763423,15.949956 17.9697683,17.493804 14.2032866,17.4856386 C13.520358,17.4856386 12.966735,16.9269037 12.966735,16.2376693 L12.966735,13.6481331 L7.12402854,18.7024086 Z" id="形状"></path>
                </g>
            </g>
        </g>
    </g>
</svg>