<?xml version="1.0" encoding="UTF-8"?>
<svg width="31px" height="30px" viewBox="0 0 31 30" version="1.1" xmlns="http://www.w3.org/2000/svg" xmlns:xlink="http://www.w3.org/1999/xlink">
    <title>通知</title>
    <g id="页面-1" stroke="none" stroke-width="1" fill="none" fill-rule="evenodd">
        <g id="集成" transform="translate(-1194, -527)" fill="#2172DF" fill-rule="nonzero">
            <g id="2备份-3" transform="translate(-2, 480)">
                <g id="1备份-7" transform="translate(1179, 47)">
                    <g id="通知" transform="translate(17, 0)">
                        <path d="M0,11.3214394 L0,15.6577665 C0,17.492154 0.950384366,18.9792378 2.12277965,18.9792378 L4.00002904,18.9792378 L4.00002904,27.7999106 C4.00002904,29.0150098 4.89541882,30 5.99998549,30 C7.10455216,30 8,29.0150098 8,27.7999106 L8,25.4444241 L7.10925602,25.4444241 C6.71224384,25.4444241 6.39040643,25.0904128 6.39040643,24.6536402 C6.39040643,24.2169634 6.71221481,23.8628563 7.10925602,23.8628563 L8,23.8628563 L8,21.971868 L7.10925602,21.971868 C6.71224384,21.971868 6.39040643,21.6178566 6.39040643,21.181084 C6.39040643,20.7444073 6.71221481,20.3903001 7.10925602,20.3903001 L8,20.3903001 L8,18.9792378 L8,14.3388564 L8,8 L2.12277965,8 C0.950384366,8 0,9.48705197 0,11.3214394 Z M29,0 L31,0 L31,28 L29,28 L29,0 Z M9,8.6137896 L9,19.3841463 C9,19.3841463 11.6533081,19.3841463 12.9205441,19.3841463 C16.3403934,19.3841463 26.9830278,28 26.9830278,28 L27,0 C27,0 16.423996,8.61375831 12.8745074,8.61375831 C11.2891887,8.6137896 9,8.6137896 9,8.6137896 Z" id="形状"></path>
                    </g>
                </g>
            </g>
        </g>
    </g>
</svg>