<?xml version="1.0" encoding="UTF-8"?>
<svg width="34px" height="36px" viewBox="0 0 34 36" version="1.1" xmlns="http://www.w3.org/2000/svg" xmlns:xlink="http://www.w3.org/1999/xlink">
    <title>均衡器</title>
    <g id="页面-1" stroke="none" stroke-width="1" fill="none" fill-rule="evenodd">
        <g id="集成" transform="translate(-692, -649)" fill="#2172DF" fill-rule="nonzero">
            <g id="2备份-3" transform="translate(-2, 480)">
                <g id="1备份-10" transform="translate(671, 169)">
                    <g id="均衡器" transform="translate(23, 0)">
                        <path d="M28.138092,17.9377793 C24.9058053,17.9377793 22.276184,15.3073369 22.276184,12.0736705 C22.276184,8.84000402 24.9058053,6.20926028 28.138092,6.20926028 C31.3703787,6.20926028 34,8.84000402 34,12.0736705 C34,15.3073369 31.3703787,17.9377793 28.138092,17.9377793 L28.138092,17.9377793 Z M28.138092,9.97564405 C26.9817032,9.97564405 26.0409608,10.916788 26.0409608,12.0736705 C26.0409608,13.2305529 26.9817032,14.1716969 28.138092,14.1716969 C29.2944808,14.1716969 30.2352233,13.2305529 30.2352233,12.0736705 C30.2352233,10.916788 29.2944808,9.97564405 28.138092,9.97564405 Z M17.4629922,27.6173856 C14.2305549,27.6173856 11.6009337,24.9867925 11.6009337,21.7532768 C11.6009337,18.5194596 14.2305549,15.8887159 17.4628417,15.8887159 C20.6951284,15.8887159 23.3247496,18.5194596 23.3247496,21.7532768 C23.3247496,24.9867925 20.6951284,27.6173856 17.4629922,27.6173856 Z M17.4629922,19.655401 C16.3064528,19.655401 15.3657104,20.596545 15.3657104,21.7534274 C15.3657104,22.9101592 16.3064528,23.8511525 17.4629922,23.8511525 C18.6192305,23.8511525 19.5599729,22.9101592 19.5599729,21.7534274 C19.5599729,20.596545 18.6192305,19.655401 17.4629922,19.655401 Z M5.86220917,21.4060162 C2.62992245,21.4060162 0,18.7752724 0,15.541606 C0,12.3079395 2.62977185,9.6771958 5.86220917,9.6771958 C9.0944959,9.6771958 11.7241172,12.3079395 11.7241172,15.541606 C11.7241172,18.7752724 9.0944959,21.4060162 5.86220917,21.4060162 Z M5.86220917,13.4435796 C4.70566975,13.4435796 3.76477675,14.3847235 3.76477675,15.541606 C3.76477675,16.6984884 4.70566975,17.6396324 5.86220917,17.6396324 C7.018598,17.6396324 7.95934041,16.6984884 7.95934041,15.541606 C7.95934041,14.3847235 7.018598,13.4435796 5.86220917,13.4435796 Z M3.9798208,0 L7.74459755,0 L7.74459755,7.25812283 L3.9798208,7.25812283 L3.9798208,0 Z M3.9798208,23.9734847 L7.74459755,23.9734847 L7.74459755,36 L3.9798208,36 L3.9798208,23.9734847 Z M15.5806039,29.8522071 L19.34523,29.8522071 L19.34523,36 L15.5806039,36 L15.5806039,29.8522071 Z M15.5806039,0 L19.34523,0 L19.34523,13.3583086 L15.5806039,13.3583086 L15.5806039,0 Z M26.2557036,0 L30.0204804,0 L30.0204804,4.0952644 L26.2557036,4.0952644 L26.2557036,0 Z M26.2557036,20.6031738 L30.0204804,20.6031738 L30.0204804,36 L26.2557036,36 L26.2557036,20.6031738 Z" id="形状"></path>
                    </g>
                </g>
            </g>
        </g>
    </g>
</svg>