<?xml version="1.0" encoding="UTF-8"?>
<svg width="38px" height="35px" viewBox="0 0 38 35" version="1.1" xmlns="http://www.w3.org/2000/svg" xmlns:xlink="http://www.w3.org/1999/xlink">
    <title>适配器</title>
    <g id="页面-1" stroke="none" stroke-width="1" fill="none" fill-rule="evenodd">
        <g id="集成" transform="translate(-435, -650)" fill="#2172DF" fill-rule="nonzero">
            <g id="2备份-3" transform="translate(-2, 480)">
                <g id="适配器" transform="translate(437, 170)">
                    <path d="M18.75,32.3076923 C17.1,32.3076923 16,31.2307692 16,29.6153846 L16,5.38461538 C16,3.76923077 17.1,2.69230769 18.75,2.69230769 L30.025,2.69230769 C30.575,1.07692308 32.225,0 33.875,0 C36.075,0 38,1.88461538 38,4.03846154 C38,6.19230769 36.075,8.07692308 33.875,8.07692308 C31.95,8.07692308 30.575,7 30.025,5.38461538 L18.75,5.38461538 L18.75,16.1538462 L27.275,16.1538462 C27.825,14.5384615 29.475,13.4615385 31.125,13.4615385 L38,13.4615385 L38,21.5384615 L31.125,21.5384615 C29.2,21.5384615 27.825,20.4615385 27.275,18.8461538 L18.75,18.8461538 L18.75,29.6153846 L29.75,29.6153846 L29.75,26.9230769 L38,26.9230769 L38,35 L29.75,35 L29.75,32.3076923 L18.75,32.3076923 Z M9.86666667,23 L9.86666667,19.7567568 L1.86666667,20.027027 C0.8,20.027027 0,19.2162162 0,18.4054054 C0,17.3243243 0.8,16.5135135 1.6,16.5135135 L9.6,16.2432432 L9.6,13 L16,17.8648649 L9.86666667,23 L9.86666667,23 Z" id="形状"></path>
                </g>
            </g>
        </g>
    </g>
</svg>