<?xml version="1.0" encoding="UTF-8"?>
<svg width="38px" height="38px" viewBox="0 0 38 38" version="1.1" xmlns="http://www.w3.org/2000/svg" xmlns:xlink="http://www.w3.org/1999/xlink">
    <title>云端,云服务</title>
    <g id="页面-1" stroke="none" stroke-width="1" fill="none" fill-rule="evenodd">
        <g id="集成" transform="translate(-940, -643)" fill="#2172DF" fill-rule="nonzero">
            <g id="2备份-3" transform="translate(-2, 480)">
                <g id="1备份-11" transform="translate(937, 163)">
                    <g id="云端,云服务" transform="translate(5, 0)">
                        <path d="M33.8706234,23.1548208 C32.1152441,23.1436887 30.6122238,24.2197941 29.9924598,25.748606 C29.8996808,25.9749593 29.6844334,26.1233876 29.4394968,26.1233876 L28.500573,26.1233876 C27.190533,26.1233876 26.1254297,25.0584143 26.1254297,23.7485341 L26.1254297,21.4107878 C30.3858429,21.0582705 33.7407328,17.4069334 33.7407328,12.9540832 C33.7407328,8.43815104 30.1000835,4.75712824 25.5130881,4.49366794 C24.1585142,1.83308997 21.345454,0 18.079632,0 C13.7041728,0 10.1303245,3.2876877 9.81858689,7.45481328 C6.60101004,8.34538332 4.25926724,11.0690433 4.25926724,14.293649 C4.25926724,18.0971252 7.51766686,21.2215417 11.6296336,21.4404735 L11.8745703,21.4404735 L11.8745703,23.7485341 C11.8745703,25.0584142 10.809467,26.1233876 9.49942702,26.1233876 L8.56050319,26.1233876 C8.31556654,26.1233876 8.10031918,25.9749593 8.00754017,25.748606 C7.38777625,24.2197941 5.88104473,23.1436887 4.12937659,23.1548208 C1.79876729,23.1696636 -0.0790803271,25.125207 0.0025652135,27.4555319 C0.0767884187,29.681957 1.90639097,31.4668078 4.15535473,31.4668078 C5.9033117,31.4668078 7.39519855,30.3907023 8.01125134,28.8656011 C8.10031922,28.6429586 8.31927774,28.498241 8.56050319,28.498241 L9.49942702,28.498241 C12.1232181,28.498241 14.2497135,26.372005 14.2497135,23.7485341 L14.2497135,21.7373302 C14.2497135,21.574059 14.3833153,21.4404735 14.5466064,21.4404735 L17.5155355,21.4404735 C17.6788266,21.4404735 17.8124284,21.574059 17.8124284,21.7373302 L17.8124284,29.4407609 C17.8124284,29.6856677 17.6639819,29.9008888 17.4376011,29.9936565 C15.9086026,30.6133448 14.8323658,32.1198925 14.8434993,33.8713469 C14.858344,36.2016718 16.8178372,38.0755796 19.1447353,37.9976547 C21.3751432,37.9234405 23.1565007,36.0903505 23.1565007,33.8453719 C23.1565007,32.0976282 22.0802639,30.6059234 20.5549766,29.9899458 C20.3323069,29.9008888 20.1875716,29.681957 20.1875716,29.4407609 L20.1875716,21.7373302 C20.1875716,21.574059 20.3211734,21.4404735 20.4844645,21.4404735 L23.4533936,21.4404735 C23.6166847,21.4404735 23.7502865,21.574059 23.7502865,21.7373302 L23.7502865,23.7485341 C23.7502865,26.372005 25.8767819,28.498241 28.500573,28.498241 L29.4394968,28.498241 C29.6807223,28.498241 29.8996808,28.6429586 29.9887487,28.8656011 C30.6048015,30.3907023 32.0966883,31.4668078 33.8446453,31.4668078 C36.093609,31.4668078 37.9232116,29.681957 37.9974348,27.4555319 C38.0790803,25.125207 36.2012327,23.1696636 33.8706234,23.1548208 Z M4.15535473,29.0919543 C3.17189696,29.0919543 2.37399728,28.294152 2.37399728,27.3108143 C2.37399728,26.3274766 3.17189696,25.5296742 4.15535473,25.5296742 C5.13881249,25.5296742 5.93671217,26.3274765 5.93671217,27.3108143 C5.93671217,28.2941521 5.13881249,29.0919543 4.15535473,29.0919543 Z M20.7813574,33.8416612 C20.7813574,34.8249989 19.9834578,35.6228013 19,35.6228013 C18.0165422,35.6228013 17.2186426,34.8249989 17.2186426,33.8416612 C17.2186426,32.8583234 18.0165422,32.0605211 19,32.0605211 C19.9834578,32.0605211 20.7813574,32.8583234 20.7813574,33.8416612 Z M33.8446453,29.0919543 C32.8611875,29.0919543 32.0632878,28.294152 32.0632878,27.3108143 C32.0632878,26.3274766 32.8611875,25.5296742 33.8446453,25.5296742 C34.828103,25.5296742 35.6260027,26.3274765 35.6260027,27.3108143 C35.6260027,28.2941521 34.828103,29.0919543 33.8446453,29.0919543 Z" id="形状"></path>
                    </g>
                </g>
            </g>
        </g>
    </g>
</svg>