<?xml version="1.0" encoding="UTF-8"?>
<svg width="32px" height="32px" viewBox="0 0 32 32" version="1.1" xmlns="http://www.w3.org/2000/svg" xmlns:xlink="http://www.w3.org/1999/xlink">
    <title>区域监视</title>
    <g id="页面-1" stroke="none" stroke-width="1" fill="none" fill-rule="evenodd">
        <g id="集成" transform="translate(-944, -526)" fill="#2172DF" fill-rule="nonzero">
            <g id="2备份-3" transform="translate(-2, 480)">
                <g id="1备份-6" transform="translate(921, 46)">
                    <g id="区域监视" transform="translate(25, 0)">
                        <path d="M30.56,9.28 L18.08,14.72 C18.4,15.04 18.4,15.52 18.4,16 C18.4,17.28 17.44,18.4 16,18.4 C14.56,18.4 13.6,17.28 13.6,16 C13.6,14.72 14.72,13.6 16,13.6 C16.32,13.6 16.8,13.6 17.12,13.92 L20.16,0.48 C18.88,0.16 17.44,0 16,0 C7.2,0 0,7.2 0,16 C0,24.8 7.2,32 16,32 C24.8,32 32,24.8 32,16 C32,13.6 31.52,11.36 30.56,9.28 Z M15.9219858,27 C9.83687943,27 5,22.1285714 5,16 C5,9.87142857 9.83687943,5 15.9219858,5 C16.3900709,5 16.7021277,5.31428571 16.7021277,5.78571429 C16.7021277,6.25714286 16.3900709,6.57142857 15.9219858,6.57142857 C10.7730496,6.57142857 6.56028369,10.8142857 6.56028369,16 C6.56028369,21.1857143 10.7730496,25.4285714 15.9219858,25.4285714 C21.070922,25.4285714 25.2836879,21.1857143 25.2836879,16 C25.2836879,15.3714286 25.2836879,14.7428571 25.1276596,14.1142857 C25.1276596,13.8 25.2836879,13.1714286 25.751773,13.1714286 C26.0638298,13.1714286 26.6879433,13.3285714 26.6879433,13.8 C26.8439716,14.4285714 27,15.2142857 27,16 C26.8439716,22.1285714 21.8510638,27 15.9219858,27 Z" id="形状"></path>
                        <path d="M22,7.5 C22,8.33333333 22.6666667,9 23.5,9 C24.3333333,9 25,8.33333333 25,7.5 C25,6.66666667 24.3333333,6 23.5,6 C22.6666667,6 22,6.66666667 22,7.5 Z" id="路径"></path>
                    </g>
                </g>
            </g>
        </g>
    </g>
</svg>