<?xml version="1.0" encoding="UTF-8"?>
<svg width="34px" height="27px" viewBox="0 0 34 27" version="1.1" xmlns="http://www.w3.org/2000/svg" xmlns:xlink="http://www.w3.org/1999/xlink">
    <title>身份信息</title>
    <g id="页面-1" stroke="none" stroke-width="1" fill="none" fill-rule="evenodd">
        <g id="集成" transform="translate(-442, -531)" fill="#2172DF" fill-rule="nonzero">
            <g id="2备份-3" transform="translate(-2, 480)">
                <g id="1" transform="translate(397, 51)">
                    <g id="身份信息" transform="translate(47, 0)">
                        <path d="M3.3325,0 L30,0 C31.8406911,0.000690172943 33.3325,1.49305876 33.3325,3.33375 L33.3325,23.33375 C33.3325,25.1744412 31.8406911,26.6668098 30,26.6675 L3.3325,26.6675 C1.49180889,26.6668098 0,25.1744412 0,23.33375 L0,3.33375 C0,1.49305876 1.49180889,0.000690172943 3.3325,0 Z M22.5,7.5 C22.0395326,7.5 21.66625,7.87328259 21.66625,8.33375 C21.66625,8.79421741 22.0395326,9.1675 22.5,9.1675 L27.5,9.1675 C27.9604674,9.1675 28.33375,8.79421741 28.33375,8.33375 C28.33375,7.87328259 27.9604674,7.5 27.5,7.5 L22.5,7.5 Z M22.5,12.5 C22.0395326,12.5 21.66625,12.8732826 21.66625,13.33375 C21.66625,13.7942174 22.0395326,14.1675 22.5,14.1675 L27.5,14.1675 C27.9604674,14.1675 28.33375,13.7942174 28.33375,13.33375 C28.33375,12.8732826 27.9604674,12.5 27.5,12.5 L22.5,12.5 L22.5,12.5 Z M22.5,17.5 C22.0395326,17.5 21.66625,17.8732826 21.66625,18.33375 C21.66625,18.7942174 22.0395326,19.1675 22.5,19.1675 L27.5,19.1675 C27.9604674,19.1675 28.33375,18.7942174 28.33375,18.33375 C28.33375,17.8732826 27.9604674,17.5 27.5,17.5 L22.5,17.5 Z M8.67,13.5625 C6.7625,14.09375 5.295,15.555 4.2675,17.945 C4.04591925,18.4598081 4.09799872,19.0515247 4.40609714,19.5197135 C4.71419556,19.9879023 5.23703114,20.269831 5.7975,20.2700002 L15.035,20.2700002 C15.5956904,20.2702516 16.1189133,19.9884939 16.4273092,19.5202356 C16.7357052,19.0519773 16.7879184,18.4600116 16.56625,17.945 C15.63375,15.7775 14.34,14.37375 12.68375,13.735 C14.3875199,12.890555 15.3033244,10.9996455 14.9095326,9.13931022 C14.5157408,7.27897496 12.9122905,5.92133595 11.0124871,5.8396876 C9.11268379,5.75803924 7.39866576,6.97310253 6.84671655,8.79279243 C6.29476734,10.6124823 7.04496245,12.5749919 8.67,13.5625 L8.67,13.5625 Z" id="形状"></path>
                    </g>
                </g>
            </g>
        </g>
    </g>
</svg>