<?xml version="1.0" encoding="UTF-8"?>
<svg width="34px" height="34px" viewBox="0 0 34 34" version="1.1" xmlns="http://www.w3.org/2000/svg" xmlns:xlink="http://www.w3.org/1999/xlink">
    <title>密钥</title>
    <g id="页面-1" stroke="none" stroke-width="1" fill="none" fill-rule="evenodd">
        <g id="集成" transform="translate(-692, -528)" fill="#2172DF" fill-rule="nonzero">
            <g id="2备份-3" transform="translate(-2, 480)">
                <g id="1备份-5" transform="translate(663, 48)">
                    <g id="密钥" transform="translate(31, 0)">
                        <path d="M20.1299602,14.0549267 C21.5116691,13.4689356 22.9974602,13.1679226 24.4982936,13.1699267 C24.6482936,13.1699267 24.7982936,13.1765933 24.9482936,13.1765933 C25.6582936,11.3799267 25.8399603,9.25826002 25.4816269,7.19492666 C24.6549602,2.46159334 20.1882936,-0.70007334 15.4949602,0.13326002 C10.8082936,0.96659334 6.84996024,4.61159334 7.68329359,9.34326002 C7.93458675,10.6484316 8.35654246,11.914859 8.93829359,13.1099267 L0.423293594,25.39326 C0.111626915,25.84326 -0.0717064055,26.6549267 0.0266269148,27.2099267 L0.398293594,29.3099267 C0.0466269148,27.2865933 0.494960274,30.0399267 0.768293594,30.03326 L3.57496024,30.07326 C4.11496024,29.97326 4.79162691,29.5199267 5.09162691,29.0565933 L8.45829359,23.7915933 L8.48996024,23.75826 L11.4332936,23.99326 L15.3649602,17.8299267 C15.3782936,17.8299267 15.3916269,17.8365933 15.4032936,17.8365933 C15.7549603,17.35326 16.1399603,16.89826 16.5699602,16.4699267 C17.5854131,15.4376246 18.7953901,14.6168116 20.1299602,14.0549267 L20.1299602,14.0549267 Z M2.26662691,26.68826 L1.84996024,26.86326 L1.89496024,26.40826 L10.0516269,14.5699267 L10.5399602,15.0249267 L2.26662691,26.68826 L2.26662691,26.68826 Z M14.6616269,4.90492666 C15.2735851,4.01349042 16.2174709,3.40469849 17.2819484,3.21485935 C18.346426,3.02502022 19.4425723,3.26999241 20.3249602,3.89492666 C22.1691683,5.20899818 22.61609,7.76060928 21.3282936,9.62326002 C20.0382936,11.47826 18.7232936,10.1699267 16.8816269,8.86826002 C15.0466269,7.5599267 13.3732936,6.7649267 14.6616269,4.90326002 L14.6616269,4.90492666 Z M24.3882936,15.44826 C21.1643523,15.4042462 18.1662936,17.0989855 16.5414834,19.8838959 C14.9166732,22.6688064 14.9166732,26.1127137 16.5414834,28.8976241 C18.1662936,31.6825346 21.1643523,33.3772738 24.3882936,33.33326 C27.6122348,33.3772738 30.6102936,31.6825346 32.2351038,28.8976241 C33.859914,26.1127137 33.859914,22.6688064 32.2351038,19.8838959 C30.6102936,17.0989855 27.6122348,15.4042462 24.3882936,15.44826 L24.3882936,15.44826 Z M29.5566269,28.0615933 C29.5566269,29.3949267 26.9982936,29.7015933 24.5966269,29.7015933 C22.1949602,29.7015933 19.6032936,29.3949267 19.6032936,28.0615933 L19.6032936,27.6899267 C19.6032936,26.7065933 21.3732936,25.7115933 22.8782936,25.1715933 C22.9882936,25.1315933 23.5082936,24.8465933 23.2166269,24.0849267 C22.3943574,23.2135601 21.92768,22.0661878 21.9082936,20.86826 C21.9082936,19.00826 23.1382936,18.0315933 24.5832936,18.0315933 C26.0216269,18.0315933 27.2666269,19.00826 27.2666269,20.8699267 C27.2666269,22.0799267 26.6999602,23.3099267 25.9566269,24.07826 L25.9632936,24.07826 C25.6766269,24.9449267 26.1332936,25.1515933 26.2049602,25.1715933 C27.7866269,25.6915933 29.5632936,26.6815933 29.5632936,27.6899267 L29.5566269,28.0615933 Z" id="形状"></path>
                    </g>
                </g>
            </g>
        </g>
    </g>
</svg>