<?xml version="1.0" encoding="UTF-8"?>
<svg width="30px" height="30px" viewBox="0 0 30 30" version="1.1" xmlns="http://www.w3.org/2000/svg" xmlns:xlink="http://www.w3.org/1999/xlink">
    <title>文献族群</title>
    <g id="页面-1" stroke="none" stroke-width="1" fill="none" fill-rule="evenodd">
        <g id="集成" transform="translate(-1443, -526)" fill="#2172DF" fill-rule="nonzero">
            <g id="2备份-3" transform="translate(-2, 480)">
                <g id="1备份-8" transform="translate(1445, 46)">
                    <g id="文献族群" transform="translate(-0, 0)">
                        <path d="M17.6925,6.2175 L18.2925,6.5025 L16.9375,9.3525 L16.3375,9.065 L17.6925,6.2175 Z M10.0725,15.475 L10.3725,16.07 L6.5225,18.02 L6.2225,17.425 L10.0725,15.475 Z M20.585,20.8075 L20.075,21.2325 L17.675,18.35 L18.185,17.925 L20.585,20.8075 Z" id="形状"></path>
                        <path d="M15.85,3.32 C15.85,5.15358537 17.3364146,6.64 19.17,6.64 C21.0035854,6.64 22.49,5.15358537 22.49,3.32 C22.49,1.48641463 21.0035854,-8.8817842e-16 19.17,-8.8817842e-16 C17.3364146,-8.8817842e-16 15.85,1.48641463 15.85,3.32 L15.85,3.32 Z" id="路径"></path>
                        <path d="M18.6725,24.8125 C18.6725,27.6774771 20.9950229,30 23.86,30 C26.7249771,30 29.0475,27.6774771 29.0475,24.8125 C29.0475,21.9475229 26.7249771,19.625 23.86,19.625 C20.9950229,19.625 18.6725,21.9475229 18.6725,24.8125 Z" id="路径"></path>
                        <path d="M8.22,14.44 C8.22,16.6934527 9.42220265,18.775729 11.37375,19.9024553 C13.3252973,21.0291817 15.7297027,21.0291817 17.68125,19.9024553 C19.6327973,18.775729 20.835,16.6934527 20.835,14.44 C20.835,10.9564639 18.0110361,8.1325 14.5275,8.1325 C11.0439639,8.1325 8.22,10.9564639 8.22,14.44 Z" id="路径"></path>
                        <path d="M8.8817842e-16,18.88 C8.8817842e-16,20.7591489 1.52335114,22.2825 3.4025,22.2825 C5.28164886,22.2825 6.805,20.7591489 6.805,18.88 C6.805,17.0008511 5.28164886,15.4775 3.4025,15.4775 C1.52335114,15.4775 8.8817842e-16,17.0008511 8.8817842e-16,18.88 Z" id="路径"></path>
                    </g>
                </g>
            </g>
        </g>
    </g>
</svg>