<?xml version="1.0" encoding="UTF-8"?>
<svg width="37px" height="36px" viewBox="0 0 37 36" version="1.1" xmlns="http://www.w3.org/2000/svg" xmlns:xlink="http://www.w3.org/1999/xlink">
    <title>机器学习</title>
    <g id="页面-1" stroke="none" stroke-width="1" fill="none" fill-rule="evenodd">
        <g id="集成" transform="translate(-1191, -647)" fill="#2172DF" fill-rule="nonzero">
            <g id="2备份-3" transform="translate(-2, 480)">
                <g id="1备份-12" transform="translate(1147, 167)">
                    <g id="机器学习" transform="translate(46, 0)">
                        <path d="M4.6116609,6.75805585 C4.62609239,5.50354332 5.66191356,4.49628211 6.92955946,4.50406707 L13.8832551,4.50406707 L13.8832551,2.25407825 C13.8976866,0.999565705 14.9335078,-0.00769552621 16.2011537,4.445585e-05 L20.8409925,4.445585e-05 C22.1078594,-0.00770374584 23.1433572,0.998349574 23.1588911,2.25207825 L23.1588911,4.50406707 L30.0681284,4.50406707 C30.6804416,4.50206706 31.2685048,4.73406593 31.7050053,5.15406384 C32.139485,5.57206178 32.3840061,6.14205893 32.3860269,6.73405597 L32.3860269,11.2400336 L4.60964008,11.2420336 L32.3860269,11.2420336 L32.3860269,22.3699783 C32.3732864,23.5421316 31.4959244,24.5286562 30.3227537,24.6899668 L30.0681284,24.7139667 L23.1568702,24.7139667 L23.1568702,26.9679555 L30.0176075,26.9679555 C31.2852604,26.959057 32.3219907,27.9654303 32.3375268,29.2199443 L32.3375268,33.7479218 C32.321993,35.0016504 31.2864952,36.0077037 30.0196283,35.9999555 L6.97603867,35.9999555 C5.70917179,36.0077037 4.67367398,35.0016504 4.65814014,33.7479218 L4.65814014,29.2399442 C4.67367398,27.9862155 5.70917179,26.9801622 6.97603867,26.9879554 L13.8630468,26.9879554 L13.8630468,24.7339665 L6.92955946,24.7339665 C5.64370828,24.7005142 4.61683294,23.6629851 4.60964008,22.3899782 L4.6116609,6.75805585 Z M20.8652425,24.7139667 L16.2031745,24.7139667 L16.2031745,26.9679555 C16.2049858,27.5677055 15.9615258,28.1426636 15.5282154,28.5619475 C15.0937357,28.9859454 14.5016309,29.2219442 13.885276,29.2199443 L6.97805952,29.2199443 L6.97805952,33.7239219 L30.0216491,33.7239219 L30.0216491,29.2199443 L23.1831411,29.2199443 C21.9162742,29.2277374 20.8807764,28.2216841 20.8652425,26.9679555 L20.8652425,24.7139667 L20.8652425,24.7139667 Z M1.14592765,11.2419917 C1.45391042,11.2394242 1.75012154,11.3589913 1.9684078,11.5740319 C2.18356687,11.7872776 2.30051189,12.0787944 2.29174152,12.3800279 L2.29174152,16.8640057 C2.29754866,17.2682808 2.0807846,17.6437049 1.72590752,17.8440008 C1.36668283,18.0478406 0.925172511,18.0478406 0.565947826,17.8440008 C0.211070738,17.6437049 -0.00569332214,17.2682808 0.000113824728,16.8640057 L0.000113824728,12.360028 C0.000113824728,11.7440311 0.511385262,11.2460336 1.14592765,11.2440336 L1.14592765,11.2419917 Z M35.8517602,11.2420336 C36.1597429,11.2394242 36.455954,11.3589913 36.6742403,11.5740319 C36.8901398,11.7869402 37.0078329,12.0784995 36.9995948,12.3800279 L36.9995948,16.8640057 C36.9929314,17.4851016 36.47934,17.9835514 35.8517602,17.978046 C35.2241803,17.9835514 34.7105889,17.4851016 34.7039255,16.8640057 L34.7039255,12.360028 C34.7039255,11.7440311 35.2192386,11.2460336 35.8517602,11.2440336 L32.3860269,11.2420336 L32.3860269,11.2400336 L35.8517602,11.2420336 Z M22.2515358,11.4140327 C21.3825765,11.762031 20.8167425,12.5840269 20.8167425,13.4940224 C20.8311756,14.7493204 21.8682298,15.7569022 23.1366619,15.7480112 C24.0743297,15.7480112 24.9210598,15.2000139 25.2787477,14.3580181 C25.6404773,13.5180223 25.4404145,12.5480271 24.7796013,11.9020303 C24.1093788,11.2558096 23.1158825,11.0641862 22.249515,11.4140327 L22.2515358,11.4140327 Z M13.0001499,11.4140327 C12.1311906,11.762031 11.5653566,12.5840269 11.5653566,13.4940224 C11.5797897,14.7493204 12.6168439,15.7569022 13.885276,15.7480112 C14.8249646,15.7480112 15.6716947,15.2000139 16.0314035,14.3580181 C16.3911123,13.5180223 16.1930703,12.5480271 15.5282154,11.9020303 C14.8583785,11.2566385 13.8659515,11.0650683 13.0001499,11.4140327 Z M20.8632217,2.25407825 L16.2051954,2.25407825 L16.2051954,4.50406707 L20.8652425,4.50406707 L20.8652425,2.25207825 L20.8632217,2.25407825 Z" id="形状"></path>
                    </g>
                </g>
            </g>
        </g>
    </g>
</svg>