<?xml version="1.0" encoding="UTF-8"?>
<svg width="15px" height="15px" viewBox="0 0 15 15" version="1.1" xmlns="http://www.w3.org/2000/svg" xmlns:xlink="http://www.w3.org/1999/xlink">
    <title>链接</title>
    <g id="页面-1" stroke="none" stroke-width="1" fill="none" fill-rule="evenodd">
        <g id="集成" transform="translate(-558, -828)" fill="#2172DF" fill-rule="nonzero">
            <g id="3备份" transform="translate(352, 818)">
                <g id="链接" transform="translate(206, 10)">
                    <path d="M9.90483834,6.47700405 C9.78327083,6.37083705 9.65369142,6.27513377 9.52016645,6.18639456 L9.51992487,6.186588 C9.38249461,6.071118 9.19588575,6 8.99015303,6 C8.56789766,6 8.2256204,6.29903321 8.2256204,6.66790062 C8.2256204,6.83111676 8.29273517,6.98061578 8.40407643,7.09663095 L8.4040563,7.09663095 C8.40407643,7.09664853 8.40411669,7.09668371 8.40415696,7.09670129 C8.45764346,7.15243148 8.52127565,7.20047658 8.59271846,7.2385152 C8.66480543,7.29044681 8.73556381,7.34158705 8.80173244,7.39939239 L8.86476074,7.4544719 C9.65713373,8.14583232 9.42058133,9.3369707 8.62820836,10.0292104 L5.24698486,12.9821897 C4.45463202,13.6735502 3.16644717,13.6735502 2.37405408,12.9821897 L2.31052253,12.926653 C1.51810929,12.2344484 1.51810929,11.1082553 2.31052253,10.4177215 L3.80431932,9.11317065 C3.99598089,8.98027286 4.11901793,8.77514918 4.11901793,8.54480708 C4.11901793,8.14416167 3.74724962,7.81938248 3.28863875,7.81938248 C3.11557767,7.81938248 2.95493703,7.86566897 2.82191533,7.94478862 C2.8214926,7.94401484 2.82104972,7.94327622 2.82060685,7.94248484 L2.8046837,7.95549853 C2.7458828,7.99242924 2.69271839,8.03574368 2.64680093,8.08456255 L1.09442466,9.35357197 C-0.364808221,10.6292465 -0.364808221,12.7156204 1.09442466,13.9895187 L1.15745296,14.0445631 C2.61668585,15.318479 5.00389011,15.318479 6.46312299,14.0445631 L9.84333998,11.0907045 C11.3005598,9.81597956 11.4241203,7.8051026 9.96692054,6.53118667 L9.90483834,6.47700405 Z" id="路径"></path>
                    <path d="M13.9035777,1.04248048 L13.8404267,0.985712923 C12.3783723,-0.328570974 9.98651934,-0.328570974 8.52444482,0.985712923 L5.13764539,4.03105353 C3.67557088,5.34533743 3.59505382,7.24323379 5.05712833,8.55836985 L5.11927088,8.61337871 C5.18566922,8.67304719 5.25458876,8.72930708 5.32494034,8.78326435 C5.37586859,8.83439321 5.43569164,8.87816099 5.50219083,8.91277268 C5.50269508,8.9131353 5.50321949,8.91351605 5.50372372,8.91387867 L5.50394558,8.91369736 C5.60993685,8.96848865 5.73274959,9 5.86381167,9 C6.26321019,9 6.58697269,8.70892806 6.58697269,8.34993814 C6.58697269,8.24860508 6.56115559,8.15269312 6.51512855,8.06718824 L6.51512855,8.06718824 C6.41952463,7.87422209 6.24055972,7.7567526 6.11677885,7.64546573 L6.05461612,7.59049314 C5.2607203,6.87684654 5.56219537,5.84003648 6.35609122,5.12638986 L9.74488745,2.08191954 C10.5368268,1.36823667 11.827964,1.36823667 12.6219001,2.08191954 L12.6850915,2.13778054 C13.4790075,2.85148153 13.4790075,4.01301339 12.6850915,4.72578972 L11.193287,6.06770497 C10.9903404,6.20287013 10.8587337,6.41967828 10.8587337,6.66413593 C10.8587337,7.07383772 11.2282207,7.40599407 11.6840135,7.40599407 C11.8426474,7.40599407 11.990773,7.36567116 12.1165506,7.29594008 C12.1174986,7.29739053 12.1183861,7.29873222 12.119334,7.30020082 L12.1424686,7.2810003 C12.213748,7.23810282 12.2770603,7.18543283 12.3302879,7.12522042 L13.9025087,5.82112604 C15.3656522,4.50686023 15.3656522,2.35674623 13.9035777,1.04248048 Z" id="路径"></path>
                </g>
            </g>
        </g>
    </g>
</svg>