<?xml version="1.0" encoding="UTF-8"?>
<svg width="49px" height="54px" viewBox="0 0 49 54" version="1.1" xmlns="http://www.w3.org/2000/svg" xmlns:xlink="http://www.w3.org/1999/xlink">
    <title>公证</title>
    <g id="页面-1" stroke="none" stroke-width="1" fill="none" fill-rule="evenodd">
        <g id="架构-3" transform="translate(-1015, -3035)" fill="#0091FF" fill-rule="nonzero">
            <g id="编组-2" transform="translate(0, 2898)">
                <g id="公证" transform="translate(1015, 137)">
                    <path d="M44.4383562,54 L16.5616438,54 C14.0273972,54 12,52 12,49.5 L12,29.5 C12,27 14.0273972,25 16.5616438,25 L44.4383562,25 C46.9726028,25 49,27 49,29.5 L49,49.5 C49,52 46.9726028,54 44.4383562,54 Z M16.5616438,29 C16.3082192,29 16.0547945,29.25 16.0547945,29.5 L16.0547945,49.5 C16.0547945,49.75 16.3082192,50 16.5616438,50 L44.4383562,50 C44.6917808,50 44.9452055,49.75 44.9452055,49.5 L44.9452055,29.5 C44.9452055,29.25 44.6917808,29 44.4383562,29 L16.5616438,29 Z" id="形状"></path>
                    <path d="M9.5,54 L4.5,54 C2,54 0,51.9906977 0,49.4790698 L0,4.26976742 C0,1.7581395 2,0 4.5,0 L44.5,0 C47,0 49,2.00930231 49,4.52093023 L49,22.1023256 C49,23.1069767 48.25,24.1116279 47,24.1116279 C45.75,24.111628 45,23.3581395 45,22.1023256 L45,4.26976742 C45,4.01860461 44.75,3.76744186 44.5,3.76744186 L4.5,3.76744186 C4.24999998,3.76744186 4,4.01860467 4,4.26976742 L4,49.4790698 C4,49.7302326 4.24999998,49.9813953 4.5,49.9813953 L9.5,49.9813953 C10.5,49.9813953 11.5,50.7348837 11.5,51.9906977 C11.5,53.2465117 10.5,54 9.5,54 Z" id="路径"></path>
                    <path d="M28.5707493,32.9432669 L39.9729433,32.9432669 C40.9864717,32.9432669 42,33.7039043 42,34.9716334 C42,35.9858167 41.2398537,37 39.9729433,37 L28.5707493,37 C27.5572209,37 26.5436926,36.2393625 26.5436926,34.9716334 C26.5436926,33.7039043 27.3038388,32.9432669 28.5707493,32.9432669 Z M19.2488222,11.4552582 L25.5200289,17.7305174 C25.9076545,18.10722 26.1263839,18.6248902 26.1263839,19.1655867 C26.1263839,19.7062833 25.9076545,20.2239534 25.5200289,20.6006561 C24.8029576,21.3181908 23.5487162,21.4956728 22.8341788,20.7781382 L16.3830707,14.3253969 C15.8459007,13.4278447 15.8459007,12.3528104 16.5604382,11.6378112 C17.2800433,10.9177411 18.5317509,10.740259 19.2488222,11.4552582 Z" id="形状"></path>
                    <path d="M35.3906593,11.0353426 L25.5613187,20.8482568 C24.8460439,21.5623362 23.594945,21.7389636 22.8821978,21.0248842 C22.1669231,20.3133281 22.1669231,19.2409474 23.0591208,18.3502406 L32.890989,8.53480311 C33.2172385,8.19326373 33.6693526,8 34.1420879,8 C34.6148233,8 35.0669374,8.19326373 35.3931868,8.53480311 C36.2853846,9.07225508 36.1059341,10.3212632 35.3931868,11.0328193 L35.3906593,11.0353426 Z M21.021978,33.1314316 L22.2857143,33.1314316 C23.2967033,33.1314316 24.3076923,33.8884062 24.3076923,35.1500305 C24.3076923,36.15933 23.5494506,37.1686295 22.2857143,37.1686295 L21.021978,37.1686295 C20.010989,37.1686295 19,36.4116549 19,35.1500305 C19,33.8884062 19.7582418,33.1314316 21.021978,33.1314316 Z M28.6043956,41.962802 L39.978022,41.962802 C40.989011,41.962802 42,42.7197767 42,43.981401 C42,44.9907005 41.2417582,46 39.978022,46 L28.6043956,46 C27.5934066,46 26.5824176,45.2430254 26.5824176,43.981401 C26.5824176,42.7197766 27.3406594,41.962802 28.6043956,41.962802 Z M21.021978,41.962802 L22.2857143,41.962802 C23.2967033,41.962802 24.3076923,42.7197767 24.3076923,43.981401 C24.3076923,44.9907005 23.5494506,46 22.2857143,46 L21.021978,46 C20.010989,46 19,45.2430254 19,43.981401 C19,42.7197766 19.7582418,41.962802 21.021978,41.962802 Z" id="形状"></path>
                </g>
            </g>
        </g>
    </g>
</svg>