<?xml version="1.0" encoding="UTF-8"?>
<svg width="59px" height="54px" viewBox="0 0 59 54" version="1.1" xmlns="http://www.w3.org/2000/svg" xmlns:xlink="http://www.w3.org/1999/xlink">
    <title>身份证明</title>
    <g id="页面-1" stroke="none" stroke-width="1" fill="none" fill-rule="evenodd">
        <g id="架构-3" transform="translate(-355, -3030)" fill="#0091FF" fill-rule="nonzero">
            <g id="编组-2" transform="translate(0, 2898)">
                <g id="身份证明" transform="translate(355, 132)">
                    <path d="M54.0833333,54 L4.91666667,54 C2.18518516,54 0,51.8514286 0,49.1657143 L0,11.5657143 C0,8.87999996 2.18518516,7 4.91666667,7 L54.0833333,7 C56.8148148,7 59,9.14857141 59,11.8342857 L59,49.4342857 C59,51.8514286 56.8148148,54 54.0833333,54 Z M4.91666667,11.0285714 C4.6435185,11.0285714 4.37037039,11.2971429 4.37037039,11.5657143 L4.37037039,49.1657143 C4.37037039,49.4342857 4.64351856,49.7028572 4.91666667,49.7028572 L54.0833333,49.7028572 C54.3564815,49.7028572 54.6296296,49.4342857 54.6296296,49.1657143 L54.6296296,11.5657143 C54.6296296,11.2971428 54.3564814,11.0285714 54.0833333,11.0285714 L4.91666667,11.0285714 Z" id="形状"></path>
                    <path d="M36.8947369,9 C35.8421053,9 34.7894737,8.22857143 34.7894737,6.94285716 C34.7894737,5.14285713 33.2105263,3.85714287 31.631579,3.85714287 L26.368421,3.85714287 C24.5263157,3.85714287 23.2105263,5.40000001 23.2105263,6.94285716 C23.2105263,7.97142861 22.4210526,9 21.1052631,9 C19.7894737,9 19,7.97142855 19,6.94285716 C19,3.08571429 22.4210526,0 26.368421,0 L31.631579,0 C35.5789474,0 39,3.08571429 39,7.20000004 C39,7.97142861 37.9473684,9 36.8947369,9 Z" id="路径"></path>
                    <path d="M34.2535211,21 L49.7464789,21 C50.8732395,21 52,21.8360656 52,23.2295082 C52,24.3442623 51.1549296,25.4590164 49.7464789,25.4590164 L34.2535211,25.4590164 C33.1267605,25.4590164 32,24.6229508 32,23.2295082 C32,21.8360656 32.8450704,21 34.2535211,21 Z M34.2535211,33.5409836 L44.112676,33.5409836 C45.2394366,33.5409836 46.3661972,34.3770492 46.3661972,35.7704918 C46.3661972,36.8852459 45.5211268,38 44.112676,38 L34.2535211,38 C33.1267605,38 32,37.1639344 32,35.7704918 C32,34.3770492 32.8450704,33.5409836 34.2535211,33.5409836 Z" id="形状"></path>
                    <path d="M18,35 C12.9375,35 9,30.8461539 9,26.1384615 C9,21.4307692 12.9375,17 18,17 C23.0625,17 27,21.1538461 27,25.8615385 C27,30.5692308 23.0625,35 18,35 L18,35 Z M18,21.1538461 C15.1874999,21.1538461 12.9375,23.3692307 12.9375,26.1384615 C12.9375,28.9076923 15.1875,30.8461539 18,30.8461539 C20.8124999,30.8461539 23.0625,28.6307693 23.0625,25.8615385 C23.0625,23.0923077 20.8125,21.1538461 18,21.1538461 Z" id="形状"></path>
                    <path d="M27.4682539,44 C26.3812536,44 25.2942535,43.22 25.2942534,41.92 C25.2942534,38.02 22.0332528,34.9 17.6852521,34.9 C13.3372514,34.9 10.3480008,38.02 10.3480008,41.92 C10.3480008,42.96 9.53275065,44 8.17400037,44 C6.81525008,44 6,43.22 6,41.92 C6,35.94 11.1632509,31 17.413502,31 C23.6637531,31 28.8270041,35.94 28.8270041,41.92 C29.3705042,42.96 28.555254,44 27.4682539,44 Z" id="路径"></path>
                </g>
            </g>
        </g>
    </g>
</svg>