<?xml version="1.0" encoding="UTF-8"?>
<svg width="34px" height="34px" viewBox="0 0 34 34" version="1.1" xmlns="http://www.w3.org/2000/svg" xmlns:xlink="http://www.w3.org/1999/xlink">
    <title>负载均衡</title>
    <g id="页面-1" stroke="none" stroke-width="1" fill="none" fill-rule="evenodd">
        <g id="架构-1" transform="translate(-788, -2134)" fill="#E8037D" fill-rule="nonzero">
            <g id="Benefits-of-MinIO-可扩-2" transform="translate(0, 1947)">
                <g id="1备份" transform="translate(664, 159)">
                    <g id="负载均衡" transform="translate(124, 28)">
                        <path d="M23.16,24.473251 L23.16,29 L26.24,27.1893004 C27.296,26.5555556 28,25.3786008 28,24.0205761 L28,22.5720164 L27.12,22.0288066 L23.16,24.473251 L23.16,24.473251 Z M15.24,7.54320989 L13.04,8.81069957 L13.04,10.1687243 L17,12.5226337 L20.96,10.1687243 L20.96,8.81069957 L18.76,7.54320989 C17.704,6.81893004 16.296,6.81893004 15.24,7.54320989 Z M7.76000001,27.1893004 L10.84,29 L10.84,24.473251 L6.88000003,22.1193415 L6,22.6625514 L6,24.1111111 C6,25.3786008 6.70400001,26.5555556 7.76000001,27.1893004 L7.76000001,27.1893004 Z" id="形状"></path>
                        <path d="M20.52,23.622291 C20.52,22.9865841 20.872,22.3508772 21.4,22.0784314 L26.24,19.1723426 C26.504,18.9907121 26.856,18.8998968 27.12,18.8998968 C27.384,18.8998968 27.736,18.9907121 28,19.1723426 L28,14.7223942 C28,13.4509804 27.296,12.2703818 26.24,11.5438597 L23.6,10 L23.6,10.2724458 C23.6,10.9081527 23.248,11.5438597 22.72,11.8163055 L17.88,14.8132095 C17.616,14.9948401 17.264,15.0856553 17,15.0856553 C16.736,15.0856553 16.384,14.9948401 16.12,14.8132095 L11.28,11.9071207 C10.752,11.5438597 10.4,10.998968 10.4,10.3632611 L10.4,10.0908153 L7.76000001,11.6346749 C6.70400001,12.2703818 6,13.4509804 6,14.8132095 L6,19.2631579 C6.264,19.0815273 6.61599999,18.9907121 6.88000003,18.9907121 C7.14400007,18.9907121 7.49600001,19.0815273 7.76000001,19.2631579 L12.6,22.1692467 C13.128,22.5325077 13.48,23.0773994 13.48,23.7131063 L13.48,29.5252838 C13.48,29.7977296 13.392,30.0701755 13.304,30.3426213 L15.24,31.5232198 C16.296,32.1589267 17.704,32.1589267 18.76,31.5232198 L20.696,30.3426213 C20.608,30.0701755 20.52,29.7977296 20.52,29.5252838 L20.52,23.622291 Z" id="路径"></path>
                        <path d="M33.1052632,22.037037 L28.1842105,19.1587302 L28.1842105,22.3068783 L31.3157895,24.1058201 L31.3157895,28.7830688 L27.2894737,31.1216931 L23.2631579,28.7830688 L23.2631579,28.6031746 L20.7578947,30.042328 C20.9368421,30.3121693 21.1157895,30.6719576 21.4736842,30.8518518 L26.3947368,33.7301587 C26.6631579,33.9100529 27.0210526,34 27.2894737,34 C27.5578947,34 27.9157895,33.9100529 28.1842105,33.7301587 L33.1052632,30.8518518 C33.6421053,30.4920635 34,29.952381 34,29.3227513 L34,23.5661376 C34,22.9365079 33.6421053,22.3068783 33.1052632,22.037037 L33.1052632,22.037037 Z M12.9736842,5.2169312 L17,2.87830685 L21.0263158,5.2169312 L21.0263158,8.54497352 L23.7105263,10.0740741 L23.7105263,4.67724866 C23.7105263,4.04761905 23.3526316,3.41798939 22.8157895,3.14814812 L17.8947368,0.26984127 C17.6263158,0.0899470759 17.2684211,0 17,0 C16.7315789,0 16.3736842,0.0899470759 16.1052632,0.26984127 L11.1842105,3.14814812 C10.6473684,3.50793647 10.2894737,4.04761901 10.2894737,4.67724866 L10.2894737,10.0740741 L12.9736842,8.54497352 L12.9736842,5.2169312 Z M10.7368421,28.7830688 L6.71052632,31.1216931 L2.68421053,28.7830688 L2.68421053,24.1058201 L5.81578945,22.3068783 L5.81578945,19.1587302 L0.894736829,22.037037 C0.357894723,22.3968254 0,22.9365079 0,23.5661376 L0,29.3227513 C0,29.9523809 0.357894723,30.5820106 0.894736829,30.8518518 L5.81578945,33.7301587 C6.0842105,33.9100529 6.44210523,34 6.71052632,34 C6.97894742,34 7.3368421,33.9100529 7.60526315,33.7301587 L12.5263158,30.8518518 C12.7947368,30.6719576 13.0631579,30.4021164 13.2421053,30.042328 L10.7368421,28.6031746 L10.7368421,28.7830688 Z" id="形状"></path>
                    </g>
                </g>
            </g>
        </g>
    </g>
</svg>