<?xml version="1.0" encoding="UTF-8"?>
<svg width="31px" height="36px" viewBox="0 0 31 36" version="1.1" xmlns="http://www.w3.org/2000/svg" xmlns:xlink="http://www.w3.org/1999/xlink">
    <title>认证书</title>
    <g id="页面-1" stroke="none" stroke-width="1" fill="none" fill-rule="evenodd">
        <g id="架构-1" transform="translate(-478, -2360)" fill-rule="nonzero">
            <g id="Benefits-of-MinIO-可扩-2" transform="translate(0, 1947)">
                <g id="1备份-4" transform="translate(352, 384)">
                    <g id="认证书" transform="translate(126, 29)">
                        <path d="M4.8,0 L25.6,0 C28.2509668,0 30.4,2.1490332 30.4,4.8 L30.4,30.4 C30.4,33.0509668 28.2509668,35.2 25.6,35.2 L4.8,35.2 C2.1490332,35.2 0,33.0509668 0,30.4 L0,4.8 C0,2.1490332 2.1490332,0 4.8,0 Z" id="路径" fill="#E8037D"></path>
                        <path d="M10,27.2 L20.4,27.2 C21.2,27.2 21.6,27.6 21.6,28.4 L21.6,28.4 C21.6,29.2 21.2,29.6 20.4,29.6 L10,29.6 C9.2,29.6 8.8,29.2 8.8,28.4 L8.8,28.4 C8.8,27.6 9.2,27.2 10,27.2 Z" id="路径" fill="#FFFFFF"></path>
                        <path d="M6.8,21.6 L23.6,21.6 C24.2627417,21.6 24.8,22.1372583 24.8,22.8 C24.8,23.4627417 24.2627417,24 23.6,24 L6.8,24 C6.1372583,24 5.6,23.4627417 5.6,22.8 C5.6,22.1372583 6.1372583,21.6 6.8,21.6 L6.8,21.6 Z M14.6992,17.8688 L12.3608,18.6392 C11.8727757,18.8000338 11.3372015,18.716693 10.9211243,18.4151718 C10.5050472,18.1136505 10.2591021,17.6306428 10.26,17.1168 L10.2648,14.612 C10.2654989,14.2738971 10.159075,13.9442632 9.9608,13.6704 L8.4888,11.6368 C8.18869401,11.2224306 8.10485163,10.6895286 8.26322196,10.2030263 C8.42159229,9.71652407 8.80307433,9.33509842 9.2896,9.1768 L11.652,8.4088 C11.9760301,8.30348894 12.2579822,8.09749013 12.4568,7.8208 L13.9,5.8096 C14.2005313,5.39073555 14.6844745,5.14233791 15.2,5.14233791 C15.7155255,5.14233791 16.1994687,5.39073555 16.5,5.8096 L17.9432,7.8208 C18.1420178,8.09749013 18.4239699,8.30348894 18.748,8.4088 L21.1104,9.1768 C21.5969257,9.33509842 21.9784077,9.71652407 22.136778,10.2030263 C22.2951484,10.6895286 22.211306,11.2224306 21.9112,11.6368 L20.4392,13.6704 C20.240925,13.9442632 20.1345011,14.2738971 20.1352,14.612 L20.14,17.1168 C20.1408979,17.6306428 19.8949528,18.1136505 19.4788757,18.4151718 C19.0627985,18.716693 18.5272243,18.8000338 18.0392,18.6392 L15.7008,17.8688 C15.3755374,17.7616067 15.0244626,17.7616067 14.6992,17.8688 L14.6992,17.8688 Z" id="形状" fill="#FFFFFF"></path>
                    </g>
                </g>
            </g>
        </g>
    </g>
</svg>