<?xml version="1.0" encoding="UTF-8"?>
<svg width="32px" height="32px" viewBox="0 0 32 32" version="1.1" xmlns="http://www.w3.org/2000/svg" xmlns:xlink="http://www.w3.org/1999/xlink">
    <title>钥匙</title>
    <g id="页面-1" stroke="none" stroke-width="1" fill="none" fill-rule="evenodd">
        <g id="架构-1" transform="translate(-1098, -2131)" fill="#E8037D" fill-rule="nonzero">
            <g id="Benefits-of-MinIO-可扩-2" transform="translate(0, 1947)">
                <g id="1备份-2" transform="translate(976, 159)">
                    <g id="钥匙" transform="translate(122, 25)">
                        <path d="M21,10.5 C21,4.7011115 16.3017196,0 10.4981761,0 C4.69463262,0 0,4.6974644 0,10.5 C0,16.2952414 4.69828035,21 10.5018239,21 C16.2980719,20.9963529 21,16.2988885 21,10.5 Z M7.5,11 C5.567908,11 4,9.432092 4,7.5 C4,5.567908 5.567908,4 7.5,4 C9.432092,4 11,5.567908 11,7.5 C11,9.432092 9.432092,11 7.5,11 Z" id="形状"></path>
                        <path d="M30.9529805,23.9841584 L21.6113156,14.2222222 L20.1023314,16.7427943 L20.1268963,16.7427943 L29.0193752,26.1174917 L28.9562084,27.0891089 L27.3454555,27.1524752 L19.0039313,18.3375138 C17.6318085,19.9568757 16,20.8193619 16,20.8193619 L16.1930096,24.7621562 L18.0634481,26.8321232 L23.0922257,26.8321232 L23.0290589,31.6127613 L27.4752983,32 C27.4752983,32 27.9279936,31.5458746 30.7003134,28.8316832 C33.4691239,26.1174917 30.9529805,23.9841584 30.9529805,23.9841584 L30.9529805,23.9841584 Z" id="路径"></path>
                    </g>
                </g>
            </g>
        </g>
    </g>
</svg>