<?xml version="1.0" encoding="UTF-8"?>
<svg width="35px" height="32px" viewBox="0 0 35 32" version="1.1" xmlns="http://www.w3.org/2000/svg" xmlns:xlink="http://www.w3.org/1999/xlink">
    <title>监视</title>
    <g id="页面-1" stroke="none" stroke-width="1" fill="none" fill-rule="evenodd">
        <g id="架构-1" transform="translate(-788, -2364)" fill="#E8037D" fill-rule="nonzero">
            <g id="Benefits-of-MinIO-可扩-2" transform="translate(0, 1947)">
                <g id="1备份-5" transform="translate(664, 384)">
                    <g id="监视" transform="translate(124, 33)">
                        <path d="M26.2857143,28.8571429 L8,28.8571429 C7.14285715,28.8571429 6.57142859,30 6.57142859,30 L6.57142859,31.4285714 L27.7142857,31.4285714 L27.7142857,30.2857143 C27.7142857,29.4285714 27.1428571,28.8571429 26.2857143,28.8571429 L26.2857143,28.8571429 Z M30.2857143,0 L4,0 C1.7142857,0 0,1.7142857 0,3.7142857 L0,21.4285714 C0,23.4285714 1.7142857,25.1428571 4,25.1428571 L13.1428571,25.1428571 L13.1428571,26.2857143 C13.1428571,26.8571428 13.7142857,27.4285714 14.5714286,27.4285714 L19.7142857,27.4285714 C20.5714286,27.4285714 21.1428571,26.8571429 21.1428571,26.2857143 L21.1428571,25.1428571 L30.2857143,25.1428571 C32.5714286,25.1428571 34.2857143,23.4285714 34.2857143,21.4285714 L34.2857143,3.7142857 C34.2857143,1.7142857 32.5714286,0 30.2857143,0 Z M4,20 C3.14285715,20 2.57142859,19.4285714 2.57142859,18.8571429 L2.57142859,3.7142857 C2.57142859,3.14285715 3.14285715,2.57142855 4,2.57142855 L30.2857143,2.57142855 C31.1428571,2.57142855 31.7142857,3.14285711 31.7142857,3.7142857 L31.7142857,18.8571429 C31.7142857,19.4285714 31.1428571,20 30.2857143,20 L4,20 L4,20 Z M30.2857143,24 C29.7142857,24 29.4285714,23.7142857 29.1428571,23.4285714 C28.8571429,23.1428571 28.8571429,22.5714286 29.1428571,22 C29.4285714,21.7142857 29.7142857,21.4285714 30.2857143,21.4285714 C30.8571429,21.4285714 31.1428571,21.7142857 31.4285714,22 C31.7142857,22.2857143 31.7142857,22.8571429 31.4285714,23.4285714 C31.1428571,23.7142857 30.8571429,24 30.2857143,24 Z M26.8571429,5.7142857 L22.2857143,9.7142857 L19.1428571,6.85714285 C19.1428571,6.57142855 18.5714286,6.57142855 18.2857143,6.57142855 C18,6.57142855 17.4285714,6.85714285 17.4285714,7.14285715 L13.4285714,13.7142857 L11.7142857,10 C11.7142857,9.42857145 11.1428571,9.14285715 10.8571429,9.14285715 C10.2857143,9.14285715 10,9.14285715 9.7142857,9.42857141 L5.7142857,13.1428571 C5.14285715,13.7142857 5.14285715,14.5714286 5.7142857,14.8571429 C6.28571429,15.4285714 7.14285715,15.4285714 7.42857145,14.8571429 L10,12.5714286 L12,17.1428571 C12.2857143,17.7142857 12.5714286,18 13.1428571,18 C13.7142857,18 14,17.7142857 14.2857143,17.1428571 L18.5714286,9.7142857 L21.4285714,12.2857143 C22,12.8571428 22.8571429,12.8571428 23.4285714,12.2857143 L28.5714286,7.42857141 C28.8571429,7.14285711 29.1428571,6.57142855 28.8571429,6.28571426 C28.8571429,5.7142857 28.2857143,5.42857141 28,5.42857141 C27.4285714,5.14285711 27.1428571,5.42857141 26.8571429,5.7142857 Z" id="形状"></path>
                    </g>
                </g>
            </g>
        </g>
    </g>
</svg>