<?xml version="1.0" encoding="UTF-8"?>
<svg width="29px" height="35px" viewBox="0 0 29 35" version="1.1" xmlns="http://www.w3.org/2000/svg" xmlns:xlink="http://www.w3.org/1999/xlink">
    <title>24gf-fileText</title>
    <g id="页面-1" stroke="none" stroke-width="1" fill="none" fill-rule="evenodd">
        <g id="架构-1" transform="translate(-1102, -2360)" fill="#E8037D" fill-rule="nonzero">
            <g id="Benefits-of-MinIO-可扩-2" transform="translate(0, 1947)">
                <g id="1备份-6" transform="translate(976, 384)">
                    <g id="24gf-fileText" transform="translate(126, 29)">
                        <path d="M21,6.62774619 C21,6.83333628 21.1666637,7 21.3722538,7 L28,7 C27.9681258,6.96277461 27.9350882,6.92601456 27.8999568,6.89088309 L21.1091169,0.10004322 C21.0739854,0.0649117559 21.0372254,0.0318742547 21,0 L21,6.62774619 Z" id="路径"></path>
                        <path d="M19.3333333,7.55681816 L19.3333333,0 L2.01388888,0 C0.902166352,0.00123292585 0.00124858205,0.890853922 0,1.98863635 L0,33.0113636 C0.00124858205,34.1091461 0.902166352,34.9987671 2.01388888,35 L26.9861111,35 C28.0978336,34.9987671 28.9987514,34.1091461 29,33.0113636 L29,9.54545455 L21.3472222,9.54545455 C20.2354997,9.54422163 19.3345819,8.65460061 19.3333333,7.55681816 L19.3333333,7.55681816 Z M7.25,7.95454545 L13.6944445,7.95454545 C14.1393405,7.95454545 14.5,8.31068258 14.5,8.75 C14.5,9.18931742 14.1393405,9.54545455 13.6944445,9.54545455 L7.25,9.54545455 C6.80510395,9.54545455 6.44444444,9.18931742 6.44444444,8.75 C6.44444444,8.31068258 6.80510395,7.95454545 7.25,7.95454545 L7.25,7.95454545 Z M21.75,27.0454546 L7.25,27.0454546 C6.80510395,27.0454546 6.44444444,26.6893174 6.44444444,26.25 C6.44444444,25.8106826 6.80510395,25.4545454 7.25,25.4545454 L21.75,25.4545454 C22.1948961,25.4545454 22.5555556,25.8106826 22.5555556,26.25 C22.5555556,26.6893174 22.1948961,27.0454546 21.75,27.0454546 L21.75,27.0454546 Z M22.5555555,18.2954545 C22.5555555,18.5064222 22.4706848,18.7087492 22.3196138,18.8579259 C22.1685428,19.0071025 21.9636466,19.0909091 21.75,19.0909091 L7.25,19.0909091 C6.80510395,19.0909091 6.44444444,18.734772 6.44444444,18.2954546 C6.44444444,17.8561371 6.80510395,17.5 7.25,17.5 L21.75,17.5 C21.9636466,17.5 22.1685428,17.5838066 22.3196138,17.7329832 C22.4706848,17.8821599 22.5555555,18.0844869 22.5555555,18.2954545 Z" id="形状"></path>
                    </g>
                </g>
            </g>
        </g>
    </g>
</svg>