<?xml version="1.0" encoding="UTF-8"?>
<svg width="49px" height="54px" viewBox="0 0 49 54" version="1.1" xmlns="http://www.w3.org/2000/svg" xmlns:xlink="http://www.w3.org/1999/xlink">
    <title>icons-iicon</title>
    <g id="页面-1" stroke="none" stroke-width="1" fill="none" fill-rule="evenodd">
        <g id="架构-3" transform="translate(-357, -3498)" fill="#0091FF" fill-rule="nonzero">
            <g id="编组-2" transform="translate(0, 2898)">
                <g id="icons-iicon" transform="translate(357, 600)">
                    <path d="M44.5,54 L4.5,54 C2,54 0,51.9906977 0,49.4790698 L0,4.26976742 C0,1.7581395 2,0 4.5,0 L44.5,0 C47,0 49,2.00930231 49,4.52093023 L49,49.7302326 C49,51.9906977 47,54 44.5,54 Z M4.49999996,3.76744186 C4.24999998,3.76744186 3.99999996,4.01860467 3.99999996,4.26976742 L3.99999996,49.4790698 C3.99999996,49.7302326 4.24999998,49.9813953 4.49999996,49.9813953 L44.5,49.9813953 C44.75,49.9813953 45,49.7302325 45,49.4790698 L45,4.26976742 C45,4.01860461 44.75,3.76744186 44.5,3.76744186 L4.49999996,3.76744186 Z" id="形状"></path>
                    <path d="M13.980198,37 L35.019802,37 C36.009901,37 37,37.8 37,38.8666666 C37,39.9333333 36.2574257,41 35.019802,41 L13.980198,41 C12.990099,41 12,40.2 12,38.8666666 C12,37.7999999 12.7425743,37 13.980198,37 Z" id="路径"></path>
                    <path d="M29.2146959,32 L28.4663253,31.744186 L23.9761018,29.1860465 L19.4858783,31.744186 C18.4880509,32.2558139 16.9913097,32 16.492396,30.7209302 L16.2429391,30.2093023 L16.2429391,29.4418604 L16.9913097,24.3255814 L13,19.9767442 L13,18.1860465 L13.9978274,17.1627907 L14.746198,16.9069767 L19.7353352,16.1395349 L22.2299038,10.7674419 L23.9761018,10 L25.472843,10.7674419 L25.9717567,11.5348837 L28.2168684,16.1395349 L33.2060057,16.9069767 C34.4532899,17.1627907 35.2016605,18.1860465 34.9522036,19.4651163 L34.9522036,19.9767442 L34.4532899,20.4883721 L30.711437,24.0697674 L31.7092645,29.9534883 L31.2103507,30.7209302 C30.9608939,31.2325581 30.4619802,31.4883721 29.7136096,31.4883721 L29.2146959,32 L29.2146959,32 Z M18.4880509,20.2325581 L21.2320764,22.7906977 L21.2320764,24.0697674 L20.7331626,26.883721 L23.9761018,25.0930233 L25.2233861,25.6046512 L27.7179547,26.883721 L27.219041,23.0465116 L27.9674116,22.0232558 L29.9630665,19.9767442 L26.2212136,19.4651163 L25.7222999,18.4418604 L24.4750155,15.883721 L22.2299038,19.4651163 L20.9826195,19.7209303 L18.4880509,20.2325581 Z" id="形状"></path>
                </g>
            </g>
        </g>
    </g>
</svg>