<?xml version="1.0" encoding="UTF-8"?>
<svg width="52px" height="52px" viewBox="0 0 52 52" version="1.1" xmlns="http://www.w3.org/2000/svg" xmlns:xlink="http://www.w3.org/1999/xlink">
    <title>其他</title>
    <g id="页面-1" stroke="none" stroke-width="1" fill="none" fill-rule="evenodd">
        <g id="架构-3" transform="translate(-1015, -3504)" fill="#0091FF" fill-rule="nonzero">
            <g id="编组-2" transform="translate(0, 2898)">
                <g id="其他" transform="translate(1015, 606)">
                    <path d="M19.6893204,24.2330097 L4.54368932,24.2330097 C2.01941745,24.2330097 0,22.2135922 0,19.6893204 L0,4.54368932 C0,2.01941745 2.01941745,0 4.54368932,0 L19.6893204,0 C22.2135922,0 24.2330097,2.01941745 24.2330097,4.54368932 L24.2330097,19.6893204 C23.9805825,22.2135922 22.2135922,24.2330097 19.6893204,24.2330097 Z M4.54368932,4.03883497 C4.29126211,4.03883497 4.03883497,4.29126217 4.03883497,4.54368932 L4.03883497,19.6893204 C4.03883497,19.9417476 4.29126217,20.1941748 4.54368932,20.1941748 L19.6893204,20.1941748 C19.9417476,20.1941748 20.1941748,19.9417476 20.1941748,19.6893204 L20.1941748,4.54368932 C20.1941748,4.29126211 19.9417476,4.03883497 19.6893204,4.03883497 L4.54368932,4.03883497 Z M19.6893204,52 L4.54368932,52 C2.01941745,52 0,49.9805825 0,47.4563107 L0,32.3106796 C0,29.7864078 2.01941745,27.7669903 4.54368932,27.7669903 L19.6893204,27.7669903 C22.2135922,27.7669903 24.2330097,29.7864078 24.2330097,32.3106796 L24.2330097,47.4563107 C23.9805825,49.9805825 22.2135922,52 19.6893204,52 Z M4.54368932,31.8058252 C4.29126211,31.8058252 4.03883497,32.0582524 4.03883497,32.3106796 L4.03883497,47.4563107 C4.03883497,47.7087379 4.29126217,47.961165 4.54368932,47.961165 L19.6893204,47.961165 C19.9417476,47.961165 20.1941748,47.7087378 20.1941748,47.4563107 L20.1941748,32.3106796 C20.1941748,32.0582524 19.9417476,31.8058252 19.6893204,31.8058252 L4.54368932,31.8058252 Z M47.4563107,24.2330097 L32.3106796,24.2330097 C29.7864078,24.2330097 27.7669903,22.2135922 27.7669903,19.6893204 L27.7669903,4.54368932 C27.7669903,2.01941745 29.7864078,0 32.3106796,0 L47.4563107,0 C49.9805825,0 52,2.01941745 52,4.54368932 L52,19.6893204 C51.7475728,22.2135922 49.9805825,24.2330097 47.4563107,24.2330097 Z M32.3106796,4.03883497 C32.0582524,4.03883497 31.8058252,4.29126217 31.8058252,4.54368932 L31.8058252,19.6893204 C31.8058252,19.9417476 32.0582524,20.1941748 32.3106796,20.1941748 L47.4563107,20.1941748 C47.7087379,20.1941748 47.961165,19.9417476 47.961165,19.6893204 L47.961165,4.54368932 C47.961165,4.29126211 47.7087378,4.03883497 47.4563107,4.03883497 L32.3106796,4.03883497 Z M39.8834952,52 C33.3203884,52 27.7669903,46.6990291 27.7669903,39.8834952 C27.7669903,33.0679612 33.0679612,28.0194175 39.8834952,28.0194175 C46.6990291,28.0194175 52,33.3203883 52,39.8834952 C52,46.446602 46.4466019,52 39.8834952,52 L39.8834952,52 Z M39.8834952,31.8058252 C35.3398058,31.8058252 31.8058252,35.592233 31.8058252,39.8834952 C31.8058252,44.1747573 35.592233,47.961165 39.8834952,47.961165 C44.1747573,47.961165 47.961165,44.1747573 47.961165,39.8834952 C47.961165,35.592233 44.4271845,31.8058252 39.8834952,31.8058252 Z" id="形状"></path>
                </g>
            </g>
        </g>
    </g>
</svg>