<?xml version="1.0" encoding="UTF-8"?>
<svg width="32px" height="35px" viewBox="0 0 32 35" version="1.1" xmlns="http://www.w3.org/2000/svg" xmlns:xlink="http://www.w3.org/1999/xlink">
    <title>企业管理_员工管理</title>
    <g id="页面-1" stroke="none" stroke-width="1" fill="none" fill-rule="evenodd">
        <g id="架构-1" transform="translate(-1413, -2132)" fill="#E8037D" fill-rule="nonzero">
            <g id="Benefits-of-MinIO-可扩-2" transform="translate(0, 1947)">
                <g id="1备份-3" transform="translate(1288, 159)">
                    <g id="企业管理_员工管理" transform="translate(125, 26)">
                        <path d="M15.875,15.2382812 C20.0820312,15.2382812 23.4921875,11.828125 23.4921875,7.62109375 C23.4921875,3.4140625 20.0820312,0.00390625 15.875,0 C11.6679688,0 8.2578125,3.41015625 8.25390625,7.6171875 L8.25390625,7.62109375 C8.2578125,11.828125 11.6679687,15.2382812 15.875,15.2382812 Z M3.0234375,20.3671875 C1.51953125,24.171875 0,34.9609375 0,34.9609375 L12.9414062,34.9609375 L9.05078125,17.140625 C6.70703125,17.140625 4.52734375,16.5625 3.0234375,20.3671875 Z M15.875,17.140625 L12.203125,22.2695312 L15.09375,34.9609375 L16.65625,34.9609375 L19.546875,22.2695312 L15.875,17.140625 Z M28.7265625,20.3671875 C27.2226562,16.5625 25.0429688,17.140625 22.6992188,17.140625 L18.8085938,34.9609375 L31.75,34.9609375 C31.75,34.9609375 30.2304687,24.171875 28.7265625,20.3671875 Z M27.4804688,26.9570312 L22.9414062,26.9570312 L22.9414062,25.9453125 L27.4804688,25.9453125 L27.4804688,26.9570312 Z" id="形状"></path>
                    </g>
                </g>
            </g>
        </g>
    </g>
</svg>