<?xml version="1.0" encoding="UTF-8"?>
<svg width="34px" height="32px" viewBox="0 0 34 32" version="1.1" xmlns="http://www.w3.org/2000/svg" xmlns:xlink="http://www.w3.org/1999/xlink">
    <title>储存_lm</title>
    <g id="页面-1" stroke="none" stroke-width="1" fill="none" fill-rule="evenodd">
        <g id="架构-1" transform="translate(-476, -2137)" fill="#E8037D" fill-rule="nonzero">
            <g id="Benefits-of-MinIO-可扩-2" transform="translate(0, 1947)">
                <g id="1" transform="translate(352, 159)">
                    <g id="储存_lm" transform="translate(124, 31)">
                        <path d="M27.5116191,20.9999875 C30.5106164,20.9936762 32.9618436,23.3910714 33.022106,26.3894699 C33.0823685,29.3878683 30.7294486,31.8818183 27.7326191,31.996 L27.5116191,32.0000125 L5.5116191,32.0000125 C2.51262181,32.0063238 0.061394601,29.6089285 0.0011321327,26.6105301 C-0.0591303356,23.6121317 2.29378954,21.1181816 5.29061908,21.004 L5.5116191,20.9999875 L27.5116191,20.9999875 Z M27.5116191,23.9999925 L5.5116191,23.9999925 C4.16048688,23.9967126 3.05122069,25.0675462 3.00688295,26.4179547 C2.96254521,27.7683633 3.99918112,28.9096528 5.34761908,28.995 L5.5116191,29.0000075 L27.5116191,29.0000075 C28.8627513,29.0032873 29.9720175,27.9324538 30.0163552,26.5820453 C30.060693,25.2316367 29.0240571,24.0903472 27.6756191,24.005 L27.5116191,23.9999925 Z M27.5116191,8.99998752 C30.5106164,8.99367621 32.9618436,11.3910714 33.022106,14.3894699 C33.0823685,17.3878683 30.7294486,19.8818183 27.7326191,19.996 L27.5116191,20.0000125 L5.5116191,20.0000125 C2.51262181,20.0063238 0.061394601,17.6089285 0.0011321327,14.6105301 C-0.0591303356,11.6121317 2.29378954,9.11818163 5.29061908,9.00399998 L5.5116191,8.99998752 L27.5116191,8.99998752 Z M27.5116191,11.9999925 L5.5116191,11.9999925 C4.16048688,11.9967126 3.05122069,13.0675462 3.00688295,14.4179547 C2.96254521,15.7683633 3.99918112,16.9096528 5.34761908,16.995 L5.5116191,17.0000075 L27.5116191,17.0000075 C28.8627513,17.0032873 29.9720175,15.9324538 30.0163552,14.5820453 C30.060693,13.2316367 29.0240571,12.0903472 27.6756191,12.005 L27.5116191,11.9999925 Z" id="形状"></path>
                        <path d="M24.1056191,0 C25.5826191,0 26.9406191,0.888 27.6356191,2.31 L31.7776191,10.785 C31.9716191,11.182 32.0406191,11.601 32.0076191,12 L1.01061907,12 C0.97861905,11.6 1.04761905,11.182 1.24061908,10.785 L5.38361908,2.31099998 C6.0786191,0.888 7.43561908,0 8.9136191,0 L24.1056191,0 Z M24.1056191,3 L8.91261907,3 C8.64161908,3 8.35261905,3.16899998 8.15061907,3.49699997 L8.07861907,3.627 L5.4516191,9 L27.5656191,9 L24.9396191,3.62799998 C24.7596191,3.25999997 24.4816191,3.04999997 24.2076191,3.00799997 L24.1056191,3 Z" id="形状"></path>
                        <path d="M6.01161908,14 L10.0116191,14 C10.6782858,14 11.0116191,14.3333333 11.0116191,15 L11.0116191,15 C11.0116191,15.6666667 10.6782858,16 10.0116191,16 L6.01161908,16 C5.34495241,16 5.01161908,15.6666667 5.01161908,15 L5.01161908,15 C5.01161908,14.3333333 5.34495241,14 6.01161908,14 Z" id="路径"></path>
                        <path d="M6.01161908,26 L10.0116191,26 C10.6782858,26 11.0116191,26.3333333 11.0116191,27 L11.0116191,27 C11.0116191,27.6666667 10.6782858,28 10.0116191,28 L6.01161908,28 C5.34495241,28 5.01161908,27.6666667 5.01161908,27 L5.01161908,27 C5.01161908,26.3333333 5.34495241,26 6.01161908,26 Z" id="路径"></path>
                    </g>
                </g>
            </g>
        </g>
    </g>
</svg>