<?xml version="1.0" encoding="UTF-8"?>
<svg width="51px" height="48px" viewBox="0 0 51 48" version="1.1" xmlns="http://www.w3.org/2000/svg" xmlns:xlink="http://www.w3.org/1999/xlink">
    <title>公有云 (6)</title>
    <g id="页面-1" stroke="none" stroke-width="1" fill="none" fill-rule="evenodd">
        <g id="产品-金融量化" transform="translate(-374, -638)" fill="#C52E86" fill-rule="nonzero">
            <g id="编组-2" transform="translate(374.7778, 637)">
                <g id="公有云-(6)" transform="translate(0, 1)">
                    <path d="M36.4444445,44.4444444 L31.0222222,44.4444444 L31.0222222,39.2 C31.0222222,38.2222222 30.2222222,37.4222222 29.2444445,37.4222222 C28.2666667,37.4222222 27.4666667,38.2222222 27.4666667,39.2 L27.4666667,44.4444444 L22.0444445,44.4444444 C21.0666667,44.4444444 20.2666667,45.2444444 20.2666667,46.2222222 C20.2666667,47.2000001 21.0666667,48 22.0444445,48 L36.4444445,48 C37.4222222,48 38.2222222,47.2 38.2222222,46.2222222 C38.2222222,45.2444445 37.4222222,44.4444445 36.4444445,44.4444444 Z" id="路径"></path>
                    <path d="M17.1555556,34.7555556 L17.1555556,37.9555556 C16.4444445,37.9555556 15.8222222,38.5777778 15.8222222,39.2888889 C15.8222222,40 16.4444445,40.6222222 17.1555556,40.6222222 L44.9777778,40.6222222 C47.5555556,40.6222222 49.6888889,38.4888889 49.6888889,35.9111111 L49.6888889,34.8444444 L17.1555556,34.8444444 L17.1555556,34.7555556 Z" id="路径"></path>
                    <path d="M15.5820353,48 L3.77362411,48 C1.82035307,48 0.222222227,46.3970315 0.222222227,44.4378479 L0.222222227,3.56215215 C0.222222227,1.60296846 1.82035307,0 3.77362411,0 L15.6708203,0 C17.6240914,0 19.2222222,1.60296846 19.2222222,3.56215215 L19.2222222,44.5269017 C19.1334372,46.4860854 17.5353063,48 15.5820353,48 Z M3.22222223,3 L3.22222223,44 L15.2222222,44 L15.2222222,3 L3.22222223,3 Z" id="形状"></path>
                    <path d="M17.1555556,37.6 L1.77777781,37.6 C0.800000052,37.6 0,36.8 0,35.8222222 C0,34.8444445 0.8,34.0444444 1.77777781,34.0444444 L17.1555556,34.0444444 C18.1333333,34.0444444 18.9333333,34.8444444 18.9333333,35.8222222 C18.9333333,36.8000001 18.1333333,37.6 17.1555556,37.6 Z" id="路径"></path>
                    <path d="M7.46666667,40.8888889 C7.46666667,42.0180044 8.38199563,42.9333334 9.51111112,42.9333334 C10.6402266,42.9333334 11.5555556,42.0180044 11.5555556,40.8888889 C11.5555556,39.7597734 10.6402266,38.8444445 9.51111112,38.8444445 C8.38199563,38.8444445 7.46666667,39.7597734 7.46666667,40.8888889 L7.46666667,40.8888889 Z" id="路径"></path>
                    <path d="M45.5049447,7 L17.5573008,7 C16.8452589,7 16.2222222,7.61992622 16.2222222,8.32841328 C16.2222222,9.03690035 16.8452589,9.65682657 17.5573008,9.65682657 L17.5573008,31 L50.2222222,31 L50.2222222,11.6937269 C50.2222222,9.12546125 48.0860966,7 45.5049447,7 Z M42.7095015,26.731484 C42.4421719,26.9104947 42.0857324,27 41.7292929,27 C41.1946337,27 40.6599745,26.731484 40.3926448,26.2839574 C39.8579856,25.5679148 40.0362053,24.4938509 40.8381942,23.9568189 C41.7292929,23.3302816 42.1748423,22.1667124 41.8184028,21.0926485 C41.4619633,19.9290793 40.2144251,19.571058 39.3233264,19.5710579 L38.2540079,19.5710579 C37.452019,19.5710579 36.8282499,19.034026 36.6500301,18.3179834 C36.1153709,16.2593609 34.4222833,14.7377704 32.2836463,14.4692544 C30.2341192,14.2007384 28.1845921,15.3643077 27.2043835,17.1544142 C26.2241749,18.9445206 26.4915046,21.3611644 27.9172625,22.882755 C28.5410316,23.5987976 28.4519217,24.6728615 27.7390428,25.2993988 C27.0261638,25.9259361 25.9568453,25.8364308 25.3330762,25.1203882 C23.0162195,22.5247337 22.5706701,18.6760047 24.1746478,15.5433183 C25.7786255,12.4106319 29.1648007,10.6205254 32.6400858,11.068052 C35.6698216,11.4260734 38.2540079,13.3951905 39.4124362,16.0803502 C42.0857324,16.0803502 44.2243694,17.6914461 45.0263582,20.0185846 C45.6501274,22.5247337 44.7590286,25.2098935 42.7095015,26.731484 L42.7095015,26.731484 Z" id="形状"></path>
                </g>
            </g>
        </g>
    </g>
</svg>