<?xml version="1.0" encoding="UTF-8"?>
<svg width="24px" height="24px" viewBox="0 0 24 24" version="1.1" xmlns="http://www.w3.org/2000/svg" xmlns:xlink="http://www.w3.org/1999/xlink">
    <title>编组 4</title>
    <defs>
        <linearGradient x1="0.147466059%" y1="49.8525339%" x2="99.8525339%" y2="49.8525339%" id="linearGradient-1">
            <stop stop-color="#F6178E" offset="0%"></stop>
            <stop stop-color="#1637B7" offset="100%"></stop>
        </linearGradient>
    </defs>
    <g id="页面-1" stroke="none" stroke-width="1" fill="none" fill-rule="evenodd">
        <g id="产品-金融量化" transform="translate(-662, -1252)">
            <g id="编组-3" transform="translate(0, 1099)">
                <g id="编组-4" transform="translate(662, 153)">
                    <circle id="椭圆形" fill="url(#linearGradient-1)" cx="12" cy="12" r="12"></circle>
                    <path d="M9.64416065,16.4602022 C9.3910072,16.4523453 9.15076144,16.3466372 8.97393754,16.1653041 L4.97270552,12.1841787 C4.5922389,11.7895587 4.5922389,11.1646281 4.97270552,10.770008 C5.15891498,10.5825532 5.4122178,10.4771368 5.67643979,10.4771368 C5.94066179,10.4771368 6.19396461,10.5825532 6.38017407,10.770008 L9.64416065,14.0541012 L17.9817363,6.75537149 C18.1658891,6.56663029 18.4184236,6.46020223 18.6821194,6.46020223 C18.9458153,6.46020223 19.1983497,6.56663029 19.3825026,6.75537149 C19.5699573,6.94158095 19.6753737,7.19488377 19.6753737,7.45910577 C19.6753737,7.72332776 19.5699573,7.97663058 19.3825026,8.16284004 L10.3478949,16.1653041 C10.1615984,16.3528782 9.90852561,16.4589277 9.64416065,16.4602022 Z" id="路径" fill="#FFFFFF" fill-rule="nonzero"></path>
                </g>
            </g>
        </g>
    </g>
</svg>