<?xml version="1.0" encoding="UTF-8"?>
<svg width="47px" height="49px" viewBox="0 0 47 49" version="1.1" xmlns="http://www.w3.org/2000/svg" xmlns:xlink="http://www.w3.org/1999/xlink">
    <title>权限设置</title>
    <g id="页面-1" stroke="none" stroke-width="1" fill="none" fill-rule="evenodd">
        <g id="产品-金融量化" transform="translate(-381, -922)" fill="#3CBA77" fill-rule="nonzero">
            <g id="权限设置" transform="translate(381, 922)">
                <path d="M47,39.0433048 L47,34.9566952 L44.1669516,34.9566952 C43.9639957,34.1542569 43.6451649,33.3856845 43.2205128,32.6752137 L45.2262108,30.6632479 L42.3367521,27.780057 L40.3310541,29.785755 C39.6226217,29.3526743 38.8537159,29.027368 38.0495726,28.8205128 L38.0495726,26 L33.9566952,26 L33.9566952,28.8205128 C33.1530441,29.0228238 32.3840821,29.3439288 31.6752137,29.7732194 L29.6695157,27.7675214 L26.7675214,30.6632479 L28.7732194,32.6689459 C28.3450131,33.3805986 28.023997,34.1514595 27.8205128,34.9566952 L25,34.9566952 L25,39.0433048 L27.8330484,39.0433048 C28.0341951,39.8572149 28.3552766,40.6366825 28.785755,41.3561254 L26.7675214,43.3304843 L29.6569801,46.219943 L31.6626781,44.2205128 C32.3731489,44.6451649 33.1417213,44.9639957 33.9441595,45.1669516 L33.9441595,48 L38.0495726,48 L38.0495726,45.1669516 C38.8540102,44.9640617 39.6246602,44.6452448 40.3373219,44.2205128 L42.3430199,46.219943 L45.2324786,43.3304843 L43.2205128,41.3561254 C43.6467796,40.6442344 43.9656924,39.8733524 44.1669516,39.0683761 L47,39.0433048 Z M41.2461576,37 C41.2486896,39.1224397 39.9721143,41.0373006 38.011963,41.8512807 C36.0518117,42.6652609 33.7943201,42.2179707 32.2926308,40.7180754 C30.7909414,39.2181802 30.3409528,36.9612249 31.1525891,35.000102 C31.9642254,33.0389791 33.8775588,31.760114 36,31.760114 C38.8920736,31.7669896 41.2358208,34.1079367 41.2461576,37 L41.2461576,37 Z" id="形状"></path>
                <path d="M26.3005849,44.0198779 C26.0276051,43.7542644 25.8750589,43.3908225 25.8776859,43.0123194 C25.8778468,42.6343601 26.0299645,42.2719391 26.3005849,42.004761 L27.5444054,40.7760311 C27.4635571,40.5978652 27.3889278,40.4135558 27.3142986,40.2292463 L25.5542926,40.2292463 C25.1716298,40.2292463 24.8046399,40.0790784 24.5340564,39.8117778 C24.263473,39.5444772 24.1114608,39.1819398 24.1114608,38.8039196 L24.1114608,34.8044039 C24.1114608,34.0172177 24.7574386,33.3790773 25.5542926,33.3790773 L27.3080795,33.3790773 C27.3764896,33.1947678 27.4511189,33.0104583 27.5381863,32.8322925 L26.2943658,31.6035626 C26.021386,31.3379491 25.8688398,30.9745071 25.8714668,30.5960041 C25.8716277,30.2180448 26.0237454,29.8556237 26.2943658,29.5884456 L29.1738103,26.7623669 C29.4390936,26.4897101 29.8047071,26.3346031 30.187524,26.3323114 C30.5701252,26.3324704 30.9369974,26.4827425 31.2074568,26.7500796 L32.4512774,27.9788095 L32.9985584,27.7514944 L32.9985584,26.025129 C32.9985584,25.2379428 33.6445362,24.5998023 34.4413902,24.5998023 L38.5024642,24.5998023 C38.6724456,24.6019476 38.8407702,24.6331256 39,24.6919571 L39,10.7827349 C39.0013788,10.0092507 38.435344,9.34865294 37.6628853,9.22224797 C34.4973621,8.71232507 26.4685007,6.88766122 21.3750556,0.971326882 C20.8640973,0.367913637 20.1128732,0.0136899627 19.3166245,0.000348701673 C18.5203758,-0.0122544761 17.7577363,0.317305834 17.2269142,0.90374674 C13.0730241,5.4096741 7.46217603,8.34830021 1.35576437,9.21610432 C0.577248242,9.33679486 0.00268973492,9.99811261 0,10.7765913 L0,31.8615959 C0,31.8615959 4.72651798,44.5420881 17.6871278,48.7566316 C18.8050179,49.1120019 20.0125469,49.0773 21.1076342,48.6583332 C23.3958614,47.7892004 25.5796341,46.6724433 27.6190346,45.3284753 L26.3005849,44.0198779 Z M21.9472131,25.5889299 L21.9472131,34.4849341 L17.0589984,34.4849341 L17.0589984,25.6073608 C15.2632158,24.5276886 14.4142614,22.3993101 14.9818012,20.3997055 C15.5493411,18.400101 17.394665,17.0179857 19.4968867,17.0179857 C21.5991083,17.0179857 23.4444322,18.400101 24.0119721,20.3997055 C24.5795119,22.3993101 23.7305575,24.5276886 21.9347749,25.6073608 L21.9472131,25.5889299 Z" id="形状"></path>
                <path d="M36.4408587,33.0006959 C34.9858554,32.9690403 33.6769602,34.0200959 33.1926871,35.6090093 C32.7084141,37.1979227 33.1576807,38.9673325 34.3075931,40 C35.7801464,38.0104787 37.0214892,35.8063814 38,33.4438548 C37.5186072,33.1531775 36.9837829,33.0011629 36.4408587,33.0006959 L36.4408587,33.0006959 Z" id="路径"></path>
            </g>
        </g>
    </g>
</svg>