<?xml version="1.0" encoding="UTF-8"?>
<svg width="59px" height="40px" viewBox="0 0 59 40" version="1.1" xmlns="http://www.w3.org/2000/svg" xmlns:xlink="http://www.w3.org/1999/xlink">
    <title>形状结合</title>
    <g id="页面-1" stroke="none" stroke-width="1" fill="none" fill-rule="evenodd">
        <g id="产品-金融量化" transform="translate(-1001, -798)" fill="#AD41D1" fill-rule="nonzero">
            <g id="形状结合" transform="translate(1001, 798)">
                <path d="M55.5297297,36.0583784 C53.6940541,38.1081081 51.2540541,39.2378379 48.6562162,39.2378379 L9.72216215,39.2378379 C7.1243243,39.2378379 4.6843243,38.1081081 2.84864863,36.0594595 C1.01189187,34.0086486 0,31.2756757 0,28.3762162 C0,25.9243243 0.713513516,23.6194595 2.05621621,21.6940541 C3.36648648,19.8281081 5.20972973,18.4702703 7.24216215,17.867027 L10.2162162,16.9989189 L11.307027,13.7935135 C11.9710138,11.8181975 12.9142691,9.94806919 14.1081081,8.24 C15.255393,6.58850194 16.640864,5.11596081 18.2194595,3.87027027 C21.4443243,1.33945945 25.2432432,0 29.2043243,0 C33.1675676,0 36.9654054,1.34054055 40.1902703,3.87027027 C41.7687413,5.11651305 43.1541857,6.58939022 44.3016216,8.24108109 C45.4937355,9.95018045 46.4368621,11.8200535 47.1027027,13.7945946 L48.1859459,16.9913514 L51.1513514,17.867027 C55.412973,19.1372973 58.3783784,23.4551351 58.3783784,28.3783784 C58.3783784,31.2778378 57.3664865,34.0108108 55.5297297,36.0594595 L55.5297297,36.0583784 Z M37.6789189,34.787027 C38.3476194,35.1728441 39.1712995,35.1728441 39.84,34.787027 L43.8983784,32.4454054 C44.5673367,32.0591821 44.9794597,31.3454195 44.9794597,30.572973 L44.9794597,25.8918919 C44.9798262,25.1190591 44.5676713,24.4047947 43.8983784,24.0183784 L39.84,21.6778379 C39.1712995,21.2920207 38.3476194,21.2920207 37.6789189,21.6778379 L33.6216216,24.0183784 C32.9523287,24.4047947 32.5401738,25.1190591 32.5405403,25.8918919 L32.5405403,30.572973 C32.5405403,31.3454195 32.9526633,32.0591821 33.6216216,32.4454054 L37.68,34.787027 L37.6789189,34.787027 Z M38.2259459,23.5037838 C38.8589018,23.1685866 39.6167739,23.1685866 40.2497297,23.5037838 L43.067027,24.9956757 C43.2478447,25.0915503 43.3590079,25.2813246 43.3542017,25.4859313 C43.3493955,25.6905379 43.2294442,25.8748833 43.0443243,25.9621621 L40.1578379,27.32 C39.5751047,27.5939937 38.900571,27.5939937 38.3178379,27.32 L35.4313514,25.9621621 C35.2463427,25.8746712 35.1266089,25.6901989 35.1220317,25.485597 C35.1174544,25.2809951 35.2288187,25.0913527 35.4097297,24.9956757 L38.2259459,23.5037838 L38.2259459,23.5037838 Z M24.0745946,13.1264865 C23.3913494,13.5089974 22.9683072,14.2310225 22.9686484,15.0140541 L22.9686484,19.4389189 C22.9686484,20.2221774 23.3920134,20.9442563 24.0756757,21.3264865 L28.1340541,23.5967568 C28.7897187,23.9633337 29.5886597,23.9633337 30.2443243,23.5967568 L34.3027027,21.3264865 C34.9863649,20.9442563 35.4097298,20.2221774 35.4097298,19.4389189 L35.4097298,15.0140541 C35.4097298,14.2307955 34.9863649,13.5087166 34.3027027,13.1264865 L30.2443243,10.8562162 C29.5886597,10.4896393 28.7897187,10.4896393 28.1340541,10.8562162 L24.0756757,13.1264865 L24.0745946,13.1264865 Z M33.4962162,14.4681081 C33.6777291,14.5635784 33.7895786,14.7535489 33.7849968,14.9585867 C33.7804149,15.1636245 33.660191,15.348409 33.4745946,15.4356757 L30.5881081,16.7935135 C30.0050724,17.0678462 29.3300627,17.0678462 28.747027,16.7935135 L25.8605405,15.4356757 C25.6749441,15.348409 25.5547202,15.1636245 25.5501384,14.9585867 C25.5455565,14.7535489 25.657406,14.5635784 25.8389189,14.4681081 L28.6562162,12.9762162 C29.2888842,12.6414005 30.0462509,12.6414005 30.6789189,12.9762162 L33.4962162,14.4681081 L33.4962162,14.4681081 Z M18.5383784,34.787027 C19.2070789,35.1728441 20.0307589,35.1728441 20.6994595,34.787027 L24.7578379,32.4454054 C25.4267961,32.0591821 25.8389192,31.3454195 25.8389192,30.572973 L25.8389192,25.8918919 C25.8392856,25.1190592 25.4271307,24.4047947 24.7578379,24.0183784 L20.6994595,21.6778379 C20.0307589,21.2920207 19.2070789,21.2920207 18.5383784,21.6778379 L14.48,24.0183784 C13.8107071,24.4047947 13.3985522,25.1190591 13.3989187,25.8918919 L13.3989187,30.572973 C13.3989187,31.3454195 13.8110417,32.0591821 14.48,32.4454054 L18.5383784,34.787027 L18.5383784,34.787027 Z M18.0464865,23.3232432 C18.7220239,22.9269433 19.5590572,22.9269433 20.2345946,23.3232432 L23.0832432,24.9945946 C23.2530109,25.0940477 23.3553314,25.2778919 23.350386,25.4745833 C23.3454406,25.6712748 23.2340106,25.8497447 23.0594595,25.9405405 L19.3902703,27.8540541 C19.2337648,27.935582 19.0473163,27.935582 18.8908108,27.8540541 L15.2216216,25.9405405 C15.0470705,25.8497447 14.9356405,25.6712748 14.9306951,25.4745833 C14.9257497,25.2778919 15.0280701,25.0940477 15.1978379,24.9945946 L18.0464865,23.3232432 L18.0464865,23.3232432 Z" id="形状"></path>
            </g>
        </g>
    </g>
</svg>