<?xml version="1.0" encoding="UTF-8"?>
<svg width="41px" height="44px" viewBox="0 0 41 44" version="1.1" xmlns="http://www.w3.org/2000/svg" xmlns:xlink="http://www.w3.org/1999/xlink">
    <title>开发任务</title>
    <g id="页面-1" stroke="none" stroke-width="1" fill="none" fill-rule="evenodd">
        <g id="产品-金融量化" transform="translate(-381, -796)" fill="#6B59CF" fill-rule="nonzero">
            <g id="编组-2备份-2" transform="translate(381, 791)">
                <g id="开发任务" transform="translate(0, 5)">
                    <path d="M29.5519805,21.1010621 L19.2764279,32.3873176 C18.9210799,32.777268 18.4191468,32.9995399 17.8928718,33 L17.8800314,33 C17.3500767,32.9967222 16.8462624,32.7682762 16.4932651,32.3711943 L11.4758679,26.7280666 C11.0303124,26.2269229 10.8847539,25.5250696 11.0940228,24.886888 C11.3032917,24.2487064 11.8355951,23.7711515 12.4904194,23.6341136 C13.1452437,23.4970757 13.8231056,23.7213742 14.268661,24.2225179 L17.9121324,28.311367 L26.7912884,18.5600423 C27.4993297,17.8397232 28.6475801,17.810548 29.3909678,18.4939885 C30.1343555,19.1774291 30.2068909,20.3289454 29.5551906,21.1010621 M37.2651757,2 L33.5463259,2 C33.5399361,2 33.5463259,3.22720896 33.5463259,3.9308088 L33.5463259,7.71061245 C33.5516368,9.82143564 31.8881819,11.5385044 29.827476,11.5493221 L11.1725239,11.5493221 C9.11181812,11.5385043 7.44836315,9.82143562 7.45367413,7.71061245 L7.45367413,3.9308088 L7.44728434,2.00327256 L3.70926517,2.00327256 C1.66453672,2.00327256 0.00319489442,3.70500236 0,5.80598411 L0,40.1972885 C0,42.2917251 1.66134187,44 3.71246006,44 L37.2907348,44 C39.3386581,43.9967274 40.9968051,42.2982702 41,40.1972885 L41,5.80271155 C41,3.70827488 39.3226837,2.00327256 37.2651757,2.00327256 M29.6500085,1.33163052 C29.2044438,0.512144596 28.3768492,0.004578182 27.4787651,0 L13.5341975,0 C12.6346458,0.0021495204 11.8045108,0.508460485 11.3564728,1.32822481 C11.1259339,1.73659506 11.0029035,2.20206116 11,2.67688378 L11,5.31630479 C11,6.79778628 12.1342316,8 13.5341975,8 L27.4722838,8 C28.8657684,8 30,6.79778628 30,5.31630479 L30,2.67688378 C29.9987556,2.20335055 29.8767808,1.73882016 29.6467679,1.33163052" id="形状"></path>
                </g>
            </g>
        </g>
    </g>
</svg>