<?xml version="1.0" encoding="UTF-8"?>
<svg width="56px" height="42px" viewBox="0 0 56 42" version="1.1" xmlns="http://www.w3.org/2000/svg" xmlns:xlink="http://www.w3.org/1999/xlink">
    <title>系统管理</title>
    <g id="页面-1" stroke="none" stroke-width="1" fill="none" fill-rule="evenodd">
        <g id="产品-金融量化" transform="translate(-1001, -644)" fill="#3049B1" fill-rule="nonzero">
            <g id="系统管理" transform="translate(1001, 644)">
                <path d="M10.9082443,42 L10.9082443,38.2501294 L21.0884689,38.2501294 L21.0884689,33.0001991 L29.0895645,33.0001991 L29.0895645,38.244555 L39.2752671,38.244555 L39.2752671,41.9944256 L10.9082443,42 L10.9082443,42 Z M45.050671,39.000438 L45.050671,36.6870794 C44.4594654,36.5346743 43.8905361,36.3037723 43.3585319,36.0003185 L41.7841687,37.602389 L39.1662558,34.90217 L40.6902219,33.3329883 C40.3637934,32.7684226 40.1100908,32.1634713 39.9353602,31.5330281 L37.8186798,31.5330281 L37.8186798,27.7229544 L39.882224,27.7229544 C40.0394412,27.0646227 40.2897836,26.433048 40.6250342,25.8482978 L39.1509176,24.3482381 L41.7688305,21.6480191 L43.2429471,23.1480788 C43.802246,22.8035835 44.4097508,22.5466056 45.0440975,22.3860641 L45.0440975,20.238264 L48.7614352,20.238264 L48.7614352,22.4250846 C49.3735764,22.6067535 49.960164,22.8679254 50.5067105,23.2021501 L52.0306765,21.6391001 L54.6485894,24.3387617 L53.080252,25.946964 C53.3804437,26.5038423 53.6066831,27.0991838 53.7523966,27.7168226 L56,27.7168226 L56,31.5268963 L53.7239113,31.5268963 C53.5605091,32.1185988 53.3268888,32.6878447 53.0282114,33.2220585 L54.6557108,34.8988254 L52.0377979,37.5990444 L50.4102985,35.9222775 C49.8964667,36.2333267 49.3442892,36.4730241 48.7680088,36.6363528 L48.7680088,38.9943062 L45.050671,39.000438 L45.050671,39.000438 Z M42.5329676,29.62827 C42.5231443,32.1043998 44.4809641,34.1228748 46.9137223,34.1462871 C49.3431936,34.1184153 51.2960833,32.1004977 51.2862601,29.62827 C51.2960833,27.1554848 49.3437414,25.1381246 46.9137223,25.1102528 C44.4798685,25.13478 42.5225965,27.1571571 42.5357436,29.6344018 L42.5329676,29.62827 L42.5329676,29.62827 Z M0,33.0001991 L0,0 L49.4582306,0 L49.4582306,18.024129 C49.189811,18.024129 48.9159134,17.9973721 48.6447549,17.9973721 C47.8986579,17.9990444 47.1542043,18.0631495 46.4190633,18.18913 L46.4190633,3.14393789 L3.02492468,3.14393789 L3.02492468,29.8651802 L35.4543961,29.8651802 C35.3842783,30.4053355 35.3519584,30.9493928 35.3568885,31.4940076 C35.3563407,31.9951423 35.3820871,32.4957197 35.4335798,32.9940673 L0,33.0001991 L0,33.0001991 Z M6.08490824,26.7212423 L6.08490824,6.28508859 L43.3700356,6.28508859 L43.3700356,19.1072268 C40.0783924,20.5629134 37.5014847,23.3061284 36.2207614,26.7178977 L6.08490824,26.7212423 L6.08490824,26.7212423 Z" id="形状"></path>
            </g>
        </g>
    </g>
</svg>