<?xml version="1.0" encoding="UTF-8"?>
<svg width="33px" height="35px" viewBox="0 0 33 35" version="1.1" xmlns="http://www.w3.org/2000/svg" xmlns:xlink="http://www.w3.org/1999/xlink">
    <title>储存_lm</title>
    <g id="页面-2" stroke="none" stroke-width="1" fill="none" fill-rule="evenodd">
        <g id="解决方案-国产信创" transform="translate(-476, -1168)" fill="#E8037D" fill-rule="nonzero">
            <g id="编组-5" transform="translate(352, 1058)">
                <g id="1" transform="translate(0, 75)">
                    <g id="储存_lm" transform="translate(124, 35)">
                        <path d="M27.4922594,22.9687185 C30.4891463,22.9618155 32.9386486,25.5839645 32.9988687,28.8634602 C33.0590887,32.142956 30.7078246,34.8707117 27.7131039,34.9955978 L27.4922594,34.9999864 L5.50774062,34.9999864 C2.5108537,35.0068894 0.0613513981,32.3847404 0.00113133602,29.1052447 C-0.0590887261,25.8257489 2.29217542,23.0979932 5.28689612,22.9731071 L5.50774062,22.9687185 L27.4922594,22.9687185 Z M27.4922594,26.2499713 L5.50774062,26.2499713 C4.15755918,26.2463841 3.04907357,27.4176073 3.00476703,28.8946155 C2.96046049,30.3716237 3.99636693,31.6199082 5.34385601,31.7132566 L5.50774062,31.7187336 L27.4922594,31.7187336 C28.8424408,31.7223208 29.9509264,30.5510976 29.995233,29.0740894 C30.0395395,27.5970812 29.0036331,26.3487967 27.656144,26.2554483 L27.4922594,26.2499713 Z M27.4922594,9.84372869 C30.4891463,9.8368257 32.9386486,12.4589747 32.9988687,15.7384704 C33.0590887,19.0179662 30.7078246,21.7457219 27.7131039,21.870608 L27.4922594,21.8749966 L5.50774062,21.8749966 C2.5108537,21.8818996 0.0613513981,19.2597506 0.00113133602,15.9802549 C-0.0590887261,12.7007591 2.29217542,9.9730034 5.28689612,9.84811733 L5.50774062,9.84372869 L27.4922594,9.84372869 Z M27.4922594,13.1249815 L5.50774062,13.1249815 C4.15755918,13.1213943 3.04907357,14.2926175 3.00476703,15.7696257 C2.96046049,17.2466339 3.99636693,18.4949184 5.34385601,18.5882668 L5.50774062,18.5937438 L27.4922594,18.5937438 C28.8424408,18.597331 29.9509264,17.4261078 29.995233,15.9490996 C30.0395395,14.4720914 29.0036331,13.2238069 27.656144,13.1304585 L27.4922594,13.1249815 Z" id="形状"></path>
                        <path d="M24.0886562,0 C25.5646168,0 26.9216612,0.971249245 27.6161721,2.52656054 L31.7552574,11.7960846 C31.9491209,12.230303 32.0180724,12.6885839 31.9850956,13.1249898 L1.0099079,13.1249898 C0.977930404,12.6874902 1.04688185,12.230303 1.23974607,11.7960846 L5.37983067,2.52765427 C6.07434162,0.971249245 7.4303867,0 8.90734666,0 L24.0886562,0 Z M24.0886562,3.28124745 L8.90634733,3.28124745 C8.63553805,3.28124745 8.34674138,3.46609104 8.14488354,3.82484074 L8.07293421,3.96702817 L5.44778284,9.84374235 L27.5462214,9.84374235 L24.9220693,3.9681219 C24.742196,3.56562219 24.4643916,3.33593487 24.1905844,3.28999741 L24.0886562,3.28124745 Z" id="形状"></path>
                        <path d="M6.00738874,15.3124881 L10.004574,15.3124881 C10.6707715,15.3124881 11.0038703,15.6770711 11.0038703,16.4062372 L11.0038703,16.4062372 C11.0038703,17.1354033 10.6707715,17.4999864 10.004574,17.4999864 L6.00738874,17.4999864 C5.34119121,17.4999864 5.00809245,17.1354033 5.00809245,16.4062372 L5.00809245,16.4062372 C5.00809245,15.6770712 5.34119121,15.3124881 6.00738874,15.3124881 Z" id="路径"></path>
                        <path d="M6.00738874,28.4374779 L10.004574,28.4374779 C10.6707715,28.4374779 11.0038703,28.8020609 11.0038703,29.531227 L11.0038703,29.531227 C11.0038703,30.2603931 10.6707715,30.6249762 10.004574,30.6249762 L6.00738874,30.6249762 C5.34119121,30.6249762 5.00809245,30.2603931 5.00809245,29.531227 L5.00809245,29.531227 C5.00809245,28.8020609 5.34119121,28.4374779 6.00738874,28.4374779 Z" id="路径"></path>
                    </g>
                </g>
            </g>
        </g>
    </g>
</svg>