<?xml version="1.0" encoding="UTF-8"?>
<svg width="30px" height="34px" viewBox="0 0 30 34" version="1.1" xmlns="http://www.w3.org/2000/svg" xmlns:xlink="http://www.w3.org/1999/xlink">
    <title>系统参数</title>
    <g id="页面-2" stroke="none" stroke-width="1" fill="none" fill-rule="evenodd">
        <g id="解决方案-国产信创" transform="translate(-786, -1161)" fill="#E8037D" fill-rule="nonzero">
            <g id="编组-5" transform="translate(352, 1058)">
                <g id="1备份" transform="translate(312, 75)">
                    <g id="系统参数" transform="translate(122, 28)">
                        <path d="M27.7508269,0 L2.2491731,0 C1.00551268,0 0,1.01626813 0,2.26577813 L0,31.7342219 C0,32.9870639 1.00882029,34 2.2491731,34 L27.7508269,34 C28.9944873,34 30,32.9837319 30,31.7342219 L30,2.26577813 C30,1.0129361 28.9944873,0 27.7508269,0 L27.7508269,0 Z M12,14.0516358 C12,15.3570413 11.2043116,16.4923186 10.055365,17.0386913 L10.055365,27.6095306 C10.055365,28.3783784 9.40372366,29 8.5977462,29 L8.4022538,29 C7.59627634,29 6.94463498,28.3783784 6.94463498,27.6095306 L6.94463498,17.0386913 C5.79568839,16.4890469 5,15.3537696 5,14.0516358 L5,12.3830725 C5,11.0776671 5.79568839,9.94238976 6.94463498,9.39601707 L6.94463498,7.39046942 C6.94463498,6.62162162 7.59627634,6 8.4022538,6 L8.5977462,6 C9.40372366,6 10.055365,6.62162162 10.055365,7.39046942 L10.055365,9.39274538 C11.2043116,9.94238976 12,11.0776671 12,12.3798009 L12,14.0516358 Z M25,22.6201991 C25,23.9256046 24.2043116,25.0608819 23.055365,25.6072546 L23.055365,27.6095306 C23.055365,28.3783784 22.4037237,29 21.5977462,29 L21.4022538,29 C20.5962763,29 19.944635,28.3783784 19.944635,27.6095306 L19.944635,25.6072546 C18.7956884,25.0576102 18,23.9223329 18,22.6201991 L18,20.9516358 C18,19.6462304 18.7956884,18.5109531 19.944635,17.9645804 L19.944635,7.39046942 C19.944635,6.62162162 20.5962763,6 21.4022538,6 L21.5977462,6 C22.4037237,6 23.055365,6.62162162 23.055365,7.39046942 L23.055365,17.9613087 C24.2043116,18.5109531 25,19.6462304 25,20.9483642 L25,22.6201991 Z" id="形状"></path>
                    </g>
                </g>
            </g>
        </g>
    </g>
</svg>