<?xml version="1.0" encoding="UTF-8"?>
<svg width="33px" height="33px" viewBox="0 0 33 33" version="1.1" xmlns="http://www.w3.org/2000/svg" xmlns:xlink="http://www.w3.org/1999/xlink">
    <title>占比</title>
    <g id="页面-2" stroke="none" stroke-width="1" fill="none" fill-rule="evenodd">
        <g id="解决方案-国产信创" transform="translate(-1109, -1161)" fill="#E8037D" fill-rule="nonzero">
            <g id="编组-5" transform="translate(352, 1058)">
                <g id="1备份-2" transform="translate(624, 75)">
                    <g id="占比" transform="translate(133, 28)">
                        <path d="M30.3081124,17.8944702 L16.1798175,17.8944702 C15.7951034,17.8944702 15.4855633,17.5809225 15.4855633,17.2011323 L15.4855633,2.69403098 C15.4855633,2.30540848 15.1583352,1.98302845 14.773621,2.00069311 C5.96499394,2.42022876 -0.924484462,10.1750142 0.101419896,19.2855621 C0.888536171,26.3337612 6.60618417,32.0703592 13.6636986,32.8917659 C22.6801598,33.9383969 30.3700205,27.2611558 30.9979447,18.6275536 C31.0288987,18.2300987 30.7060926,17.8944702 30.3081124,17.8944702 Z" id="路径"></path>
                        <path d="M18.6818182,0.00186608238 C18.1747159,-0.0314631041 18,0.389317875 18,0.651785219 L18,14.3500809 C18,14.7083696 18.2982955,15 18.6647727,15 L32.3224432,15 C32.7997159,15 33,14.7292004 33,14.3375824 C32.8508523,6.60104501 26.5525568,0.330991799 18.6818182,0.00186608238 Z" id="路径"></path>
                    </g>
                </g>
            </g>
        </g>
    </g>
</svg>