<?xml version="1.0" encoding="UTF-8"?>
<svg width="31px" height="33px" viewBox="0 0 31 33" version="1.1" xmlns="http://www.w3.org/2000/svg" xmlns:xlink="http://www.w3.org/1999/xlink">
    <title>加密 (2)</title>
    <g id="页面-2" stroke="none" stroke-width="1" fill="none" fill-rule="evenodd">
        <g id="解决方案-国产信创" transform="translate(-1415, -1161)" fill="#E8037D" fill-rule="nonzero">
            <g id="编组-5" transform="translate(352, 1058)">
                <g id="1备份-3" transform="translate(936, 75)">
                    <g id="加密-(2)" transform="translate(127, 28)">
                        <path d="M15.9741427,16.5 C14.3491033,16.5 13.0267856,17.8652924 13.0267856,19.5412272 C13.0267856,20.5958773 13.544941,21.5584851 14.4122477,22.120326 L14.9341175,22.457814 L14.9341175,24.8547459 C14.9341175,25.4472675 15.4002717,25.9285714 15.9741427,25.9285714 C16.5461566,25.9285714 17.0123107,25.4472675 17.0123107,24.8547459 L17.0123107,22.457814 L17.5341805,22.120326 C18.4014873,21.5584851 18.9196427,20.5939597 18.9196427,19.5412272 C18.9196427,17.8633749 17.5991821,16.5 15.9741427,16.5 L15.9741427,16.5 Z" id="路径"></path>
                        <path d="M25.8099411,9.95138931 L25.5699622,9.95138931 C25.5557261,4.46180153 21.0449351,0 15.5010142,0 C9.95912707,0 5.44833601,4.46180153 5.43206625,9.95138931 L5.19208728,9.95138931 C2.32860945,9.95138931 0,12.2588702 0,15.0963664 L0,27.8550229 C0,30.6925191 2.32860945,33 5.19208728,33 L25.8079074,33 C28.6713852,33 31,30.6925191 31,27.8550229 L31,15.0983817 C31.0040621,12.2608855 28.6734189,9.95138931 25.8099411,9.95138931 Z M18.9712953,23.4640612 L18.9712953,24.6329598 C18.9712953,26.4886581 17.4142447,28 15.5,28 C13.5857553,28 12.0267313,26.4905712 12.0267313,24.6329598 L12.0267313,23.4640612 C10.7479368,22.4558623 10,20.9540858 10,19.3298715 C10,16.3913638 12.4668102,14 15.5,14 C18.5331898,14 21,16.3913638 21,19.3298715 C20.9980266,20.9540858 20.2520632,22.4577753 18.9712953,23.4640612 Z M8,9 C8.01399627,5.13857678 11.3731005,2 15.5,2 C19.6268995,2 22.9840043,5.13857678 23,9 L8,9 Z" id="形状"></path>
                    </g>
                </g>
            </g>
        </g>
    </g>
</svg>